<?xml version="1.0" encoding="UTF-8"?>
<!DOCTYPE svg PUBLIC "-//W3C//DTD SVG 1.1//EN" "http://www.w3.org/Graphics/SVG/1.1/DTD/svg11.dtd">
<!-- Creator: CorelDRAW X7 -->
<svg xmlns="http://www.w3.org/2000/svg" xml:space="preserve" width="1.77778in" height="1.77778in" version="1.1" style="shape-rendering:geometricPrecision; text-rendering:geometricPrecision; image-rendering:optimizeQuality; fill-rule:evenodd; clip-rule:evenodd"
viewBox="0 0 1778 1778"
 xmlns:xlink="http://www.w3.org/1999/xlink">
 <defs>
  <style type="text/css">
   <![CDATA[
    .str0 {stroke:white;stroke-width:6.94094}
    .fil4 {fill:#C9C9C9}
    .fil6 {fill:#373435;fill-rule:nonzero}
    .fil9 {fill:black;fill-rule:nonzero}
    .fil7 {fill:#373435;fill-rule:nonzero}
    .fil8 {fill:#4D4D4D;fill-rule:nonzero}
    .fil5 {fill:url(#id0)}
    .fil0 {fill:url(#id1)}
    .fil1 {fill:url(#id2)}
    .fil3 {fill:url(#id3)}
    .fil2 {fill:url(#id4)}
   ]]>
  </style>
  <radialGradient id="id0" gradientUnits="userSpaceOnUse" gradientTransform="matrix(0.975383 -0 -0 0.975398 28 8)" cx="1141.91" cy="344.858" r="395.067" fx="1141.91" fy="344.858">
   <stop offset="0" style="stop-opacity:1; stop-color:#FEFEFE"/>
   <stop offset="1" style="stop-opacity:1; stop-color:#727376"/>
  </radialGradient>
  <radialGradient id="id1" gradientUnits="userSpaceOnUse" gradientTransform="matrix(1.83296 -0 -0 1.83297 -1295 -671)" cx="1554.54" cy="805.201" r="467.634" fx="1554.54" fy="805.201">
   <stop offset="0" style="stop-opacity:1; stop-color:#FEFEFE"/>
   <stop offset="0.619608" style="stop-opacity:1; stop-color:#B8B8BA"/>
   <stop offset="1" style="stop-opacity:1; stop-color:#727376"/>
  </radialGradient>
  <radialGradient id="id2" gradientUnits="userSpaceOnUse" gradientTransform="matrix(0.992927 -0 -0 1.48554 6 -477)" cx="853.075" cy="982.976" r="406.492" fx="853.075" fy="982.976">
   <stop offset="0" style="stop-opacity:1; stop-color:white"/>
   <stop offset="0.74902" style="stop-opacity:1; stop-color:#0098D3"/>
   <stop offset="0.12549" style="stop-opacity:1; stop-color:#80B4CC"/>
   <stop offset="1" style="stop-opacity:1; stop-color:#026999"/>
  </radialGradient>
  <radialGradient id="id3" gradientUnits="userSpaceOnUse" gradientTransform="matrix(1.88321 -0 -0 1.88322 -805 -1365)" cx="911.992" cy="1545.37" r="1269.45" fx="911.992" fy="1545.37">
   <stop offset="0" style="stop-opacity:1; stop-color:#FEFEFE"/>
   <stop offset="0.368627" style="stop-opacity:1; stop-color:#A9ABAE"/>
   <stop offset="1" style="stop-opacity:1; stop-color:#757576"/>
  </radialGradient>
  <radialGradient id="id4" gradientUnits="userSpaceOnUse" gradientTransform="matrix(1.0762 -0 -0 1.07619 -62 -71)" cx="810.646" cy="936.201" r="557.083" fx="810.646" fy="936.201">
   <stop offset="0" style="stop-opacity:1; stop-color:white"/>
   <stop offset="0.760784" style="stop-opacity:1; stop-color:#FFDF57"/>
   <stop offset="0.117647" style="stop-opacity:1; stop-color:#EBCC9C"/>
   <stop offset="1" style="stop-opacity:1; stop-color:#D79939"/>
  </radialGradient>
 </defs>
 <g id="Layer_x0020_1">
  <metadata id="CorelCorpID_0Corel-Layer"/>
  <path class="fil0" d="M1140 132c320,118 548,426 548,785 0,461 -376,837 -836,837 -85,1 -149,-12 -179,-20l49 -227c-35,-8 -69,-19 -103,-33 -307,-128 -453,-483 -325,-790 111,-265 392,-410 664,-361l-14 69 4 -1 -1 3 3 0 1 -4 183 -47 189 -50 -152 -134 -31 -27zm-990 1240c-2,-3 -5,-7 -7,-11 2,4 5,8 7,11zm-8 -13c-69,-110 -113,-236 -124,-372 12,132 54,260 124,372zm383 -1212c2,0 4,-1 6,-2l-6 2zm15 -6c4,-1 8,-3 12,-5 -4,2 -8,4 -12,5zm14 -5c56,-22 116,-38 177,-47 -61,9 -120,25 -177,47z"/>
  <path class="fil1" d="M852 313c44,0 87,5 128,14l-249 1182c-275,-56 -483,-300 -483,-592 0,-332 271,-604 604,-604zm128 14c98,22 101,22 0,0z"/>
  <path class="fil2" d="M980 327c271,60 475,302 475,590 0,333 -271,604 -603,604 -42,0 -82,-4 -121,-12l249 -1182z"/>
  <path class="fil3" d="M852 313c332,0 603,272 603,604 0,333 -271,604 -603,604 -333,0 -604,-271 -604,-604 0,-332 271,-604 604,-604zm0 40c311,0 564,253 564,564 0,311 -253,565 -564,565 -311,0 -565,-254 -565,-565 0,-311 254,-564 565,-564z"/>
  <path class="fil4" d="M958 323c-272,-49 -553,96 -664,361 -128,307 18,662 325,790 34,14 68,25 103,33l-49 227c-48,-10 -96,-25 -144,-45 -425,-177 -627,-669 -450,-1094 154,-370 546,-571 926,-500l14 -70 152 134 152 134 -189 50 -183 47 -1 4 -3 0 1 -3 -4 1 14 -69z"/>
  <polygon class="fil5" points="1322,292 1301,333 963,427 946,389 "/>
  <path class="fil6" d="M346 1391l13 -10c16,-13 23,-36 2,-63 -20,-24 -43,-27 -67,-8 -15,12 -20,22 -21,34 -1,12 2,24 3,41 1,9 0,16 -8,21 -6,3 -12,2 -16,-4 -7,-10 3,-18 10,-24l-21 -27c-24,17 -31,44 -11,69 18,23 41,27 64,9 11,-9 16,-18 18,-28 2,-10 1,-22 -1,-35 -1,-11 -4,-23 6,-31 7,-5 15,-7 21,0 7,9 2,16 -5,22l-9 7 22 27zm-78 -209l-27 16 25 44 -30 17 -23 -40 -27 15 23 41 -25 14 -24 -41 -28 15 43 74 137 -79 -44 -76zm-148 -28c-5,-18 -6,-25 12,-31 9,-2 19,-3 22,8l4 12 -38 11zm65 -19l-3 -12c-2,-8 3,-13 12,-16 9,-4 22,-7 35,-11 3,-1 6,-3 9,-5l-11 -39 -3 1c0,2 -2,4 -4,5 -9,5 -35,12 -47,17 -10,3 -15,13 -15,23l0 0c-11,-13 -24,-13 -40,-9 -30,9 -38,27 -30,56l15 52 152 -43 -10 -36 -60 17zm30 -179l-161 -22 3 37 112 10 0 1 -109 27 3 37 155 -46 -3 -44zm1 -98l-157 -12 -3 37 158 12 2 -37zm-75 -154l-13 -3c-32,-7 -49,8 -56,39 -8,33 4,52 38,60l63 15c31,7 52,-2 60,-35 8,-37 -7,-57 -33,-63l-19 -4 -8 36 13 3c10,2 22,6 20,19 -3,9 -9,12 -17,10l-76 -18c-10,-3 -16,-7 -13,-18 1,-7 9,-10 22,-7l10 2 9 -36zm147 -87l-29 -13 -21 46 -31 -14 19 -42 -29 -13 -19 42 -26 -12 20 -44 -29 -13 -35 78 144 65 36 -80zm64 -94l-21 -23 20 -22 26 16 25 -29 -142 -77 -30 34 97 129 25 -28zm-25 -61l-14 16 -47 -54 1 -1 60 39zm42 -138c14,-12 21,-16 32,-1 6,8 10,17 2,24l-10 8 -24 -31zm42 53l9 -8c7,-4 14,-1 20,6 7,7 15,17 24,28 2,2 4,4 7,6l32 -25 -1 -2c-3,0 -5,-1 -7,-2 -8,-7 -25,-28 -33,-37 -7,-8 -18,-10 -27,-5l-1 0c8,-16 4,-28 -6,-41 -20,-25 -39,-25 -63,-6l-43 34 98 124 29 -23 -38 -49zm193 -45l-14 -29 -45 23 -16 -30 42 -21 -15 -28 -41 21 -13 -26 42 -22 -14 -28 -76 39 72 141 78 -40zm59 -19l-4 -31 28 -8 13 28 36 -10 -76 -143 -43 13 10 161 36 -10zm13 -65l-21 6 -9 -71 0 0 30 65z"/>
  <path class="fil7 str0" d="M346 1391l13 -10c16,-13 23,-36 2,-63 -20,-24 -43,-27 -67,-8 -15,12 -20,22 -21,34 -1,12 2,24 3,41 1,9 0,16 -8,21 -6,3 -12,2 -16,-4 -7,-10 3,-18 10,-24l-21 -27c-24,17 -31,44 -11,69 18,23 41,27 64,9 11,-9 16,-18 18,-28 2,-10 1,-22 -1,-35 -1,-11 -4,-23 6,-31 7,-5 15,-7 21,0 7,9 2,16 -5,22l-9 7 22 27zm-78 -209l-27 16 25 44 -30 17 -23 -40 -27 15 23 41 -25 14 -24 -41 -28 15 43 74 137 -79 -44 -76zm-148 -28c-5,-18 -6,-25 12,-31 9,-2 19,-3 22,8l4 12 -38 11zm65 -19l-3 -12c-2,-8 3,-13 12,-16 9,-4 22,-7 35,-11 3,-1 6,-3 9,-5l-11 -39 -3 1c0,2 -2,4 -4,5 -9,5 -35,12 -47,17 -10,3 -15,13 -15,23l0 0c-11,-13 -24,-13 -40,-9 -30,9 -38,27 -30,56l15 52 152 -43 -10 -36 -60 17zm30 -179l-161 -22 3 37 112 10 0 1 -109 27 3 37 155 -46 -3 -44zm1 -98l-157 -12 -3 37 158 12 2 -37zm-75 -154l-13 -3c-32,-7 -49,8 -56,39 -8,33 4,52 38,60l63 15c31,7 52,-2 60,-35 8,-37 -7,-57 -33,-63l-19 -4 -8 36 13 3c10,2 22,6 20,19 -3,9 -9,12 -17,10l-76 -18c-10,-3 -16,-7 -13,-18 1,-7 9,-10 22,-7l10 2 9 -36zm147 -87l-29 -13 -21 46 -31 -14 19 -42 -29 -13 -19 42 -26 -12 20 -44 -29 -13 -35 78 144 65 36 -80zm64 -94l-21 -23 20 -22 26 16 25 -29 -142 -77 -30 34 97 129 25 -28zm-25 -61l-14 16 -47 -54 1 -1 60 39zm42 -138c14,-12 21,-16 32,-1 6,8 10,17 2,24l-10 8 -24 -31zm42 53l9 -8c7,-4 14,-1 20,6 7,7 15,17 24,28 2,2 4,4 7,6l32 -25 -1 -2c-3,0 -5,-1 -7,-2 -8,-7 -25,-28 -33,-37 -7,-8 -18,-10 -27,-5l-1 0c8,-16 4,-28 -6,-41 -20,-25 -39,-25 -63,-6l-43 34 98 124 29 -23 -38 -49zm193 -45l-14 -29 -45 23 -16 -30 42 -21 -15 -28 -41 21 -13 -26 42 -22 -14 -28 -76 39 72 141 78 -40zm59 -19l-4 -31 28 -8 13 28 36 -10 -76 -143 -43 13 10 161 36 -10zm13 -65l-21 6 -9 -71 0 0 30 65z"/>
  <path class="fil8" d="M346 1391l13 -10c16,-13 23,-36 2,-63 -20,-24 -43,-27 -67,-8 -15,12 -20,22 -21,34 -1,12 2,24 3,41 1,9 0,16 -8,21 -6,3 -12,2 -16,-4 -7,-10 3,-18 10,-24l-21 -27c-24,17 -31,44 -11,69 18,23 41,27 64,9 11,-9 16,-18 18,-28 2,-10 1,-22 -1,-35 -1,-11 -4,-23 6,-31 7,-5 15,-7 21,0 7,9 2,16 -5,22l-9 7 22 27zm-78 -209l-27 16 25 44 -30 17 -23 -40 -27 15 23 41 -25 14 -24 -41 -28 15 43 74 137 -79 -44 -76zm-148 -28c-5,-18 -6,-25 12,-31 9,-2 19,-3 22,8l4 12 -38 11zm65 -19l-3 -12c-2,-8 3,-13 12,-16 9,-4 22,-7 35,-11 3,-1 6,-3 9,-5l-11 -39 -3 1c0,2 -2,4 -4,5 -9,5 -35,12 -47,17 -10,3 -15,13 -15,23l0 0c-11,-13 -24,-13 -40,-9 -30,9 -38,27 -30,56l15 52 152 -43 -10 -36 -60 17zm30 -179l-161 -22 3 37 112 10 0 1 -109 27 3 37 155 -46 -3 -44zm1 -98l-157 -12 -3 37 158 12 2 -37zm-75 -154l-13 -3c-32,-7 -49,8 -56,39 -8,33 4,52 38,60l63 15c31,7 52,-2 60,-35 8,-37 -7,-57 -33,-63l-19 -4 -8 36 13 3c10,2 22,6 20,19 -3,9 -9,12 -17,10l-76 -18c-10,-3 -16,-7 -13,-18 1,-7 9,-10 22,-7l10 2 9 -36zm147 -87l-29 -13 -21 46 -31 -14 19 -42 -29 -13 -19 42 -26 -12 20 -44 -29 -13 -35 78 144 65 36 -80zm64 -94l-21 -23 20 -22 26 16 25 -29 -142 -77 -30 34 97 129 25 -28zm-25 -61l-14 16 -47 -54 1 -1 60 39zm42 -138c14,-12 21,-16 32,-1 6,8 10,17 2,24l-10 8 -24 -31zm42 53l9 -8c7,-4 14,-1 20,6 7,7 15,17 24,28 2,2 4,4 7,6l32 -25 -1 -2c-3,0 -5,-1 -7,-2 -8,-7 -25,-28 -33,-37 -7,-8 -18,-10 -27,-5l-1 0c8,-16 4,-28 -6,-41 -20,-25 -39,-25 -63,-6l-43 34 98 124 29 -23 -38 -49zm193 -45l-14 -29 -45 23 -16 -30 42 -21 -15 -28 -41 21 -13 -26 42 -22 -14 -28 -76 39 72 141 78 -40zm59 -19l-4 -31 28 -8 13 28 36 -10 -76 -143 -43 13 10 161 36 -10zm13 -65l-21 6 -9 -71 0 0 30 65z"/>
  <path class="fil9" d="M522 874l26 -121 -71 0 -9 40 19 0 -4 17c-3,15 -6,29 -24,29 -14,0 -18,-7 -15,-20l23 -110c3,-15 9,-24 25,-23 14,0 15,9 11,28l-3 13 52 0 4 -17c9,-46 -13,-65 -58,-65 -47,0 -75,23 -85,71l-19 92c-9,41 -1,71 43,71 23,0 36,-6 51,-25l0 0 -2 20 36 0z"/>
  <path id="1" class="fil9" d="M583 707l-35 167 47 0 22 -103c4,-13 10,-16 23,-16 5,0 9,0 14,1l11 -54c-19,0 -33,13 -43,31l0 0 5 -26 -44 0z"/>
  <path id="2" class="fil9" d="M716 767l2 -11c2,-12 8,-22 21,-22 13,0 14,11 13,17l-4 16 -32 0zm73 31l10 -47c8,-36 -20,-49 -53,-49 -37,1 -67,15 -76,58l-15 67c-8,38 19,52 53,52 41,0 69,-20 75,-63l-47 0c-3,14 -5,30 -22,29 -11,-1 -13,-8 -11,-18l6 -29 80 0z"/>
  <path id="3" class="fil9" d="M884 819c-2,11 -9,25 -22,25 -12,0 -16,-7 -14,-17 2,-12 8,-18 15,-22 7,-4 16,-7 27,-12l-6 26zm-6 55l46 0c-1,-6 -2,-12 0,-19l21 -102c8,-36 -6,-51 -52,-51 -39,0 -70,16 -77,58l48 0c4,-14 6,-26 23,-26 10,0 14,8 12,17 -4,18 -25,20 -47,27 -22,7 -45,19 -53,57 -6,26 7,44 33,44 19,0 31,-7 45,-20l1 15z"/>
  <path id="4" class="fil9" d="M982 741l-20 97c-6,25 5,38 31,38 10,0 21,-1 31,-3l7 -33c-5,0 -7,0 -12,1 -7,0 -10,-2 -8,-12l18 -88 23 0 7 -34 -22 0 10 -47 -47 0 -11 47 -18 0 -8 34 19 0z"/>
  <path id="5" class="fil9" d="M1112 767l2 -11c3,-12 8,-22 22,-22 12,0 14,11 12,17l-3 16 -33 0zm73 31l11 -47c7,-36 -21,-49 -54,-49 -37,1 -67,15 -76,58l-14 67c-8,38 19,52 53,52 41,0 68,-20 75,-63l-47 0c-4,14 -6,30 -23,29 -10,-1 -13,-8 -11,-18l6 -29 80 0z"/>
  <path id="6" class="fil9" d="M1227 707l-35 167 47 0 22 -103c4,-13 10,-16 23,-16 5,0 10,0 14,1l12 -54c-20,0 -34,13 -43,31l-1 0 5 -26 -44 0z"/>
  <polygon id="7" class="fil9" points="414,969 455,969 417,1148 470,1148 508,969 550,969 559,925 424,925 "/>
  <path id="8" class="fil9" d="M519 1101c-8,39 17,52 51,52 36,0 62,-14 73,-52l14 -67c8,-38 -8,-57 -50,-57 -36,0 -65,14 -74,57l-14 67zm62 -71c3,-11 8,-19 19,-19 11,0 13,8 11,19l-16 74c-3,10 -8,15 -18,15 -10,0 -13,-5 -11,-15l15 -74z"/>
  <path id="9" class="fil9" d="M693 981l-35 167 47 0 22 -103c4,-13 10,-16 23,-16 5,0 9,0 14,1l11 -53c-19,0 -33,12 -43,30l0 0 5 -26 -44 0z"/>
  <path id="10" class="fil9" d="M767 1101c-8,39 17,52 51,52 36,0 62,-14 72,-52l15 -67c8,-38 -8,-57 -50,-57 -37,0 -65,14 -74,57l-14 67zm62 -71c2,-11 8,-19 19,-19 11,0 13,8 10,19l-15 74c-3,10 -8,15 -18,15 -10,0 -13,-5 -12,-15l16 -74z"/>
  <path id="11" class="fil9" d="M943 981l-35 167 47 0 25 -119c2,-9 7,-13 16,-14 9,0 11,6 10,14l-26 119 47 0 29 -137c5,-22 -12,-34 -34,-34 -15,0 -32,12 -39,25l0 0 4 -21 -44 0z"/>
  <path id="12" class="fil9" d="M1092 1016l-20 96c-6,25 6,38 31,38 11,0 21,-1 31,-2l7 -34c-5,0 -7,0 -12,1 -6,0 -10,-2 -8,-12l18 -87 23 0 7 -35 -22 0 10 -47 -47 0 -11 47 -18 0 -8 35 19 0z"/>
  <path id="13" class="fil9" d="M1163 1101c-8,39 17,52 51,52 36,0 62,-14 73,-52l14 -67c8,-38 -8,-57 -49,-57 -37,0 -65,14 -74,57l-15 67zm63 -71c2,-11 7,-19 18,-19 11,0 13,8 11,19l-16 74c-3,10 -8,15 -18,15 -10,0 -12,-5 -11,-15l16 -74z"/>
 </g>
</svg>
