<?xml version="1.0" encoding="UTF-8"?>
<!DOCTYPE svg PUBLIC "-//W3C//DTD SVG 1.1//EN" "http://www.w3.org/Graphics/SVG/1.1/DTD/svg11.dtd">
<!-- Creator: CorelDRAW X7 -->
<svg xmlns="http://www.w3.org/2000/svg" xml:space="preserve" width="1.76389in" height="1.73611in" version="1.1" style="shape-rendering:geometricPrecision; text-rendering:geometricPrecision; image-rendering:optimizeQuality; fill-rule:evenodd; clip-rule:evenodd"
viewBox="0 0 1764 1736"
 xmlns:xlink="http://www.w3.org/1999/xlink">
 <defs>
  <style type="text/css">
   <![CDATA[
    .str0 {stroke:#666666;stroke-width:27.7756}
    .fil3 {fill:none}
    .fil2 {fill:#373435}
    .fil0 {fill:#53A8DD}
    .fil1 {fill:#4D4D4D}
    .fil5 {fill:#FEFEFE;fill-rule:nonzero}
    .fil4 {fill:#373435;fill-rule:nonzero}
   ]]>
  </style>
   <clipPath id="id0">
    <path d="M883 205c364,0 659,295 659,659 0,363 -295,659 -659,659 -364,0 -659,-296 -659,-659 0,-364 295,-659 659,-659z"/>
   </clipPath>
 </defs>
 <g id="Layer_x0020_1">
  <metadata id="CorelCorpID_0Corel-Layer"/>
  <path class="fil0" d="M883 205c364,0 659,295 659,659 0,363 -295,659 -659,659 -364,0 -659,-296 -659,-659 0,-364 295,-659 659,-659z"/>
  <g style="clip-path:url(#id0)">
   <g id="_696275896">
    <polygon id="1" class="fil1" points="17,523 884,643 1749,523 1749,1204 875,1084 17,1204 "/>
    <polygon class="fil2" points="1749,863 1749,1204 875,1084 17,1204 17,863 "/>
   </g>
  </g>
  <path class="fil3 str0" d="M883 205c364,0 659,295 659,659 0,363 -295,659 -659,659 -364,0 -659,-296 -659,-659 0,-364 295,-659 659,-659z"/>
  <path class="fil0" d="M883 88c56,0 94,-77 148,-67 55,9 64,95 117,114 52,19 114,-40 162,-13 48,28 28,111 71,147 43,36 121,2 157,44 36,43 -12,114 16,163 28,48 114,43 133,95 19,52 -50,103 -41,158 10,55 92,79 92,135 0,55 -82,79 -92,134 -9,55 60,106 41,158 -19,52 -105,47 -133,95 -28,49 20,120 -16,163 -36,42 -114,8 -157,44 -43,36 -23,119 -71,147 -48,27 -110,-32 -162,-13 -53,19 -62,105 -117,114 -54,10 -92,-67 -148,-67 -56,0 -94,77 -149,67 -55,-9 -64,-95 -117,-114 -52,-19 -114,40 -162,13 -48,-28 -28,-111 -71,-147 -43,-36 -121,-2 -157,-44 -36,-43 12,-114 -16,-163 -28,-48 -114,-43 -133,-95 -19,-52 50,-103 41,-158 -10,-55 -92,-79 -92,-134 0,-56 82,-80 92,-135 9,-55 -60,-106 -41,-158 19,-52 105,-47 133,-95 28,-49 -20,-120 16,-163 36,-42 114,-8 157,-44 43,-36 23,-119 71,-147 48,-27 110,32 162,13 53,-19 62,-105 117,-114 55,-10 93,67 149,67zm0 103c370,0 672,302 672,673 0,370 -302,672 -672,672 -371,0 -673,-302 -673,-672 0,-371 302,-673 673,-673z"/>
  <polygon class="fil4" points="790,485 757,485 757,441 792,441 792,427 742,427 742,561 795,561 795,548 757,548 757,497 790,497 "/>
  <path id="1" class="fil4" d="M857 521l9 40 15 0 -30 -134 -16 0 -31 134 15 0 9 -40 29 0zm-27 -12l7 -34c2,-9 4,-21 5,-31l1 0c2,10 3,21 5,31l7 34 -25 0z"/>
  <path id="2" class="fil4" d="M891 556c4,3 14,6 23,6 21,0 37,-14 37,-37 0,-15 -7,-28 -23,-39 -12,-9 -19,-14 -19,-27 0,-10 6,-19 19,-19 7,0 12,2 16,4l4 -13c-4,-2 -11,-5 -19,-5 -21,0 -36,15 -36,35 0,17 15,30 26,37 10,8 17,16 17,28 0,13 -8,23 -22,23 -7,0 -15,-3 -19,-6l-4 13z"/>
  <path id="3" class="fil4" d="M1004 561l0 -57 31 -77 -16 0 -12 33c-3,10 -7,21 -9,31l-1 0c-3,-10 -6,-21 -10,-30l-12 -34 -16 0 30 77 0 57 15 0z"/>
  <polygon class="fil5" points="466,972 505,972 505,889 550,889 550,857 505,857 505,805 553,805 553,772 466,772 "/>
  <polygon id="1" class="fil5" points="583,772 583,972 622,972 622,772 "/>
  <path id="2" class="fil5" d="M690 972l0 -45c0,-40 -1,-71 -2,-92l1 0c4,19 13,44 20,61l30 76 36 0 0 -200 -34 0 0 44c0,37 3,71 4,93l-1 0c-5,-18 -15,-44 -21,-59l-31 -78 -36 0 0 200 34 0z"/>
  <path id="3" class="fil5" d="M877 926l9 46 38 0 -39 -200 -47 0 -43 200 37 0 9 -46 36 0zm-32 -30l8 -42c2,-11 5,-32 7,-46l1 0c1,14 4,34 6,46l7 42 -29 0z"/>
  <path id="4" class="fil5" d="M980 972l0 -45c0,-40 -2,-71 -3,-92l1 0c5,19 14,44 20,61l31 76 36 0 0 -200 -35 0 0 44c0,37 3,71 4,93l0 0c-6,-18 -16,-44 -22,-59l-31 -78 -35 0 0 200 34 0z"/>
  <path id="5" class="fil5" d="M1191 936c-5,2 -12,3 -19,3 -23,0 -42,-19 -42,-66 0,-50 20,-69 42,-69 9,0 14,2 18,4l7 -33c-4,-3 -13,-5 -27,-5 -39,0 -81,29 -81,105 0,56 25,99 76,99 13,0 24,-2 30,-5l-4 -33z"/>
  <polygon id="6" class="fil5" points="1301,851 1255,851 1255,805 1303,805 1303,772 1216,772 1216,972 1307,972 1307,938 1255,938 1255,884 1301,884 "/>
  <path class="fil4" d="M660 1182c-23,0 -39,24 -39,69 0,45 15,68 37,68 21,0 38,-19 38,-69 0,-43 -13,-68 -36,-68zm-1 14c17,0 22,29 22,54 0,27 -5,56 -22,56 -17,0 -22,-28 -22,-55 0,-27 5,-55 22,-55z"/>
  <path id="1" class="fil4" d="M715 1318l15 0 0 -55c2,0 4,0 7,0 12,0 24,-5 31,-15 5,-7 8,-15 8,-27 0,-12 -3,-21 -10,-28 -7,-7 -17,-10 -29,-10 -9,0 -16,1 -22,3l0 132zm15 -121c2,-1 5,-1 8,-1 17,0 23,12 23,26 0,19 -10,29 -25,29 -3,0 -4,-1 -6,-1l0 -53z"/>
  <polygon id="2" class="fil4" points="809,1318 825,1318 825,1198 849,1198 849,1184 785,1184 785,1198 809,1198 "/>
  <polygon id="3" class="fil4" points="864,1184 864,1318 879,1318 879,1184 "/>
  <path id="4" class="fil4" d="M937 1182c-23,0 -39,24 -39,69 0,45 15,68 37,68 21,0 38,-19 38,-69 0,-43 -13,-68 -36,-68zm-2 14c18,0 22,29 22,54 0,27 -4,56 -21,56 -17,0 -22,-28 -22,-55 0,-27 5,-55 21,-55z"/>
  <path id="5" class="fil4" d="M1005 1318l0 -47c0,-28 0,-45 -1,-63l0 0c5,17 11,32 16,45l25 65 15 0 0 -134 -14 0 0 48c0,23 1,40 2,61l0 0c-5,-14 -12,-32 -17,-46l-25 -63 -14 0 0 134 13 0z"/>
  <path id="6" class="fil4" d="M1077 1313c4,3 14,6 23,6 21,0 37,-15 37,-38 0,-15 -7,-27 -23,-38 -13,-9 -19,-14 -19,-28 0,-9 6,-19 19,-19 7,0 12,2 16,5l3 -13c-3,-3 -10,-5 -18,-5 -22,0 -36,15 -36,35 0,17 15,30 25,37 11,8 18,15 18,28 0,13 -8,22 -22,22 -7,0 -15,-2 -19,-5l-4 13z"/>
 </g>
</svg>
