<?xml version="1.0" encoding="UTF-8"?>
<!DOCTYPE svg PUBLIC "-//W3C//DTD SVG 1.1//EN" "http://www.w3.org/Graphics/SVG/1.1/DTD/svg11.dtd">
<!-- Creator: CorelDRAW X7 -->
<svg xmlns="http://www.w3.org/2000/svg" xml:space="preserve" width="3.125in" height="1.73611in" version="1.1" style="shape-rendering:geometricPrecision; text-rendering:geometricPrecision; image-rendering:optimizeQuality; fill-rule:evenodd; clip-rule:evenodd"
viewBox="0 0 3125 1736"
 xmlns:xlink="http://www.w3.org/1999/xlink">
 <defs>
  <style type="text/css">
   <![CDATA[
    .fil0 {fill:red;fill-rule:nonzero}
    .fil1 {fill:white;fill-rule:nonzero}
   ]]>
  </style>
 </defs>
 <g id="Layer_x0020_1">
  <metadata id="CorelCorpID_0Corel-Layer"/>
  <g id="_476301152">
   <path class="fil0" d="M865 54c228,0 433,92 582,241 149,148 241,354 241,581 0,228 -92,433 -241,582 -149,149 -354,241 -582,241 -227,0 -433,-92 -581,-241 -149,-149 -241,-354 -241,-582 0,-227 92,-433 241,-581 148,-149 354,-241 581,-241zm0 318c107,0 207,34 288,91 84,58 149,142 185,239l12 33 -970 0 12 -33c36,-97 101,-181 185,-239 82,-57 181,-91 288,-91zm260 131c-73,-52 -163,-82 -260,-82 -96,0 -186,30 -260,82 -66,46 -119,109 -154,183l828 0c-34,-74 -87,-137 -154,-183zm206 565c-38,93 -103,172 -186,227 -80,54 -176,85 -280,85 -103,0 -199,-31 -280,-85 -82,-55 -147,-134 -186,-227l-13 -33 959 0 -14 33zm-213 187c65,-43 117,-102 153,-172l-811 0c35,70 88,129 152,172 73,48 160,77 253,77 94,0 181,-29 253,-77zm295 -926c-140,-140 -334,-227 -548,-227 -213,0 -407,87 -547,227 -140,140 -227,334 -227,547 0,214 87,408 227,548 140,140 334,226 547,226 214,0 408,-86 548,-226 140,-140 226,-334 226,-548 0,-213 -86,-407 -226,-547z"/>
   <path class="fil1" d="M239 665l-14 -4 -16 58 14 4 6 -21 66 19 4 -16 -66 -19 6 -21zm99 -58l-13 -6 -16 36 -19 -9 14 -30 -13 -6 -14 30 -18 -8 16 -35 -13 -6 -23 50 76 34 23 -50zm25 -90l-9 14c5,5 7,11 2,18 -2,4 -6,6 -9,7 -5,0 -9,-1 -22,-10 -13,-8 -16,-11 -18,-16 -1,-3 0,-7 2,-11 5,-7 11,-8 18,-5l9 -14c-17,-7 -30,-2 -39,11 -5,8 -6,16 -4,24 2,11 10,16 23,25 14,9 22,13 33,11 8,-2 14,-6 19,-14 9,-13 8,-28 -5,-40zm79 -55l-63 -55 -11 13 26 22 -18 21 -26 -22 -11 12 63 55 11 -13 -26 -22 18 -22 26 23 11 -12zm75 -64l-52 -65 -12 10 31 40 -57 -20 -12 9 52 65 13 -10 -32 -40 57 20 12 -9zm42 -28l-45 -70 -13 9 45 70 13 -9zm73 -65l-15 6c1,7 -1,14 -8,17 -4,2 -8,2 -11,0 -5,-2 -7,-5 -14,-19 -6,-15 -7,-19 -6,-23 1,-4 4,-7 8,-9 7,-3 13,0 18,5l15 -7c-10,-14 -25,-17 -39,-11 -9,4 -14,10 -17,17 -4,11 0,20 6,34 7,15 11,23 22,27 7,3 15,3 24,-1 14,-6 21,-19 17,-36zm98 -5l-52 -72 -12 4 -6 88 16 -5 1 -15 28 -8 9 12 16 -4zm-33 -20l-19 5 1 -32 18 27zm112 7l-2 -14 -37 5 -9 -68 -16 2 10 82 54 -7zm138 -22c1,-8 -1,-14 -5,-18 -3,-4 -8,-6 -15,-8l-10 -2c-4,-1 -6,-2 -8,-4 -1,-2 -2,-4 -1,-6 0,-6 4,-10 13,-9 6,0 12,1 17,7l11 -10c-7,-7 -15,-11 -26,-12 -18,-1 -30,9 -31,23 -1,7 1,13 5,17 3,4 8,7 15,8l10 3c4,0 6,1 7,3 2,2 2,4 2,7 0,7 -6,10 -15,9 -8,0 -15,-3 -20,-8l-11 9c7,9 17,13 29,14 18,1 32,-7 33,-23zm96 -25l3 -14 -58 -14 -3 14 21 5 -16 67 16 4 16 -67 21 5zm64 96l2 -89 -12 -4 -58 66 15 6 10 -12 28 11 -1 16 16 6zm-14 -36l-19 -8 21 -24 -2 32zm92 78l42 -72 -14 -8 -26 44 -3 -61 -12 -7 -42 72 14 8 26 -44 3 61 12 7zm102 25c9,-11 14,-18 14,-27 1,-10 -3,-18 -12,-25l-24 -18 -51 65 23 19c9,7 18,8 28,6 8,-3 14,-9 22,-20zm-13 -10c-8,10 -11,14 -16,15 -4,1 -8,0 -13,-4l-9 -7 33 -43 10 8c4,3 6,7 6,11 0,5 -3,9 -11,20zm53 111l40 -79 -9 -10 -81 36 11 12 14 -6 21 21 -7 14 11 12zm3 -39l-14 -15 29 -13 -15 28zm46 113l21 -35c6,5 16,7 26,1 12,-8 16,-22 7,-37l-17 -27 -71 45 9 13 28 -17 6 9 -19 32 10 16zm38 -48c-5,4 -11,2 -15,-4l-8 -13 18 -12 8 13c4,6 3,13 -3,16zm40 111c12,-6 20,-10 24,-17 5,-9 6,-18 1,-28l-12 -28 -76 35 12 27c5,10 12,16 22,18 8,2 16,-2 29,-7zm-7 -15c-12,5 -17,7 -22,6 -4,-1 -7,-4 -9,-9l-5 -11 49 -23 5 12c2,5 2,9 0,13 -2,4 -6,6 -18,12zm18 107c7,-2 12,-6 15,-11 2,-5 3,-10 2,-17l-1 -10c-1,-4 0,-6 1,-8 1,-3 3,-4 5,-4 5,-2 11,1 13,9 2,5 3,12 0,18l12 7c5,-9 5,-17 2,-28 -5,-18 -18,-25 -32,-21 -7,2 -12,5 -14,10 -3,4 -3,10 -2,17l1 10c0,4 0,6 -1,8 -1,2 -3,4 -6,5 -6,1 -11,-3 -14,-12 -2,-7 -2,-14 1,-21l-12 -7c-6,10 -6,20 -3,32 5,17 17,27 33,23z"/>
   <path class="fil1" d="M259 1207l10 -21c8,3 17,2 27,-2l-6 -13c-5,2 -11,3 -15,2l9 -20 7 4c5,3 11,4 17,2 10,-5 14,-16 9,-28 -6,-12 -17,-17 -27,-12 -7,3 -11,10 -13,15 -7,-5 -17,-9 -26,-4 -15,6 -20,18 -12,35 5,11 11,14 16,16l-4 9 8 17zm2 -39c-5,-2 -7,-4 -9,-9 -3,-6 -1,-13 5,-16 5,-3 10,-1 15,2l-11 23zm40 -22c-2,1 -5,0 -8,-2l-3 -2c1,-4 3,-8 6,-9 3,-1 7,0 9,4 2,4 0,7 -4,9l0 0zm61 165c6,-5 9,-10 10,-16 0,-5 -1,-10 -5,-16l-5 -9c-2,-3 -2,-6 -2,-8 0,-2 1,-4 3,-6 5,-3 11,-3 16,4 4,4 7,10 6,17l15 2c1,-10 -2,-18 -9,-27 -11,-15 -26,-17 -38,-8 -5,5 -9,10 -9,15 -1,5 1,11 4,17l5 9c3,4 3,5 3,8 -1,2 -2,4 -4,6 -5,4 -11,2 -17,-5 -5,-6 -8,-13 -7,-20l-15 -2c-1,11 2,21 10,30 11,14 26,19 39,9zm54 89l36 -81 -9 -8 -80 39 13 11 13 -7 22 21 -7 14 12 11zm1 -38l-15 -15 29 -14 -14 29zm112 36l8 -12 -44 -32 -49 68 13 10 20 -28 27 19 8 -12 -27 -19 12 -16 32 22zm42 102l6 -13 -34 -18 9 -18 29 15 7 -13 -30 -15 9 -17 35 17 6 -13 -49 -24 -37 74 49 25zm109 -31l5 -14 -57 -19 -4 14 20 7 -21 65 15 5 22 -65 20 7zm91 7l-18 -4 -22 29 -8 -36 -17 -4 13 54 -7 33 15 3 8 -33 36 -42zm134 88l-33 -82 -13 1 -28 84 17 -1 5 -15 29 -1 6 15 17 -1zm-27 -27l-21 0 10 -30 11 30zm118 -11l-7 -55 -16 2 7 54c1,10 -4,16 -13,17 -8,1 -15,-4 -16,-13l-6 -54 -16 2 6 54c2,18 17,27 34,25 17,-2 29,-15 27,-32zm78 -64l-4 -14 -57 16 4 14 20 -6 19 66 16 -4 -19 -66 21 -6zm109 27l-34 -76 -15 6 14 31 -26 12 -14 -31 -15 7 35 76 15 -7 -15 -32 26 -11 14 31 15 -6zm66 -89c-9,-14 -14,-21 -26,-24 -7,-2 -15,-1 -23,5 -8,5 -12,11 -14,19 -3,11 2,19 11,33 8,13 13,21 25,23 8,2 15,1 23,-4 8,-5 13,-12 14,-19 3,-12 -2,-20 -10,-33zm-14 8c8,14 10,18 9,22 -1,4 -3,7 -6,10 -4,2 -8,2 -12,1 -4,-1 -7,-4 -16,-17 -8,-13 -9,-17 -9,-22 1,-3 3,-7 7,-9 3,-3 7,-3 11,-2 4,1 7,4 16,17zm115 -41l-37 -15c4,-7 5,-18 -3,-26 -9,-11 -24,-13 -37,-2l-25 22 55 62 12 -10 -22 -25 9 -8 34 14 14 -12zm-52 -31c4,5 3,12 -2,16l-12 10 -14 -16 12 -10c5,-5 11,-5 16,0zm89 -10l-63 -54 -11 12 63 55 11 -13zm3 -118l-12 -8 -35 49 12 8 13 -18 56 40 9 -13 -56 -40 13 -18zm27 -81l-7 15 23 29 -37 -1 -8 16 55 -1 30 16 7 -15 -30 -15 -33 -44z"/>
   <polygon class="fil1" points="487,820 487,789 358,789 358,820 405,820 405,968 440,968 440,820 "/>
   <path id="1" class="fil1" d="M765 915c0,-16 -4,-29 -14,-38 -8,-7 -18,-11 -34,-14l-21 -3c-8,-1 -13,-3 -17,-7 -4,-3 -5,-8 -5,-13 0,-12 9,-22 28,-22 11,0 25,1 36,12l23 -22c-16,-15 -34,-21 -58,-21 -39,0 -63,23 -63,55 0,15 4,27 13,35 8,8 19,13 35,15l21 3c9,1 13,3 16,6 4,4 6,9 6,15 0,14 -11,22 -32,22 -16,0 -32,-3 -43,-15l-23 23c18,18 38,24 66,24 37,0 66,-20 66,-55z"/>
   <path id="2" class="fil1" d="M1047 915c0,-16 -5,-29 -14,-38 -8,-7 -18,-11 -34,-14l-22 -3c-7,-1 -13,-3 -16,-7 -4,-3 -5,-8 -5,-13 0,-12 9,-22 27,-22 12,0 26,1 37,12l22 -22c-15,-15 -33,-21 -58,-21 -39,0 -62,23 -62,55 0,15 4,27 13,35 8,8 18,13 34,15l22 3c9,1 12,3 16,6 4,4 5,9 5,15 0,14 -11,22 -32,22 -16,0 -31,-3 -43,-15l-22 23c17,18 38,24 65,24 38,0 67,-20 67,-55z"/>
   <path id="3" class="fil1" d="M1352 968l-65 -179 -28 0 -65 179 36 0 11 -32 64 0 11 32 36 0zm-56 -61l-45 0 23 -65 22 65z"/>
   <polygon class="fil1" points="2229,630 2229,598 2067,598 2067,630 2131,630 2131,829 2166,829 2166,630 "/>
   <path id="1" class="fil1" d="M2413 763c0,-20 -6,-36 -19,-47 -10,-9 -21,-14 -42,-17l-28 -5c-13,-1 -19,-5 -25,-10 -6,-5 -9,-13 -9,-21 0,-21 15,-36 42,-36 20,0 37,4 51,18l22 -22c-20,-19 -41,-27 -72,-27 -47,0 -77,28 -77,68 0,19 6,34 18,44 10,10 24,16 43,19l27 3c12,2 20,5 25,10 7,6 9,14 9,24 0,23 -17,36 -47,36 -23,0 -43,-6 -59,-23l-23 23c22,23 47,31 81,31 49,0 83,-26 83,-68z"/>
   <path id="2" class="fil1" d="M2602 763c0,-20 -6,-36 -18,-47 -10,-9 -22,-14 -43,-17l-28 -5c-12,-1 -19,-5 -25,-10 -6,-5 -8,-13 -8,-21 0,-21 14,-36 42,-36 19,0 36,4 50,18l22 -22c-19,-19 -40,-27 -71,-27 -48,0 -77,28 -77,68 0,19 6,34 17,44 10,10 25,16 43,19l27 3c12,2 20,5 26,10 6,6 9,14 9,24 0,23 -17,36 -48,36 -23,0 -42,-6 -59,-23l-23 23c22,23 47,31 82,31 48,0 82,-26 82,-68z"/>
   <path id="3" class="fil1" d="M2819 829l-85 -231 -28 0 -84 231 37 0 16 -46 91 0 16 46 37 0zm-63 -76l-71 0 36 -103 35 103z"/>
   <path id="4" class="fil1" d="M1997 1113l-35 0c-6,23 -22,39 -47,39 -14,0 -26,-5 -34,-14 -12,-12 -14,-26 -14,-72 0,-45 2,-59 14,-72 8,-9 20,-14 34,-14 25,0 41,16 46,40l36 0c-8,-46 -40,-71 -82,-71 -26,0 -45,9 -60,23 -22,23 -23,46 -23,94 0,49 1,72 23,94 15,15 34,24 60,24 42,0 74,-26 82,-71z"/>
   <path id="5" class="fil1" d="M2170 1109l0 -14c0,-48 -25,-79 -69,-79 -42,0 -70,30 -70,83 0,63 33,85 74,85 29,0 45,-9 61,-26l-21 -20c-11,12 -21,17 -39,17 -28,0 -42,-17 -42,-46l106 0zm-32 -23l-74 0c0,-10 1,-15 4,-22 6,-13 17,-21 33,-21 15,0 27,8 32,21 3,7 4,12 5,22z"/>
   <path id="6" class="fil1" d="M2329 1031c-11,-11 -23,-15 -39,-15 -18,0 -35,8 -44,19l0 -18 -32 0 0 165 33 0 0 -100c0,-23 15,-37 33,-37 11,0 17,4 24,11l25 -25z"/>
   <path id="7" class="fil1" d="M2425 1182l0 -29 -14 0c-12,0 -18,-7 -18,-19l0 -91 32 0 0 -26 -32 0 0 -46 -33 0 0 46 -19 0 0 26 19 0 0 93c0,24 14,46 45,46l20 0z"/>
   <path id="8" class="fil1" d="M2500 1182l0 -165 -33 0 0 165 33 0zm1 -197l0 -35 -35 0 0 35 35 0z"/>
   <path id="9" class="fil1" d="M2623 1043l0 -26 -33 0 0 -20c0,-12 6,-19 19,-19l14 0 0 -29 -21 0c-30,0 -45,23 -45,46l0 22 -18 0 0 26 18 0 0 139 33 0 0 -139 33 0zm67 139l0 -165 -34 0 0 165 34 0zm0 -197l0 -35 -34 0 0 35 34 0z"/>
   <path id="10" class="fil1" d="M2873 1109l0 -14c0,-48 -26,-79 -70,-79 -42,0 -69,30 -69,83 0,63 32,85 73,85 29,0 45,-9 62,-26l-21 -20c-12,12 -22,17 -40,17 -27,0 -42,-17 -42,-46l107 0zm-33 -23l-74 0c1,-10 1,-15 4,-22 6,-13 17,-21 33,-21 16,0 27,8 32,21 4,7 4,12 5,22z"/>
   <path id="11" class="fil1" d="M3043 1182l0 -231 -33 0 0 83c-12,-14 -26,-18 -43,-18 -17,0 -31,5 -40,14 -16,16 -18,42 -18,69 0,28 2,54 18,70 9,9 24,15 40,15 18,0 31,-5 44,-20l0 18 32 0zm-33 -83c0,29 -4,55 -34,55 -30,0 -34,-26 -34,-55 0,-29 4,-54 34,-54 30,0 34,25 34,54l0 0z"/>
   <polygon class="fil1" points="1822,887 3082,887 3082,915 1822,915 "/>
  </g>
 </g>
</svg>
