<?xml version="1.0" encoding="UTF-8"?>
<!DOCTYPE svg PUBLIC "-//W3C//DTD SVG 1.1//EN" "http://www.w3.org/Graphics/SVG/1.1/DTD/svg11.dtd">
<!-- Creator: CorelDRAW X7 -->
<svg xmlns="http://www.w3.org/2000/svg" xml:space="preserve" width="1.875in" height="1.59722in" version="1.1" style="shape-rendering:geometricPrecision; text-rendering:geometricPrecision; image-rendering:optimizeQuality; fill-rule:evenodd; clip-rule:evenodd"
viewBox="0 0 1875 1597"
 xmlns:xlink="http://www.w3.org/1999/xlink">
 <defs>
  <style type="text/css">
   <![CDATA[
    .str0 {stroke:#25543E;stroke-width:27.7756}
    .str1 {stroke:lime;stroke-width:13.8858}
    .fil1 {fill:#009D57}
    .fil0 {fill:#25543E}
    .fil2 {fill:white;fill-rule:nonzero}
   ]]>
  </style>
 </defs>
 <g id="Layer_x0020_1">
  <metadata id="CorelCorpID_0Corel-Layer"/>
  <g id="_711336920">
   <path class="fil0 str0" d="M1801 1280c-54,68 -86,83 -135,86l-217 12 -2 1 -6 -21c-2,-6 -1,-12 3,-17 3,-5 9,-8 15,-8 86,-4 172,-9 256,-13 7,0 79,-39 86,-40zm-327 219c-24,33 -26,52 -67,39l-360 -122c-13,-5 -581,38 -642,40 -131,4 -234,-56 -246,-181l-96 -993c-4,-46 2,-84 41,-119l84 -73c-9,21 -41,89 -39,114 15,184 29,363 43,539 14,172 28,341 41,506 6,79 80,139 162,135 110,-5 218,-10 324,-15 104,-5 206,-10 307,-15 3,0 6,0 8,1 72,26 142,56 214,77l226 67z"/>
   <path class="fil1 str1" d="M301 49c261,14 513,27 754,40 233,12 457,24 673,36 71,4 128,71 126,149 -3,160 -6,316 -8,470 -3,151 -6,299 -8,445 -1,69 -56,128 -123,131 -84,4 -170,9 -256,13 -6,0 -12,3 -15,8 -4,5 -5,11 -3,17 12,41 24,83 36,124 2,7 0,14 -6,19 -5,5 -12,7 -19,4 -67,-24 -135,-48 -204,-73 -70,-25 -142,-51 -214,-77 -3,-1 -5,-1 -8,-1 -101,5 -203,10 -307,15 -106,5 -214,10 -324,15 -82,4 -156,-56 -162,-135 -13,-165 -27,-334 -41,-506 -14,-176 -28,-355 -43,-539 -7,-90 61,-160 152,-155z"/>
   <g>
    <path class="fil2" d="M329 458c-4,-61 -8,-124 -12,-186 0,-10 2,-17 6,-22 4,-5 10,-7 17,-7 6,1 11,3 15,6 4,4 11,12 21,26 29,39 58,78 86,116 1,0 1,0 1,0 -2,-37 -4,-75 -6,-113 0,-9 2,-16 6,-21 4,-5 10,-7 17,-7 7,0 13,3 18,8 4,6 7,13 7,22 3,62 6,123 9,184 1,9 -1,16 -5,21 -4,4 -10,7 -17,6 -6,0 -11,-2 -15,-5 -4,-4 -10,-12 -19,-24 -29,-38 -58,-77 -87,-116 0,0 0,0 0,0 2,38 4,76 6,114 1,9 -1,16 -5,21 -4,4 -10,7 -17,6 -8,0 -14,-2 -18,-8 -5,-5 -8,-12 -8,-21zm329 -34c-27,-1 -54,-1 -81,-2 0,7 4,14 10,20 6,6 15,9 27,9 9,0 19,-3 31,-9 7,-3 12,-5 14,-5 6,0 10,2 14,6 4,5 5,10 6,16 0,11 -6,21 -20,28 -14,8 -30,12 -49,11 -23,-1 -42,-10 -58,-28 -15,-18 -23,-40 -25,-67 -1,-26 6,-47 20,-65 14,-18 33,-26 56,-25 21,0 38,10 53,28 14,18 22,38 23,62 0,8 -1,13 -4,17 -3,3 -9,5 -17,4zm-83 -38c20,1 39,2 59,2 -1,-6 -4,-13 -10,-20 -6,-8 -13,-11 -21,-12 -8,0 -14,3 -20,10 -5,7 -8,14 -8,20zm240 44c-26,-1 -53,-2 -79,-3 0,8 3,15 10,20 6,6 15,9 26,9 8,1 19,-3 30,-9 7,-3 11,-5 14,-5 5,0 9,2 13,7 4,4 6,9 6,15 0,11 -7,20 -20,28 -13,7 -29,11 -47,10 -23,0 -41,-9 -56,-27 -15,-18 -23,-40 -24,-66 -1,-26 5,-47 19,-65 15,-17 33,-25 55,-25 21,1 38,11 52,28 14,18 21,38 21,61 1,8 -1,14 -4,17 -3,3 -8,5 -16,5zm-80 -38c19,1 38,2 57,2 -1,-6 -4,-13 -9,-20 -6,-7 -13,-11 -21,-11 -8,-1 -14,3 -19,9 -6,7 -9,14 -8,20zm251 -108c1,66 2,131 3,196 0,7 -2,13 -6,18 -4,5 -9,7 -15,7 -8,-1 -15,-6 -20,-17 -8,13 -20,19 -36,18 -18,0 -34,-9 -47,-27 -13,-18 -20,-39 -21,-65 -1,-25 5,-47 18,-64 12,-17 28,-25 46,-24 15,0 27,6 36,16 0,-20 -1,-40 -1,-60 0,-8 2,-14 6,-19 4,-5 9,-7 15,-7 6,0 11,3 15,9 4,5 7,11 7,19zm-40 134c-1,-12 -4,-23 -9,-31 -5,-8 -13,-12 -21,-13 -9,0 -16,4 -22,12 -5,7 -7,17 -7,30 0,12 3,22 9,30 5,8 13,13 21,13 9,0 16,-3 21,-11 5,-8 8,-18 8,-30zm179 -1c0,22 0,44 0,65 0,9 -2,16 -6,20 -3,5 -9,7 -15,7 -7,-1 -12,-3 -16,-8 -4,-5 -5,-11 -6,-20 0,-58 -1,-116 -1,-175 -1,-8 1,-15 5,-19 4,-5 9,-7 16,-7 7,0 12,3 16,8 4,5 6,12 6,20 0,21 0,41 0,61 27,1 53,2 80,3 0,-20 0,-40 0,-60 0,-8 1,-15 5,-20 4,-4 9,-6 16,-6 6,0 11,3 15,8 4,5 6,11 6,20 0,58 0,115 0,172 0,9 -2,15 -6,19 -4,5 -9,7 -15,7 -6,0 -12,-3 -15,-8 -4,-4 -6,-11 -6,-19 0,-22 0,-44 0,-65 -27,-1 -53,-2 -79,-3zm249 32c-23,-1 -47,-2 -71,-3 0,8 2,14 8,19 5,6 13,9 24,9 7,0 17,-3 27,-9 6,-3 11,-5 13,-5 5,1 8,3 12,7 3,4 4,9 4,14 0,11 -6,20 -19,27 -12,7 -27,10 -43,10 -20,-1 -37,-9 -50,-26 -13,-17 -19,-38 -19,-63 0,-24 7,-44 20,-61 13,-17 30,-25 50,-24 19,1 34,10 46,26 12,17 18,36 18,58 0,8 -2,13 -5,16 -2,4 -7,5 -15,5zm-71 -36c17,1 34,1 51,2 0,-6 -2,-13 -7,-19 -5,-7 -11,-11 -18,-11 -7,0 -13,3 -18,9 -6,6 -8,13 -8,19zm102 79c1,-62 2,-125 2,-188 0,-8 2,-13 6,-18 4,-5 8,-7 14,-7 6,0 11,3 14,8 4,5 6,11 6,18 -1,64 -2,126 -3,188 0,7 -2,13 -6,18 -3,4 -8,7 -14,6 -5,0 -10,-2 -14,-7 -3,-5 -5,-11 -5,-18zm54 67c1,-60 2,-120 3,-181 0,-7 2,-13 6,-18 3,-4 8,-7 14,-6 8,0 14,6 18,16 8,-12 19,-18 33,-17 17,1 31,10 42,27 11,17 16,37 15,61 0,23 -7,43 -18,59 -12,16 -26,24 -42,23 -13,0 -23,-5 -32,-14 0,17 0,34 0,51 -1,7 -3,13 -6,17 -4,5 -8,7 -14,7 -6,0 -10,-3 -14,-8 -3,-4 -5,-10 -5,-17zm41 -122c0,12 2,22 6,29 5,8 11,12 19,12 8,0 15,-3 20,-10 4,-7 7,-17 7,-29 0,-11 -2,-21 -6,-29 -5,-7 -11,-11 -19,-12 -8,0 -15,4 -20,11 -4,7 -7,17 -7,28zm131 1c1,-8 1,-16 1,-24 0,-7 2,-11 5,-14 3,-2 8,-4 14,-5 13,-2 19,-9 19,-22 1,-5 -1,-10 -4,-14 -3,-4 -7,-6 -12,-6 -5,-1 -9,1 -12,3 -3,2 -6,5 -9,10 -3,4 -5,7 -8,9 -2,2 -6,3 -10,3 -5,0 -9,-2 -12,-7 -3,-5 -5,-10 -5,-16 0,-10 3,-19 9,-27 5,-8 12,-14 21,-19 9,-4 18,-6 27,-6 17,1 31,8 42,21 11,13 16,29 15,49 -1,35 -15,55 -43,61 0,2 0,4 0,6 0,6 -2,12 -6,16 -4,4 -8,6 -14,6 -5,0 -9,-2 -13,-7 -3,-4 -5,-10 -5,-17zm17 89c-6,0 -11,-3 -15,-8 -4,-6 -6,-12 -5,-19 0,-7 2,-13 6,-18 5,-5 10,-7 15,-7 6,0 10,3 14,8 4,6 6,12 6,19 0,7 -2,12 -7,17 -4,5 -9,8 -14,8z"/>
    <path class="fil2" d="M488 902c-21,0 -39,-8 -54,-24 -15,-17 -23,-37 -24,-62 -2,-25 4,-46 17,-62 13,-17 30,-25 52,-25 12,0 23,3 33,7 9,5 14,12 15,20 0,4 -1,8 -4,11 -2,3 -5,5 -9,5 -2,0 -6,-1 -11,-4 -7,-3 -15,-5 -22,-5 -13,0 -22,5 -29,15 -7,10 -10,23 -9,39 1,15 5,27 13,37 8,10 18,14 30,14 7,0 15,-2 23,-6 5,-2 8,-3 11,-3 4,0 7,1 10,5 3,3 4,7 4,10 1,9 -4,16 -13,21 -9,4 -20,7 -33,7zm60 -20c-2,-48 -4,-96 -7,-144 0,-6 1,-10 4,-14 3,-3 6,-5 11,-5 4,0 8,2 11,5 3,4 5,8 5,14 2,48 4,96 6,143 1,6 0,10 -3,14 -3,3 -6,5 -11,5 -4,0 -8,-2 -11,-5 -3,-3 -5,-8 -5,-13zm39 -140c-1,-5 1,-10 4,-13 4,-4 8,-6 12,-6 5,0 9,2 12,6 4,4 6,8 6,13 0,5 -1,10 -4,13 -4,4 -7,6 -12,6 -5,0 -9,-2 -12,-6 -4,-4 -6,-8 -6,-13zm8 139c-1,-29 -3,-59 -4,-89 0,-5 1,-10 4,-13 2,-4 6,-5 10,-5 5,0 8,2 11,5 3,3 5,8 5,13 1,30 3,60 4,89 0,6 -1,10 -4,13 -2,4 -6,6 -10,6 -5,0 -8,-2 -11,-5 -3,-4 -5,-8 -5,-14zm91 -108c10,0 18,2 26,5 7,4 11,9 12,16 0,4 -1,7 -3,11 -2,3 -5,5 -8,5 -2,0 -6,-1 -11,-3 -5,-3 -10,-4 -13,-4 -8,0 -14,3 -18,10 -4,6 -6,15 -6,24 1,9 4,17 8,23 5,7 11,10 19,10 3,0 7,-1 14,-4 4,-2 6,-2 7,-2 4,-1 7,1 10,4 2,3 4,6 4,10 0,7 -4,12 -12,16 -7,4 -15,6 -24,7 -15,0 -28,-6 -39,-19 -10,-12 -16,-27 -16,-45 -1,-17 3,-33 13,-45 10,-13 22,-19 37,-19zm51 108c-2,-47 -3,-94 -5,-142 0,-5 1,-10 4,-13 2,-4 6,-5 10,-5 5,0 8,1 11,5 3,3 4,8 5,13 0,26 1,52 2,78 10,-12 20,-23 31,-35 2,-3 5,-5 7,-6 2,-1 4,-1 6,-1 4,0 7,1 9,4 3,3 4,7 4,11 0,4 -2,8 -5,12 -8,9 -17,18 -26,27 8,10 16,19 24,29 8,11 13,17 14,18 0,1 1,2 1,3 1,2 1,4 1,5 0,5 -1,8 -4,11 -2,3 -6,5 -9,5 -5,0 -9,-3 -13,-9 -13,-17 -26,-33 -39,-50 0,0 0,0 0,0 0,13 1,26 1,40 0,5 -1,9 -3,13 -3,3 -7,5 -11,5 -4,0 -8,-2 -11,-5 -3,-4 -4,-8 -4,-13zm155 -1c-2,-46 -3,-93 -4,-140 0,-5 1,-10 4,-13 3,-3 6,-5 10,-5 5,0 8,2 11,5 2,4 4,8 4,13 0,15 1,30 1,45 0,0 0,0 0,0 6,-7 14,-11 26,-11 12,0 21,4 29,12 7,8 11,19 11,32 0,20 1,41 1,61 0,6 -1,10 -4,13 -2,4 -6,5 -10,5 -4,0 -7,-1 -10,-5 -3,-3 -4,-7 -4,-12 -1,-19 -1,-38 -1,-57 0,-7 -2,-12 -6,-16 -3,-4 -8,-6 -13,-6 -6,0 -10,2 -14,6 -3,4 -4,10 -4,16 0,19 1,38 1,57 0,5 -1,9 -4,13 -2,3 -6,5 -10,5 -4,0 -7,-2 -10,-5 -3,-3 -4,-8 -4,-13zm190 -33c-19,0 -39,0 -59,0 1,8 4,13 9,17 5,4 11,6 18,6 5,0 12,-2 21,-8 5,-3 8,-5 10,-5 3,0 6,2 8,5 2,2 4,6 4,9 0,6 -5,13 -15,18 -9,6 -20,9 -30,9 -16,0 -28,-5 -38,-17 -10,-11 -16,-26 -16,-44 0,-17 5,-32 14,-44 10,-13 22,-19 36,-19 14,0 26,7 36,19 9,12 14,25 15,40 0,9 -4,14 -13,14zm-60 -21c15,0 30,0 45,0 -1,-8 -4,-14 -8,-18 -4,-5 -9,-7 -15,-7 -6,0 -11,3 -15,7 -4,5 -6,10 -7,18zm82 53c0,-29 0,-58 0,-87 0,-5 1,-9 4,-12 3,-3 6,-4 10,-4 9,0 13,4 13,13 1,0 1,0 1,0 5,-9 11,-13 19,-13 4,0 7,2 9,5 3,3 4,7 4,12 0,2 -1,5 -3,7 -2,2 -6,5 -13,9 -7,4 -12,7 -14,10 -2,4 -2,7 -2,11 0,16 0,33 0,49 0,5 -1,9 -4,12 -2,4 -6,5 -10,5 -4,0 -7,-1 -10,-4 -2,-4 -4,-8 -4,-13zm140 -32c-19,0 -38,0 -57,0 1,7 3,13 8,17 5,4 10,6 17,6 6,0 13,-3 21,-8 4,-3 8,-5 10,-5 3,0 5,1 8,4 2,3 3,6 3,9 0,7 -5,13 -14,18 -10,6 -20,9 -30,9 -15,0 -27,-5 -37,-17 -9,-11 -14,-26 -14,-43 0,-17 4,-32 13,-44 10,-12 22,-18 35,-18 14,0 26,6 35,18 10,12 14,25 14,40 0,9 -4,14 -12,14zm-58 -21c14,0 29,0 43,0 -1,-8 -3,-14 -7,-18 -4,-4 -9,-6 -15,-6 -5,0 -10,2 -14,6 -4,5 -6,10 -7,18zm220 -28c0,25 0,51 -1,76 0,4 0,8 -1,10 0,3 -1,5 -3,7 -2,2 -5,4 -8,4 -7,0 -11,-5 -13,-13 -7,9 -15,14 -25,14 -12,0 -23,-5 -31,-17 -8,-11 -12,-25 -12,-43 0,-17 4,-31 13,-43 8,-12 19,-17 31,-17 11,0 19,5 25,14 0,-4 2,-7 4,-9 3,-3 6,-4 9,-4 4,0 7,1 9,4 2,3 3,8 3,17zm-47 6c-6,0 -11,4 -15,10 -4,6 -6,14 -6,22 0,9 2,16 6,23 3,6 9,9 15,9 6,0 11,-4 15,-10 3,-6 5,-13 5,-22 1,-8 -1,-16 -5,-22 -3,-6 -8,-10 -15,-10zm61 73c0,-27 1,-55 1,-82 0,-6 1,-10 4,-13 3,-3 6,-5 9,-5 7,0 11,4 12,12 5,-9 14,-13 26,-13 10,0 19,4 25,12 6,7 10,17 9,30 0,20 0,39 -1,59 0,5 -1,9 -4,12 -2,3 -5,5 -9,5 -4,0 -7,-2 -9,-5 -2,-3 -4,-7 -3,-12 0,-18 0,-36 0,-54 0,-7 -1,-12 -4,-15 -3,-4 -7,-6 -12,-6 -5,0 -9,2 -12,6 -3,4 -5,9 -5,15 0,18 -1,36 -1,54 0,5 -1,9 -4,12 -2,4 -5,5 -9,5 -4,0 -7,-1 -9,-4 -3,-3 -4,-8 -4,-13zm190 -132c-1,44 -2,88 -4,131 0,5 -1,9 -3,13 -3,3 -6,4 -10,4 -6,0 -10,-4 -12,-12 -2,4 -6,8 -10,10 -4,3 -9,4 -13,4 -12,0 -22,-6 -30,-17 -8,-12 -12,-25 -11,-41 0,-16 4,-31 12,-43 8,-12 18,-18 30,-18 10,1 18,4 24,11 1,-14 1,-28 1,-42 0,-5 2,-9 4,-12 3,-3 6,-5 10,-5 3,0 6,2 8,5 3,3 4,7 4,12zm-49 122c7,0 12,-3 15,-9 4,-7 6,-14 6,-23 1,-8 -1,-16 -5,-22 -3,-5 -8,-8 -14,-8 -6,0 -11,3 -15,9 -3,6 -5,14 -6,22 0,8 2,16 6,22 3,6 8,9 13,9zm-932 298c-9,-26 -19,-51 -28,-77 -3,-6 -4,-11 -4,-15 0,-3 1,-7 4,-9 2,-3 6,-4 10,-4 7,0 12,4 15,14 7,20 13,39 19,59 0,0 1,0 1,0 3,-14 7,-28 10,-42 4,-14 6,-22 7,-25 1,-2 2,-4 4,-5 2,-2 5,-2 8,-2 7,-1 12,3 15,12 6,20 13,40 19,61 1,0 1,0 1,0 5,-21 9,-41 14,-62 1,-4 3,-7 6,-10 2,-2 5,-3 8,-3 4,0 8,2 10,4 3,3 4,7 5,12 0,2 -1,6 -3,12 -7,25 -14,51 -22,77 -3,10 -8,16 -17,16 -4,0 -7,-1 -10,-3 -3,-2 -5,-6 -7,-12 -6,-16 -11,-33 -17,-50 0,0 0,0 0,0 -5,17 -9,34 -13,50 -1,7 -3,11 -6,13 -3,3 -6,4 -11,4 -8,0 -14,-5 -18,-15zm136 -6c-1,-29 -2,-57 -3,-86 0,-5 1,-9 4,-12 3,-3 6,-4 10,-4 10,-1 14,4 15,13 0,0 0,0 0,0 5,-9 12,-14 20,-14 4,0 7,1 10,4 3,3 4,7 4,13 0,2 -1,4 -3,6 -2,2 -6,6 -13,9 -8,4 -13,8 -14,11 -2,4 -3,7 -3,11 0,16 1,32 1,48 0,5 -1,10 -3,13 -3,3 -6,5 -10,5 -5,0 -8,-1 -11,-5 -3,-3 -4,-7 -4,-12zm60 -134c0,-4 2,-8 5,-12 3,-4 7,-5 11,-5 4,-1 8,1 11,5 4,3 5,7 5,12 0,5 -1,9 -4,13 -3,3 -7,5 -11,5 -4,0 -8,-1 -12,-5 -3,-4 -5,-8 -5,-13zm6 132c-1,-28 -2,-56 -3,-84 0,-5 2,-9 4,-13 3,-3 6,-5 10,-5 4,0 8,2 11,5 2,3 4,7 4,13 1,28 1,55 2,83 0,5 -1,10 -4,13 -2,3 -5,5 -10,5 -4,0 -7,-1 -10,-5 -3,-3 -4,-7 -4,-12zm51 -1c-1,-24 -2,-48 -2,-73 -2,0 -4,1 -7,1 -3,0 -6,-2 -9,-4 -2,-2 -3,-6 -3,-10 0,-4 1,-7 3,-10 2,-3 5,-4 9,-4 2,0 4,0 6,0 0,-7 0,-13 0,-19 0,-5 1,-10 3,-13 3,-3 6,-5 10,-5 5,0 8,2 11,5 3,3 4,7 4,12 0,7 0,13 0,19 3,0 6,0 8,0 5,0 8,1 10,3 3,3 4,6 4,11 0,4 -1,7 -3,10 -2,2 -6,4 -10,4 -3,0 -5,0 -8,0 1,24 1,48 2,72 0,5 -1,9 -4,12 -2,4 -6,5 -10,5 -4,1 -7,-1 -10,-4 -3,-3 -4,-7 -4,-12zm131 -35c-19,1 -39,1 -59,2 1,7 4,12 9,16 5,4 11,5 18,5 5,0 12,-3 20,-8 5,-3 9,-5 11,-5 3,0 6,1 8,4 2,3 3,6 3,9 1,6 -4,12 -14,18 -9,6 -19,9 -30,9 -15,1 -28,-4 -38,-15 -10,-11 -15,-26 -15,-43 -1,-16 4,-31 13,-43 10,-12 21,-18 35,-19 14,0 26,6 36,17 10,12 15,25 15,39 0,9 -4,14 -12,14zm-60 -19c15,-1 30,-1 44,-1 -1,-8 -3,-14 -7,-18 -4,-4 -9,-6 -15,-6 -6,0 -11,3 -15,7 -4,5 -6,10 -7,18zm140 47c0,-23 -1,-47 -1,-70 -2,0 -4,0 -6,0 -4,0 -7,-1 -9,-4 -2,-2 -3,-5 -3,-10 0,-3 1,-7 3,-9 2,-3 5,-4 9,-4 2,0 4,-1 6,-1 0,-6 0,-12 0,-18 0,-5 1,-9 3,-13 3,-3 6,-5 10,-5 4,0 8,2 10,5 3,3 4,7 4,12 0,7 0,13 0,19 3,0 5,0 8,0 4,0 7,1 9,3 3,2 4,6 4,10 0,4 -1,8 -4,10 -2,2 -5,4 -9,4 -2,0 -5,0 -8,0 1,24 1,47 1,71 0,5 -1,9 -4,12 -2,3 -6,5 -9,5 -5,0 -8,-1 -10,-4 -3,-3 -4,-8 -4,-13zm45 -41c0,-17 4,-31 13,-43 10,-12 21,-18 34,-18 14,0 25,5 35,17 9,11 14,25 14,41 -1,17 -5,31 -14,42 -9,12 -20,17 -34,18 -14,0 -25,-5 -35,-16 -9,-11 -13,-25 -13,-41zm69 -2c0,-9 -2,-16 -6,-22 -4,-6 -9,-9 -15,-9 -7,0 -12,4 -16,10 -4,6 -6,13 -6,22 1,9 2,16 6,22 4,6 9,8 16,8 6,0 11,-3 15,-9 4,-6 6,-14 6,-22zm87 12c0,-18 0,-37 0,-55 0,-5 1,-9 4,-12 2,-3 5,-5 9,-5 4,0 7,1 10,4 2,3 3,8 3,12 0,19 0,36 0,54 0,6 1,11 5,14 3,4 7,6 11,6 5,-1 9,-3 12,-6 4,-4 5,-9 5,-14 1,-18 1,-36 1,-54 0,-5 1,-9 4,-13 2,-3 5,-4 9,-4 4,0 7,1 9,4 3,3 4,7 4,12 0,18 0,36 -1,54 0,14 -4,25 -11,33 -8,8 -18,12 -32,12 -13,1 -24,-3 -31,-10 -8,-8 -11,-19 -11,-32zm133 -76c8,0 16,2 22,6 7,4 10,9 10,15 0,4 -1,7 -3,10 -2,2 -5,4 -8,4 -1,0 -4,-1 -8,-3 -6,-4 -11,-5 -14,-5 -3,0 -5,0 -7,2 -1,1 -2,3 -2,6 0,2 1,4 2,5 2,2 6,4 13,7 6,2 10,5 14,7 4,3 8,6 11,10 2,4 4,9 3,16 0,10 -3,18 -10,25 -7,7 -16,10 -26,11 -9,0 -16,-2 -24,-7 -8,-4 -12,-9 -12,-15 0,-3 1,-6 4,-9 2,-3 4,-5 7,-5 4,0 8,2 12,5 6,3 11,5 15,5 3,0 6,-1 8,-2 1,-2 2,-4 2,-7 0,-2 -1,-4 -2,-5 -2,-2 -6,-4 -13,-6 -6,-3 -11,-5 -14,-8 -4,-2 -8,-5 -11,-10 -3,-4 -4,-9 -4,-16 0,-10 3,-19 10,-26 7,-6 15,-10 25,-10z"/>
   </g>
  </g>
 </g>
</svg>
