<?xml version="1.0" encoding="UTF-8"?>
<!DOCTYPE svg PUBLIC "-//W3C//DTD SVG 1.1//EN" "http://www.w3.org/Graphics/SVG/1.1/DTD/svg11.dtd">
<!-- Creator: CorelDRAW X7 -->
<svg xmlns="http://www.w3.org/2000/svg" xml:space="preserve" width="1.77778in" height="1.77778in" version="1.1" style="shape-rendering:geometricPrecision; text-rendering:geometricPrecision; image-rendering:optimizeQuality; fill-rule:evenodd; clip-rule:evenodd"
viewBox="0 0 1778 1778"
 xmlns:xlink="http://www.w3.org/1999/xlink">
 <defs>
  <style type="text/css">
   <![CDATA[
    .str0 {stroke:white;stroke-width:6.94094}
    .fil7 {fill:#C9C9C9}
    .fil9 {fill:#373435;fill-rule:nonzero}
    .fil6 {fill:#373435;fill-rule:nonzero}
    .fil10 {fill:#4D4D4D;fill-rule:nonzero}
    .fil2 {fill:url(#id0)}
    .fil1 {fill:url(#id1)}
    .fil8 {fill:url(#id2)}
    .fil0 {fill:url(#id3)}
    .fil3 {fill:url(#id4)}
    .fil5 {fill:url(#id5)}
    .fil4 {fill:url(#id6)}
   ]]>
  </style>
  <radialGradient id="id0" gradientUnits="userSpaceOnUse" gradientTransform="matrix(1.02458 -0 -0 1.02458 -40 -6)" cx="1634.03" cy="244.232" r="157.72" fx="1634.03" fy="244.232">
   <stop offset="0" style="stop-opacity:1; stop-color:#FEFEFE"/>
   <stop offset="1" style="stop-opacity:1; stop-color:#727376"/>
  </radialGradient>
  <radialGradient id="id1" gradientUnits="userSpaceOnUse" gradientTransform="matrix(1.02459 -0 -0 1.02459 -38 -8)" xlink:href="#id0" cx="1544.07" cy="331.146" r="88.0472" fx="1544.07" fy="331.146">
  </radialGradient>
  <radialGradient id="id2" gradientUnits="userSpaceOnUse" gradientTransform="matrix(0.975383 -0 -0 0.975398 28 8)" xlink:href="#id0" cx="1141.91" cy="344.858" r="395.067" fx="1141.91" fy="344.858">
  </radialGradient>
  <radialGradient id="id3" gradientUnits="userSpaceOnUse" gradientTransform="matrix(1.83296 -0 -0 1.83297 -1295 -671)" cx="1554.54" cy="805.201" r="467.634" fx="1554.54" fy="805.201">
   <stop offset="0" style="stop-opacity:1; stop-color:#FEFEFE"/>
   <stop offset="0.619608" style="stop-opacity:1; stop-color:#B8B8BA"/>
   <stop offset="1" style="stop-opacity:1; stop-color:#727376"/>
  </radialGradient>
  <radialGradient id="id4" gradientUnits="userSpaceOnUse" gradientTransform="matrix(0.93776 -0 -0 1.403 51 -391)" cx="812.72" cy="971.024" r="430.406" fx="812.72" fy="971.024">
   <stop offset="0" style="stop-opacity:1; stop-color:white"/>
   <stop offset="0.74902" style="stop-opacity:1; stop-color:#0098D3"/>
   <stop offset="0.12549" style="stop-opacity:1; stop-color:#80B4CC"/>
   <stop offset="1" style="stop-opacity:1; stop-color:#026999"/>
  </radialGradient>
  <radialGradient id="id5" gradientUnits="userSpaceOnUse" gradientTransform="matrix(1.88321 -0 -0 1.88322 -805 -1365)" cx="911.992" cy="1545.37" r="1269.45" fx="911.992" fy="1545.37">
   <stop offset="0" style="stop-opacity:1; stop-color:#FEFEFE"/>
   <stop offset="0.368627" style="stop-opacity:1; stop-color:#A9ABAE"/>
   <stop offset="1" style="stop-opacity:1; stop-color:#757576"/>
  </radialGradient>
  <radialGradient id="id6" gradientUnits="userSpaceOnUse" gradientTransform="matrix(1.01162 -0 -0 1.01162 -10 -11)" cx="875.85" cy="948.134" r="592.642" fx="875.85" fy="948.134">
   <stop offset="0" style="stop-opacity:1; stop-color:white"/>
   <stop offset="0.760784" style="stop-opacity:1; stop-color:#FFDF57"/>
   <stop offset="0.117647" style="stop-opacity:1; stop-color:#EBCC9C"/>
   <stop offset="1" style="stop-opacity:1; stop-color:#D79939"/>
  </radialGradient>
 </defs>
 <g id="Layer_x0020_1">
  <metadata id="CorelCorpID_0Corel-Layer"/>
  <path class="fil0" d="M1140 132c320,118 548,426 548,785 0,461 -376,837 -836,837 -85,1 -149,-12 -179,-20l49 -227c-35,-8 -69,-19 -103,-33 -307,-128 -453,-483 -325,-790 111,-265 392,-410 664,-361l-14 69 4 -1 -1 3 3 0 1 -4 183 -47 189 -50 -152 -134 -31 -27zm-990 1240c-2,-3 -5,-7 -7,-11 2,4 5,8 7,11zm-8 -13c-69,-110 -113,-236 -124,-372 12,132 54,260 124,372zm383 -1212c2,0 4,-1 6,-2l-6 2zm15 -6c4,-1 8,-3 12,-5 -4,2 -8,4 -12,5zm14 -5c56,-22 116,-38 177,-47 -61,9 -120,25 -177,47z"/>
  <polygon class="fil1" points="1511,262 1622,398 1571,439 1460,304 "/>
  <polygon class="fil2" points="1571,120 1773,367 1686,438 1484,191 "/>
  <path class="fil3" d="M852 313c44,0 87,5 128,14l-249 1182c-275,-56 -483,-300 -483,-592 0,-332 271,-604 604,-604zm128 14c98,22 101,22 0,0z"/>
  <path class="fil4" d="M980 327c271,60 475,302 475,590 0,333 -271,604 -603,604 -42,0 -82,-4 -121,-12l249 -1182z"/>
  <path class="fil5" d="M852 313c332,0 603,272 603,604 0,333 -271,604 -603,604 -333,0 -604,-271 -604,-604 0,-332 271,-604 604,-604zm0 40c311,0 564,253 564,564 0,311 -253,565 -564,565 -311,0 -565,-254 -565,-565 0,-311 254,-564 565,-564z"/>
  <path class="fil6" d="M506 830l4 -16c3,-17 12,-48 37,-50 21,-1 25,17 21,34 -5,24 -14,39 -34,57l-42 36c-44,40 -89,88 -101,144l-3 11 203 0 13 -61 -117 0c8,-19 42,-47 57,-59l36 -28c35,-30 53,-55 62,-97 14,-63 -17,-93 -78,-93 -68,0 -111,38 -125,105l-4 17 71 0z"/>
  <path id="1" class="fil6" d="M690 925l78 -109 1 0 -23 109 -56 0zm-69 57l113 0 -14 64 72 0 13 -64 30 0 12 -57 -30 0 45 -210 -79 0 -148 203 -14 64z"/>
  <polygon id="2" class="fil6" points="1005,794 967,864 966,864 960,794 889,794 919,920 833,1046 906,1046 945,973 946,973 953,1046 1025,1046 993,920 1077,794 "/>
  <path id="3" class="fil6" d="M1097 776l124 0 -52 78c-29,44 -83,146 -93,192l78 0c13,-41 25,-75 44,-114 26,-55 56,-110 95,-160l12 -57 -195 0 -13 61z"/>
  <path class="fil7" d="M958 323c-272,-49 -553,96 -664,361 -128,307 18,662 325,790 34,14 68,25 103,33l-49 227c-48,-10 -96,-25 -144,-45 -425,-177 -627,-669 -450,-1094 154,-370 546,-571 926,-500l14 -70 152 134 152 134 -189 50 -183 47 -1 4 -3 0 1 -3 -4 1 14 -69z"/>
  <polygon class="fil8" points="1322,292 1301,333 963,427 946,389 "/>
  <path class="fil9 str0" d="M548 1472l-14 27 44 21 -15 29 -40 -19 -13 27 40 20 -12 24 -41 -20 -14 28 73 35 67 -135 -75 -37zm-44 -27l-71 95 0 0 54 -109 -21 -16 -93 78 0 0 76 -91 -27 -21 -93 119 39 30 70 -58 0 0 -40 82 39 30 93 -119 -26 -20zm-151 -141l-22 20 31 36 -24 22 -29 -34 -23 20 29 33 -21 19 -30 -35 -23 20 53 61 114 -99 -55 -63zm-137 20c-9,-14 -12,-21 4,-30 8,-5 17,-7 22,1l6 11 -32 18zm56 -32l-6 -10c-3,-7 0,-13 8,-18 7,-6 19,-11 30,-18 2,-2 4,-4 6,-6l-19 -34 -2 1c0,2 -1,4 -2,6 -8,6 -30,19 -40,26 -9,6 -11,16 -8,25l-1 0c-13,-9 -25,-7 -39,1 -26,15 -29,34 -14,59l25 45 131 -76 -17 -30 -52 29zm-24 -183l-76 31 18 45 26 -10 -5 -12 11 -5c9,-3 18,-6 22,5 4,8 1,14 -7,17l-70 28c-9,3 -15,3 -19,-7 -4,-9 2,-13 14,-18l7 -3 -13 -33 -10 5c-29,11 -34,33 -23,61 12,30 32,38 63,26l57 -23c26,-11 41,-27 30,-55 -6,-14 -13,-20 -27,-22l0 -1 11 -6 -9 -23zm-21 -100l-30 6 9 47 -32 6 -8 -43 -30 5 8 44 -27 5 -9 -45 -29 6 15 80 148 -29 -15 -82zm-8 -74l-1 -36 -151 8 1 33 84 -7 0 0 -82 32 1 36 151 -7 -1 -34 -84 8 -1 -1 83 -32zm-83 -163l-13 -2c-30,-5 -46,11 -51,40 -5,32 8,50 40,55l62 10c30,5 49,-5 54,-37 6,-36 -10,-54 -35,-58l-19 -3 -5 35 13 2c10,2 22,5 20,17 -2,9 -7,11 -16,10l-73 -12c-10,-1 -16,-5 -14,-16 1,-7 9,-10 21,-8l10 2 6 -35zm-37 -74l-11 34 94 -8 61 18 10 -34 -60 -18 -73 -61 -11 34 42 32 0 0 -52 3zm147 -101l14 8c17,10 40,8 56,-20 15,-25 10,-47 -15,-62 -16,-9 -27,-11 -37,-7 -11,3 -22,10 -36,17 -8,3 -14,5 -21,-1 -5,-4 -7,-9 -2,-15 6,-10 16,-3 24,1l17 -28c-23,-16 -49,-13 -65,13 -14,24 -11,46 14,60 11,7 21,9 31,7 10,-1 20,-6 31,-12 9,-5 19,-12 30,-5 6,4 11,10 6,18 -5,9 -13,8 -21,3l-9 -5 -17 28zm154 -128l-23 -19 -31 37 -25 -20 28 -35 -23 -19 -28 35 -22 -18 29 -35 -24 -19 -51 63 117 95 53 -65zm-39 -129c13,-12 19,-16 31,-2 6,7 10,16 2,22l-9 8 -24 -28zm41 49l9 -8c7,-4 13,-2 20,5 6,6 14,16 23,26 2,2 4,4 7,6l29 -25 -1 -2c-2,0 -4,-1 -6,-2 -8,-6 -24,-26 -33,-34 -7,-8 -17,-9 -26,-4l0 0c7,-15 2,-26 -8,-39 -19,-23 -38,-22 -60,-4l-40 33 97 116 27 -22 -38 -46zm157 -35l-50 -147 -30 18 39 100 -1 1 -70 -82 -30 18 106 113 36 -21zm74 -34l-59 -139 -33 13 59 140 33 -14zm84 -127l-4 -13c-8,-29 -28,-37 -58,-29 -31,8 -42,27 -33,58l16 60c8,30 25,44 56,35 35,-9 45,-30 38,-56l-5 -17 -34 9 4 13c2,9 4,21 -7,24 -9,3 -14,-1 -16,-10l-19 -72c-3,-9 -2,-16 9,-18 6,-2 13,3 16,15l2 10 35 -9zm126 85l-3 -30 -48 5 -3 -33 44 -4 -3 -30 -44 4 -3 -27 45 -5 -3 -30 -81 8 16 151 83 -9z"/>
  <path class="fil10" d="M548 1472l-14 27 44 21 -15 29 -40 -19 -13 27 40 20 -12 24 -41 -20 -14 28 73 35 67 -135 -75 -37zm-44 -27l-71 95 0 0 54 -109 -21 -16 -93 78 0 0 76 -91 -27 -21 -93 119 39 30 70 -58 0 0 -40 82 39 30 93 -119 -26 -20zm-151 -141l-22 20 31 36 -24 22 -29 -34 -23 20 29 33 -21 19 -30 -35 -23 20 53 61 114 -99 -55 -63zm-137 20c-9,-14 -12,-21 4,-30 8,-5 17,-7 22,1l6 11 -32 18zm56 -32l-6 -10c-3,-7 0,-13 8,-18 7,-6 19,-11 30,-18 2,-2 4,-4 6,-6l-19 -34 -2 1c0,2 -1,4 -2,6 -8,6 -30,19 -40,26 -9,6 -11,16 -8,25l-1 0c-13,-9 -25,-7 -39,1 -26,15 -29,34 -14,59l25 45 131 -76 -17 -30 -52 29zm-24 -183l-76 31 18 45 26 -10 -5 -12 11 -5c9,-3 18,-6 22,5 4,8 1,14 -7,17l-70 28c-9,3 -15,3 -19,-7 -4,-9 2,-13 14,-18l7 -3 -13 -33 -10 5c-29,11 -34,33 -23,61 12,30 32,38 63,26l57 -23c26,-11 41,-27 30,-55 -6,-14 -13,-20 -27,-22l0 -1 11 -6 -9 -23zm-21 -100l-30 6 9 47 -32 6 -8 -43 -30 5 8 44 -27 5 -9 -45 -29 6 15 80 148 -29 -15 -82zm-8 -74l-1 -36 -151 8 1 33 84 -7 0 0 -82 32 1 36 151 -7 -1 -34 -84 8 -1 -1 83 -32zm-83 -163l-13 -2c-30,-5 -46,11 -51,40 -5,32 8,50 40,55l62 10c30,5 49,-5 54,-37 6,-36 -10,-54 -35,-58l-19 -3 -5 35 13 2c10,2 22,5 20,17 -2,9 -7,11 -16,10l-73 -12c-10,-1 -16,-5 -14,-16 1,-7 9,-10 21,-8l10 2 6 -35zm-37 -74l-11 34 94 -8 61 18 10 -34 -60 -18 -73 -61 -11 34 42 32 0 0 -52 3zm147 -101l14 8c17,10 40,8 56,-20 15,-25 10,-47 -15,-62 -16,-9 -27,-11 -37,-7 -11,3 -22,10 -36,17 -8,3 -14,5 -21,-1 -5,-4 -7,-9 -2,-15 6,-10 16,-3 24,1l17 -28c-23,-16 -49,-13 -65,13 -14,24 -11,46 14,60 11,7 21,9 31,7 10,-1 20,-6 31,-12 9,-5 19,-12 30,-5 6,4 11,10 6,18 -5,9 -13,8 -21,3l-9 -5 -17 28zm154 -128l-23 -19 -31 37 -25 -20 28 -35 -23 -19 -28 35 -22 -18 29 -35 -24 -19 -51 63 117 95 53 -65zm-39 -129c13,-12 19,-16 31,-2 6,7 10,16 2,22l-9 8 -24 -28zm41 49l9 -8c7,-4 13,-2 20,5 6,6 14,16 23,26 2,2 4,4 7,6l29 -25 -1 -2c-2,0 -4,-1 -6,-2 -8,-6 -24,-26 -33,-34 -7,-8 -17,-9 -26,-4l0 0c7,-15 2,-26 -8,-39 -19,-23 -38,-22 -60,-4l-40 33 97 116 27 -22 -38 -46zm157 -35l-50 -147 -30 18 39 100 -1 1 -70 -82 -30 18 106 113 36 -21zm74 -34l-59 -139 -33 13 59 140 33 -14zm84 -127l-4 -13c-8,-29 -28,-37 -58,-29 -31,8 -42,27 -33,58l16 60c8,30 25,44 56,35 35,-9 45,-30 38,-56l-5 -17 -34 9 4 13c2,9 4,21 -7,24 -9,3 -14,-1 -16,-10l-19 -72c-3,-9 -2,-16 9,-18 6,-2 13,3 16,15l2 10 35 -9zm126 85l-3 -30 -48 5 -3 -33 44 -4 -3 -30 -44 4 -3 -27 45 -5 -3 -30 -81 8 16 151 83 -9z"/>
 </g>
</svg>
