<?xml version="1.0" encoding="UTF-8"?>
<!DOCTYPE svg PUBLIC "-//W3C//DTD SVG 1.1//EN" "http://www.w3.org/Graphics/SVG/1.1/DTD/svg11.dtd">
<!-- Creator: CorelDRAW X7 -->
<svg xmlns="http://www.w3.org/2000/svg" xml:space="preserve" width="1.76389in" height="1.73611in" version="1.1" style="shape-rendering:geometricPrecision; text-rendering:geometricPrecision; image-rendering:optimizeQuality; fill-rule:evenodd; clip-rule:evenodd"
viewBox="0 0 1764 1736"
 xmlns:xlink="http://www.w3.org/1999/xlink">
 <defs>
  <style type="text/css">
   <![CDATA[
    .str0 {stroke:#A8CF45;stroke-width:27.7756}
    .str1 {stroke:white;stroke-width:6.94488}
    .fil3 {fill:none}
    .fil0 {fill:#4D4D4D}
    .fil2 {fill:#86B359}
    .fil1 {fill:#99CC66}
    .fil5 {fill:#FEFEFE;fill-rule:nonzero}
    .fil4 {fill:white;fill-rule:nonzero}
   ]]>
  </style>
   <clipPath id="id0">
    <path d="M889 216c364,0 659,295 659,659 0,364 -295,659 -659,659 -364,0 -659,-295 -659,-659 0,-364 295,-659 659,-659z"/>
   </clipPath>
 </defs>
 <g id="Layer_x0020_1">
  <metadata id="CorelCorpID_0Corel-Layer"/>
  <path class="fil0" d="M889 216c364,0 659,295 659,659 0,364 -295,659 -659,659 -364,0 -659,-295 -659,-659 0,-364 295,-659 659,-659z"/>
  <g style="clip-path:url(#id0)">
   <g id="_476780656">
    <polygon id="1" class="fil1" points="23,535 890,655 1755,535 1755,1216 881,1095 23,1216 "/>
    <polygon class="fil2" points="1755,873 1755,1216 881,1095 23,1216 23,873 "/>
   </g>
  </g>
  <path class="fil3 str0" d="M889 216c364,0 659,295 659,659 0,364 -295,659 -659,659 -364,0 -659,-295 -659,-659 0,-364 295,-659 659,-659z"/>
  <path class="fil0" d="M889 100c56,0 94,-77 148,-68 55,10 64,95 117,114 52,20 114,-40 162,-12 48,28 28,111 71,147 43,36 121,2 157,44 36,43 -12,114 16,162 28,49 114,43 133,95 19,53 -50,103 -41,158 10,56 92,80 92,135 0,56 -82,80 -92,135 -9,55 60,106 41,158 -19,52 -105,46 -133,95 -28,48 20,120 -16,162 -36,43 -114,8 -157,44 -43,36 -23,120 -71,147 -48,28 -110,-31 -162,-12 -53,19 -62,104 -117,114 -54,9 -92,-67 -148,-67 -56,0 -94,76 -149,67 -55,-10 -64,-95 -117,-114 -52,-19 -114,40 -162,12 -48,-27 -28,-111 -71,-147 -43,-36 -121,-1 -157,-44 -36,-42 12,-114 -16,-162 -28,-49 -114,-43 -133,-95 -19,-52 50,-103 41,-158 -10,-55 -92,-79 -92,-135 0,-55 82,-79 92,-135 9,-55 -60,-105 -41,-158 19,-52 105,-46 133,-95 28,-48 -20,-119 16,-162 36,-42 114,-8 157,-44 43,-36 23,-119 71,-147 48,-28 110,32 162,12 53,-19 62,-104 117,-114 55,-9 93,68 149,68zm0 102c370,0 672,303 672,673 0,371 -302,673 -672,673 -371,0 -673,-302 -673,-673 0,-370 302,-673 673,-673z"/>
  <path class="fil4" d="M590 439l0 89c0,33 13,46 33,46 20,0 34,-13 34,-48l0 -87 -15 0 0 89c0,24 -7,33 -18,33 -11,0 -19,-9 -19,-33l0 -89 -15 0z"/>
  <path id="1" class="fil4" d="M695 572l0 -46c0,-28 -1,-45 -2,-63l0 0c5,17 11,32 16,45l26 64 14 0 0 -133 -14 0 0 48c0,23 1,40 2,61l0 0c-5,-14 -12,-32 -17,-46l-25 -63 -14 0 0 133 14 0z"/>
  <path id="2" class="fil4" d="M773 572c4,1 10,1 20,1 15,0 28,-3 35,-12 6,-6 10,-15 10,-26 0,-18 -10,-30 -25,-34l0 -1c13,-5 20,-16 20,-30 0,-9 -2,-17 -8,-22 -7,-7 -18,-10 -30,-10 -8,0 -16,1 -22,3l0 131zm15 -121c2,0 5,-1 8,-1 17,0 22,10 22,22 0,14 -10,24 -23,24l-7 0 0 -45zm0 56l7 0c14,0 27,9 27,28 0,17 -10,26 -26,26 -3,0 -6,0 -8,-1l0 -53z"/>
  <polygon id="3" class="fil4" points="855,439 855,572 871,572 871,439 "/>
  <path id="4" class="fil4" d="M940 532l9 40 15 0 -30 -133 -16 0 -31 133 15 0 9 -40 29 0zm-27 -12l7 -34c2,-9 4,-20 5,-30l1 0c2,10 3,21 5,30l7 34 -25 0z"/>
  <path id="5" class="fil4" d="M975 568c3,3 13,6 22,6 21,0 38,-15 38,-38 0,-15 -8,-27 -24,-38 -12,-9 -19,-14 -19,-28 0,-9 6,-19 19,-19 7,0 12,2 16,5l4 -13c-4,-3 -11,-5 -19,-5 -21,0 -36,15 -36,35 0,17 15,30 26,37 10,8 17,15 17,28 0,13 -8,22 -22,22 -7,0 -15,-2 -19,-5l-3 13z"/>
  <polygon id="6" class="fil4" points="1101,496 1068,496 1068,452 1103,452 1103,439 1052,439 1052,572 1106,572 1106,559 1068,559 1068,509 1101,509 "/>
  <path id="7" class="fil4" d="M1122 572c5,1 11,1 17,1 16,0 29,-4 37,-14 9,-9 16,-26 16,-56 0,-28 -7,-46 -18,-55 -7,-6 -17,-10 -31,-10 -8,0 -15,1 -21,3l0 131zm16 -120c2,-1 4,-1 7,-1 21,0 32,18 32,52 0,45 -17,57 -34,57 -1,0 -3,0 -5,0l0 -108z"/>
  <path class="fil5" d="M511 983c9,1 21,2 36,2 34,0 54,-7 66,-20 9,-10 15,-23 15,-39 0,-22 -13,-42 -36,-48l0 -2c20,-8 29,-25 29,-43 0,-14 -4,-28 -15,-36 -14,-12 -32,-15 -51,-15 -17,0 -32,2 -44,4l0 197zm39 -170c2,-1 6,-2 10,-2 16,0 23,12 23,26 0,17 -11,28 -25,28l-8 0 0 -52zm0 81l8 0c15,1 29,11 29,31 0,20 -13,30 -29,30 -3,0 -6,0 -8,-1l0 -60z"/>
  <path id="1" class="fil5" d="M653 783l0 124c0,50 16,79 58,79 39,0 58,-28 58,-80l0 -123 -39 0 0 130c0,31 -8,39 -19,39 -10,0 -19,-9 -19,-39l0 -130 -39 0z"/>
  <path id="2" class="fil5" d="M864 983l0 -78 45 -122 -41 0 -11 47c-4,14 -7,29 -10,44l0 0c-3,-15 -7,-30 -11,-43l-13 -48 -42 0 44 124 0 76 39 0z"/>
  <polygon id="3" class="fil5" points="922,783 922,983 961,983 961,783 "/>
  <path id="4" class="fil5" d="M1030 983l0 -45c0,-40 -1,-71 -2,-91l0 0c5,18 14,43 21,60l30 76 36 0 0 -200 -34 0 0 44c0,37 2,72 3,93l0 0c-6,-17 -16,-43 -22,-58l-30 -79 -36 0 0 200 34 0z"/>
  <path id="5" class="fil5" d="M1260 871l-53 0 0 32 17 0 0 48c-1,1 -4,1 -7,1 -18,0 -37,-17 -37,-65 0,-52 21,-71 47,-71 10,0 18,2 23,5l7 -34c-6,-3 -17,-6 -33,-6 -42,0 -84,31 -85,104 0,34 9,64 26,80 14,14 31,20 54,20 14,0 33,-3 41,-7l0 -107z"/>
  <path class="fil4" d="M723 1289l9 40 15 0 -30 -133 -17 0 -30 133 14 0 9 -40 30 0zm-28 -12l7 -34c2,-9 4,-20 6,-30l0 0c2,9 4,20 6,30l7 34 -26 0z"/>
  <path id="1" class="fil4" d="M763 1329c5,1 11,1 17,1 16,0 28,-5 37,-15 9,-9 16,-25 16,-56 0,-28 -8,-45 -18,-54 -7,-6 -17,-10 -31,-10 -8,0 -15,1 -21,3l0 131zm16 -121c1,0 4,0 7,0 21,0 31,18 31,52 0,45 -16,57 -33,57 -1,0 -3,0 -5,0l0 -109z"/>
  <path id="2" class="fil4" d="M887 1329l31 -133 -16 0 -13 62c-3,16 -7,34 -9,52l0 0c-3,-17 -7,-37 -10,-52l-13 -62 -16 0 30 133 16 0z"/>
  <polygon id="3" class="fil4" points="933,1196 933,1329 948,1329 948,1196 "/>
  <path id="4" class="fil4" d="M1028 1314c-3,1 -8,3 -14,3 -16,0 -31,-14 -31,-54 0,-41 17,-55 31,-55 7,0 10,1 13,3l4 -13c-3,-2 -9,-4 -17,-4 -21,0 -47,17 -47,70 0,45 18,66 45,66 8,0 14,-1 19,-3l-3 -13z"/>
  <polygon id="5" class="fil4" points="1095,1253 1062,1253 1062,1209 1097,1209 1097,1196 1046,1196 1046,1329 1100,1329 1100,1316 1062,1316 1062,1266 1095,1266 "/>
  <line class="fil3 str1" x1="-246" y1="-115" x2="-246" y2= "1837" />
 </g>
</svg>
