<?xml version="1.0" encoding="UTF-8"?>
<!DOCTYPE svg PUBLIC "-//W3C//DTD SVG 1.1//EN" "http://www.w3.org/Graphics/SVG/1.1/DTD/svg11.dtd">
<!-- Creator: CorelDRAW X7 -->
<svg xmlns="http://www.w3.org/2000/svg" xml:space="preserve" width="1.38889in" height="1.38889in" version="1.1" style="shape-rendering:geometricPrecision; text-rendering:geometricPrecision; image-rendering:optimizeQuality; fill-rule:evenodd; clip-rule:evenodd"
viewBox="0 0 1389 1389"
 xmlns:xlink="http://www.w3.org/1999/xlink">
 <defs>
  <style type="text/css">
   <![CDATA[
    .fil0 {fill:red;fill-rule:nonzero}
   ]]>
  </style>
 </defs>
 <g id="Layer_x0020_1">
  <metadata id="CorelCorpID_0Corel-Layer"/>
  <path class="fil0" d="M92 617l174 0c26,0 49,10 67,28l0 0c13,13 23,31 26,51l28 0c20,0 38,-6 53,-17 15,-11 27,-27 33,-46l70 -227c11,-34 33,-60 61,-75 28,-16 62,-21 95,-11 32,10 58,34 72,63 14,28 17,63 7,96l-60 193c-1,3 -1,6 -1,9 0,0 0,1 0,1 3,4 6,8 8,11 1,1 1,1 2,1 2,2 5,2 8,2l175 0 1 0 214 0 0 0 1 0 0 0 1 0 0 0c27,1 52,12 70,29 19,18 31,43 31,71l0 1 0 0 0 1c0,20 -6,37 -15,53 8,4 15,10 21,16 19,18 31,43 31,70l0 2 0 1c0,28 -11,54 -30,72 -7,7 -14,13 -22,17 3,6 6,13 9,19l0 1 0 0 0 0 1 2 0 0 0 1 0 0 0 1 0 0 0 0 1 1 0 0 0 1 0 0 0 1 0 1 0 0 1 1 0 0 0 0 0 1 0 0 0 1 0 1 0 1 1 0 0 1 0 0 0 1 0 0 0 0 0 1 0 0 0 1 0 1 1 1 0 0 0 0 0 1 0 0 0 1 0 0 0 1 0 0 0 1 0 0 0 1 0 0 0 1 0 0 0 1 0 1 0 0 0 1 0 0 0 1 0 0 0 1 1 0 0 0 0 1 0 1 0 0 0 1 0 1 0 0 0 2 0 0 -1 1 0 0 0 1 0 1 0 1 0 1 0 0 0 1c-2,25 -13,47 -30,63 -8,8 -17,15 -27,20 2,2 3,5 5,8 6,13 9,27 9,42l0 1 0 0 0 0c0,28 -12,53 -31,72 -7,7 -16,13 -25,18l0 0 0 0c-14,7 -30,11 -47,11l-18 0 -1 0c-3,1 -6,1 -8,1 -5,1 -9,1 -12,1l-464 0c-19,0 -37,-5 -53,-13l0 0c-17,-9 -31,-21 -42,-36 -9,-13 -20,-22 -32,-29 -12,-6 -26,-9 -42,-9l-49 0c0,25 -11,47 -27,64l0 0c-18,17 -41,28 -67,28l-204 0 0 -716 30 0zm1029 -489l52 122 133 12c11,1 21,5 29,12 8,6 14,15 18,26 3,10 3,21 0,31 -2,10 -8,19 -16,26l-100 87 29 130c3,11 2,22 -2,31 -3,10 -10,19 -19,25 -9,6 -19,10 -29,10 -11,1 -21,-2 -30,-7l-114 -68 -115 68c-9,5 -19,8 -30,7 -10,0 -20,-4 -29,-10 -9,-6 -15,-15 -19,-25 -4,-10 -5,-20 -2,-31l29 -129 -100 -88c-8,-7 -14,-16 -16,-26 -3,-10 -3,-21 0,-31 4,-11 10,-20 18,-26 8,-7 18,-11 29,-12l132 -11 53 -123c4,-10 11,-18 20,-24 8,-5 19,-9 30,-9 11,0 21,4 29,9 9,6 16,14 20,24zm0 147l-50 -114 -49 115c-4,9 -10,17 -18,23 -8,5 -17,9 -27,10l-125 11 95 83c7,6 13,15 16,24 3,9 3,19 1,29l-28 121 108 -64c9,-5 18,-8 28,-8 10,0 19,3 28,8l107 64 -28 -122c-2,-10 -1,-20 2,-29 3,-9 8,-18 16,-24l94 -82 -126 -12c-10,-1 -19,-4 -27,-10 -7,-6 -14,-13 -17,-23zm-363 480c14,35 17,69 12,99 -4,26 -14,50 -28,71 -14,20 -31,38 -50,52 -48,37 -109,54 -153,47l9 -58c30,5 73,-8 108,-35 14,-11 27,-24 37,-39 9,-14 16,-30 19,-47 5,-32 -3,-70 -31,-113 -3,-3 -5,-6 -8,-9 -7,-10 -12,-21 -14,-33 -2,-11 -1,-23 3,-35l60 -194c6,-18 4,-37 -4,-52 -7,-16 -20,-28 -37,-33 -16,-5 -34,-2 -48,6 -16,8 -28,23 -34,41l-70 227c-10,32 -29,58 -54,76 -25,18 -55,29 -88,29l-26 0 0 427 48 0c25,0 48,5 69,16 20,11 38,27 53,47 5,7 12,13 21,18l0 0c8,4 17,6 26,6l207 0c-6,-12 -9,-27 -9,-42l0 0 0 0c0,-28 11,-53 30,-72 1,0 2,-1 3,-2 -18,-19 -29,-43 -29,-71 0,-28 11,-54 30,-72 4,-4 8,-7 12,-10 -15,-17 -24,-39 -24,-63 0,-27 12,-52 31,-70 2,-2 3,-3 5,-5 -16,-18 -26,-41 -26,-66 0,-15 3,-29 9,-41l-59 0zm187 371l136 -1 0 0 0 0c5,0 10,0 15,1l29 0c12,0 23,-5 31,-13 7,-7 12,-16 13,-26l0 -1 0 0 0 0 0 -1 0 0 0 0 0 0 0 -1 0 0 0 0 0 0 0 -1 0 0 0 0 0 0 0 -1 0 0 0 0 0 0 0 -1 0 0 0 0 0 -1 0 0 0 0 0 0 0 0 0 -1 0 0 0 0 0 0 0 -1 0 0 0 0 0 0 0 -1 0 0 0 0 -1 0 0 0 0 -1 0 0 0 0 0 0 0 -1 0 0 0 0 0 -1 0 0 0 0 0 0 0 0 0 -1 0 0 0 0 0 0 0 -1 0 0 0 0 0 0 -1 -1 0 0 0 0 0 0 0 -1 0 0 0 0 0 0 0 0 0 -1 0 0 0 0 0 0 0 -1 0 0 -1 0 0 0 0 0 0 -1 0 0 0 0 0 0 0 -1 0 0 0 0 0 0 0 0 -1 -1 0 0 0 0 0 0 0 -1 0 0 0 0c-1,-2 -3,-5 -4,-7 -3,-4 -6,-7 -10,-10l0 0 -1 0 0 0 0 0 0 -1 0 0c-7,-5 -16,-7 -25,-7l-242 0c-12,0 -24,5 -32,12 -8,8 -12,19 -12,31 0,12 4,23 12,31 8,8 20,13 32,13l62 0zm-37 58l-29 1c-13,0 -24,5 -32,12 -8,8 -13,18 -13,30l0 0 0 0c0,11 5,22 13,29 8,8 19,13 31,13l0 0 0 0 179 -1 3 0 21 0c12,0 23,-5 31,-13 8,-8 13,-19 13,-31 0,-1 0,-2 0,-2 -1,-10 -5,-19 -12,-26 -6,-6 -14,-10 -22,-12l-183 0zm240 -287l-247 0c-12,0 -23,4 -32,12 -7,7 -12,17 -12,28 0,11 5,21 12,28 9,8 20,13 32,13l261 0c13,0 24,-5 32,-13 7,-7 12,-16 13,-26 -1,-12 -6,-22 -13,-29 -8,-8 -18,-12 -29,-13l0 0 -2 0 0 0 0 0 0 0 -1 0 0 0 -14 0zm-238 -142c-12,0 -23,5 -31,12l0 0c-8,8 -12,18 -12,29 0,11 4,21 12,28l0 0c8,8 19,13 32,13l214 0c12,0 23,-5 31,-13l0 0c8,-7 12,-16 13,-27 -1,-11 -5,-22 -13,-29 -8,-8 -19,-13 -31,-13l-215 0zm-644 -79l-145 0 0 598 145 0c10,0 19,-4 25,-11l0 0c7,-6 11,-15 11,-25l0 -526c0,-10 -4,-19 -11,-26l0 0c-6,-6 -15,-10 -25,-10z"/>
 </g>
</svg>
