<?xml version="1.0" encoding="UTF-8"?>
<!DOCTYPE svg PUBLIC "-//W3C//DTD SVG 1.1//EN" "http://www.w3.org/Graphics/SVG/1.1/DTD/svg11.dtd">
<!-- Creator: CorelDRAW X7 -->
<svg xmlns="http://www.w3.org/2000/svg" xml:space="preserve" width="1.38889in" height="1.38889in" version="1.1" style="shape-rendering:geometricPrecision; text-rendering:geometricPrecision; image-rendering:optimizeQuality; fill-rule:evenodd; clip-rule:evenodd"
viewBox="0 0 1389 1389"
 xmlns:xlink="http://www.w3.org/1999/xlink">
 <defs>
  <style type="text/css">
   <![CDATA[
    .fil0 {fill:red;fill-rule:nonzero}
   ]]>
  </style>
 </defs>
 <g id="Layer_x0020_1">
  <metadata id="CorelCorpID_0Corel-Layer"/>
  <path class="fil0" d="M709 211c95,0 181,39 243,101 61,62 100,147 100,242 0,94 -39,180 -100,242 -62,62 -148,100 -243,100 -94,0 -180,-38 -242,-100 -62,-62 -100,-148 -100,-242 0,-95 38,-180 100,-242 62,-62 148,-101 242,-101zm-20 874l-87 237c-2,7 -7,13 -12,18 -6,4 -13,8 -20,9 -8,1 -15,0 -22,-2 -7,-3 -13,-7 -18,-13l-73 -90 -107 23c-8,2 -15,1 -22,-1 -7,-3 -14,-7 -19,-13 -5,-5 -8,-12 -10,-20 -1,-7 0,-14 2,-22l100 -273c-2,-4 -5,-7 -7,-9l-1 0c-11,-11 -30,-19 -48,-26 -28,-12 -56,-23 -74,-47 -19,-27 -16,-53 -13,-79 1,-13 2,-27 -1,-38l-1 0c-5,-14 -18,-30 -31,-45 -19,-24 -38,-47 -43,-76 -4,-33 10,-54 25,-76 7,-11 15,-23 16,-34l0 0c2,-15 -2,-35 -6,-55 -7,-29 -13,-59 -3,-87 11,-31 34,-43 57,-56 12,-6 24,-13 30,-22l0 0c9,-13 15,-32 20,-52 8,-29 16,-58 38,-78 24,-22 50,-23 76,-23 14,0 28,0 38,-6l0 0c13,-7 27,-22 41,-36 21,-22 41,-44 70,-52 32,-9 55,3 78,15 13,6 25,12 36,12l0 0c16,1 35,-6 54,-13 29,-9 57,-19 86,-13 32,7 47,28 62,50 8,11 16,22 26,27l0 0c14,8 34,11 54,14 30,4 59,9 82,28 25,21 29,47 32,73 2,13 4,27 10,36l0 0c9,13 25,25 41,37 25,18 49,36 60,63 13,31 4,55 -5,80 -5,13 -9,26 -8,37l0 0c2,16 10,34 19,51l0 0c14,28 27,55 24,84 -3,33 -23,51 -42,68 -10,9 -20,19 -24,29l0 0c-6,15 -7,35 -7,55 -1,30 -2,60 -18,85 -18,28 -43,34 -69,41 -13,3 -26,7 -35,14l0 0c-7,7 -13,16 -20,26l99 271c3,7 3,15 2,22 -1,7 -4,14 -9,20 -5,6 -11,10 -18,12 -7,3 -15,3 -22,2l-114 -22 -67 86c-5,7 -11,11 -18,14 -7,3 -15,3 -22,2 -8,-1 -15,-4 -20,-9 -6,-5 -11,-11 -13,-18l-87 -238c-8,3 -16,4 -24,4 -7,1 -13,0 -18,-1zm-257 -84l-77 213 96 -21c8,-2 16,-2 23,1 7,3 14,7 19,13l67 83 83 -229c-3,-3 -6,-5 -9,-8 -10,-9 -21,-18 -31,-20l0 -1c-16,-3 -36,-2 -56,0 -30,3 -60,6 -86,-7 -13,-7 -22,-15 -29,-24zm255 28l16 6c1,0 2,1 2,0 16,0 35,-12 54,-25 21,-13 42,-27 65,-32l0 0c23,-6 42,-1 61,3 16,4 32,8 43,1 14,-7 25,-27 36,-47 12,-22 24,-43 43,-59 17,-15 37,-20 56,-25 15,-4 31,-9 38,-20 9,-13 9,-35 10,-58 1,-25 1,-49 10,-72l0 0c8,-22 23,-35 38,-49 12,-11 24,-21 25,-34 2,-16 -8,-36 -19,-57l0 0c-10,-22 -21,-44 -24,-68 -3,-23 4,-42 11,-61 6,-15 11,-30 6,-42 -6,-15 -24,-28 -43,-42 -19,-14 -39,-29 -53,-49l0 0c-13,-19 -16,-39 -18,-58 -2,-17 -5,-33 -15,-41 -11,-10 -34,-13 -57,-17 -24,-3 -48,-7 -70,-19 -20,-11 -32,-27 -43,-43 -10,-13 -19,-26 -32,-29 -15,-4 -37,4 -59,12 -23,8 -46,16 -70,15 -23,0 -41,-9 -59,-18 -14,-7 -29,-14 -41,-11 -15,4 -31,21 -47,38 -16,17 -33,35 -55,47 -20,10 -40,11 -60,11 -16,0 -33,0 -42,9 -12,11 -18,33 -24,55 -6,24 -13,47 -27,67 -13,19 -31,29 -48,38 -14,8 -29,16 -33,28 -5,15 0,37 5,60 5,23 10,47 7,71l0 0c-3,23 -14,40 -25,57 -9,13 -18,26 -16,40 2,15 17,32 31,50 16,19 32,38 40,61 8,21 6,41 4,61 -2,16 -3,32 5,43 9,12 30,21 51,30 23,9 46,18 64,35l-1 0c18,15 25,34 32,52 6,15 12,30 24,36 14,7 37,5 60,3 24,-3 48,-5 72,1l0 0c23,6 38,19 53,32 6,5 12,11 19,14zm90 30l83 229 61 -79c5,-6 11,-11 18,-13 7,-3 15,-4 23,-2l104 20 -79 -218c-9,12 -20,23 -34,31 -29,16 -54,10 -79,4 -14,-3 -27,-6 -38,-4l0 0c-15,4 -32,15 -49,26 -3,2 -7,4 -10,6zm-30 -728l47 108 117 11c9,1 17,4 23,9l0 0c6,5 11,12 14,20 2,8 2,16 0,24 -2,8 -6,15 -13,20l-88 78 26 115c2,8 1,17 -2,24 -3,8 -8,14 -15,19 -6,5 -14,8 -22,8 -8,1 -17,-1 -24,-6l-101 -60 -102 61 0 0c-7,4 -15,6 -23,5l0 0c-8,0 -16,-3 -23,-8 -7,-5 -12,-11 -14,-19 -3,-7 -4,-16 -2,-24l26 -115 -89 -78c-6,-5 -10,-12 -13,-20 -2,-8 -2,-16 1,-24 3,-8 7,-15 14,-20 6,-5 14,-8 22,-9l117 -11 47 -108 0 0c4,-8 9,-14 16,-19 6,-4 14,-7 23,-7l0 0c8,0 16,3 23,7 7,5 12,11 15,19zm2 133l-40 -94 -41 94c-3,7 -8,13 -14,18 -6,4 -13,7 -21,7l-102 10 78 68c6,5 10,11 12,18 2,7 3,15 1,22l-23 100 89 -52c6,-4 14,-6 21,-6l0 0c8,0 15,2 22,6l88 52 -23 -100c-2,-8 -1,-15 1,-22 2,-8 6,-14 12,-19l77 -67 -102 -10c-8,-1 -15,-3 -21,-8l0 0c-6,-4 -11,-10 -14,-17l0 0zm166 -116c-52,-53 -125,-85 -206,-85 -80,0 -153,32 -206,85 -52,53 -85,125 -85,206 0,80 33,153 85,206 53,53 126,85 206,85 81,0 154,-32 206,-85 53,-53 86,-126 86,-206 0,-81 -33,-153 -86,-206z"/>
 </g>
</svg>
