<?xml version="1.0" encoding="UTF-8"?>
<!DOCTYPE svg PUBLIC "-//W3C//DTD SVG 1.1//EN" "http://www.w3.org/Graphics/SVG/1.1/DTD/svg11.dtd">
<!-- Creator: CorelDRAW X7 -->
<svg xmlns="http://www.w3.org/2000/svg" xml:space="preserve" width="1.38889in" height="1.38889in" version="1.1" style="shape-rendering:geometricPrecision; text-rendering:geometricPrecision; image-rendering:optimizeQuality; fill-rule:evenodd; clip-rule:evenodd"
viewBox="0 0 1389 1389"
 xmlns:xlink="http://www.w3.org/1999/xlink">
 <defs>
  <style type="text/css">
   <![CDATA[
    .fil0 {fill:red;fill-rule:nonzero}
   ]]>
  </style>
 </defs>
 <g id="Layer_x0020_1">
  <metadata id="CorelCorpID_0Corel-Layer"/>
  <path class="fil0" d="M190 446l31 -313c3,-28 17,-53 38,-70 20,-17 47,-27 76,-24l313 26c15,1 28,5 40,11l0 0c12,6 23,15 32,26l601 722c18,22 26,50 24,77l-1 0c-2,27 -15,53 -37,71l-344 287c-23,18 -51,26 -77,24 -27,-3 -53,-16 -72,-38l-600 -722c-9,-11 -16,-23 -20,-36 -4,-13 -5,-27 -4,-41zm168 -261c26,-21 58,-31 90,-28 31,3 61,18 83,44 22,26 31,59 28,90 -3,31 -18,62 -44,83 -26,22 -58,31 -90,28 -31,-3 -61,-17 -83,-44 -22,-26 -31,-58 -28,-89l0 0c3,-32 18,-62 44,-84zm84 37c-15,-2 -30,3 -43,13 -12,10 -19,25 -21,39l0 0c-1,15 3,31 14,43 10,13 24,20 39,21 15,1 30,-3 43,-13 12,-11 19,-25 21,-40 1,-15 -3,-30 -14,-43 -10,-12 -24,-19 -39,-20zm-157 -82l-31 312c0,6 0,11 1,16 2,5 5,10 8,14l601 722c7,8 17,13 28,14 10,1 21,-2 29,-9l345 -287c9,-7 13,-17 14,-27l0 0c1,-11 -2,-21 -9,-30l-600 -722c-4,-4 -8,-8 -13,-10l0 0c-4,-2 -10,-4 -15,-4l-314 -26c-11,-1 -21,3 -29,9 -8,7 -14,16 -15,28zm393 410l18 22c16,-10 32,-18 46,-22 14,-4 29,-5 45,-2 12,2 23,5 32,9 10,5 17,10 22,17 6,7 8,15 8,24 -1,9 -5,17 -13,23 -13,11 -28,11 -44,0 -19,-14 -39,-16 -61,-7l71 85c21,-9 38,-16 52,-21 13,-4 27,-6 41,-6 14,1 29,4 42,11 13,7 25,16 36,29 13,16 21,33 25,53 4,20 3,40 -4,61 -8,20 -20,40 -39,58l43 51c7,8 11,15 13,20 1,5 -1,10 -6,14 -5,4 -10,6 -14,4 -5,-1 -10,-5 -15,-11l-46 -56c-18,11 -35,19 -52,24 -17,4 -33,5 -48,3 -15,-2 -29,-6 -40,-12 -12,-6 -21,-13 -29,-22 -5,-7 -8,-15 -7,-25 1,-9 5,-17 13,-24 6,-5 12,-8 19,-8 7,-1 13,1 19,4 13,9 23,15 31,18 8,4 17,6 26,6 10,1 21,-2 32,-7l-80 -96c-23,10 -43,18 -60,22 -18,4 -35,3 -53,-2 -17,-5 -33,-17 -48,-35 -20,-24 -29,-49 -26,-77 2,-28 17,-55 43,-81l-18 -22c-10,-11 -10,-21 -1,-28 8,-7 17,-5 27,6zm91 164l-65 -80c-9,14 -14,26 -16,37 -2,11 2,22 12,33 9,11 19,17 29,17 11,1 24,-2 40,-7zm78 39l75 90c12,-14 18,-28 18,-43 1,-15 -4,-28 -13,-39 -10,-12 -21,-18 -34,-18 -13,-1 -28,3 -46,10z"/>
 </g>
</svg>
