<?xml version="1.0" encoding="UTF-8"?>
<!DOCTYPE svg PUBLIC "-//W3C//DTD SVG 1.1//EN" "http://www.w3.org/Graphics/SVG/1.1/DTD/svg11.dtd">
<!-- Creator: CorelDRAW X7 -->
<svg xmlns="http://www.w3.org/2000/svg" xml:space="preserve" width="1.25in" height="1.25in" version="1.1" style="shape-rendering:geometricPrecision; text-rendering:geometricPrecision; image-rendering:optimizeQuality; fill-rule:evenodd; clip-rule:evenodd"
viewBox="0 0 1250 1250"
 xmlns:xlink="http://www.w3.org/1999/xlink">
 <defs>
  <style type="text/css">
   <![CDATA[
    .fil0 {fill:red}
   ]]>
  </style>
 </defs>
 <g id="Layer_x0020_1">
  <metadata id="CorelCorpID_0Corel-Layer"/>
  <path class="fil0" d="M612 159c56,0 101,-50 151,-74 31,46 45,112 94,140 49,28 112,7 168,11 4,56 -17,120 11,169 29,48 94,62 141,93 -25,51 -75,95 -75,152 0,56 50,100 75,151 -47,31 -113,45 -141,94 -28,49 -7,112 -11,168 -56,4 -120,-17 -168,11 -49,28 -63,94 -94,141 -50,-25 -95,-75 -151,-75 -57,0 -101,50 -152,75 -31,-47 -45,-113 -94,-141 -48,-28 -112,-7 -168,-11 -4,-56 17,-120 -11,-168 -28,-49 -94,-63 -140,-94 25,-51 74,-95 74,-152 0,-56 -49,-100 -74,-151 46,-31 112,-45 140,-94 28,-48 7,-112 11,-168 56,-4 120,17 169,-11 48,-28 62,-94 93,-140 51,24 96,74 152,74zm0 133c205,0 371,166 371,371 0,205 -166,371 -371,371 -205,0 -372,-166 -372,-371 0,-205 167,-371 372,-371z"/>
 </g>
</svg>
