<?xml version="1.0" encoding="UTF-8"?>
<!DOCTYPE svg PUBLIC "-//W3C//DTD SVG 1.1//EN" "http://www.w3.org/Graphics/SVG/1.1/DTD/svg11.dtd">
<!-- Creator: CorelDRAW X7 -->
<svg xmlns="http://www.w3.org/2000/svg" xml:space="preserve" width="1.18055in" height="1.18055in" version="1.1" style="shape-rendering:geometricPrecision; text-rendering:geometricPrecision; image-rendering:optimizeQuality; fill-rule:evenodd; clip-rule:evenodd"
viewBox="0 0 1181 1181"
 xmlns:xlink="http://www.w3.org/1999/xlink">
 <defs>
  <style type="text/css">
   <![CDATA[
    .fil0 {fill:red;fill-rule:nonzero}
   ]]>
  </style>
 </defs>
 <g id="Layer_x0020_1">
  <metadata id="CorelCorpID_0Corel-Layer"/>
  <path class="fil0" d="M773 254c13,0 26,0 38,2l0 -56 -51 0 0 54c4,0 9,0 13,0zm-442 375c12,0 22,10 22,23 0,12 -10,22 -22,22l-297 0c-12,0 -22,-10 -22,-22 0,-13 10,-23 22,-23l297 0zm12 123c13,0 23,10 23,23 0,12 -10,22 -23,22l-221 0c-13,0 -23,-10 -23,-22 0,-13 10,-23 23,-23l221 0zm0 -246c13,0 23,10 23,22 0,13 -10,23 -23,23l-221 0c-13,0 -23,-10 -23,-23 0,-12 10,-22 23,-22l221 0zm37 377c13,0 23,10 23,23 0,12 -10,22 -23,22l-171 0c-12,0 -23,-10 -23,-22 0,-13 11,-23 23,-23l171 0zm0 -508c13,0 23,10 23,22 0,13 -10,23 -23,23l-171 0c-12,0 -23,-10 -23,-23 0,-12 11,-22 23,-22l171 0zm476 -113c77,17 145,55 198,108 72,72 116,171 116,281 0,110 -44,209 -116,281 -72,72 -171,116 -281,116 -110,0 -209,-44 -281,-116 -72,-72 -117,-171 -117,-281 0,-110 45,-209 117,-281 59,-59 137,-100 223,-112l0 -58 -33 0c-12,0 -22,-4 -29,-12l0 0c-8,-7 -12,-18 -12,-29l0 -41c0,-11 4,-21 12,-29 7,-7 17,-12 29,-12l206 0c11,0 21,5 28,12 8,8 12,18 12,29l0 41c0,11 -4,22 -12,29l0 0c-7,8 -17,12 -28,12l-32 0 0 62zm27 -140l-197 0 0 33 197 0 0 -33zm139 280c-64,-64 -152,-103 -249,-103 -98,0 -186,39 -249,103 -64,64 -104,152 -104,249 0,97 40,186 104,249 63,64 151,104 249,104 97,0 185,-40 249,-104 64,-63 103,-152 103,-249 0,-97 -39,-185 -103,-249zm-346 407l52 -107c-8,-4 -12,-14 -9,-30 7,-36 38,-90 59,-117 12,-15 20,-17 26,-13l50 -103c-13,-4 -26,-4 -40,0 -91,28 -199,229 -161,336 4,13 13,23 23,34zm67 -99l26 12c6,3 9,10 6,15l-41 85c-3,6 -10,8 -16,5l-26 -12 51 -105zm127 -265l26 12c6,3 9,10 6,16l-40 84c-3,6 -10,8 -16,5l-26 -12 50 -105z"/>
 </g>
</svg>
