<?xml version="1.0" encoding="UTF-8"?>
<!DOCTYPE svg PUBLIC "-//W3C//DTD SVG 1.1//EN" "http://www.w3.org/Graphics/SVG/1.1/DTD/svg11.dtd">
<!-- Creator: CorelDRAW X7 -->
<svg xmlns="http://www.w3.org/2000/svg" xml:space="preserve" width="1.18055in" height="1.18055in" version="1.1" style="shape-rendering:geometricPrecision; text-rendering:geometricPrecision; image-rendering:optimizeQuality; fill-rule:evenodd; clip-rule:evenodd"
viewBox="0 0 1181 1181"
 xmlns:xlink="http://www.w3.org/1999/xlink">
 <defs>
  <style type="text/css">
   <![CDATA[
    .fil0 {fill:red;fill-rule:nonzero}
   ]]>
  </style>
 </defs>
 <g id="Layer_x0020_1">
  <metadata id="CorelCorpID_0Corel-Layer"/>
  <path class="fil0" d="M768 72l-438 0c-9,0 -18,4 -25,10 -6,7 -10,16 -10,25l0 816 -51 51 0 -867c0,-24 9,-45 25,-61 16,-16 37,-25 61,-25l457 0 18 7 242 239 0 730c0,24 -10,46 -25,62 -16,15 -38,25 -61,25l-610 0 51 -51 559 0c9,0 18,-4 25,-10 6,-7 10,-16 10,-26l0 -697 -141 0c-24,0 -46,-10 -61,-26 -16,-15 -26,-37 -26,-61l0 -141zm-349 299c-14,0 -25,-12 -25,-26 0,-14 11,-25 25,-25l251 0c5,0 9,1 13,3 -11,-1 -22,-1 -32,-1 -64,0 -124,18 -175,49l-57 0zm0 -102c-14,0 -25,-12 -25,-26 0,-14 11,-25 25,-25l251 0c14,0 25,11 25,25 0,14 -11,26 -25,26l-251 0zm537 -20l-137 -135 0 99c0,10 4,19 11,25 6,7 15,11 25,11l101 0zm-290 234l32 77c3,6 8,10 14,10l83 7c7,0 12,5 14,11 3,7 1,14 -5,18l-63 54c-5,5 -7,11 -5,17l19 81c2,6 -1,13 -6,17 -6,4 -13,4 -19,1l-71 -44c-6,-3 -12,-3 -17,0l-71 44c-6,3 -13,3 -19,-1 -5,-4 -8,-11 -6,-17l19 -82c2,-6 0,-12 -5,-16l-63 -54c-6,-5 -7,-11 -5,-18 2,-6 7,-11 14,-11l83 -7c7,-1 12,-4 14,-10l32 -77c3,-6 9,-10 16,-10 6,0 12,4 15,10zm-267 372c2,-2 4,-3 6,-5 -41,-53 -66,-119 -66,-191 0,-86 35,-164 91,-220 57,-57 135,-92 221,-92 85,0 163,35 220,92 56,56 91,134 91,220 0,86 -35,164 -91,220 -57,56 -135,91 -220,91 -64,0 -123,-19 -173,-52 -2,4 -4,7 -7,10l-230 229c-20,20 -52,20 -72,0 -20,-20 -20,-52 0,-72l230 -230zm436 -380c-48,-47 -113,-76 -184,-76 -72,0 -137,29 -185,76 -47,47 -76,112 -76,184 0,72 29,137 76,184 48,47 113,76 185,76 71,0 136,-29 184,-76 47,-47 76,-112 76,-184 0,-72 -29,-137 -76,-184z"/>
 </g>
</svg>
