<?xml version="1.0" encoding="UTF-8"?>
<!DOCTYPE svg PUBLIC "-//W3C//DTD SVG 1.1//EN" "http://www.w3.org/Graphics/SVG/1.1/DTD/svg11.dtd">
<!-- Creator: CorelDRAW X7 -->
<svg xmlns="http://www.w3.org/2000/svg" xml:space="preserve" width="1.18055in" height="1.18055in" version="1.1" style="shape-rendering:geometricPrecision; text-rendering:geometricPrecision; image-rendering:optimizeQuality; fill-rule:evenodd; clip-rule:evenodd"
viewBox="0 0 1181 1181"
 xmlns:xlink="http://www.w3.org/1999/xlink">
 <defs>
  <style type="text/css">
   <![CDATA[
    .fil0 {fill:red;fill-rule:nonzero}
   ]]>
  </style>
 </defs>
 <g id="Layer_x0020_1">
  <metadata id="CorelCorpID_0Corel-Layer"/>
  <path class="fil0" d="M1144 108l0 956c0,21 -8,40 -22,54l0 0c-14,14 -33,23 -54,23l-957 0 0 -52 126 0 0 -100 52 0 0 100 140 0 0 -100 51 0 0 100 141 0 0 -100 51 0 0 100 141 0 0 -100 51 0 0 100 204 0c7,0 13,-2 18,-7l0 0c5,-4 7,-11 7,-18l0 -186 -108 0 0 -51 108 0 0 -141 -108 0 0 -51 108 0 0 -141 -108 0 0 -51 108 0 0 -141 -108 0 0 -51 108 0 0 -143 51 0zm-1033 -77l529 0c21,0 40,9 53,23l1 0c13,13 22,32 22,53l0 529c0,21 -9,40 -22,54l-1 0c-13,13 -32,22 -53,22l-529 0c-21,0 -40,-9 -53,-22l-1 0c-13,-14 -22,-33 -22,-54l0 -529c0,-21 9,-40 22,-53l1 0c13,-14 32,-23 53,-23zm529 52l-529 0c-7,0 -13,2 -17,7 -5,4 -7,10 -7,17l0 529c0,7 2,13 7,18 4,4 10,7 17,7l529 0c7,0 13,-3 17,-7 5,-5 7,-11 7,-18l0 -529c0,-7 -2,-13 -7,-17 -4,-5 -10,-7 -17,-7zm-253 269l86 23 85 23c5,1 8,4 9,9 1,4 0,9 -3,12l-20 20c-5,5 -5,13 0,18l63 63c5,5 5,13 0,18l-54 55c-5,5 -13,5 -18,0l-63 -64c-5,-5 -13,-5 -18,0l-15 15c-4,4 -8,5 -13,4 -4,-1 -8,-5 -9,-9l-23 -86 -23 -85c-1,-5 0,-9 4,-13 3,-3 8,-4 12,-3zm545 612l-85 -23 -86 -22c-4,-2 -8,-5 -9,-9 -1,-5 0,-10 3,-13l20 -19c5,-5 5,-14 0,-19l-63 -63c-5,-5 -5,-13 0,-18l54 -54c5,-5 13,-5 18,0l63 63c5,5 13,5 18,0l16 -15c3,-3 7,-5 12,-3 4,1 8,4 9,9l23 85 23 86c1,4 0,9 -4,12 -3,3 -7,5 -12,3z"/>
 </g>
</svg>
