<?xml version="1.0" encoding="UTF-8"?>
<!DOCTYPE svg PUBLIC "-//W3C//DTD SVG 1.1//EN" "http://www.w3.org/Graphics/SVG/1.1/DTD/svg11.dtd">
<!-- Creator: CorelDRAW X7 -->
<svg xmlns="http://www.w3.org/2000/svg" xml:space="preserve" width="1.18055in" height="1.18055in" version="1.1" style="shape-rendering:geometricPrecision; text-rendering:geometricPrecision; image-rendering:optimizeQuality; fill-rule:evenodd; clip-rule:evenodd"
viewBox="0 0 1181 1181"
 xmlns:xlink="http://www.w3.org/1999/xlink">
 <defs>
  <style type="text/css">
   <![CDATA[
    .fil0 {fill:red;fill-rule:nonzero}
   ]]>
  </style>
 </defs>
 <g id="Layer_x0020_1">
  <metadata id="CorelCorpID_0Corel-Layer"/>
  <path class="fil0" d="M966 404l0 132c0,38 -16,73 -41,98 -25,26 -60,41 -99,41l-82 0 136 416 43 0c15,0 27,12 27,27 0,14 -12,26 -27,26l-134 0c-14,0 -26,-12 -26,-26 0,-15 12,-27 26,-27l36 0 -63 -191 -386 0c-2,0 -3,0 -5,-1l-63 192 35 0c15,0 27,12 27,27 0,14 -12,26 -27,26l-134 0c-14,0 -26,-12 -26,-26 0,-15 12,-27 26,-27l44 0 136 -416 -79 0c-38,0 -73,-15 -99,-41 -25,-25 -41,-60 -41,-98l0 -132 -96 0c-15,0 -27,-12 -27,-26 0,-15 12,-26 27,-26l262 0 0 -75c0,-15 12,-27 27,-27l410 0c14,0 26,12 26,27l0 75 264 0c14,0 26,11 26,26 0,14 -12,26 -26,26l-97 0zm-221 443l-56 -172 -245 0 -56 172 357 0zm-61 -769c-9,-11 -7,-28 4,-37 11,-9 28,-7 37,4 45,58 23,84 1,109 -7,9 -14,17 -1,35 9,11 7,28 -5,36 -11,9 -28,7 -37,-5 -39,-51 -18,-75 3,-100 8,-9 16,-19 -2,-42zm-152 0c-9,-11 -7,-28 4,-37 12,-9 28,-7 37,4 45,58 23,84 1,109 -7,9 -14,17 -1,35 9,11 7,28 -5,36 -11,9 -27,7 -36,-5 -39,-51 -19,-75 2,-100 8,-9 17,-19 -2,-42zm-138 -1c-8,-11 -7,-28 5,-37 11,-9 27,-7 36,5 46,57 23,83 2,108 -8,9 -15,17 -1,35 8,11 6,28 -5,36 -12,9 -28,7 -37,-5 -39,-51 -18,-75 3,-100 8,-9 16,-19 -3,-42zm-5 275l357 0 0 -49 -357 0 0 49zm-166 52l0 132c0,24 10,45 26,61 15,16 37,26 61,26l516 0c24,0 46,-10 62,-26 16,-16 25,-37 25,-61l0 -132 -690 0zm113 146c15,0 27,12 27,26 0,14 -11,26 -26,27 -29,0 -51,-5 -67,-19 -16,-15 -24,-37 -24,-70 0,-15 12,-27 26,-27 15,0 26,12 26,27 0,17 3,27 7,31 5,4 15,6 31,5z"/>
 </g>
</svg>
