<?xml version="1.0" encoding="UTF-8"?>
<!DOCTYPE svg PUBLIC "-//W3C//DTD SVG 1.1//EN" "http://www.w3.org/Graphics/SVG/1.1/DTD/svg11.dtd">
<!-- Creator: CorelDRAW X7 -->
<svg xmlns="http://www.w3.org/2000/svg" xml:space="preserve" width="1.18055in" height="1.18055in" version="1.1" style="shape-rendering:geometricPrecision; text-rendering:geometricPrecision; image-rendering:optimizeQuality; fill-rule:evenodd; clip-rule:evenodd"
viewBox="0 0 1181 1181"
 xmlns:xlink="http://www.w3.org/1999/xlink">
 <defs>
  <style type="text/css">
   <![CDATA[
    .fil1 {fill:red}
    .fil0 {fill:red;fill-rule:nonzero}
   ]]>
  </style>
 </defs>
 <g id="Layer_x0020_1">
  <metadata id="CorelCorpID_0Corel-Layer"/>
  <path class="fil0" d="M120 411l862 -115c34,-5 67,5 92,24 26,20 44,49 49,83l60 452c5,34 -5,67 -25,93 -19,25 -48,43 -83,48l-861 115c-34,5 -67,-5 -93,-25 -25,-19 -44,-48 -48,-83l-61 -451c-4,-34 6,-67 25,-93 20,-25 49,-43 83,-48zm867 -73l-861 115c-23,3 -42,15 -55,32 -13,17 -20,39 -17,62l61 451c3,22 15,42 32,55 17,13 39,19 61,16l862 -115c22,-3 42,-15 55,-32 13,-17 19,-39 16,-62l-60 -451c-3,-23 -15,-42 -32,-55 -17,-13 -39,-19 -62,-16zm-671 318l567 -76 6 42 -568 76 -5 -42zm-20 154l665 -89 5 42 -665 89 -5 -42z"/>
  <path class="fil0" d="M204 568c-6,9 -19,12 -29,5 -10,-6 -12,-19 -6,-29l327 -483c7,-9 20,-12 29,-5 1,0 2,1 3,1l450 394c9,7 10,21 2,30 -8,8 -21,9 -30,2l-432 -378 -314 463z"/>
  <path class="fil0" d="M176 483c23,0 45,10 60,25 15,16 25,37 25,60 0,24 -10,45 -25,61l-1 1c-16,14 -36,23 -59,23 -24,0 -45,-9 -60,-24l0 -1c-16,-15 -25,-36 -25,-60 0,-23 9,-44 25,-60l0 0 0 0c15,-15 36,-25 60,-25zm30 55c-8,-8 -18,-12 -30,-12 -12,0 -23,4 -30,12l0 0c-8,8 -13,19 -13,30 0,12 5,23 13,31 7,7 18,12 30,12 11,0 22,-4 29,-12l1 0c8,-8 13,-19 13,-31 0,-11 -5,-22 -13,-30z"/>
  <path class="fil0" d="M969 384c23,0 44,9 60,25 15,15 25,36 25,60 0,23 -10,44 -25,60 -16,15 -37,25 -60,25 -24,0 -45,-10 -60,-25 -16,-16 -25,-37 -25,-60 0,-24 9,-45 25,-60 15,-16 36,-25 60,-25zm30 55c-8,-8 -19,-13 -30,-13 -12,0 -23,5 -30,13 -8,7 -13,18 -13,30 0,11 5,22 13,30 7,7 18,12 30,12 11,0 22,-5 30,-12 7,-8 12,-19 12,-30 0,-12 -5,-23 -12,-30z"/>
  <circle class="fil1" transform="matrix(1.11039 -0.148757 0.148757 1.11039 524.024 85.2641)" r="62"/>
 </g>
</svg>
