<?xml version="1.0" encoding="UTF-8"?>
<!DOCTYPE svg PUBLIC "-//W3C//DTD SVG 1.1//EN" "http://www.w3.org/Graphics/SVG/1.1/DTD/svg11.dtd">
<!-- Creator: CorelDRAW X7 -->
<svg xmlns="http://www.w3.org/2000/svg" xml:space="preserve" width="1.38889in" height="1.38889in" version="1.1" style="shape-rendering:geometricPrecision; text-rendering:geometricPrecision; image-rendering:optimizeQuality; fill-rule:evenodd; clip-rule:evenodd"
viewBox="0 0 1389 1389"
 xmlns:xlink="http://www.w3.org/1999/xlink">
 <defs>
  <style type="text/css">
   <![CDATA[
    .fil0 {fill:red;fill-rule:nonzero}
   ]]>
  </style>
 </defs>
 <g id="Layer_x0020_1">
  <metadata id="CorelCorpID_0Corel-Layer"/>
  <path class="fil0" d="M929 445l0 102c0,57 -24,109 -61,147l-1 1 0 88c0,1 0,1 0,2 2,2 6,3 10,4l233 44c35,6 67,21 90,45l0 0c23,22 37,51 37,86l0 401 -1025 0 0 -401c0,-35 14,-64 36,-86 23,-23 56,-39 91,-45l221 -44c5,-1 8,-3 10,-5 1,0 1,0 1,-1l0 -89c-38,-37 -61,-88 -61,-145l0 -104 -53 0c-16,0 -29,-13 -29,-30 0,-16 13,-29 29,-29l30 0 0 -34c0,-52 17,-100 46,-139 25,-34 58,-62 97,-78l0 -11c0,-14 6,-26 15,-36l0 0c10,-9 22,-15 36,-15l76 0c14,0 27,6 36,15 9,9 15,22 15,36l0 10c39,16 73,43 98,76 29,39 46,87 46,139l0 37 44 0c16,0 29,13 29,29 0,17 -13,30 -29,30l-67 0zm-595 861l0 -185c0,-27 11,-52 28,-69 18,-18 43,-29 70,-29l574 0c27,0 51,11 69,29l0 0c18,17 29,42 29,69l0 185 74 0 0 -342c0,-18 -8,-33 -19,-45 -15,-14 -36,-24 -60,-29l-95 -17 0 107c0,16 -13,29 -29,29 -17,0 -30,-13 -30,-29l0 -119 -79 -14c-15,-3 -30,-10 -41,-21 -10,-11 -17,-25 -17,-43l0 -47c-27,13 -57,20 -88,20 -32,0 -63,-7 -90,-20l0 47c0,18 -7,32 -18,43 -11,11 -25,18 -40,21l-87 17 0 117c0,16 -14,30 -30,30 -16,0 -29,-14 -29,-30l0 -106 -76 15c-24,5 -45,15 -60,30 -12,11 -19,26 -19,44l0 342 63 0zm711 0l0 -185c0,-11 -5,-21 -12,-28l0 0c-7,-7 -17,-11 -27,-11l-574 0c-11,0 -21,4 -28,11 -7,7 -11,17 -11,28l0 185 652 0zm-415 -1105c-19,12 -36,28 -50,46 -21,30 -34,66 -34,105l0 34 347 0 0 -37c0,-39 -12,-75 -34,-104 -14,-18 -31,-34 -51,-46l0 40c0,14 -6,27 -15,36l0 0c-9,9 -22,15 -36,15l-76 0c-14,0 -27,-6 -36,-15 -9,-9 -15,-22 -15,-36l0 -38zm119 -69l-60 0 0 99 60 0 0 -99zm-180 313l0 104c0,41 17,78 44,105 27,26 65,43 107,43 41,0 79,-17 106,-44 27,-28 44,-65 44,-106l0 -102 -301 0z"/>
 </g>
</svg>
