<?xml version="1.0" encoding="UTF-8"?>
<!DOCTYPE svg PUBLIC "-//W3C//DTD SVG 1.1//EN" "http://www.w3.org/Graphics/SVG/1.1/DTD/svg11.dtd">
<!-- Creator: CorelDRAW X7 -->
<svg xmlns="http://www.w3.org/2000/svg" xml:space="preserve" width="1.25in" height="1.25in" version="1.1" style="shape-rendering:geometricPrecision; text-rendering:geometricPrecision; image-rendering:optimizeQuality; fill-rule:evenodd; clip-rule:evenodd"
viewBox="0 0 1250 1250"
 xmlns:xlink="http://www.w3.org/1999/xlink">
 <defs>
  <style type="text/css">
   <![CDATA[
    .fil0 {fill:red}
   ]]>
  </style>
 </defs>
 <g id="Layer_x0020_1">
  <metadata id="CorelCorpID_0Corel-Layer"/>
  <path class="fil0" d="M1126 461c0,131 -100,222 -222,222 -123,0 -222,-100 -222,-222 0,-128 154,-264 222,-432 65,166 222,301 222,432zm-1008 657c-13,12 -34,12 -46,-1 -13,-13 -12,-34 1,-46 205,-195 384,-99 563,-2 161,86 321,173 495,2 13,-13 34,-13 46,0 13,13 13,34 0,47 -208,204 -390,106 -572,8 -158,-85 -317,-170 -487,-8zm0 -400c-13,12 -34,12 -46,-1 -13,-13 -12,-34 1,-47 205,-195 384,-98 563,-1 161,86 321,173 495,2 13,-13 34,-13 46,0 13,13 13,34 0,46 -208,205 -390,107 -572,9 -158,-85 -317,-170 -487,-8zm0 200c-13,12 -34,12 -46,-1 -13,-13 -12,-34 1,-47 205,-194 384,-98 563,-1 161,86 321,173 495,2 13,-13 34,-13 46,0 13,13 13,34 0,46 -208,205 -390,107 -572,9 -158,-85 -317,-170 -487,-8z"/>
 </g>
</svg>
