<?xml version="1.0" encoding="UTF-8"?>
<!DOCTYPE svg PUBLIC "-//W3C//DTD SVG 1.1//EN" "http://www.w3.org/Graphics/SVG/1.1/DTD/svg11.dtd">
<!-- Creator: CorelDRAW X7 -->
<svg xmlns="http://www.w3.org/2000/svg" xml:space="preserve" width="1.38889in" height="1.38889in" version="1.1" style="shape-rendering:geometricPrecision; text-rendering:geometricPrecision; image-rendering:optimizeQuality; fill-rule:evenodd; clip-rule:evenodd"
viewBox="0 0 1389 1389"
 xmlns:xlink="http://www.w3.org/1999/xlink">
 <defs>
  <style type="text/css">
   <![CDATA[
    .fil0 {fill:red;fill-rule:nonzero}
   ]]>
  </style>
 </defs>
 <g id="Layer_x0020_1">
  <metadata id="CorelCorpID_0Corel-Layer"/>
  <path class="fil0" d="M878 101l-536 0c-11,0 -22,5 -30,13 -8,7 -13,18 -13,30l0 1088c0,12 5,23 13,31l0 0c8,8 19,13 30,13l771 0c12,0 23,-5 31,-13 7,-8 12,-19 12,-31l0 -852 -172 0c-29,0 -56,-12 -75,-31 -19,-20 -31,-46 -31,-75l0 -173zm-427 1020c-17,0 -31,-14 -31,-31 0,-18 14,-32 31,-32l333 0c17,0 31,14 31,32 0,17 -14,31 -31,31l-333 0zm0 -125c-17,0 -31,-14 -31,-31 0,-17 14,-31 31,-31l333 0c17,0 31,14 31,31 0,17 -14,31 -31,31l-333 0zm0 -280c-17,0 -31,-14 -31,-32 0,-17 14,-31 31,-31l581 0c18,0 32,14 32,31 0,18 -14,32 -32,32l-581 0zm0 124c-17,0 -31,-14 -31,-31 0,-17 14,-31 31,-31l581 0c18,0 32,14 32,31 0,17 -14,31 -32,31l-581 0zm0 -249c-17,0 -31,-14 -31,-31 0,-17 14,-31 31,-31l581 0c18,0 32,14 32,31 0,17 -14,31 -32,31l-581 0zm0 -125c-17,0 -31,-14 -31,-31 0,-17 14,-31 31,-31l306 0c17,0 31,14 31,31 0,17 -14,31 -31,31l-306 0zm0 -124c-17,0 -31,-14 -31,-32 0,-17 14,-31 31,-31l306 0c17,0 31,14 31,31 0,18 -14,32 -31,32l-306 0zm657 -25l-168 -165 0 122c0,12 5,23 13,31 8,7 19,12 31,12l124 0zm-766 -278l559 0 22 9 296 291 0 893c0,29 -12,56 -31,75 -20,19 -46,31 -75,31l-771 0c-28,0 -55,-12 -74,-31l0 0c-19,-19 -31,-46 -31,-75l0 -1088c0,-29 12,-55 31,-74 19,-20 45,-31 74,-31z"/>
 </g>
</svg>
