<?xml version="1.0" encoding="UTF-8"?>
<!DOCTYPE svg PUBLIC "-//W3C//DTD SVG 1.1//EN" "http://www.w3.org/Graphics/SVG/1.1/DTD/svg11.dtd">
<!-- Creator: CorelDRAW X7 -->
<svg xmlns="http://www.w3.org/2000/svg" xml:space="preserve" width="1.38889in" height="1.38889in" version="1.1" style="shape-rendering:geometricPrecision; text-rendering:geometricPrecision; image-rendering:optimizeQuality; fill-rule:evenodd; clip-rule:evenodd"
viewBox="0 0 1389 1389"
 xmlns:xlink="http://www.w3.org/1999/xlink">
 <defs>
  <style type="text/css">
   <![CDATA[
    .fil0 {fill:red;fill-rule:nonzero}
   ]]>
  </style>
 </defs>
 <g id="Layer_x0020_1">
  <metadata id="CorelCorpID_0Corel-Layer"/>
  <path class="fil0" d="M894 308c17,0 33,1 48,2l0 -68 -63 0 0 66c5,0 10,0 15,0zm-547 465c15,0 28,13 28,28 0,15 -13,28 -28,28l-321 0c-15,0 -28,-13 -28,-28 0,-15 13,-28 28,-28l321 0zm15 152c16,0 28,13 28,28 0,15 -12,28 -28,28l-228 0c-15,0 -28,-13 -28,-28 0,-15 13,-28 28,-28l228 0zm0 -305c16,0 28,13 28,28 0,16 -12,28 -28,28l-228 0c-15,0 -28,-12 -28,-28 0,-15 13,-28 28,-28l228 0zm46 467c16,0 28,13 28,28 0,16 -12,28 -28,28l-166 0c-15,0 -27,-12 -27,-28 0,-15 12,-28 27,-28l166 0zm0 -629c16,0 28,13 28,28 0,15 -12,28 -28,28l-166 0c-15,0 -27,-13 -27,-28 0,-15 12,-28 27,-28l166 0zm504 364c-12,9 -30,7 -39,-5 -10,-12 -8,-29 4,-39l246 -193c12,-10 30,-8 39,4 10,13 8,30 -4,39l-246 194zm86 -503c94,20 179,67 244,133 89,89 145,212 145,348 0,136 -56,259 -145,348 -89,89 -212,144 -348,144 -135,0 -259,-55 -348,-144 -89,-89 -144,-212 -144,-348 0,-136 55,-259 144,-348 74,-73 170,-123 277,-139l0 -71 -42 0c-14,0 -26,-6 -35,-15l0 0c-9,-9 -15,-22 -15,-36l0 -51c0,-14 6,-27 15,-36 9,-9 21,-14 35,-14l256 0c13,0 26,5 35,14 9,9 15,22 15,36l0 51c0,14 -6,27 -15,36l0 0c-9,9 -22,15 -35,15l-39 0 0 77zm34 -174l-246 0 0 41 246 0 0 -41zm171 346c-79,-79 -188,-127 -309,-127 -120,0 -229,48 -308,127 -79,79 -128,189 -128,309 0,121 49,230 128,309 79,79 188,128 308,128 121,0 230,-49 309,-128 79,-79 128,-188 128,-309 0,-120 -49,-230 -128,-309z"/>
 </g>
</svg>
