<?xml version="1.0" encoding="UTF-8"?>
<!DOCTYPE svg PUBLIC "-//W3C//DTD SVG 1.1//EN" "http://www.w3.org/Graphics/SVG/1.1/DTD/svg11.dtd">
<!-- Creator: CorelDRAW X7 -->
<svg xmlns="http://www.w3.org/2000/svg" xml:space="preserve" width="1.25in" height="1.25in" version="1.1" style="shape-rendering:geometricPrecision; text-rendering:geometricPrecision; image-rendering:optimizeQuality; fill-rule:evenodd; clip-rule:evenodd"
viewBox="0 0 1250 1250"
 xmlns:xlink="http://www.w3.org/1999/xlink">
 <defs>
  <style type="text/css">
   <![CDATA[
    .fil0 {fill:red;fill-rule:nonzero}
   ]]>
  </style>
 </defs>
 <g id="Layer_x0020_1">
  <metadata id="CorelCorpID_0Corel-Layer"/>
  <path class="fil0" d="M648 687l0 288 102 116c9,11 8,27 -2,36 -11,10 -27,9 -37,-2l-63 -72 0 111c0,14 -11,26 -26,26 -14,0 -25,-12 -25,-26l0 -111 -64 72c-9,11 -25,12 -36,2 -11,-9 -12,-25 -2,-36l102 -116 0 -288 -204 204 -10 154c-1,14 -13,25 -27,24 -14,-1 -25,-13 -24,-28l6 -95 -78 78c-10,10 -27,10 -37,0 -10,-10 -10,-26 0,-36l78 -78 -95 6c-14,1 -27,-10 -27,-24 -1,-14 9,-27 24,-28l154 -9 203 -204 -288 0 -115 102c-11,9 -27,8 -37,-2 -9,-11 -8,-27 3,-37l71 -63 -110 0c-15,0 -26,-12 -26,-26 0,-14 11,-26 26,-26l110 0 -72 -63c-10,-9 -11,-25 -2,-36 9,-11 26,-12 36,-2l116 101 288 0 -203 -203 -154 -10c-14,-1 -25,-13 -24,-27 1,-14 13,-25 27,-24l96 6 -79 -78c-10,-11 -10,-27 0,-37 10,-10 27,-10 37,0l78 78 -6 -95c-1,-14 10,-27 24,-28 14,0 26,10 27,24l10 154 204 204 0 -288 -102 -116c-10,-10 -9,-26 2,-36 11,-9 27,-8 36,2l64 72 0 -110c0,-15 11,-26 25,-26 15,0 26,11 26,26l0 110 63 -72c10,-10 26,-11 37,-2 10,9 11,26 2,36l-102 116 0 288 204 -203 9 -154c1,-15 14,-25 28,-24 14,0 25,13 24,27l-6 95 78 -78c10,-10 26,-10 36,0 11,10 11,26 0,37l-78 78 96 -6c14,-1 26,9 27,24 1,14 -10,26 -24,27l-154 10 -203 203 287 0 116 -101c11,-10 27,-9 36,2 10,11 9,27 -2,36l-72 63 111 0c14,0 26,12 26,26 0,14 -12,26 -26,26l-111 0 72 63c11,10 12,26 3,37 -10,10 -26,11 -37,2l-116 -102 -287 0 203 203 154 10c14,1 25,13 24,28 -1,14 -13,25 -27,24l-96 -6 78 78c11,10 11,26 0,36 -10,10 -26,10 -36,0l-78 -78 6 96c1,14 -10,26 -24,27 -14,1 -27,-10 -27,-24l-10 -154 -204 -204z"/>
 </g>
</svg>
