<?xml version="1.0" encoding="UTF-8"?>
<!DOCTYPE svg PUBLIC "-//W3C//DTD SVG 1.1//EN" "http://www.w3.org/Graphics/SVG/1.1/DTD/svg11.dtd">
<!-- Creator: CorelDRAW X7 -->
<svg xmlns="http://www.w3.org/2000/svg" xml:space="preserve" width="1.875in" height="1.18055in" version="1.1" style="shape-rendering:geometricPrecision; text-rendering:geometricPrecision; image-rendering:optimizeQuality; fill-rule:evenodd; clip-rule:evenodd"
viewBox="0 0 1875 1181"
 xmlns:xlink="http://www.w3.org/1999/xlink">
 <defs>
  <style type="text/css">
   <![CDATA[
    .fil0 {fill:red;fill-rule:nonzero}
   ]]>
  </style>
 </defs>
 <g id="Layer_x0020_1">
  <metadata id="CorelCorpID_0Corel-Layer"/>
  <path class="fil0" d="M658 886l197 0 0 -113 -197 0 0 113zm784 -553c11,0 22,5 30,13 7,7 12,18 12,30 0,12 -5,22 -12,30 -8,8 -19,12 -30,12 -12,0 -23,-4 -30,-12 -8,-8 -13,-18 -13,-30 0,-12 5,-23 13,-30 7,-8 18,-13 30,-13zm14 28c-4,-3 -9,-5 -14,-5 -6,0 -11,2 -15,6 -3,3 -6,8 -6,14 0,5 3,10 6,14 4,4 9,6 15,6 5,0 10,-2 14,-6l0 0c4,-4 6,-9 6,-14 0,-6 -2,-11 -6,-14l0 -1zm-132 -28c12,0 22,5 30,13 8,7 12,18 12,30 0,12 -4,22 -12,30 -8,8 -18,12 -30,12 -12,0 -23,-4 -30,-12 -8,-8 -13,-18 -13,-30 0,-12 5,-23 13,-30 7,-8 18,-13 30,-13zm14 28c-4,-3 -9,-5 -14,-5 -6,0 -11,2 -14,6 -4,3 -6,8 -6,14 0,5 2,10 6,14 3,4 8,6 14,6 5,0 10,-2 14,-6l0 0c4,-4 6,-9 6,-14 0,-6 -2,-11 -6,-14l0 -1zm-138 -28c11,0 22,5 30,13 8,7 12,18 12,30 0,12 -4,22 -12,30 -8,8 -19,12 -30,12 -12,0 -23,-4 -30,-12 -8,-8 -13,-18 -13,-30 0,-12 5,-23 13,-30 7,-8 18,-13 30,-13zm14 28c-4,-3 -9,-5 -14,-5 -6,0 -11,2 -14,6 -4,3 -6,8 -6,14 0,5 2,10 6,14 3,4 8,6 14,6 5,0 10,-2 14,-6l0 0c4,-4 6,-9 6,-14 0,-6 -2,-11 -6,-14l0 -1zm-138 -28c12,0 22,5 30,13 8,7 12,18 12,30 0,12 -4,22 -12,30 -8,8 -18,12 -30,12 -12,0 -23,-4 -30,-12 -8,-8 -13,-18 -13,-30 0,-12 5,-23 13,-30 7,-8 18,-13 30,-13zm14 29c-4,-4 -9,-6 -14,-6 -6,0 -11,2 -14,6 -4,3 -6,8 -6,14 0,5 2,10 6,14 3,4 8,6 14,6 5,0 10,-2 14,-6 4,-4 6,-9 6,-14 0,-6 -2,-11 -6,-14zm450 289l0 159c0,16 -7,31 -18,42 -10,11 -25,18 -42,18l-443 0c-16,0 -31,-7 -42,-19 -11,-11 -18,-26 -18,-42l0 -158 -44 0c-13,0 -23,-10 -23,-22l0 -81c0,-12 10,-22 23,-22l44 0 0 -26c0,-17 7,-31 18,-42 11,-11 26,-17 42,-17l443 0c17,0 32,7 42,18 11,10 18,25 18,42l0 25 45 0c12,0 22,10 22,22l0 81c0,12 -10,22 -22,22l-45 0zm-518 0l0 158c0,4 2,8 5,11 3,3 6,5 10,5l443 0c4,0 8,-2 11,-4 3,-3 4,-7 4,-11l0 -159 -473 0zm473 -125l0 -25c0,-4 -1,-8 -4,-11 -3,-3 -7,-4 -11,-4l-443 0c-4,0 -8,1 -11,4 -2,2 -4,6 -4,10l0 26 473 0zm-59 468l108 0 0 -12 -108 0 0 12zm131 45l-154 0c-12,0 -22,-10 -22,-22l0 -35 -259 0 0 35c0,12 -10,22 -22,22l-154 0c-12,0 -22,-10 -22,-22l0 -35 -56 0c-13,0 -23,-10 -23,-22l0 -30 -197 0 0 7c0,14 -5,27 -15,36 -9,9 -22,15 -36,15l-213 0c-14,0 -26,-6 -36,-15 -9,-9 -15,-22 -15,-36l0 -7 -143 0c-10,0 -20,-4 -28,-11 -7,-7 -11,-17 -11,-28l0 -125 0 0c0,-11 4,-21 11,-28 8,-7 17,-11 28,-11l0 0 1 0 142 1 0 -8c0,-14 6,-27 15,-36 10,-9 22,-15 36,-15l41 0 0 -61 -69 0c-15,0 -29,-6 -40,-16l0 0c-10,-11 -16,-25 -16,-41 0,-15 6,-29 16,-40 11,-10 25,-16 40,-16l271 0c16,0 30,6 40,16 10,11 17,25 17,40 0,16 -7,30 -17,41l0 0c-10,10 -24,16 -40,16l-71 0 0 61 41 0c14,0 27,6 36,15 10,9 15,22 15,36l0 8 197 0 0 -456c0,-12 10,-22 23,-22l32 0 0 -7c0,-21 9,-41 23,-55 15,-14 34,-23 56,-23l540 0c21,0 41,9 55,23 14,14 23,34 23,55l0 7 33 0c12,0 22,10 22,22l0 688c0,12 -10,22 -22,22l-51 0 0 35c0,12 -10,22 -22,22zm-588 -45l109 0 0 -12 -109 0 0 12zm583 -744l0 -7c0,-9 -4,-17 -10,-23 -6,-6 -14,-10 -23,-10l-540 0c-10,0 -18,4 -24,10 -6,6 -10,14 -10,23l0 7 607 0zm0 320l-607 0 0 36 607 0 0 -36zm55 -275l-717 0 0 642 56 0 154 0 303 0 154 0 50 0 0 -642zm-980 244l-271 0c-3,0 -6,2 -8,4 -2,2 -4,5 -4,8 0,4 2,7 4,9l0 0c2,2 5,4 8,4l271 0c3,0 6,-2 9,-4l0 0c2,-2 3,-5 3,-9 0,-3 -1,-6 -3,-8 -3,-2 -6,-4 -9,-4zm-157 130l42 0 0 -59 -42 0 0 59zm-137 217l0 -113 -138 -2 0 115 138 0zm264 -172l-41 0 -131 0 -41 0c-1,0 -3,0 -4,2 -1,1 -2,2 -2,4l0 217c0,2 1,3 2,4 1,1 3,2 4,2l213 0c2,0 4,-1 5,-2 1,-1 2,-2 2,-4l0 -217c0,-2 -1,-3 -2,-4 -1,-2 -3,-2 -5,-2z"/>
 </g>
</svg>
