<?xml version="1.0" encoding="UTF-8"?>
<!DOCTYPE svg PUBLIC "-//W3C//DTD SVG 1.1//EN" "http://www.w3.org/Graphics/SVG/1.1/DTD/svg11.dtd">
<!-- Creator: CorelDRAW X7 -->
<svg xmlns="http://www.w3.org/2000/svg" xml:space="preserve" width="1.18055in" height="1.18055in" version="1.1" style="shape-rendering:geometricPrecision; text-rendering:geometricPrecision; image-rendering:optimizeQuality; fill-rule:evenodd; clip-rule:evenodd"
viewBox="0 0 1181 1181"
 xmlns:xlink="http://www.w3.org/1999/xlink">
 <defs>
  <style type="text/css">
   <![CDATA[
    .fil0 {fill:red;fill-rule:nonzero}
   ]]>
  </style>
 </defs>
 <g id="Layer_x0020_1">
  <metadata id="CorelCorpID_0Corel-Layer"/>
  <path class="fil0" d="M591 934l-76 209c-2,6 -6,11 -11,15 -5,5 -11,7 -18,8 -6,2 -13,1 -19,-1 -6,-3 -11,-6 -16,-12l-64 -79 -95 20c-6,2 -13,1 -19,-1 -6,-2 -12,-5 -16,-11 -5,-5 -8,-11 -9,-17 -1,-7 -1,-13 2,-20l88 -241c-2,-3 -4,-6 -7,-8l0 0c-10,-9 -27,-16 -43,-23 -25,-10 -49,-20 -65,-41 -17,-24 -14,-46 -12,-69 1,-12 3,-25 -1,-34l0 0c-4,-13 -16,-26 -27,-40 -17,-20 -34,-41 -38,-67 -4,-28 8,-47 21,-66 7,-11 14,-21 15,-30l0 -1c2,-13 -2,-31 -6,-48 -5,-26 -11,-52 -2,-77 9,-27 29,-38 50,-49 10,-6 21,-11 27,-19l0 -1c8,-11 12,-28 17,-45 7,-26 14,-51 34,-69 21,-20 44,-20 67,-20 12,-1 24,-1 33,-5l0 0c12,-7 24,-20 36,-33 19,-19 37,-38 62,-45 28,-8 48,2 69,13 11,5 22,11 31,11l1 0c13,0 30,-6 47,-11 25,-9 50,-18 76,-12 28,6 41,25 55,43 7,10 14,20 22,25l0 0c12,6 30,9 48,12 26,4 52,7 72,25 22,18 25,41 29,64 1,12 3,24 8,32l0 0c8,11 23,22 37,32 21,16 43,32 53,56 10,27 3,48 -5,70 -4,11 -9,23 -7,33l0 0c1,14 9,29 17,45l0 0c11,24 23,48 21,74 -3,29 -20,44 -37,60 -9,8 -18,16 -22,25l0 0c-5,13 -5,31 -6,49 -1,27 -1,53 -16,75 -15,24 -38,30 -60,36 -12,3 -24,6 -31,12l0 0c-6,6 -12,14 -17,23l87 239c2,6 3,13 1,19 -1,7 -4,13 -8,18 -4,5 -10,9 -16,11 -6,2 -13,2 -19,1l-101 -19 -59 76c-4,5 -9,9 -16,12 -6,2 -12,3 -19,2 -7,-1 -13,-4 -18,-8 -5,-4 -9,-10 -11,-16l-76 -209c-7,2 -14,3 -22,3 -6,0 -11,0 -16,-1zm-226 -74l-68 187 85 -18c7,-2 14,-1 20,1 7,2 12,6 17,12l59 72 73 -201c-3,-3 -5,-5 -8,-7 -9,-8 -18,-16 -28,-18l0 0c-13,-4 -31,-2 -48,-1 -27,3 -53,5 -77,-6 -11,-6 -19,-13 -25,-21zm225 25l14 5c1,0 1,0 2,0 13,0 30,-11 47,-22 19,-12 37,-24 58,-29l0 0c19,-4 36,0 53,3 14,4 28,7 39,1 11,-6 21,-24 31,-42 11,-18 21,-37 38,-51 15,-14 32,-18 49,-23 14,-3 27,-7 34,-17 7,-11 8,-31 8,-51 1,-22 2,-44 9,-64l0 0c8,-19 21,-31 34,-42 10,-10 21,-20 22,-31 1,-14 -8,-32 -17,-50l0 0c-9,-19 -19,-39 -21,-60 -2,-20 4,-37 10,-53 4,-14 9,-27 5,-38 -5,-13 -21,-24 -38,-37 -17,-12 -35,-25 -47,-43l0 0c-11,-17 -14,-34 -16,-51 -2,-15 -4,-29 -13,-36 -10,-9 -30,-12 -50,-15 -21,-3 -43,-6 -62,-17 -18,-9 -28,-23 -38,-38 -8,-11 -17,-23 -28,-25 -13,-3 -32,3 -52,10 -20,7 -40,14 -62,14 -20,0 -36,-8 -51,-16 -13,-6 -26,-13 -37,-10 -13,4 -27,18 -41,33 -15,16 -29,32 -49,41 -18,10 -35,10 -53,10 -14,1 -28,1 -37,9 -10,9 -15,28 -21,48 -5,21 -11,42 -24,59 -11,17 -27,25 -42,34 -12,6 -25,13 -29,24 -4,13 0,33 4,53 5,21 9,42 7,63l0 0c-3,20 -13,35 -22,49 -8,12 -16,24 -15,36 2,13 15,29 28,44 14,17 28,33 35,54 8,19 6,36 4,53 -2,15 -3,29 4,38 8,11 26,19 45,27 20,8 40,16 56,31l0 0c15,13 22,30 28,46 5,13 11,26 21,31 12,7 32,5 53,3 21,-2 42,-4 63,1l0 0c20,5 33,16 47,28 5,5 11,9 17,13zm79 26l73 201 54 -69c4,-5 10,-9 16,-12 6,-2 13,-3 20,-1l92 17 -70 -192c-8,11 -18,21 -30,28 -25,14 -47,8 -70,3 -11,-2 -23,-5 -33,-3l0 0c-13,3 -28,13 -43,23 -3,1 -6,3 -9,5zm-101 -489l-15 15 -57 -60 -17 -11c0,-1 -1,-1 -1,-1 -1,-1 -1,-1 -1,-1l-24 -31c-2,-2 -2,-4 -2,-6 0,-2 1,-4 2,-5l19 -19 0 1c1,-1 2,-2 4,-2 2,0 4,1 5,2l30 23c1,1 1,1 1,1 1,1 1,1 1,2l12 18 57 60 -14 14zm65 66l22 -22 5 3c1,0 1,0 1,0 3,-1 5,-2 7,-2 3,0 5,1 8,4 30,29 66,67 97,92 1,2 2,4 3,6 1,2 2,4 2,6 0,3 -1,5 -2,7 0,1 -1,3 -2,4l0 0 -37 37c-2,2 -4,3 -6,4 -2,1 -4,1 -6,1 -2,0 -5,0 -7,-1 -2,-1 -4,-2 -5,-4l-1 0 -96 -92c-5,-6 -4,-10 -2,-15 0,0 0,0 0,-1l-3 -5 22 -22zm21 -175c4,-4 9,-8 14,-11 6,-3 12,-5 18,-6 6,-1 12,-2 18,-1 6,0 12,2 18,4 2,1 4,2 4,4 1,2 1,4 1,6 -1,1 -1,1 -1,2 0,0 -1,1 -1,1l-42 42 17 17 43 -43c2,-1 4,-2 6,-2 2,0 4,1 6,2 0,1 1,1 1,1 0,1 0,1 1,2 3,6 4,12 5,18 1,7 1,14 0,20 -1,7 -3,13 -6,19 -3,6 -7,11 -12,16 -4,4 -9,8 -14,11 -6,3 -11,5 -17,6 -5,1 -11,2 -16,2 -5,0 -10,-1 -15,-3l-127 127c2,5 3,10 3,15 0,5 -1,11 -2,16 -1,6 -3,11 -6,17 -3,5 -7,10 -11,14 -5,5 -10,9 -16,12 -6,3 -12,5 -19,6 -6,1 -13,1 -20,0 -6,-1 -13,-3 -19,-6 -2,-1 -3,-2 -4,-4 -1,-2 0,-4 1,-6 0,-1 0,-1 0,-1l0 0 44 -45 -17 -17 -42 42c-1,1 -4,2 -6,2 -2,0 -4,-1 -5,-2 -1,-1 -1,-1 -2,-2 0,0 0,-1 0,-1 -3,-6 -4,-12 -4,-18 -1,-6 0,-12 1,-18 1,-6 3,-12 6,-18 3,-5 7,-10 11,-14 4,-4 9,-8 14,-11 5,-3 10,-5 16,-6 5,-1 10,-2 15,-2 4,0 9,0 14,1l129 -129c-1,-5 -1,-10 -1,-14 0,-5 1,-10 2,-15 1,-6 3,-11 6,-16 3,-5 7,-10 11,-14zm-49 -177c91,0 173,37 232,97 60,59 97,141 97,232 0,91 -37,173 -97,233 -59,59 -141,96 -232,96 -91,0 -173,-37 -233,-96 -59,-60 -96,-142 -96,-233 0,-91 37,-173 96,-232 60,-60 142,-97 233,-97zm205 124c-53,-52 -125,-85 -205,-85 -80,0 -153,33 -205,85 -53,53 -85,125 -85,205 0,80 32,153 85,205 52,53 125,85 205,85 80,0 152,-32 205,-85 52,-52 85,-125 85,-205 0,-80 -33,-152 -85,-205z"/>
 </g>
</svg>
