<?xml version="1.0" encoding="UTF-8"?>
<!DOCTYPE svg PUBLIC "-//W3C//DTD SVG 1.1//EN" "http://www.w3.org/Graphics/SVG/1.1/DTD/svg11.dtd">
<!-- Creator: CorelDRAW X7 -->
<svg xmlns="http://www.w3.org/2000/svg" xml:space="preserve" width="4.30555in" height="1.66666in" version="1.1" style="shape-rendering:geometricPrecision; text-rendering:geometricPrecision; image-rendering:optimizeQuality; fill-rule:evenodd; clip-rule:evenodd"
viewBox="0 0 4306 1667"
 xmlns:xlink="http://www.w3.org/1999/xlink">
 <defs>
  <style type="text/css">
   <![CDATA[
    .fil0 {fill:#00ADEF}
    .fil1 {fill:white;fill-rule:nonzero}
   ]]>
  </style>
 </defs>
 <g id="Layer_x0020_1">
  <metadata id="CorelCorpID_0Corel-Layer"/>
  <g id="_732378784">
   <path class="fil0" d="M587 156l2939 242c112,9 197,103 196,215l-5 370c-3,159 -132,288 -292,289l-323 2c-5,137 61,232 153,313 -223,-55 -414,-152 -558,-311l-1976 12c-147,1 -271,-108 -288,-254l-75 -640c-7,-66 13,-126 59,-173 46,-48 105,-70 170,-65z"/>
   <polygon class="fil1" points="741,576 741,986 850,986 850,817 935,817 935,986 1045,986 1045,576 935,576 935,732 850,732 850,576 "/>
   <path id="1" class="fil1" d="M1240 672c-94,0 -149,57 -149,160 0,104 55,161 149,161 95,0 150,-57 150,-161 0,-104 -55,-160 -150,-160zm1 72c25,0 40,30 40,88 0,59 -15,88 -40,88 -24,0 -40,-30 -40,-88 0,-58 16,-88 40,-88z"/>
   <path id="2" class="fil1" d="M1696 722c-14,-33 -43,-51 -81,-51 -41,0 -72,19 -88,54 0,-16 -1,-31 -2,-47l-96 0c2,18 3,28 3,31l0 277 104 0 0 -173c0,-37 11,-55 34,-55 22,0 29,15 29,44l0 184 104 0 0 -173c0,-37 11,-55 34,-55 22,0 29,15 29,44l0 184 104 0 0 -209c0,-71 -29,-106 -88,-106 -39,0 -71,18 -86,51z"/>
   <path id="3" class="fil1" d="M2093 805l-82 0c2,-44 16,-65 42,-65 28,0 40,17 40,54l0 11zm95 55c1,-10 1,-19 1,-27 0,-99 -55,-161 -139,-161 -85,0 -140,62 -140,162 0,101 56,159 153,159 38,0 75,-8 110,-22l-4 -73c-31,16 -60,26 -87,26 -42,0 -66,-23 -69,-64l175 0z"/>
   <path id="4" class="fil1" d="M2470 582c-37,-9 -70,-13 -99,-13 -96,0 -152,47 -152,125 0,67 31,95 99,121 44,16 71,24 71,56 0,29 -20,45 -59,45 -31,0 -62,-8 -95,-22l-7 80c30,12 70,19 113,19 98,0 152,-50 152,-139 0,-64 -33,-91 -103,-116 -44,-16 -67,-29 -67,-54 0,-24 19,-38 55,-38 24,0 54,5 85,18l7 -82z"/>
   <path id="5" class="fil1" d="M2652 584l-103 31 0 63 -52 0 0 72 52 0 0 122c0,78 13,120 103,120 21,0 42,-2 64,-6l0 -73c-11,3 -20,4 -28,4 -33,0 -36,-16 -36,-55l0 -112 59 0 0 -72 -59 0 0 -94z"/>
   <path id="6" class="fil1" d="M3004 813c0,-49 -2,-85 -28,-111 -19,-19 -54,-31 -101,-31 -40,0 -77,7 -116,20l4 76c27,-19 55,-28 86,-28 35,0 53,16 53,45l0 6c-7,-1 -14,-1 -21,-1 -103,0 -157,38 -157,108 0,58 38,96 88,96 38,0 68,-16 94,-48l5 41 96 0c-3,-26 -3,-47 -3,-65l0 -108zm-102 31l0 15c0,42 -13,64 -46,64 -22,0 -35,-14 -35,-36 0,-30 20,-43 62,-43 8,0 14,0 19,0z"/>
   <path id="7" class="fil1" d="M3251 673c-6,-1 -12,-2 -17,-2 -37,0 -66,22 -81,61l0 -10c0,-15 -1,-29 -2,-44l-95 0c2,18 3,28 3,31l0 277 104 0 0 -139c0,-56 15,-84 62,-84 10,0 18,1 26,3l0 -93z"/>
   <path id="8" class="fil1" d="M3468 685c-29,-9 -59,-14 -87,-14 -77,0 -122,41 -122,106 0,51 27,72 83,92 30,11 48,12 48,31 0,13 -13,20 -37,20 -29,0 -61,-7 -87,-22l0 81c27,9 60,14 98,14 79,0 123,-40 123,-102 0,-62 -31,-79 -87,-98 -29,-10 -45,-13 -45,-28 0,-13 12,-21 36,-21 19,0 47,5 77,19l0 -78z"/>
  </g>
 </g>
</svg>
