<?xml version="1.0" encoding="UTF-8"?>
<!DOCTYPE svg PUBLIC "-//W3C//DTD SVG 1.1//EN" "http://www.w3.org/Graphics/SVG/1.1/DTD/svg11.dtd">
<!-- Creator: CorelDRAW X7 -->
<svg xmlns="http://www.w3.org/2000/svg" xml:space="preserve" width="4.30555in" height="1.11111in" version="1.1" style="shape-rendering:geometricPrecision; text-rendering:geometricPrecision; image-rendering:optimizeQuality; fill-rule:evenodd; clip-rule:evenodd"
viewBox="0 0 4306 1111"
 xmlns:xlink="http://www.w3.org/1999/xlink">
 <defs>
  <style type="text/css">
   <![CDATA[
    .fil2 {fill:none}
    .fil0 {fill:#4F5B70}
    .fil4 {fill:white}
    .fil3 {fill:gray;fill-rule:nonzero}
    .fil1 {fill:url(#id1)}
   ]]>
  </style>
   <clipPath id="id0">
    <path d="M534 43c276,0 500,224 500,501 0,276 -224,500 -500,500 -277,0 -500,-224 -500,-500 0,-277 223,-501 500,-501z"/>
   </clipPath>
  <linearGradient id="id1" gradientUnits="userSpaceOnUse" x1="352.469" y1="427.028" x2="352.469" y2="1203.86">
   <stop offset="0" style="stop-opacity:1; stop-color:#2D303C"/>
   <stop offset="0.529412" style="stop-opacity:1; stop-color:#4F5A76"/>
   <stop offset="1" style="stop-opacity:1; stop-color:#4F5A76"/>
  </linearGradient>
 </defs>
 <g id="Layer_x0020_1">
  <metadata id="CorelCorpID_0Corel-Layer"/>
  <path class="fil0" d="M534 43c276,0 500,224 500,501 0,276 -224,500 -500,500 -277,0 -500,-224 -500,-500 0,-277 223,-501 500,-501z"/>
  <g style="clip-path:url(#id0)">
   <g id="_725361952">
    <polygon id="1" class="fil1" points="806,723 570,449 254,427 -101,781 315,1204 "/>
   </g>
  </g>
  <path class="fil2" d="M534 43c276,0 500,224 500,501 0,276 -224,500 -500,500 -277,0 -500,-224 -500,-500 0,-277 223,-501 500,-501z"/>
  <path class="fil3" d="M1238 549l83 0 0 -230 67 0 0 -71 -217 0 0 71 67 0 0 230zm273 -159l0 -79 17 0c34,0 49,10 49,42 0,26 -16,37 -51,37l-15 0zm-77 159l77 0 0 -118 69 118 93 0 -82 -121c44,-9 67,-39 67,-86 0,-32 -11,-57 -33,-74 -26,-20 -58,-20 -100,-20l-91 0 0 301zm274 -301l0 162c0,48 3,83 27,111 21,25 57,36 108,36 95,0 134,-39 134,-130l0 -179 -82 0 0 144c0,65 -2,96 -52,96 -43,0 -53,-23 -53,-77l0 -163 -82 0zm350 204l-37 61c33,31 65,44 108,44 70,0 115,-43 115,-106 0,-56 -29,-76 -83,-90 -27,-7 -48,-12 -48,-33 0,-15 13,-26 33,-26 19,0 39,8 58,25l26 -60c-26,-18 -56,-27 -90,-27 -63,0 -104,42 -104,98 0,48 27,70 81,84 34,9 51,16 51,40 0,18 -15,31 -38,31 -24,0 -47,-14 -72,-41zm281 97l83 0 0 -230 67 0 0 -71 -217 0 0 71 67 0 0 230zm196 0l185 0 0 -67 -105 0 0 -51 99 0 0 -65 -99 0 0 -52 105 0 0 -66 -185 0 0 301zm326 -67l0 -167 14 0c62,0 93,24 93,84 0,59 -30,83 -93,83l-14 0zm-81 67l84 0c50,0 92,-1 129,-28 38,-27 59,-69 59,-122 0,-54 -21,-96 -59,-123 -39,-28 -84,-28 -141,-28l-72 0 0 301zm406 -166l0 -70 16 0c34,0 53,5 53,35 0,29 -18,35 -53,35l-16 0zm0 166l0 -99 35 0c28,0 51,-2 72,-14 27,-16 42,-46 42,-86 0,-39 -16,-70 -43,-87 -23,-15 -53,-15 -91,-15l-92 0 0 122 20 15 39 29 -39 30 -20 15 0 90 77 0zm273 -159l0 -79 17 0c34,0 50,10 50,42 0,26 -17,37 -52,37l-15 0zm-77 159l77 0 0 -118 69 118 93 0 -82 -121c44,-9 68,-39 68,-86 0,-32 -12,-57 -34,-74 -26,-20 -58,-20 -100,-20l-91 0 0 301zm425 -61c-48,0 -79,-39 -79,-89 0,-49 32,-89 79,-89 46,0 79,40 79,89 0,49 -32,89 -79,89zm161 -89c0,-43 -16,-82 -47,-112 -30,-29 -72,-46 -114,-46 -42,0 -84,17 -114,46 -31,30 -47,69 -47,112 0,49 20,92 58,122 29,23 66,36 103,36 42,0 83,-16 114,-46 31,-30 47,-69 47,-112zm71 53l-37 61c32,31 64,44 107,44 71,0 115,-43 115,-106 0,-56 -29,-76 -83,-90 -27,-7 -48,-12 -48,-33 0,-15 13,-26 33,-26 19,0 39,8 58,25l26 -60c-26,-18 -56,-27 -89,-27 -64,0 -105,42 -105,98 0,48 27,70 81,84 35,9 51,16 51,40 0,18 -15,31 -38,31 -24,0 -47,-14 -71,-41z"/>
  <polygon class="fil3" points="1236,847 1236,696 1338,696 1338,714 1256,714 1256,761 1327,761 1327,779 1256,779 1256,847 "/>
  <path id="1" class="fil3" d="M1361 717l0 -21 19 0 0 21 -19 0zm0 130l0 -109 19 0 0 109 -19 0z"/>
  <path id="2" class="fil3" d="M1408 847l0 -109 17 0 0 15c8,-11 19,-17 34,-17 7,0 13,1 18,3 6,2 10,6 13,9 2,4 4,9 6,14 0,3 1,9 1,18l0 67 -19 0 0 -66c0,-8 -1,-13 -2,-17 -2,-4 -4,-7 -8,-9 -3,-2 -8,-3 -13,-3 -8,0 -14,2 -20,7 -6,5 -9,15 -9,29l0 59 -18 0z"/>
  <path id="3" class="fil3" d="M1595 847l0 -14c-6,11 -17,16 -30,16 -9,0 -17,-2 -24,-7 -7,-5 -13,-11 -17,-20 -4,-8 -6,-18 -6,-29 0,-11 2,-21 5,-30 4,-9 10,-16 17,-20 7,-5 15,-7 24,-7 7,0 13,1 18,4 5,3 9,6 12,11l0 -55 19 0 0 151 -18 0zm-58 -54c0,14 3,24 9,31 6,7 13,10 21,10 8,0 15,-3 20,-10 6,-6 9,-16 9,-30 0,-15 -3,-26 -9,-33 -6,-7 -13,-10 -21,-10 -8,0 -15,3 -21,10 -5,7 -8,17 -8,32z"/>
  <polygon id="4" class="fil3" points="1737,847 1737,714 1688,714 1688,696 1807,696 1807,714 1757,714 1757,847 "/>
  <path id="5" class="fil3" d="M1817 847l0 -109 17 0 0 17c4,-8 8,-13 12,-16 3,-2 7,-3 11,-3 7,0 13,2 20,5l-7 18c-5,-3 -9,-4 -14,-4 -4,0 -7,1 -10,3 -4,3 -6,6 -7,10 -2,7 -3,14 -3,22l0 57 -19 0z"/>
  <path id="6" class="fil3" d="M1959 847l0 -16c-9,12 -20,18 -35,18 -6,0 -12,-1 -18,-3 -5,-3 -9,-6 -12,-10 -3,-3 -5,-8 -6,-13 -1,-4 -1,-10 -1,-18l0 -67 19 0 0 60c0,10 0,16 1,20 1,5 3,8 7,11 4,3 8,4 14,4 6,0 11,-1 16,-4 4,-3 8,-7 10,-11 2,-5 3,-12 3,-22l0 -58 18 0 0 109 -16 0z"/>
  <path id="7" class="fil3" d="M1997 814l18 -2c1,7 4,12 9,16 5,4 11,6 20,6 8,0 15,-1 19,-5 4,-3 6,-7 6,-12 0,-4 -2,-8 -6,-10 -2,-2 -9,-4 -19,-6 -13,-4 -22,-7 -28,-9 -5,-3 -9,-6 -12,-10 -2,-5 -4,-10 -4,-15 0,-5 1,-9 4,-14 2,-4 5,-7 9,-10 3,-2 7,-4 11,-5 5,-2 11,-2 16,-2 9,0 16,1 23,3 6,3 11,6 14,10 3,5 5,10 7,17l-18 3c-1,-6 -4,-10 -8,-14 -4,-3 -9,-4 -16,-4 -9,0 -15,1 -18,4 -4,3 -6,6 -6,10 0,2 1,4 2,6 2,2 4,4 8,5 1,1 7,2 16,5 13,3 22,6 27,8 5,3 9,6 12,10 3,4 5,10 5,16 0,6 -2,12 -6,17 -3,6 -8,10 -15,13 -7,3 -15,4 -23,4 -14,0 -25,-3 -33,-8 -7,-6 -12,-15 -14,-27z"/>
  <path id="8" class="fil3" d="M2150 831l2 16c-5,1 -9,2 -13,2 -7,0 -12,-1 -16,-4 -4,-2 -6,-5 -8,-8 -1,-3 -2,-11 -2,-22l0 -63 -14 0 0 -14 14 0 0 -27 18 -11 0 38 19 0 0 14 -19 0 0 64c0,5 1,9 1,10 1,2 2,3 4,4 1,1 3,1 6,1 2,0 5,0 8,0z"/>
  <path id="9" class="fil3" d="M2243 812l19 2c-3,11 -9,20 -17,26 -8,6 -18,9 -31,9 -16,0 -29,-4 -38,-14 -9,-10 -14,-24 -14,-42 0,-18 5,-32 14,-42 10,-10 22,-15 37,-15 14,0 26,5 36,14 9,10 13,24 13,42 0,1 0,3 0,5l-81 0c1,12 4,21 10,28 6,6 14,9 23,9 7,0 13,-2 17,-5 5,-4 9,-9 12,-17zm-61 -30l61 0c-1,-9 -3,-16 -7,-21 -6,-7 -14,-10 -23,-10 -8,0 -16,3 -21,8 -6,6 -9,14 -10,23z"/>
  <path id="10" class="fil3" d="M2356 847l0 -14c-7,11 -17,16 -31,16 -9,0 -16,-2 -24,-7 -7,-5 -13,-11 -17,-20 -4,-8 -6,-18 -6,-29 0,-11 2,-21 6,-30 3,-9 9,-16 16,-20 7,-5 15,-7 24,-7 7,0 13,1 18,4 5,3 9,6 12,11l0 -55 19 0 0 151 -17 0zm-59 -54c0,14 3,24 9,31 6,7 13,10 21,10 8,0 15,-3 21,-10 5,-6 8,-16 8,-30 0,-15 -3,-26 -9,-33 -5,-7 -12,-10 -21,-10 -8,0 -15,3 -21,10 -5,7 -8,17 -8,32z"/>
  <polygon id="11" class="fil3" points="2464,847 2464,696 2484,696 2484,759 2562,759 2562,696 2582,696 2582,847 2562,847 2562,776 2484,776 2484,847 "/>
  <path id="12" class="fil3" d="M2606 792c0,-20 5,-35 17,-44 9,-8 20,-12 34,-12 15,0 27,4 37,14 9,10 14,24 14,41 0,14 -2,25 -6,33 -5,8 -11,14 -19,19 -8,4 -17,6 -26,6 -15,0 -28,-4 -37,-14 -10,-10 -14,-24 -14,-43zm19 1c0,13 3,24 9,31 6,7 14,10 23,10 9,0 17,-3 23,-10 6,-7 9,-18 9,-32 0,-14 -3,-24 -9,-31 -6,-7 -14,-10 -23,-10 -9,0 -17,3 -23,10 -6,7 -9,18 -9,32z"/>
  <path id="13" class="fil3" d="M2730 847l0 -109 16 0 0 15c4,-5 8,-9 14,-13 6,-3 12,-4 19,-4 8,0 15,1 20,5 5,3 9,8 11,14 9,-13 20,-19 34,-19 11,0 19,3 25,9 6,6 9,15 9,27l0 75 -19 0 0 -69c0,-7 0,-12 -1,-16 -2,-3 -4,-5 -7,-7 -3,-2 -7,-3 -11,-3 -8,0 -14,2 -19,7 -5,5 -8,14 -8,25l0 63 -18 0 0 -71c0,-8 -2,-14 -5,-18 -3,-4 -8,-6 -15,-6 -5,0 -10,1 -14,4 -5,2 -8,6 -10,12 -2,5 -3,13 -3,22l0 57 -18 0z"/>
  <path id="14" class="fil3" d="M2979 812l20 2c-3,11 -9,20 -17,26 -8,6 -19,9 -31,9 -16,0 -29,-4 -38,-14 -9,-10 -14,-24 -14,-42 0,-18 5,-32 14,-42 9,-10 22,-15 37,-15 14,0 26,5 35,14 10,10 14,24 14,42 0,1 0,3 0,5l-81 0c1,12 4,21 10,28 6,6 14,9 23,9 7,0 12,-2 17,-5 5,-4 9,-9 11,-17zm-60 -30l61 0c-1,-9 -3,-16 -7,-21 -6,-7 -14,-10 -23,-10 -9,0 -16,3 -22,8 -5,6 -8,14 -9,23z"/>
  <path id="15" class="fil3" d="M3076 799l19 -2c1,8 3,14 6,19 3,5 9,8 15,11 7,3 15,5 23,5 8,0 15,-1 21,-3 5,-3 10,-6 13,-10 2,-4 4,-8 4,-13 0,-4 -1,-9 -4,-12 -3,-4 -7,-7 -14,-9 -4,-1 -13,-4 -27,-7 -13,-4 -23,-7 -29,-10 -7,-3 -12,-8 -16,-14 -3,-5 -5,-12 -5,-18 0,-8 2,-15 6,-22 5,-6 11,-11 19,-15 9,-3 18,-5 28,-5 11,0 21,2 30,5 8,4 15,9 19,16 5,7 7,15 8,24l-20 1c-1,-9 -4,-16 -10,-21 -6,-5 -15,-7 -26,-7 -12,0 -21,2 -27,6 -5,5 -8,10 -8,16 0,6 2,10 6,14 4,3 14,7 30,10 16,4 27,7 33,10 9,4 16,9 20,15 4,6 6,14 6,22 0,8 -2,15 -7,22 -4,7 -11,13 -20,17 -8,4 -18,6 -29,6 -13,0 -25,-2 -34,-6 -9,-4 -16,-10 -21,-18 -6,-8 -8,-17 -9,-27z"/>
  <path id="16" class="fil3" d="M3295 812l19 2c-2,11 -8,20 -16,26 -8,6 -19,9 -31,9 -16,0 -29,-4 -38,-14 -10,-10 -14,-24 -14,-42 0,-18 4,-32 14,-42 9,-10 22,-15 37,-15 14,0 26,5 35,14 9,10 14,24 14,42 0,1 0,3 0,5l-81 0c0,12 4,21 10,28 6,6 14,9 23,9 6,0 12,-2 17,-5 5,-4 9,-9 11,-17zm-60 -30l61 0c-1,-9 -4,-16 -7,-21 -6,-7 -14,-10 -23,-10 -9,0 -16,3 -22,8 -5,6 -9,14 -9,23z"/>
  <path id="17" class="fil3" d="M3338 847l0 -109 16 0 0 17c5,-8 8,-13 12,-16 4,-2 8,-3 12,-3 6,0 13,2 19,5l-7 18c-4,-3 -9,-4 -13,-4 -4,0 -8,1 -11,3 -3,3 -5,6 -7,10 -2,7 -3,14 -3,22l0 57 -18 0z"/>
  <path id="18" class="fil3" d="M3438 847l-41 -109 19 0 24 65c2,7 5,15 7,22 1,-5 4,-12 7,-20l24 -67 19 0 -41 109 -18 0z"/>
  <path id="19" class="fil3" d="M3513 717l0 -21 19 0 0 21 -19 0zm0 130l0 -109 19 0 0 109 -19 0z"/>
  <path id="20" class="fil3" d="M3631 807l18 3c-2,12 -7,22 -15,29 -8,7 -18,10 -30,10 -15,0 -27,-4 -36,-14 -9,-10 -14,-24 -14,-42 0,-12 2,-22 6,-31 4,-9 10,-15 18,-20 8,-4 17,-6 26,-6 12,0 22,3 29,9 8,6 13,14 15,25l-18 3c-2,-8 -5,-13 -9,-17 -5,-3 -10,-5 -16,-5 -9,0 -17,3 -23,10 -6,6 -9,17 -9,31 0,15 3,26 9,32 5,7 13,10 22,10 7,0 13,-2 18,-6 5,-5 8,-12 9,-21z"/>
  <path id="21" class="fil3" d="M3740 812l19 2c-3,11 -9,20 -17,26 -8,6 -18,9 -31,9 -16,0 -29,-4 -38,-14 -9,-10 -14,-24 -14,-42 0,-18 5,-32 14,-42 10,-10 22,-15 37,-15 14,0 26,5 36,14 9,10 13,24 13,42 0,1 0,3 0,5l-81 0c1,12 4,21 10,28 6,6 14,9 23,9 7,0 12,-2 17,-5 5,-4 9,-9 12,-17zm-61 -30l61 0c-1,-9 -3,-16 -7,-21 -6,-7 -14,-10 -23,-10 -8,0 -16,3 -21,8 -6,6 -9,14 -10,23z"/>
  <path id="22" class="fil3" d="M3843 847l0 -151 57 0c10,0 17,1 23,2 7,1 13,3 18,7 5,3 9,8 13,14 3,7 4,13 4,21 0,13 -4,24 -12,32 -8,9 -23,14 -44,14l-39 0 0 61 -20 0zm20 -79l39 0c13,0 22,-2 27,-7 6,-5 8,-12 8,-20 0,-7 -1,-12 -4,-17 -4,-4 -8,-7 -13,-9 -3,0 -9,-1 -19,-1l-38 0 0 54z"/>
  <path id="23" class="fil3" d="M3981 847l0 -109 16 0 0 17c5,-8 9,-13 12,-16 4,-2 8,-3 12,-3 6,0 13,2 19,5l-6 18c-5,-3 -9,-4 -14,-4 -4,0 -8,1 -11,3 -3,3 -5,6 -7,10 -2,7 -3,14 -3,22l0 57 -18 0z"/>
  <path id="24" class="fil3" d="M4044 792c0,-20 6,-35 17,-44 9,-8 21,-12 34,-12 15,0 28,4 37,14 10,10 14,24 14,41 0,14 -2,25 -6,33 -4,8 -10,14 -18,19 -8,4 -17,6 -27,6 -15,0 -27,-4 -37,-14 -9,-10 -14,-24 -14,-43zm19 1c0,13 3,24 9,31 6,7 14,10 23,10 10,0 17,-3 23,-10 6,-7 9,-18 9,-32 0,-14 -3,-24 -9,-31 -6,-7 -14,-10 -23,-10 -9,0 -17,3 -23,10 -6,7 -9,18 -9,32z"/>
  <path id="25" class="fil3" d="M4161 814l18 -2c1,7 4,12 9,16 4,4 11,6 19,6 9,0 15,-1 19,-5 4,-3 7,-7 7,-12 0,-4 -2,-8 -6,-10 -3,-2 -9,-4 -19,-6 -14,-4 -23,-7 -28,-9 -5,-3 -9,-6 -12,-10 -3,-5 -4,-10 -4,-15 0,-5 1,-9 3,-14 2,-4 5,-7 9,-10 3,-2 7,-4 12,-5 5,-2 10,-2 16,-2 9,0 16,1 23,3 6,3 11,6 14,10 3,5 5,10 6,17l-18 3c-1,-6 -3,-10 -7,-14 -4,-3 -9,-4 -17,-4 -8,0 -14,1 -18,4 -3,3 -5,6 -5,10 0,2 1,4 2,6 2,2 4,4 7,5 2,1 7,2 16,5 13,3 23,6 28,8 5,3 9,6 12,10 3,4 4,10 4,16 0,6 -1,12 -5,17 -4,6 -9,10 -16,13 -6,3 -14,4 -23,4 -14,0 -25,-3 -32,-8 -7,-6 -12,-15 -14,-27z"/>
  <path class="fil4" d="M810 429c-64,3 -69,-4 -130,-28 -4,36 -28,55 -62,66 12,-62 18,-85 49,-145 -66,-33 -79,-41 -133,-90 -54,48 -66,58 -133,90 31,61 49,89 56,146 -37,-10 -65,-29 -69,-67 -61,24 -65,31 -130,28 -2,68 -5,74 -42,128 58,24 110,47 44,182l274 -268 92 90 0 -42 28 0 0 69 154 151c-66,-135 -14,-158 45,-182 -38,-54 -40,-60 -43,-128z"/>
  <path class="fil4" d="M471 617l56 0 0 52 -56 0 0 -52zm78 0l63 0 0 52 -63 0 0 -52zm63 75l0 57 -63 0 0 -57 63 0zm-85 57l-56 0 0 -57 56 0 0 57z"/>
 </g>
</svg>
