<?xml version="1.0" encoding="UTF-8"?>
<!DOCTYPE svg PUBLIC "-//W3C//DTD SVG 1.1//EN" "http://www.w3.org/Graphics/SVG/1.1/DTD/svg11.dtd">
<!-- Creator: CorelDRAW X7 -->
<svg xmlns="http://www.w3.org/2000/svg" xml:space="preserve" width="4.30555in" height="1.66666in" version="1.1" style="shape-rendering:geometricPrecision; text-rendering:geometricPrecision; image-rendering:optimizeQuality; fill-rule:evenodd; clip-rule:evenodd"
viewBox="0 0 4306 1667"
 xmlns:xlink="http://www.w3.org/1999/xlink">
 <defs>
  <style type="text/css">
   <![CDATA[
    .fil3 {fill:#33A852}
    .fil2 {fill:#4285F4}
    .fil0 {fill:#EA4233}
    .fil1 {fill:#FBBC05}
   ]]>
  </style>
 </defs>
 <g id="Layer_x0020_1">
  <metadata id="CorelCorpID_0Corel-Layer"/>
  <g id="_725361784">
   <path class="fil0" d="M1589 1081c-96,0 -161,-79 -161,-175 0,-97 65,-175 161,-175 97,0 160,78 160,175 0,96 -63,175 -160,175zm1 -454c-154,0 -283,119 -283,273 0,154 129,284 283,284 153,0 276,-124 276,-278 0,-154 -123,-279 -276,-279z"/>
   <path class="fil1" d="M2196 1081c-97,0 -162,-79 -162,-175 0,-97 65,-175 162,-175 96,0 159,78 159,175 0,96 -63,175 -159,175zm0 -454c-154,0 -282,119 -282,273 0,154 128,284 282,284 154,0 276,-124 276,-278 0,-154 -122,-279 -276,-279z"/>
   <path class="fil2" d="M2948 955c0,3 -1,6 -2,9 -7,27 -19,51 -36,70 -25,29 -61,47 -107,47 -45,0 -84,-18 -112,-47 -26,-26 -42,-62 -47,-102 -1,-8 -2,-17 -2,-26 0,-97 65,-175 161,-175 77,0 126,49 143,117 5,18 7,38 7,58 0,17 -1,33 -5,49zm-2 -316l0 51c-44,-39 -96,-63 -142,-63 -154,0 -283,119 -283,273 0,46 12,91 33,130 21,41 52,76 90,103 46,32 101,51 160,51 40,0 95,-26 142,-69 1,-1 2,-1 2,-2 4,16 5,33 5,50 0,7 0,14 -1,21 -10,69 -62,154 -149,154 -74,0 -130,-47 -151,-112l-107 44c45,100 145,171 259,171 88,0 251,-74 251,-257l0 -545 -109 0z"/>
   <path class="fil2" d="M1254 750c0,27 -2,52 -5,77 -28,235 -189,357 -390,357 -248,0 -448,-189 -448,-437 0,-248 196,-431 444,-431 121,0 219,45 288,120l-78 80c-52,-56 -124,-91 -210,-91 -178,0 -322,145 -322,322 0,178 144,322 322,322 150,0 256,-103 286,-242l-288 0 0 -110 400 0c1,11 1,22 1,33z"/>
   <polygon class="fil3" points="3136,1163 3136,347 3254,347 3254,1163 "/>
   <path class="fil0" d="M3581 731c53,0 88,24 108,63l-261 105c3,-93 58,-168 153,-168zm0 350c-67,0 -115,-38 -138,-93l268 -108 112 -46c-6,-29 -16,-57 -30,-82 -41,-75 -115,-125 -212,-125 -154,0 -270,125 -270,279 0,154 116,278 270,278 116,0 194,-53 236,-123l-94 -66c-26,51 -80,86 -142,86z"/>
  </g>
 </g>
</svg>
