<?xml version="1.0" encoding="UTF-8"?>
<!DOCTYPE svg PUBLIC "-//W3C//DTD SVG 1.1//EN" "http://www.w3.org/Graphics/SVG/1.1/DTD/svg11.dtd">
<!-- Creator: CorelDRAW X7 -->
<svg xmlns="http://www.w3.org/2000/svg" xml:space="preserve" width="10.0694in" height="7.77777in" version="1.1" style="shape-rendering:geometricPrecision; text-rendering:geometricPrecision; image-rendering:optimizeQuality; fill-rule:evenodd; clip-rule:evenodd"
viewBox="0 0 10069 7778"
 xmlns:xlink="http://www.w3.org/1999/xlink">
 <defs>
  <style type="text/css">
   <![CDATA[
    .str0 {stroke:white;stroke-width:55.5551}
    .str1 {stroke:white;stroke-width:27.7756}
    .fil0 {fill:#66D6F2}
    .fil1 {fill:#CCCCCC}
    .fil3 {fill:black;fill-rule:nonzero}
    .fil2 {fill:gray;fill-rule:nonzero}
   ]]>
  </style>
 </defs>
 <g id="Layer_x0020_1">
  <metadata id="CorelCorpID_0Corel-Layer"/>
  <path class="fil0 str0" d="M1250 6339l-477 321 344 643c24,35 15,29 15,72 0,25 -4,7 -29,19 0,7 -7,5 -19,10 -18,7 -1,14 -43,14 -14,0 -157,0 -158,0 -11,5 -16,19 -29,19 0,8 -6,15 -14,15 0,15 -19,6 -19,28 -23,0 -15,72 -15,91 0,9 15,30 15,43 0,10 33,38 33,48 13,0 32,19 72,19 3,0 24,10 53,10 68,0 35,-14 71,-29 10,-4 18,-14 34,-14 13,0 -4,-5 33,-5 67,0 134,0 201,0 0,-9 30,-8 38,-10 19,-4 31,-9 53,-9 0,-12 31,-19 38,-19 7,-15 9,-10 29,-10 0,-7 35,-24 43,-24 0,-10 19,-9 19,-24 15,0 8,-8 24,-14 16,-7 2,-10 19,-10 0,-11 54,-15 67,-24l15 -4c10,-2 8,-15 23,-15 0,-13 11,-5 24,-19 9,-8 27,-24 39,-24 0,-8 10,-6 19,-14l9 -5c0,-9 25,-21 39,-24l14 -5c0,-23 51,-21 45,-40l-282 -553 -57 42 -286 -499z"/>
  <polygon class="fil1 str0" points="5116,3041 5143,2787 5968,2802 5966,3915 4977,3924 5093,3500 "/>
  <path class="fil1 str0" d="M6966 2602l25 -1627c32,-7 13,-24 38,-24 0,-7 7,-14 15,-14 0,-7 26,-43 33,-43 0,-8 33,-43 38,-43 0,-26 5,3 5,-15 14,0 5,-10 19,-23 8,-8 6,-24 19,-24 0,-12 10,-15 19,-15 0,-9 12,-19 20,-33 10,0 19,-19 19,-24 0,-26 5,3 5,-14 0,-9 12,-15 14,-15 0,-4 17,-28 24,-28 0,-26 5,1 5,-24l9 -5c24,-24 9,-12 15,-24 2,-6 17,-11 23,-38 2,-7 24,-38 24,-39 6,-26 13,-14 22,-31 11,-11 21,-36 31,-36 0,-14 -2,-7 10,-19 25,-25 9,-13 16,-26 8,-15 12,-19 17,-31 0,0 0,-38 0,-43 0,-15 -5,-58 -14,-58 0,-16 0,-31 0,-47 0,-34 4,-11 4,-24 11,0 31,-29 43,-34 14,-5 65,-64 82,-81 7,-7 17,-34 24,-34 0,-13 22,-25 28,-43 1,-1 -4,-24 15,-24 0,26 -2,13 14,24 33,24 77,-4 101,19 10,11 7,2 14,5 20,9 0,24 48,24 31,0 3,-5 19,-5 0,-9 17,-25 24,-28 0,0 88,0 95,0l9 2581 -971 -17z"/>
  <path class="fil1 str0" d="M6995 2602l942 17 1 212c-9,9 -5,26 -5,38 0,16 -18,21 -26,36 -10,10 -6,22 -17,24 -10,2 -16,18 -19,26 -3,7 -25,30 -33,34 -25,10 -54,76 -67,76 0,7 4,15 -5,15 0,16 -43,35 -43,57 -15,0 -8,19 -19,19 0,20 -5,17 -5,43 0,27 26,62 29,72 3,16 13,22 14,24 11,26 24,20 24,29 11,0 9,-3 9,4 26,0 37,-9 43,-9 15,0 39,-33 48,-43 15,-15 -5,-4 10,-19 8,-9 2,-34 19,-34 0,-13 33,-28 33,-28 0,-7 40,-40 48,-48 19,-19 3,-24 19,-24 0,-10 25,-34 29,-34 0,-6 4,-14 10,-14 0,-10 -3,-14 9,-14 0,-9 7,-34 19,-34 0,-8 7,-14 15,-14 0,-4 7,-25 9,-29 13,-18 -3,-53 10,-53 0,-14 -3,-14 5,-14 0,-16 11,-13 14,-24 1,-6 38,-56 38,-57 8,-19 24,-28 24,-38 13,0 13,-20 24,-24 12,-5 30,-33 34,-34 30,-12 11,-15 23,-24 29,-21 4,-12 22,-21 10,-20 26,-18 26,-27 16,0 19,-19 29,-19 0,29 -5,41 -5,72 0,12 -6,20 -9,29 0,0 0,37 0,38 0,22 -5,22 -5,29 0,19 1,0 -5,14 0,0 -9,57 -9,57 0,22 1,10 -5,24 0,1 -4,80 -15,91 -6,6 -19,61 -19,72 0,21 -26,63 -33,86 -6,17 -12,13 -15,19 -8,21 -41,27 -52,38 -13,14 -15,-5 -15,10 -14,7 -7,6 -19,10 -13,4 -64,59 -67,71 -7,34 -24,3 -24,58 16,0 80,-3 87,-10 5,-5 67,-21 67,-33 5,0 19,-6 19,-15 15,0 11,3 19,-4 24,-24 -15,2 19,-15 0,-16 29,-19 29,-28 10,0 26,-37 38,-48 19,-19 19,-3 19,-15 19,0 35,-10 53,-14 22,-5 37,-22 52,-33 12,-9 24,-17 24,-29 16,0 6,-19 19,-19 0,-16 6,-5 10,-15l0 -9c6,-15 19,-10 19,-19 0,0 22,-5 24,-5 16,-7 -10,-3 19,-10 7,-1 79,-35 81,-38 17,-17 7,7 27,-12 21,-10 16,-11 31,-21 1,-1 14,-32 14,-34 0,-12 19,-19 19,-33 29,0 13,-1 24,-5 9,-4 19,7 19,-10 9,0 31,-4 39,-9 16,-12 14,1 14,-10 9,0 26,-37 29,-48 6,-27 14,-4 14,-19 27,0 54,0 81,0l-9 1263 -930 -13 0 -193 -1013 0 0 -1262z"/>
  <path class="fil1 str0" d="M8011 4063l927 7 1009 19 43 1559c23,0 18,-4 0,-4 -28,0 -30,-5 -53,-5 -30,0 -30,-5 -57,-5 -22,0 -22,-5 -29,-5 -19,0 -1,1 -14,-5 -2,-1 -76,-9 -81,-9 -22,0 -22,-5 -29,-5 -30,0 -11,-1 -29,-5 -10,-2 -14,6 -14,-5l-15 -4c-9,0 -24,-11 -33,-15 -8,-3 -29,8 -29,-9 0,0 -19,0 -19,0 -32,-8 -12,-15 -48,-15 -1,0 -52,-14 -62,-14 -34,0 -9,-10 -52,-10 -32,0 -3,-4 -20,-4 -35,0 -13,-5 -43,-5 -27,0 -26,-5 -47,-5 -25,0 -3,-5 -20,-5 -24,0 -22,-4 -43,-9 -1,-1 -33,-10 -33,-10 -31,0 -21,-9 -34,-9 -25,0 -17,-5 -33,-5 -39,0 -16,-3 -43,-10 -32,-7 18,9 -14,-4 -11,-5 -48,7 -48,-5 -13,0 -20,-5 -39,-5 -28,0 -17,1 -43,-5 -16,-4 -32,6 -47,-5 -14,-9 -49,-10 -58,-19 -10,-10 -7,-2 -14,-5 -9,-3 -36,-18 -38,-19 -19,-7 -139,-4 -168,-4 -37,0 -21,9 -52,9 -28,0 -13,5 -34,5 -32,0 -20,-2 -48,5 -2,0 -57,0 -67,0 -34,0 -61,-10 -91,-10 -26,0 -5,1 -19,-5 -14,-6 -93,-9 -110,-9 -37,0 -49,-10 -67,-10 -28,0 -23,-6 -38,-9 -7,-2 -19,-4 -19,-10 -21,0 -18,1 -38,-9 -15,-8 -40,-25 -45,-38l-2 -1256z"/>
  <path class="fil1 str0" d="M7499 3866l1 1395c0,16 87,9 103,9 31,0 47,-4 77,-4 14,0 1,14 52,14 0,11 11,5 19,5 0,8 0,5 20,5 0,9 33,4 43,4 13,0 202,14 203,14l-15 -1447 -503 5z"/>
  <path class="fil1 str0" d="M6995 5238c22,-7 31,-15 82,-15 28,0 0,-5 34,-5 24,0 33,-5 57,-5 6,0 47,0 48,0 24,6 -9,5 28,5 0,8 -1,5 10,5 0,11 15,1 29,4 28,7 24,10 57,10 5,0 19,5 38,5 41,0 83,10 120,10 15,0 -4,-1214 0,-1380l-506 -8 3 1374z"/>
  <path class="fil1 str0" d="M6533 4563c13,0 -1,-1 10,3l5 0c5,3 14,8 20,8 11,0 6,3 17,3 9,0 -1,2 11,2 18,0 8,3 22,6 11,2 0,4 9,4 2,0 18,9 19,11 1,2 2,18 2,22 -3,9 -4,7 -4,18 -5,0 -4,7 -4,11 -5,0 0,25 -2,30 -2,4 -1,-3 -1,7 0,11 -3,25 1,35 3,6 2,1 2,11 0,22 -2,14 -9,31 0,1 -7,19 -10,19 0,4 -8,6 -11,6 0,2 -7,1 -10,1 -8,0 6,4 -6,4 -5,0 -7,4 -11,4 -8,0 -9,9 -17,9 -3,7 -7,5 -7,15 0,19 -3,98 1,109 1,0 4,7 4,7 4,9 11,13 13,17 3,7 11,3 11,11 8,0 -4,3 6,3 0,4 1,8 5,8 0,3 15,15 17,22 0,2 5,6 7,13 1,6 2,1 2,11 0,7 4,0 4,7 9,0 -5,6 5,6 0,17 7,17 7,23 3,0 12,10 12,15 0,14 0,27 0,41 0,2 1,2 1,11 0,16 3,66 -3,77 -2,3 -8,19 -8,22 -3,0 -2,3 -2,6 -5,0 -3,9 -11,9 0,5 -9,7 -12,10 0,16 65,21 76,24 23,6 13,5 39,5 12,0 105,0 105,0 10,-4 9,-10 29,-10 13,0 11,-9 47,-9 23,0 57,-14 79,-17l-2 -751 -419 4 -39 66z"/>
  <path class="fil1 str0" d="M5977 5081l153 218c-12,-12 14,-33 14,-48 10,0 39,-48 53,-48 37,0 181,4 201,0 32,-5 10,67 41,67 24,0 81,-2 102,8 21,10 46,-26 57,-1 2,5 11,-26 20,-26 4,-9 9,-9 12,-17 2,-4 10,-10 10,-19 0,-4 1,-16 3,-18 3,-3 2,-3 2,-8 4,0 1,0 4,-7 2,-5 2,2 2,-7 0,-3 2,-4 2,-13 0,-4 0,-75 0,-76 -4,-9 -4,1 -4,-13 -4,0 -1,-6 -2,-9 -2,-5 -2,3 -2,-7 -3,0 -2,-7 -2,-11 -3,0 -1,-4 -3,-9 -4,-9 -9,-13 -11,-23 -2,-7 -4,1 -4,-9 -5,0 -4,-7 -7,-14 -4,0 -1,-2 -2,-4 -1,-1 -15,-19 -19,-20 0,-2 -9,-12 -13,-15l-1 -4c-8,-4 -3,-9 -10,-9 0,-8 -1,-1 -1,-11 -10,0 -6,-39 -6,-46 0,-13 0,-26 0,-39 0,-2 -2,-2 -2,-11 0,-7 0,-13 0,-20 8,0 8,-13 17,-17 3,-1 6,-3 9,-3 8,0 -2,-4 9,-4 5,0 5,-4 8,-6 0,0 7,1 7,-5 7,0 4,-6 9,-6 0,-3 9,0 9,-16 0,-6 0,-61 0,-61 3,-7 4,-3 4,-13 0,-14 4,-13 4,-22 5,0 3,-29 3,-35 0,-6 3,-26 -5,-26 0,-6 -2,5 -2,-5 -4,0 -1,-2 -11,-2 -3,0 -21,-6 -22,-7 -4,-5 -9,-3 -15,-6 -1,0 -6,-5 -13,-5 -6,0 -4,-6 -11,-6 0,-6 -11,3 -11,-15 0,-16 7,-19 7,-31 5,0 1,-3 2,-5 2,-5 8,-7 10,-19l423 -4 -6 -644 -1027 -7 15 1239z"/>
  <path class="fil0 str0" d="M3306 5355c-3,9 2,9 2,24 0,2 6,29 3,35 -1,3 -3,6 -3,12 -5,1 1,1 -7,9 -3,7 -5,2 -5,8 -4,0 -6,15 -12,15 0,5 -6,4 -8,9 -2,5 -13,21 -16,21 0,12 -12,6 -19,12 -2,3 -13,4 -18,10 -3,2 -14,12 -15,13 -10,4 2,3 -7,3 0,8 -4,-4 -4,6 -4,0 -15,4 -15,9 0,2 0,29 0,29 2,4 12,13 17,13 0,4 2,0 7,6 4,4 17,12 17,15 7,0 -5,1 5,1 0,5 12,10 15,17 3,6 4,-5 4,7 0,4 2,3 2,11 5,0 3,27 3,34 0,6 0,13 0,20 -3,0 -2,-1 -2,3 -4,0 -3,2 -3,6 -4,0 -3,6 -4,9 -3,7 -4,0 -4,11 0,4 9,24 13,26 7,3 47,2 57,2 5,0 8,2 17,2 17,0 34,0 51,0 0,3 0,27 0,27 2,5 2,-2 2,8 0,7 2,35 -2,38 -2,3 -5,22 -8,22 -1,7 -4,4 -8,13 0,1 -11,8 -13,13 0,1 -18,8 -20,8 -2,0 -14,2 -17,3 -5,2 -1,2 -9,2 -1,0 -15,6 -22,6 -8,0 -6,9 -6,16 0,17 -1,28 -1,44 0,7 0,14 0,21 9,4 -3,-1 7,9 2,2 4,5 4,9 4,0 11,16 12,17 6,2 1,0 2,3 1,3 13,12 17,22 0,2 6,13 8,13 1,2 3,10 5,11 5,2 0,1 2,4 1,3 5,10 5,13 0,0 6,13 6,18 0,10 3,30 -4,37 -3,3 -3,15 -4,17 -1,3 -3,6 -3,11 0,5 0,9 0,14l-3 -2c0,-10 38,-6 48,-10 10,-4 8,-9 24,-9 11,0 7,-10 38,-10 1,0 29,0 29,0 9,-4 17,-10 29,-10 0,-5 7,-9 14,-9 0,-9 36,-36 52,-38 14,-2 50,-18 67,-24 0,-15 26,-14 39,-19 2,-1 27,-14 28,-15l10 0c3,-1 21,-19 29,-19 10,0 86,-33 86,-48 9,0 32,-32 43,-43 7,-7 31,-19 38,-19 0,-9 29,-5 38,-5 34,0 106,-4 129,19 1,1 24,19 24,19 7,3 29,23 29,34 12,0 40,19 57,19 0,15 34,-2 34,48 0,9 0,81 0,81l5 10c11,0 -1,19 19,19 0,24 40,26 62,29 42,5 6,9 43,9 15,0 -3,5 19,5 0,7 16,6 29,10 18,4 30,13 43,-24 3,-13 14,-7 14,-34 10,0 33,-43 48,-43 0,-13 15,-10 15,-24 9,0 3,-9 19,-12 17,-2 -14,-7 19,-7 16,0 32,-9 67,-9 0,0 38,-10 38,-10l10 0c0,-11 7,-2 14,-5 14,-6 -8,-5 19,-5 0,-10 14,-4 29,-19 6,-6 16,-14 24,-14 0,-13 12,-10 24,-10 0,-11 0,2 19,-9l14 -5c28,-5 45,-29 67,-29 6,0 21,-9 34,-9 9,0 32,-5 52,-5 29,0 51,-34 67,-34 0,-24 19,-46 19,-52 14,0 33,-34 55,-36 3,-15 50,-39 65,-45 8,-4 64,-10 76,-10 0,-9 29,-18 29,-29 15,-7 59,-40 72,-43 18,-4 3,-9 19,-9 16,0 31,-15 43,-15 0,-16 24,-6 24,-24 3,0 44,-8 48,-9 16,-7 4,-10 28,-10 0,-12 14,-1 24,-5 0,0 26,-14 34,-14 10,0 12,-9 29,-9 1,0 51,-10 52,-10 0,-11 8,-2 19,-5 18,-4 12,-9 39,-9 10,0 24,-15 47,-15 0,-12 37,-10 48,-14 10,-4 8,-10 24,-10 0,-7 36,-43 43,-43 8,0 53,-15 58,-19 21,-21 9,5 38,-24 17,-17 2,-3 24,-14 0,-16 8,-7 14,-10 18,-7 29,-38 57,-38 0,-8 -1,-5 10,-5 0,-11 52,-62 67,-62l-155 -222 -7 -335 -2719 0 57 613z"/>
  <path class="fil0 str0" d="M3248 4865l58 490c-3,9 2,9 2,24 0,2 6,29 3,35 -1,3 -3,6 -3,12 -5,1 1,1 -7,9 -3,7 -5,2 -5,8 -4,0 -6,15 -12,15 0,5 -6,4 -8,9 -2,5 -13,21 -16,21 0,12 -12,6 -19,12 -2,3 -13,4 -18,10 -3,2 -14,12 -15,13 -10,4 2,3 -7,3 0,8 -4,-4 -4,6 -4,0 -15,4 -15,9 0,2 0,29 0,29 2,4 12,13 17,13 0,4 2,0 7,6 4,4 17,12 17,15 7,0 -5,1 5,1 0,5 12,10 15,17 3,6 4,-5 4,7 0,4 2,3 2,11 5,0 3,27 3,34 0,6 0,13 0,20 -3,0 -2,-1 -2,3 -4,0 -3,2 -3,6 -4,0 -3,6 -4,9 -3,7 -4,0 -4,11 0,4 9,24 13,26 7,3 47,2 57,2 5,0 8,2 17,2 17,0 34,0 51,0 0,3 0,27 0,27 2,5 2,-2 2,8 0,7 2,35 -2,38 -2,3 -5,22 -8,22 -1,7 -4,4 -8,13 0,1 -11,8 -13,13 0,1 -18,8 -20,8 -2,0 -14,2 -17,3 -5,2 -1,2 -9,2 -1,0 -15,6 -22,6 -8,0 -6,9 -6,16 0,17 -1,28 -1,44 0,7 0,14 0,21 9,4 -3,-1 7,9 2,2 4,5 4,9 4,0 11,16 12,17 6,2 1,0 2,3 1,3 13,12 17,22 0,2 6,13 8,13 1,2 3,10 5,11 5,2 0,1 2,4 1,3 5,10 5,13 0,0 6,13 6,18 0,10 3,30 -4,37 -3,3 -3,15 -4,17 -1,3 -3,6 -3,11 0,5 0,9 0,14l-3 -2c-5,0 -33,12 -33,19 -7,0 -15,4 -15,9 -9,5 -33,10 -33,19 -9,0 -18,4 -24,10 -8,8 -43,21 -43,29 -18,0 -32,24 -38,24 -14,0 -33,16 -39,28 -22,0 -4,5 -19,5 -24,0 -4,5 -24,10 -47,11 14,-3 -28,14 -9,3 -9,-5 -20,5 -23,24 -31,5 -47,38 -9,0 -24,4 -24,14 -9,0 -6,1 -15,10 -18,18 -10,24 -24,38 -7,7 -4,24 -14,24 -5,11 -16,34 -24,34 -6,11 -3,28 -14,28 0,12 -2,21 -10,29 -5,5 -14,50 -17,57 -2,25 -26,29 -26,39 -15,0 -7,-2 -9,5 0,0 -47,23 -48,23 -31,0 -35,20 -48,20l-205 -383 -114 80 -408 -762c47,-20 94,-40 141,-60l-25 -45c62,-12 146,27 211,15 85,-37 162,-70 262,-161 65,-22 131,-44 196,-66 167,-94 165,-230 267,-342l232 -112z"/>
  <path class="fil0 str0" d="M3177 3966l71 899 -232 112c-102,112 -100,248 -267,342 -65,22 -131,44 -196,66 -100,91 -177,124 -262,161 -65,12 -149,-27 -211,-15l-322 -649 417 -272 16 -100 80 -56 76 30 830 -518z"/>
  <path class="fil0 str0" d="M1592 6793l295 563c0,-10 34,-24 34,-48 6,0 19,-21 19,-29 10,0 41,-46 57,-52 6,-2 10,-9 10,-15 13,0 37,-52 76,-52 0,-8 36,-19 39,-19 0,-11 13,-4 28,-20 8,-7 5,-4 15,-4 0,-9 33,-33 33,-53 0,-23 0,-42 10,-62 9,0 4,-18 29,-24 2,-1 73,-25 76,-29 8,-8 17,-9 29,-9 0,-8 25,-34 33,-34 0,-26 83,-63 101,-74 16,-2 7,-14 38,-21 17,-4 28,-13 43,-20 5,-2 10,6 10,-9 23,0 120,-74 136,-74l-221 -388 -130 71 -61 -141 -297 226 -135 -55 -187 146 31 141 -111 85z"/>
  <polygon class="fil0 str0" points="1254,6348 773,6660 17,5247 89,5208 118,5242 271,5156 252,5084 582,4877 1121,5903 1422,5691 1515,5872 1963,5638 2298,6263 1997,6480 1862,6428 1679,6565 1702,6710 1534,6836 "/>
  <polygon class="fil0 str0" points="2108,5575 1471,4319 582,4877 1128,5896 1425,5698 1521,5865 1956,5640 "/>
  <polygon class="fil1 str0" points="3173,3967 3046,2735 1294,2707 1294,2798 1170,2884 1136,2836 845,3022 1471,4319 1758,4881 2178,4618 2197,4507 2274,4453 2332,4491 "/>
  <polygon class="fil0 str1" points="4557,4495 4526,4753 5968,4746 5968,3917 4977,3924 4869,4499 "/>
  <polygon class="fil0 str1" points="4526,4753 3238,4746 3151,3735 4522,3770 4430,4495 4557,4493 "/>
  <path class="fil1 str0" d="M4634 2663l85 -693c-7,0 -7,5 -29,5 0,15 -76,44 -76,62 -14,0 6,3 -15,24 -10,11 -4,33 -19,33 0,7 -19,56 -19,63 0,10 -9,12 -9,28 -9,0 -7,21 -10,29 -16,38 -3,-7 -10,19 -4,18 -9,4 -9,19 0,17 -29,63 -29,67 -11,0 -2,19 -19,19 0,17 -5,-12 -5,20 0,17 0,35 0,52 -22,0 5,10 -24,24 0,6 -41,38 -47,38 -22,0 -25,24 -58,24 0,8 -20,19 -29,19 0,15 -29,21 -38,29 -7,7 -8,10 -19,10 0,5 -8,9 -14,9 0,10 -11,6 -19,15 -3,2 -51,23 -53,23 -20,0 -14,5 -43,5 -24,0 -81,-10 -81,24 -17,0 -9,47 -20,58 -9,9 -1,9 -23,14 -2,0 -24,0 -24,0 -18,7 -9,9 -34,9 -16,0 -4,10 -43,10 -39,0 -11,24 -57,24 -35,0 -27,-2 -58,-10 -3,0 -14,-6 -14,-14 -8,0 -5,2 -5,-14 -28,0 13,-18 -14,9 -9,9 -6,10 -15,10 0,17 -51,14 -52,14 -17,7 -3,5 -29,5 -8,0 -16,0 -24,0l-587 -10 105 1000 1368 39 142 -1111 -27 0z"/>
  <path class="fil1 str0" d="M5964 1778l-1063 -4c-8,0 -15,7 -15,14 -9,0 -19,22 -19,29 -12,0 -28,34 -28,43 0,10 -15,21 -15,38 -23,0 -14,39 -38,39 0,5 -18,19 -24,19 -13,0 -22,14 -43,14l-75 697 511 -9 -13 126 826 22 -4 -1028z"/>
  <path class="fil1 str0" d="M6976 1778l-2075 -4c0,-9 9,-48 19,-48 0,-40 14,-8 14,-43 0,-13 19,-29 19,-62 11,0 47,8 53,14 8,8 19,4 19,15 8,0 14,3 14,9 17,0 15,-3 15,5 10,0 38,15 38,-5 26,0 28,-19 57,-19 16,0 23,-14 29,-14 0,-28 19,-18 19,-43 21,0 0,-15 15,-15 0,-22 14,-9 14,-48 0,-30 24,-27 24,-86 0,-26 -5,-24 -5,-43 0,-18 -9,-53 -9,-67 0,-16 -43,-21 -43,-33 -20,0 -30,-14 -48,-14 -27,0 2,-23 4,-29 4,-10 6,-24 15,-24 0,-15 14,-5 14,-34 0,-11 4,-33 -5,-33 0,-19 0,-38 0,-57 0,-45 22,-15 34,-43 4,-9 117,-50 119,-53 14,-14 20,5 20,-10 29,0 0,1 23,-4 2,-1 39,0 44,0 27,0 17,-2 43,4 29,7 95,5 134,5 41,0 18,-9 43,-9 0,-17 5,-6 14,-10 10,-4 -3,-19 33,-19 23,0 22,5 29,5 25,0 6,-1 19,4 0,1 67,0 77,0 7,0 31,-12 38,-19 29,-29 68,10 81,10 14,0 16,19 29,19 0,10 22,26 24,33l5 10c31,44 -2,38 67,38 17,0 60,-17 71,-28 20,-20 20,6 20,-10 14,0 10,2 23,-5 30,-15 59,5 87,5 0,21 14,0 14,14 6,0 14,5 14,10 23,0 24,24 48,24 0,21 15,0 17,14 2,18 11,3 26,15 16,11 80,4 101,4 25,0 6,1 19,-4 26,-11 14,-43 33,-63 13,-13 -5,-14 10,-14 0,-18 28,-22 28,-33 15,0 22,-24 44,-24 0,17 0,35 0,52 0,22 -2,10 4,24 5,12 13,51 19,58 11,11 2,26 20,33 0,0 66,0 71,0 1,0 81,-9 84,-12 14,-7 50,-10 50,-21 14,-8 19,-3 19,-15 29,0 26,-14 39,-14 0,-9 67,-73 73,-73l-7 780z"/>
  <polygon class="fil1 str0" points="7000,3857 5972,3837 5977,1780 6969,1780 "/>
  <polygon class="fil1 str0" points="4611,3045 4657,2663 5155,2660 5116,3049 "/>
  <polygon class="fil1 str0" points="5112,3045 4611,3057 4557,3516 5105,3516 5105,3431 "/>
  <polygon class="fil0 str0" points="4426,4503 4557,3516 5093,3516 4977,3924 4869,4499 "/>
  <path class="fil2" d="M1527 3039l111 0c24,0 42,6 54,17 13,12 19,28 19,49 0,22 -7,39 -20,52 -13,12 -33,18 -60,18l-37 0 0 80 -67 0 0 -216zm67 92l17 0c12,0 22,-2 27,-6 5,-5 8,-11 8,-18 0,-6 -3,-12 -7,-17 -5,-5 -13,-7 -26,-7l-19 0 0 48z"/>
  <path id="1" class="fil2" d="M1907 3192l-120 0c1,9 4,16 8,21 6,7 13,10 23,10 6,0 11,-1 16,-4 4,-2 7,-5 11,-10l59 6c-9,15 -20,27 -33,33 -12,7 -31,11 -55,11 -20,0 -37,-3 -49,-9 -12,-6 -21,-15 -29,-28 -8,-13 -12,-28 -12,-45 0,-24 8,-44 24,-59 15,-16 37,-23 65,-23 22,0 40,3 53,10 13,7 22,17 29,30 7,12 10,29 10,50l0 7zm-61 -29c-1,-12 -4,-20 -9,-25 -5,-5 -12,-8 -20,-8 -10,0 -17,4 -23,12 -4,5 -6,12 -7,21l59 0z"/>
  <path id="2" class="fil2" d="M2109 3192l-121 0c1,9 4,16 8,21 6,7 14,10 23,10 6,0 11,-1 17,-4 3,-2 7,-5 10,-10l59 6c-9,15 -20,27 -32,33 -13,7 -31,11 -55,11 -21,0 -37,-3 -49,-9 -12,-6 -22,-15 -30,-28 -8,-13 -12,-28 -12,-45 0,-24 8,-44 24,-59 16,-16 37,-23 65,-23 22,0 40,3 53,10 13,7 23,17 30,30 6,12 10,29 10,50l0 7zm-61 -29c-1,-12 -5,-20 -10,-25 -5,-5 -11,-8 -20,-8 -9,0 -17,4 -23,12 -3,5 -6,12 -7,21l60 0z"/>
  <polygon id="3" class="fil2" points="2138,3039 2198,3039 2198,3255 2138,3255 "/>
  <path class="fil2" d="M6386 2117l100 0c19,0 35,2 47,8 12,5 22,13 30,23 8,10 14,21 17,34 4,13 5,27 5,42 0,23 -2,41 -8,54 -5,13 -12,23 -21,32 -10,8 -20,14 -31,17 -14,4 -27,6 -39,6l-100 0 0 -216zm67 49l0 118 17 0c14,0 24,-2 29,-5 6,-3 11,-8 14,-16 4,-8 5,-20 5,-38 0,-23 -3,-38 -11,-47 -7,-8 -20,-12 -37,-12l-17 0z"/>
  <path id="1" class="fil2" d="M6781 2333l-56 0 0 -25c-8,10 -17,17 -25,22 -9,4 -19,7 -31,7 -17,0 -30,-5 -39,-15 -10,-10 -14,-25 -14,-46l0 -100 60 0 0 87c0,9 2,16 6,21 3,4 8,6 15,6 7,0 13,-3 17,-9 5,-5 7,-15 7,-29l0 -76 60 0 0 157z"/>
  <path id="2" class="fil2" d="M6818 2176l57 0 0 26c5,-11 11,-19 16,-23 6,-4 13,-6 22,-6 9,0 18,2 29,8l-19 43c-7,-3 -13,-5 -17,-5 -8,0 -14,3 -18,10 -6,9 -9,26 -9,51l0 53 -61 0 0 -157z"/>
  <path id="3" class="fil2" d="M6952 2117l60 0 0 79c8,-8 16,-14 24,-18 8,-4 18,-5 29,-5 16,0 29,5 38,15 9,9 14,25 14,45l0 100 -60 0 0 -86c0,-10 -2,-17 -6,-21 -3,-4 -8,-6 -15,-6 -7,0 -13,2 -18,8 -4,6 -6,15 -6,30l0 75 -60 0 0 -216z"/>
  <path id="4" class="fil2" d="M7208 2227l-57 -6c2,-10 5,-18 9,-24 4,-6 10,-11 18,-15 5,-3 13,-5 22,-7 10,-2 20,-2 31,-2 18,0 33,1 44,3 11,2 20,6 27,12 5,5 9,11 12,19 3,8 4,16 4,23l0 70c0,7 1,13 2,17 1,4 3,9 6,16l-56 0c-3,-4 -4,-7 -5,-9 0,-2 -1,-6 -2,-10 -8,7 -15,13 -23,16 -11,4 -23,7 -37,7 -19,0 -33,-5 -43,-14 -9,-8 -14,-19 -14,-32 0,-11 3,-21 10,-29 7,-8 20,-13 39,-17 22,-5 37,-8 44,-10 6,-1 13,-4 21,-7 0,-7 -2,-12 -5,-15 -3,-3 -8,-5 -16,-5 -10,0 -17,2 -22,5 -4,3 -7,7 -9,14zm52 31c-8,3 -17,6 -26,8 -12,4 -20,7 -23,10 -4,3 -5,7 -5,11 0,5 1,9 5,12 3,3 8,4 14,4 7,0 13,-1 19,-5 6,-3 10,-7 12,-12 3,-4 4,-10 4,-18l0 -10z"/>
  <path id="5" class="fil2" d="M7355 2176l56 0 0 23c8,-9 16,-16 24,-20 8,-4 18,-6 30,-6 12,0 22,2 30,6 7,5 13,11 17,20 10,-10 18,-17 26,-21 8,-3 17,-5 29,-5 17,0 30,5 39,15 9,10 14,25 14,46l0 99 -60 0 0 -89c0,-7 -1,-13 -4,-16 -4,-6 -9,-8 -15,-8 -7,0 -13,2 -17,7 -4,6 -6,14 -6,25l0 81 -61 0 0 -86c0,-7 0,-12 -1,-14 -1,-4 -3,-8 -6,-10 -3,-2 -7,-4 -11,-4 -7,0 -13,3 -17,8 -5,5 -7,14 -7,26l0 80 -60 0 0 -157z"/>
  <path class="fil2" d="M3575 5269l58 17c-3,17 -10,30 -18,41 -9,11 -19,20 -32,25 -12,6 -28,9 -47,9 -24,0 -43,-4 -58,-11 -15,-6 -28,-18 -39,-36 -10,-17 -16,-39 -16,-66 0,-35 10,-63 29,-82 19,-19 46,-29 80,-29 28,0 49,6 65,17 15,11 27,28 34,51l-58 13c-3,-7 -5,-12 -7,-15 -4,-5 -8,-9 -14,-11 -5,-3 -11,-5 -18,-5 -15,0 -27,6 -35,19 -6,9 -9,23 -9,42 0,24 4,40 11,49 7,9 18,14 31,14 13,0 22,-4 29,-11 6,-7 11,-18 14,-31z"/>
  <path id="1" class="fil2" d="M3664 5141l60 0 0 41 -60 0 0 -41zm0 59l60 0 0 157 -60 0 0 -157z"/>
  <path id="2" class="fil2" d="M3835 5141l0 59 33 0 0 44 -33 0 0 56c0,7 0,11 2,13 2,3 5,5 10,5 4,0 11,-1 19,-4l4 42c-15,3 -29,5 -41,5 -15,0 -26,-2 -34,-6 -7,-4 -12,-10 -15,-18 -4,-7 -5,-20 -5,-37l0 -56 -22 0 0 -44 22 0 0 -28 60 -31z"/>
  <path id="3" class="fil2" d="M3879 5200l63 0 33 105 29 -105 59 0 -62 168c-7,19 -14,32 -21,38 -11,10 -26,14 -48,14 -8,0 -22,-1 -40,-3l-4 -42c8,3 18,4 28,4 7,0 13,-2 18,-5 4,-3 8,-9 11,-17l-66 -157z"/>
  <path id="4" class="fil2" d="M4174 5279c0,-24 8,-44 24,-59 16,-16 38,-23 65,-23 32,0 55,9 71,27 13,15 20,33 20,54 0,24 -8,44 -24,60 -16,15 -38,23 -66,23 -26,0 -46,-7 -61,-20 -19,-15 -29,-36 -29,-62zm60 0c0,14 3,24 9,31 5,7 12,10 21,10 8,0 15,-3 21,-10 5,-6 8,-17 8,-32 0,-13 -3,-23 -8,-30 -6,-7 -13,-10 -21,-10 -9,0 -16,3 -21,10 -6,7 -9,17 -9,31z"/>
  <path id="5" class="fil2" d="M4449 5200l29 0 0 44 -29 0 0 113 -60 0 0 -113 -22 0 0 -44 22 0 0 -7c0,-6 1,-13 2,-21 2,-7 4,-14 8,-18 4,-5 9,-9 16,-12 7,-3 17,-5 30,-5 10,0 26,1 46,4l-7 36c-7,-1 -13,-2 -17,-2 -6,0 -10,1 -12,3 -2,2 -4,5 -5,9 0,2 -1,6 -1,13z"/>
  <polygon id="6" class="fil2" points="4607,5141 4810,5141 4810,5194 4742,5194 4742,5357 4675,5357 4675,5194 4607,5194 "/>
  <path id="7" class="fil2" d="M4808 5279c0,-24 9,-44 25,-59 16,-16 37,-23 65,-23 31,0 55,9 71,27 13,15 19,33 19,54 0,24 -8,44 -24,60 -16,15 -38,23 -66,23 -25,0 -45,-7 -61,-20 -19,-15 -29,-36 -29,-62zm61 0c0,14 2,24 8,31 6,7 13,10 21,10 9,0 16,-3 21,-10 6,-6 9,-17 9,-32 0,-13 -3,-23 -9,-30 -5,-7 -12,-10 -20,-10 -9,0 -16,3 -22,10 -6,7 -8,17 -8,31z"/>
  <path id="8" class="fil2" d="M5018 5200l56 0 0 26c5,-11 11,-19 17,-23 5,-4 12,-6 21,-6 9,0 19,3 29,8l-19 43c-7,-3 -12,-5 -16,-5 -8,0 -14,3 -19,10 -6,9 -9,26 -9,51l0 53 -60 0 0 -157z"/>
  <path id="9" class="fil2" d="M5149 5279c0,-24 8,-44 24,-59 16,-16 38,-23 65,-23 31,0 55,9 71,27 13,15 19,33 19,54 0,24 -8,44 -24,60 -16,15 -38,23 -66,23 -25,0 -45,-7 -61,-20 -19,-15 -28,-36 -28,-62zm60 0c0,14 2,24 8,31 6,7 13,10 21,10 9,0 16,-3 22,-10 5,-6 8,-17 8,-32 0,-13 -3,-23 -9,-30 -5,-7 -12,-10 -20,-10 -9,0 -16,3 -22,10 -6,7 -8,17 -8,31z"/>
  <path id="10" class="fil2" d="M5357 5200l56 0 0 26c8,-11 17,-18 25,-23 9,-4 19,-6 32,-6 16,0 29,5 39,15 9,9 14,25 14,45l0 100 -61 0 0 -86c0,-10 -2,-17 -5,-21 -4,-4 -9,-6 -15,-6 -8,0 -14,3 -18,8 -5,6 -7,15 -7,30l0 75 -60 0 0 -157z"/>
  <path id="11" class="fil2" d="M5631 5141l0 59 33 0 0 44 -33 0 0 56c0,7 1,11 2,13 2,3 5,5 10,5 5,0 11,-1 19,-4l4 42c-15,3 -28,5 -41,5 -15,0 -26,-2 -33,-6 -7,-4 -13,-10 -16,-18 -3,-7 -5,-20 -5,-37l0 -56 -22 0 0 -44 22 0 0 -28 60 -31z"/>
  <path id="12" class="fil2" d="M5685 5279c0,-24 8,-44 24,-59 16,-16 38,-23 66,-23 31,0 54,9 70,27 13,15 20,33 20,54 0,24 -8,44 -24,60 -16,15 -38,23 -66,23 -25,0 -46,-7 -61,-20 -19,-15 -29,-36 -29,-62zm60 0c0,14 3,24 9,31 5,7 12,10 21,10 9,0 16,-3 21,-10 6,-6 8,-17 8,-32 0,-13 -2,-23 -8,-30 -6,-7 -12,-10 -21,-10 -8,0 -16,3 -21,10 -6,7 -9,17 -9,31z"/>
  <path class="fil3" d="M5729 1409l0 -16 61 0 0 53c-10,7 -19,13 -29,17 -10,3 -20,5 -31,5 -14,0 -27,-3 -38,-9 -12,-6 -21,-15 -27,-26 -6,-11 -8,-24 -8,-38 0,-14 2,-27 8,-40 6,-12 15,-21 26,-27 11,-6 23,-9 38,-9 10,0 19,2 28,6 8,3 15,8 20,14 4,6 8,14 11,23l-18 5c-2,-7 -5,-13 -8,-17 -3,-5 -8,-8 -13,-10 -6,-3 -13,-4 -20,-4 -9,0 -16,1 -23,4 -6,2 -11,6 -15,10 -4,5 -7,9 -9,15 -4,8 -6,18 -6,29 0,12 2,23 7,32 4,9 11,15 19,19 9,4 18,6 27,6 8,0 16,-1 24,-4 8,-4 14,-7 18,-11l0 -27 -42 0z"/>
  <path id="1" class="fil3" d="M5887 1432l18 3c-3,10 -8,18 -16,24 -8,6 -18,9 -30,9 -15,0 -27,-5 -36,-14 -9,-9 -13,-22 -13,-39 0,-18 4,-32 13,-41 9,-10 21,-15 35,-15 14,0 26,5 35,15 8,9 13,22 13,40 0,1 0,2 0,4l-78 0c1,12 4,20 10,27 5,6 13,9 21,9 7,0 12,-2 17,-5 5,-4 8,-9 11,-17zm-58 -28l58 0c-1,-9 -3,-16 -7,-20 -5,-7 -13,-10 -21,-10 -9,0 -15,3 -21,8 -5,5 -9,13 -9,22z"/>
  <path id="2" class="fil3" d="M5921 1414c0,-20 5,-34 16,-43 9,-8 20,-12 33,-12 14,0 26,5 35,14 9,10 14,23 14,39 0,14 -2,24 -6,32 -4,8 -10,14 -18,18 -8,4 -16,6 -25,6 -15,0 -27,-4 -36,-14 -9,-9 -13,-23 -13,-40zm18 0c0,13 3,23 9,30 6,6 13,10 22,10 9,0 16,-4 22,-10 6,-7 9,-17 9,-31 0,-13 -3,-22 -9,-29 -6,-7 -13,-10 -22,-10 -9,0 -16,3 -22,10 -6,7 -9,16 -9,30z"/>
  <path id="3" class="fil3" d="M6039 1466l0 -104 16 0 0 16c4,-8 8,-13 11,-15 4,-3 8,-4 12,-4 6,0 12,2 18,6l-6 16c-5,-2 -9,-3 -13,-3 -4,0 -8,1 -11,3 -3,2 -5,6 -6,10 -2,6 -3,13 -3,20l0 55 -18 0z"/>
  <path id="4" class="fil3" d="M6103 1475l17 2c1,5 3,9 6,12 5,3 11,5 18,5 8,0 15,-2 19,-5 5,-4 8,-8 9,-14 1,-4 2,-11 2,-23 -8,9 -18,14 -29,14 -15,0 -26,-5 -34,-16 -8,-10 -11,-22 -11,-37 0,-10 1,-19 5,-27 4,-9 9,-15 16,-20 6,-4 14,-7 24,-7 12,0 22,5 30,15l0 -12 16 0 0 90c0,16 -1,27 -4,34 -4,7 -9,12 -16,16 -7,4 -16,6 -27,6 -12,0 -22,-3 -30,-8 -7,-6 -11,-14 -11,-25zm15 -63c0,14 2,24 8,30 5,6 12,9 20,9 8,0 15,-3 21,-9 5,-6 8,-16 8,-29 0,-13 -3,-23 -9,-29 -5,-7 -12,-10 -20,-10 -8,0 -15,3 -20,10 -6,6 -8,15 -8,28z"/>
  <path id="5" class="fil3" d="M6218 1342l0 -20 18 0 0 20 -18 0zm0 124l0 -104 18 0 0 104 -18 0z"/>
  <path id="6" class="fil3" d="M6263 1466l0 -104 16 0 0 14c8,-11 19,-17 33,-17 6,0 12,1 17,4 6,2 10,5 12,9 3,3 5,8 6,13 0,3 1,9 1,17l0 64 -18 0 0 -63c0,-8 -1,-13 -2,-17 -1,-3 -4,-6 -7,-8 -4,-2 -8,-3 -13,-3 -7,0 -14,2 -19,7 -6,5 -8,14 -8,27l0 57 -18 0z"/>
  <path id="7" class="fil3" d="M6443 1453c-6,5 -13,9 -19,12 -6,2 -12,3 -19,3 -12,0 -21,-3 -27,-8 -6,-6 -9,-13 -9,-22 0,-5 1,-9 3,-14 3,-4 6,-7 10,-10 3,-2 8,-4 12,-6 4,0 9,-1 16,-2 14,-2 25,-4 32,-6 0,-3 0,-4 0,-5 0,-7 -2,-12 -5,-15 -5,-4 -12,-6 -20,-6 -9,0 -15,1 -19,4 -4,3 -7,8 -9,16l-17 -2c1,-8 4,-14 8,-18 3,-5 9,-9 15,-11 7,-2 15,-4 24,-4 9,0 16,1 22,3 5,3 10,5 12,8 3,4 5,8 6,12 0,3 1,9 1,17l0 23c0,17 0,27 1,31 0,5 2,9 4,13l-18 0c-2,-4 -3,-8 -4,-13zm-1 -39c-7,2 -16,4 -29,6 -8,1 -13,2 -16,4 -3,1 -5,3 -7,6 -1,2 -2,5 -2,8 0,5 2,8 5,12 4,3 9,4 16,4 7,0 13,-1 18,-4 5,-3 9,-7 12,-12 2,-4 3,-10 3,-18l0 -6z"/>
  <polygon class="fil3" points="4811,2251 4811,2107 4915,2107 4915,2124 4830,2124 4830,2168 4910,2168 4910,2185 4830,2185 4830,2234 4919,2234 4919,2251 "/>
  <path id="1" class="fil3" d="M5011 2238c-6,6 -13,10 -19,12 -6,2 -12,3 -19,3 -12,0 -21,-2 -27,-8 -6,-6 -9,-13 -9,-21 0,-6 1,-10 3,-14 3,-5 6,-8 10,-11 3,-2 8,-4 12,-5 4,-1 9,-2 16,-3 14,-2 25,-4 32,-6 0,-2 0,-4 0,-5 0,-7 -2,-12 -5,-15 -5,-4 -12,-6 -21,-6 -8,0 -14,2 -18,5 -4,2 -7,8 -9,15l-17 -2c1,-8 4,-14 8,-18 3,-5 9,-8 15,-11 7,-2 15,-4 24,-4 9,0 16,2 22,4 5,2 10,4 12,8 3,3 5,7 6,12 0,3 1,8 1,16l0 23c0,17 0,27 1,32 0,4 2,8 4,12l-18 0c-2,-4 -3,-8 -4,-13zm-1 -39c-7,2 -16,5 -29,6 -8,1 -13,3 -16,4 -3,1 -5,3 -7,6 -1,2 -2,5 -2,8 0,5 2,9 5,12 4,3 9,4 16,4 7,0 13,-1 18,-4 5,-3 9,-7 12,-12 2,-4 3,-10 3,-18l0 -6z"/>
  <path id="2" class="fil3" d="M5048 2220l17 -3c1,7 4,12 8,16 5,4 11,6 19,6 8,0 15,-2 18,-5 4,-3 6,-7 6,-12 0,-4 -1,-7 -5,-9 -2,-2 -8,-4 -18,-6 -13,-3 -22,-6 -27,-9 -5,-2 -9,-5 -11,-10 -3,-4 -4,-8 -4,-14 0,-4 1,-8 3,-12 2,-4 5,-8 9,-10 2,-2 6,-4 11,-5 5,-2 10,-3 15,-3 8,0 15,2 22,4 6,2 10,6 13,10 3,4 5,9 6,16l-17 2c-1,-5 -3,-9 -7,-12 -3,-4 -9,-5 -16,-5 -8,0 -13,1 -17,4 -3,3 -5,6 -5,9 0,3 1,5 2,7 1,1 4,3 7,4 2,1 7,2 15,5 13,3 22,6 27,8 5,2 8,5 11,9 3,4 4,9 4,15 0,6 -1,12 -5,17 -3,5 -8,9 -15,12 -6,3 -13,4 -22,4 -13,0 -24,-2 -31,-8 -7,-6 -11,-14 -13,-25z"/>
  <path id="3" class="fil3" d="M5194 2235l2 16c-5,1 -9,2 -13,2 -6,0 -11,-1 -15,-4 -4,-2 -6,-4 -7,-8 -2,-3 -3,-10 -3,-20l0 -61 -13 0 0 -13 13 0 0 -26 18 -11 0 37 18 0 0 13 -18 0 0 62c0,5 0,8 1,9 1,2 2,3 3,4 1,1 4,1 6,1 2,0 5,0 8,-1z"/>
  <path id="4" class="fil3" d="M4878 2419l0 -17 61 0 0 54c-9,7 -19,13 -29,17 -10,3 -20,5 -30,5 -14,0 -27,-3 -39,-9 -11,-6 -20,-15 -26,-26 -6,-12 -9,-24 -9,-38 0,-14 3,-28 9,-40 6,-12 14,-21 25,-27 11,-6 24,-9 38,-9 11,0 20,2 28,5 9,4 15,9 20,15 5,6 9,13 11,23l-17 5c-2,-7 -5,-13 -8,-17 -3,-5 -8,-8 -14,-10 -6,-3 -12,-4 -20,-4 -8,0 -16,1 -22,4 -7,2 -12,6 -16,10 -4,5 -7,9 -9,14 -3,9 -5,19 -5,29 0,13 2,24 6,33 5,8 11,15 20,19 8,4 17,6 27,6 8,0 16,-1 24,-4 8,-4 14,-7 18,-11l0 -27 -43 0z"/>
  <path id="5" class="fil3" d="M4984 2476l-32 -105 19 0 17 61 6 22c0,-1 2,-8 5,-21l16 -62 19 0 15 61 5 20 6 -20 18 -61 18 0 -33 105 -18 0 -17 -63 -4 -17 -21 80 -19 0z"/>
  <path id="6" class="fil3" d="M5110 2352l0 -20 18 0 0 20 -18 0zm0 124l0 -105 18 0 0 105 -18 0z"/>
  <polygon id="7" class="fil3" points="5155,2476 5155,2332 5173,2332 5173,2476 "/>
  <polygon id="8" class="fil3" points="5199,2476 5199,2332 5217,2332 5217,2476 "/>
  <path id="9" class="fil3" d="M5245 2352l0 -20 17 0 0 20 -17 0zm0 124l0 -105 17 0 0 105 -17 0z"/>
  <path id="10" class="fil3" d="M5289 2476l0 -105 16 0 0 15c3,-5 8,-9 13,-12 6,-3 12,-5 19,-5 7,0 14,2 19,5 5,3 8,8 10,14 9,-13 19,-19 33,-19 10,0 18,3 24,9 5,6 8,14 8,26l0 72 -18 0 0 -66c0,-7 0,-12 -2,-15 -1,-3 -3,-6 -6,-8 -3,-2 -6,-2 -10,-2 -8,0 -14,2 -19,7 -5,5 -7,13 -7,23l0 61 -18 0 0 -68c0,-8 -1,-14 -4,-18 -3,-3 -8,-5 -14,-5 -5,0 -10,1 -14,3 -4,3 -7,7 -9,12 -2,5 -3,12 -3,22l0 54 -18 0z"/>
  <path id="11" class="fil3" d="M5473 2476l-16 0 0 -144 17 0 0 51c8,-9 17,-14 29,-14 6,0 13,2 18,4 6,3 11,6 14,11 4,5 7,10 9,17 2,7 3,14 3,21 0,18 -4,32 -13,41 -9,10 -19,15 -32,15 -12,0 -22,-5 -29,-15l0 13zm0 -53c0,12 2,21 5,27 6,9 13,14 23,14 7,0 14,-4 20,-10 5,-7 8,-17 8,-30 0,-14 -3,-24 -8,-31 -5,-6 -12,-9 -20,-9 -7,0 -14,3 -20,10 -5,7 -8,16 -8,29z"/>
  <path id="12" class="fil3" d="M5637 2476l0 -16c-8,12 -19,18 -33,18 -6,0 -12,-1 -17,-3 -6,-3 -10,-6 -12,-9 -3,-4 -4,-8 -6,-13 0,-4 -1,-9 -1,-17l0 -65 18 0 0 58c0,9 0,16 1,19 1,5 4,8 7,11 4,2 8,4 14,4 5,0 10,-2 14,-4 5,-3 8,-7 10,-11 2,-5 3,-12 3,-21l0 -56 18 0 0 105 -16 0z"/>
  <path id="13" class="fil3" d="M5681 2476l0 -105 15 0 0 16c4,-7 8,-12 12,-14 3,-3 7,-4 11,-4 6,0 12,2 18,6l-6 16c-4,-2 -9,-3 -13,-3 -4,0 -7,1 -10,3 -3,2 -6,6 -7,10 -2,6 -3,13 -3,20l0 55 -17 0z"/>
  <path id="14" class="fil3" d="M5747 2516l-2 -16c4,1 7,1 10,1 4,0 7,0 9,-2 3,-1 5,-3 6,-5 1,-2 3,-6 6,-13 0,-1 1,-3 1,-5l-39 -105 19 0 21 61c3,7 6,15 8,24 2,-8 4,-16 7,-24l23 -61 17 0 -39 107c-5,11 -8,19 -10,23 -3,6 -7,10 -11,13 -4,3 -9,4 -15,4 -3,0 -7,-1 -11,-2z"/>
  <path class="fil3" d="M4872 2924l-17 0 0 -113c-5,4 -10,8 -17,12 -7,4 -13,7 -19,9l0 -17c10,-4 19,-10 26,-17 8,-6 13,-13 16,-19l11 0 0 145z"/>
  <path class="fil3" d="M4860 3375l0 17 -96 0c0,-4 1,-8 3,-12 2,-7 6,-13 11,-19 6,-7 13,-14 23,-22 16,-13 27,-23 32,-31 6,-7 9,-14 9,-21 0,-7 -3,-13 -8,-18 -5,-5 -12,-7 -20,-7 -8,0 -15,3 -20,8 -5,5 -8,12 -8,21l-18 -2c1,-14 6,-24 14,-31 8,-7 19,-11 33,-11 14,0 24,4 33,12 8,8 12,17 12,28 0,6 -2,12 -4,17 -2,6 -6,12 -12,18 -5,6 -14,15 -27,25 -11,9 -17,15 -20,19 -3,3 -6,6 -8,9l71 0z"/>
  <path class="fil3" d="M4683 4025l18 -3c2,10 5,17 10,22 5,4 11,6 18,6 9,0 16,-2 21,-8 6,-6 9,-13 9,-22 0,-8 -3,-14 -8,-20 -5,-5 -12,-8 -20,-8 -4,0 -8,1 -13,2l2 -15c1,0 2,0 3,0 8,0 14,-2 20,-6 6,-4 9,-10 9,-18 0,-6 -2,-12 -6,-16 -5,-4 -10,-6 -17,-6 -7,0 -13,2 -17,6 -5,4 -8,11 -9,20l-18 -3c2,-12 7,-22 15,-28 7,-7 17,-10 28,-10 8,0 15,2 22,5 7,4 12,8 15,14 4,6 6,12 6,18 0,7 -2,12 -5,17 -4,5 -9,10 -15,13 8,1 15,6 20,12 4,6 7,14 7,23 0,13 -5,23 -14,32 -9,9 -21,13 -35,13 -13,0 -23,-4 -31,-11 -9,-8 -14,-17 -15,-29z"/>
  <path class="fil3" d="M7165 1505l0 -144 54 0c11,0 20,1 27,4 7,3 12,8 16,14 3,6 5,12 5,19 0,6 -1,12 -5,17 -3,5 -8,10 -15,13 9,3 16,7 20,13 5,6 7,14 7,22 0,7 -1,13 -4,19 -3,6 -6,10 -11,13 -4,3 -9,6 -15,7 -7,2 -14,3 -24,3l-55 0zm20 -84l31 0c8,0 14,0 18,-1 5,-2 8,-4 11,-8 2,-3 4,-7 4,-12 0,-5 -2,-9 -4,-13 -2,-3 -5,-6 -10,-7 -4,-2 -11,-2 -22,-2l-28 0 0 43zm0 67l35 0c7,0 11,0 13,-1 5,-1 8,-2 11,-4 3,-2 6,-4 8,-8 2,-3 3,-7 3,-12 0,-5 -2,-10 -5,-14 -2,-4 -6,-7 -11,-8 -5,-2 -12,-3 -21,-3l-33 0 0 50z"/>
  <path id="1" class="fil3" d="M7298 1505l0 -105 16 0 0 16c4,-7 8,-12 11,-14 4,-3 7,-4 12,-4 6,0 12,2 18,6l-7 16c-4,-2 -8,-4 -12,-4 -4,0 -8,2 -11,4 -3,2 -5,5 -6,10 -2,6 -3,13 -3,20l0 55 -18 0z"/>
  <path id="2" class="fil3" d="M7359 1453c0,-20 5,-34 16,-43 9,-8 20,-12 33,-12 14,0 26,5 35,14 9,10 13,23 13,39 0,14 -2,24 -6,32 -4,7 -10,13 -17,18 -8,4 -16,6 -25,6 -15,0 -27,-5 -36,-14 -9,-9 -13,-23 -13,-40zm18 0c0,13 3,23 8,30 6,6 14,10 23,10 8,0 16,-4 22,-10 5,-7 8,-17 8,-31 0,-13 -3,-23 -9,-29 -5,-7 -13,-10 -21,-10 -9,0 -17,3 -23,10 -5,6 -8,16 -8,30z"/>
  <path id="3" class="fil3" d="M7545 1467l18 2c-2,12 -7,21 -15,28 -8,7 -17,10 -29,10 -14,0 -25,-5 -34,-14 -9,-9 -13,-23 -13,-40 0,-11 2,-21 5,-30 4,-8 10,-14 18,-18 7,-5 15,-7 24,-7 12,0 21,3 28,9 7,5 12,14 14,24l-17 3c-2,-7 -5,-12 -9,-16 -4,-4 -9,-5 -15,-5 -9,0 -16,3 -22,9 -5,7 -8,17 -8,30 0,15 3,25 8,31 5,6 12,10 21,10 7,0 13,-3 17,-7 5,-4 8,-11 9,-19z"/>
  <polygon id="4" class="fil3" points="7578,1505 7578,1361 7595,1361 7595,1443 7637,1400 7660,1400 7620,1439 7664,1505 7642,1505 7608,1451 7595,1463 7595,1505 "/>
  <path class="fil3" d="M6189 2831l19 0 0 83c0,15 -1,26 -5,35 -3,8 -9,15 -17,20 -9,6 -20,8 -34,8 -13,0 -24,-2 -33,-7 -9,-4 -15,-11 -18,-20 -4,-9 -6,-21 -6,-36l0 -83 19 0 0 83c0,13 2,22 4,28 2,6 6,10 12,13 5,4 12,5 20,5 14,0 24,-3 30,-9 6,-7 9,-19 9,-37l0 -83z"/>
  <path id="1" class="fil3" d="M6226 2975l38 -54 -35 -50 21 0 17 24c3,5 5,9 7,11 3,-4 6,-7 8,-11l17 -24 22 0 -35 50 37 54 -21 0 -22 -32 -5 -8 -28 40 -21 0z"/>
  <path id="2" class="fil3" d="M6355 2975l-17 0 0 -144 18 0 0 51c7,-9 17,-14 29,-14 6,0 12,2 18,4 6,3 10,6 14,11 4,5 7,10 9,17 2,7 3,14 3,21 0,18 -5,32 -13,42 -9,9 -20,14 -32,14 -13,0 -22,-5 -29,-15l0 13zm0 -53c0,12 1,21 5,27 5,9 13,14 22,14 8,0 15,-4 20,-10 6,-7 9,-17 9,-30 0,-14 -3,-24 -8,-30 -6,-7 -12,-10 -20,-10 -8,0 -14,3 -20,10 -6,7 -8,16 -8,29z"/>
  <path id="3" class="fil3" d="M6450 2975l0 -104 16 0 0 16c4,-8 8,-13 11,-15 4,-3 8,-4 12,-4 6,0 12,2 18,6l-6 16c-5,-2 -9,-3 -13,-3 -4,0 -8,1 -11,3 -3,2 -5,6 -6,10 -2,6 -3,13 -3,20l0 55 -18 0z"/>
  <path id="4" class="fil3" d="M6517 2851l0 -20 18 0 0 20 -18 0zm0 124l0 -104 18 0 0 104 -18 0z"/>
  <path id="5" class="fil3" d="M6630 2975l0 -13c-7,10 -17,15 -30,15 -8,0 -16,-2 -23,-7 -7,-4 -12,-11 -16,-19 -4,-8 -6,-18 -6,-28 0,-11 2,-20 6,-28 3,-9 8,-15 15,-20 7,-4 15,-7 24,-7 6,0 11,2 16,4 5,3 9,6 12,11l0 -52 18 0 0 144 -16 0zm-56 -52c0,13 2,23 8,30 6,6 12,10 20,10 8,0 14,-3 20,-10 5,-6 8,-16 8,-29 0,-14 -3,-24 -8,-31 -6,-7 -13,-10 -21,-10 -8,0 -14,3 -20,10 -5,6 -7,16 -7,30z"/>
  <path id="6" class="fil3" d="M6671 2984l17 2c1,5 3,9 6,12 4,3 10,4 18,4 8,0 14,-1 19,-4 4,-4 7,-8 9,-14 1,-4 1,-11 1,-23 -8,9 -17,14 -29,14 -14,0 -25,-5 -33,-16 -8,-10 -12,-22 -12,-37 0,-10 2,-19 6,-27 3,-9 8,-15 15,-20 7,-4 15,-7 24,-7 13,0 23,5 31,15l0 -12 16 0 0 90c0,16 -2,27 -5,34 -3,7 -8,12 -16,16 -7,4 -16,6 -26,6 -12,0 -23,-3 -30,-8 -8,-6 -12,-14 -11,-25zm14 -63c0,14 3,24 8,30 6,6 13,9 21,9 8,0 15,-3 20,-9 6,-6 9,-16 9,-29 0,-13 -3,-23 -9,-29 -6,-7 -12,-10 -20,-10 -8,0 -15,3 -21,10 -5,6 -8,15 -8,28z"/>
  <path id="7" class="fil3" d="M6857 2941l18 3c-2,10 -8,18 -16,24 -7,6 -17,9 -29,9 -16,0 -28,-5 -37,-14 -8,-9 -13,-22 -13,-39 0,-18 5,-32 14,-41 9,-10 20,-15 35,-15 14,0 25,5 34,15 9,9 13,22 13,40 0,1 0,2 0,4l-78 0c1,12 4,20 10,27 6,6 13,9 22,9 6,0 12,-2 16,-5 5,-4 8,-9 11,-17zm-58 -28l58 0c0,-9 -3,-16 -6,-20 -6,-7 -13,-10 -22,-10 -8,0 -15,3 -21,8 -5,5 -8,13 -9,22z"/>
  <path class="fil3" d="M7614 3612l18 -2c1,7 3,13 6,18 3,4 8,8 14,11 7,3 14,4 22,4 8,0 14,-1 20,-3 5,-2 9,-5 12,-9 3,-4 4,-8 4,-12 0,-5 -1,-9 -4,-12 -2,-3 -7,-6 -13,-8 -4,-2 -12,-4 -25,-7 -14,-4 -23,-7 -28,-9 -7,-4 -12,-9 -16,-14 -3,-5 -5,-11 -5,-18 0,-7 2,-14 7,-20 4,-7 10,-11 18,-15 8,-3 16,-5 26,-5 11,0 20,2 28,6 8,3 15,8 19,15 5,6 7,14 7,22l-18 2c-1,-9 -4,-16 -10,-21 -6,-4 -14,-7 -25,-7 -12,0 -20,2 -25,7 -6,4 -8,9 -8,15 0,5 2,9 5,13 4,3 14,6 29,10 15,3 26,7 32,9 8,4 14,9 18,15 4,6 6,13 6,20 0,8 -2,15 -6,22 -5,7 -11,12 -19,16 -8,3 -17,5 -28,5 -13,0 -24,-2 -32,-5 -9,-4 -16,-10 -21,-18 -5,-7 -8,-16 -8,-25z"/>
  <path id="1" class="fil3" d="M7820 3620l18 2c-2,12 -7,21 -15,28 -8,7 -17,10 -29,10 -14,0 -25,-5 -34,-14 -9,-9 -13,-23 -13,-40 0,-11 2,-21 6,-29 3,-9 9,-15 17,-19 7,-5 15,-7 24,-7 12,0 21,3 28,9 7,6 12,14 14,24l-17 3c-2,-7 -5,-12 -9,-16 -4,-4 -9,-5 -15,-5 -9,0 -16,3 -22,9 -5,7 -8,17 -8,31 0,14 3,24 8,30 5,6 12,10 21,10 7,0 13,-3 18,-7 4,-4 7,-11 8,-19z"/>
  <path id="2" class="fil3" d="M7921 3658l0 -16c-8,12 -19,18 -33,18 -6,0 -12,-1 -17,-3 -6,-3 -10,-6 -12,-9 -3,-4 -5,-8 -6,-13 0,-4 -1,-9 -1,-17l0 -65 18 0 0 58c0,9 0,16 1,19 1,5 4,8 7,11 4,2 8,4 14,4 5,0 10,-2 14,-4 5,-3 8,-7 10,-11 2,-5 3,-12 3,-21l0 -56 18 0 0 105 -16 0z"/>
  <path id="3" class="fil3" d="M7961 3667l18 2c0,5 2,9 6,12 4,3 10,4 18,4 8,0 14,-1 18,-4 5,-4 8,-8 10,-14 0,-4 1,-11 1,-23 -8,9 -18,14 -29,14 -14,0 -26,-5 -33,-16 -8,-10 -12,-22 -12,-37 0,-10 2,-19 5,-27 4,-9 9,-15 16,-20 7,-4 15,-7 24,-7 12,0 22,5 30,15l0 -13 17 0 0 91c0,16 -2,27 -5,34 -4,7 -9,12 -16,16 -7,4 -16,6 -26,6 -13,0 -23,-3 -30,-8 -8,-6 -12,-14 -12,-25zm15 -63c0,14 3,23 8,30 6,6 12,9 20,9 9,0 15,-3 21,-9 5,-6 8,-16 8,-30 0,-12 -3,-22 -8,-28 -6,-7 -13,-10 -21,-10 -8,0 -14,3 -20,9 -5,7 -8,16 -8,29z"/>
  <path id="4" class="fil3" d="M8070 3606c0,-20 5,-34 16,-43 9,-8 20,-12 33,-12 14,0 26,5 35,14 9,10 14,23 14,39 0,14 -2,24 -6,32 -4,7 -10,13 -18,18 -8,4 -16,6 -25,6 -15,0 -27,-5 -36,-14 -9,-9 -13,-23 -13,-40zm18 0c0,13 3,23 9,30 6,6 13,10 22,10 9,0 16,-4 22,-10 6,-7 9,-17 9,-31 0,-13 -3,-23 -9,-29 -6,-7 -13,-10 -22,-10 -9,0 -16,3 -22,10 -6,6 -9,16 -9,30z"/>
  <path id="5" class="fil3" d="M8185 3667l17 2c1,5 3,9 6,12 5,3 11,4 18,4 8,0 15,-1 19,-4 5,-4 8,-8 9,-14 1,-4 2,-11 2,-23 -8,9 -18,14 -29,14 -15,0 -26,-5 -34,-16 -7,-10 -11,-22 -11,-37 0,-10 1,-19 5,-27 4,-9 9,-15 16,-20 6,-4 15,-7 24,-7 12,0 22,5 30,15l0 -13 17 0 0 91c0,16 -2,27 -5,34 -4,7 -9,12 -16,16 -7,4 -16,6 -27,6 -12,0 -22,-3 -30,-8 -7,-6 -11,-14 -11,-25zm15 -63c0,14 2,23 8,30 5,6 12,9 20,9 8,0 15,-3 21,-9 5,-6 8,-16 8,-30 0,-12 -3,-22 -8,-28 -6,-7 -13,-10 -21,-10 -8,0 -15,3 -20,9 -6,7 -8,16 -8,29z"/>
  <path class="fil3" d="M8696 4893l19 5c-4,16 -11,28 -21,36 -11,8 -23,12 -38,12 -16,0 -28,-3 -38,-9 -10,-6 -17,-16 -22,-28 -5,-12 -8,-24 -8,-38 0,-15 3,-28 9,-39 5,-12 13,-20 24,-26 11,-6 22,-9 35,-9 14,0 26,4 36,11 10,8 17,18 21,31l-19 5c-3,-11 -8,-18 -14,-23 -7,-5 -15,-7 -24,-7 -11,0 -21,2 -28,8 -8,5 -13,12 -16,21 -3,9 -4,18 -4,28 0,12 2,23 5,32 4,9 9,16 17,20 7,5 15,7 24,7 11,0 20,-3 27,-9 7,-6 12,-15 15,-28z"/>
  <polygon id="1" class="fil3" points="8736,4944 8736,4800 8754,4800 8754,4944 "/>
  <path id="2" class="fil3" d="M8849 4931c-6,5 -12,9 -19,12 -6,2 -12,3 -19,3 -12,0 -20,-3 -27,-8 -6,-6 -9,-13 -9,-22 0,-5 1,-9 4,-14 2,-4 5,-7 9,-10 4,-2 8,-4 13,-6 3,0 8,-1 15,-2 15,-2 25,-4 32,-6 0,-3 0,-4 0,-5 0,-7 -2,-12 -5,-15 -5,-4 -11,-6 -20,-6 -9,0 -15,1 -19,4 -4,3 -7,8 -8,16l-18 -2c2,-8 4,-14 8,-18 4,-5 9,-8 16,-11 6,-2 14,-4 23,-4 9,0 17,1 22,3 6,3 10,5 13,8 2,4 4,8 5,12 1,3 1,9 1,17l0 23c0,17 0,27 1,31 1,5 2,9 4,13l-18 0c-2,-4 -3,-8 -4,-13zm-1 -39c-6,2 -16,4 -29,6 -7,1 -12,3 -15,4 -3,1 -6,3 -7,6 -2,2 -3,5 -3,8 0,5 2,8 5,12 4,3 9,4 16,4 7,0 13,-1 18,-4 6,-3 10,-7 12,-12 2,-4 3,-10 3,-18l0 -6z"/>
  <path id="3" class="fil3" d="M8893 4944l0 -104 16 0 0 16c4,-8 8,-13 11,-15 4,-2 7,-4 11,-4 6,0 12,2 19,6l-7 16c-4,-2 -8,-3 -13,-3 -3,0 -7,1 -10,3 -3,2 -5,6 -6,10 -2,6 -3,13 -3,20l0 55 -18 0z"/>
  <path id="4" class="fil3" d="M8960 4820l0 -20 18 0 0 20 -18 0zm0 124l0 -104 18 0 0 104 -18 0z"/>
  <path id="5" class="fil3" d="M9005 4944l0 -104 16 0 0 14c7,-11 18,-17 33,-17 6,0 12,1 17,4 5,2 9,5 12,9 3,3 5,8 6,13 0,3 1,9 1,17l0 64 -18 0 0 -63c0,-8 -1,-13 -2,-17 -2,-3 -4,-6 -8,-8 -3,-2 -7,-3 -12,-3 -7,0 -14,2 -19,7 -6,5 -8,14 -8,27l0 57 -18 0z"/>
  <path id="6" class="fil3" d="M9113 4953l18 2c0,5 2,9 6,12 4,3 10,5 18,5 8,0 14,-2 19,-5 4,-4 7,-8 9,-14 1,-4 1,-11 1,-23 -8,9 -17,14 -29,14 -14,0 -25,-5 -33,-16 -8,-10 -12,-22 -12,-37 0,-10 2,-19 5,-27 4,-9 9,-15 16,-20 7,-4 15,-7 24,-7 12,0 23,5 31,15l0 -12 16 0 0 90c0,16 -2,27 -5,34 -3,7 -9,12 -16,16 -7,4 -16,6 -26,6 -13,0 -23,-3 -30,-8 -8,-6 -12,-14 -12,-25zm15 -63c0,14 3,24 8,30 6,6 12,9 21,9 8,0 15,-3 20,-9 6,-6 8,-16 8,-29 0,-13 -3,-23 -8,-29 -6,-7 -13,-10 -21,-10 -8,0 -14,3 -20,10 -5,6 -8,15 -8,28z"/>
  <path id="7" class="fil3" d="M9267 4928l2 16c-4,1 -9,1 -13,1 -6,0 -11,-1 -15,-3 -3,-2 -6,-4 -7,-8 -2,-3 -2,-10 -2,-21l0 -60 -13 0 0 -13 13 0 0 -26 17 -11 0 37 18 0 0 13 -18 0 0 61c0,5 1,9 1,10 1,2 2,3 3,4 2,0 4,1 6,1 2,0 5,0 8,-1z"/>
  <path id="8" class="fil3" d="M9278 4892c0,-20 5,-34 16,-43 9,-8 20,-12 33,-12 14,0 26,5 35,14 9,10 14,23 14,39 0,14 -2,24 -6,32 -4,8 -10,14 -18,18 -8,4 -16,6 -25,6 -15,0 -27,-4 -36,-14 -9,-9 -13,-23 -13,-40zm18 0c0,13 3,23 9,30 6,6 13,10 22,10 9,0 16,-4 22,-10 6,-7 9,-17 9,-31 0,-13 -3,-22 -9,-29 -6,-7 -13,-10 -22,-10 -9,0 -16,3 -22,10 -6,7 -9,16 -9,30z"/>
  <path id="9" class="fil3" d="M9396 4944l0 -104 16 0 0 14c8,-11 19,-17 33,-17 7,0 13,1 18,4 5,2 9,5 12,9 2,3 4,8 5,13 1,3 1,9 1,17l0 64 -18 0 0 -63c0,-8 0,-13 -2,-17 -1,-3 -3,-6 -7,-8 -3,-2 -8,-3 -12,-3 -8,0 -14,2 -20,7 -5,5 -8,14 -8,27l0 57 -18 0z"/>
  <path class="fil3" d="M6101 4206l0 -144 54 0c10,0 17,0 22,1 7,1 13,4 18,7 5,3 9,8 12,14 3,6 4,12 4,19 0,13 -4,23 -12,31 -7,9 -22,13 -42,13l-37 0 0 59 -19 0zm19 -76l37 0c13,0 21,-2 27,-7 5,-4 7,-11 7,-19 0,-6 -1,-11 -4,-16 -3,-4 -7,-7 -12,-8 -3,-1 -9,-1 -18,-1l-37 0 0 51z"/>
  <path id="1" class="fil3" d="M6233 4082l0 -20 18 0 0 20 -18 0zm0 124l0 -105 18 0 0 105 -18 0z"/>
  <path id="2" class="fil3" d="M6346 4168l17 2c-2,12 -6,21 -14,28 -8,7 -18,10 -29,10 -14,0 -26,-5 -34,-14 -9,-9 -14,-23 -14,-40 0,-11 2,-21 6,-30 4,-8 9,-14 17,-18 8,-5 16,-7 25,-7 11,0 21,3 28,9 7,6 12,14 14,24l-17 3c-2,-7 -5,-12 -9,-16 -4,-4 -9,-5 -15,-5 -9,0 -16,3 -22,9 -6,7 -8,17 -8,31 0,14 2,24 8,30 5,6 12,10 21,10 7,0 12,-3 17,-7 5,-4 8,-11 9,-19z"/>
  <polygon id="3" class="fil3" points="6378,4206 6378,4062 6396,4062 6396,4144 6438,4101 6461,4101 6421,4140 6465,4206 6443,4206 6408,4152 6396,4164 6396,4206 "/>
  <path id="4" class="fil3" d="M6550 4172l18 2c-2,11 -8,19 -15,25 -8,6 -18,9 -30,9 -16,0 -28,-5 -37,-14 -8,-9 -13,-23 -13,-40 0,-17 5,-31 14,-40 9,-10 20,-15 35,-15 14,0 25,5 34,14 9,10 13,23 13,40 0,1 0,3 0,5l-78 0c1,12 4,20 10,26 6,7 13,10 22,10 6,0 12,-2 16,-6 5,-3 8,-8 11,-16zm-58 -28l58 0c0,-9 -3,-16 -6,-20 -6,-7 -13,-10 -22,-10 -8,0 -15,2 -21,8 -5,5 -8,13 -9,22z"/>
  <path id="5" class="fil3" d="M6591 4206l0 -105 16 0 0 16c4,-7 7,-12 11,-14 3,-3 7,-4 11,-4 6,0 12,2 18,6l-6 16c-4,-2 -9,-3 -13,-3 -4,0 -7,1 -10,3 -3,2 -5,6 -7,10 -2,6 -3,13 -3,20l0 55 -17 0z"/>
  <path id="6" class="fil3" d="M6658 4082l0 -20 18 0 0 20 -18 0zm0 124l0 -105 18 0 0 105 -18 0z"/>
  <path id="7" class="fil3" d="M6703 4206l0 -105 15 0 0 15c8,-11 19,-17 34,-17 6,0 12,1 17,4 5,2 9,5 12,8 2,4 4,8 5,14 1,3 1,9 1,17l0 64 -17 0 0 -64c0,-7 -1,-12 -3,-16 -1,-3 -3,-6 -7,-8 -3,-2 -7,-4 -12,-4 -8,0 -14,3 -20,8 -5,4 -8,14 -8,27l0 57 -17 0z"/>
  <path id="8" class="fil3" d="M6811 4214l17 3c1,5 3,9 6,11 5,4 11,5 18,5 8,0 15,-1 19,-5 5,-3 8,-7 9,-13 1,-4 2,-11 2,-23 -8,9 -18,14 -29,14 -15,0 -26,-5 -34,-16 -8,-10 -11,-22 -11,-37 0,-10 1,-19 5,-27 4,-9 9,-15 16,-20 6,-5 15,-7 24,-7 12,0 22,5 30,15l0 -13 17 0 0 91c0,16 -2,27 -5,34 -4,7 -9,12 -16,16 -7,4 -16,6 -27,6 -12,0 -22,-3 -30,-8 -7,-6 -11,-14 -11,-26zm15 -62c0,13 2,23 8,30 5,6 12,9 20,9 8,0 15,-3 21,-9 5,-6 8,-16 8,-30 0,-12 -3,-22 -9,-28 -5,-7 -12,-10 -20,-10 -8,0 -15,3 -20,9 -6,7 -8,16 -8,29z"/>
  <path class="fil3" d="M4977 4580l0 -144 29 0 34 102c3,10 5,17 7,22 1,-5 4,-13 7,-23l35 -101 25 0 0 144 -18 0 0 -120 -42 120 -17 0 -42 -122 0 122 -18 0z"/>
  <path id="1" class="fil3" d="M5211 4567c-7,6 -13,10 -19,12 -6,3 -13,4 -20,4 -11,0 -20,-3 -26,-9 -6,-5 -9,-12 -9,-21 0,-5 1,-10 3,-14 3,-4 6,-8 9,-10 4,-3 8,-5 13,-6 4,-1 9,-2 16,-3 14,-1 25,-3 31,-6 1,-2 1,-4 1,-4 0,-7 -2,-13 -5,-15 -5,-4 -12,-6 -21,-6 -8,0 -14,1 -18,4 -4,3 -7,8 -9,15l-17 -2c1,-7 4,-13 8,-18 3,-4 8,-8 15,-10 7,-3 15,-4 24,-4 9,0 16,1 22,3 5,2 9,5 12,8 3,3 5,7 6,12 0,3 0,8 0,16l0 24c0,16 1,26 2,31 0,4 2,8 4,12l-19 0c-1,-3 -3,-8 -3,-13zm-1 -39c-7,3 -17,5 -29,7 -8,1 -13,2 -16,3 -3,2 -5,4 -7,6 -2,3 -2,5 -2,8 0,5 1,9 5,12 4,3 9,5 16,5 7,0 13,-2 18,-5 5,-3 9,-7 12,-12 2,-4 2,-10 2,-17l1 -7z"/>
  <path id="2" class="fil3" d="M5254 4580l0 -104 16 0 0 16c4,-7 8,-12 12,-15 3,-2 7,-3 11,-3 6,0 12,2 18,5l-6 17c-4,-3 -9,-4 -13,-4 -4,0 -7,1 -10,4 -3,2 -6,5 -7,9 -2,7 -3,13 -3,21l0 54 -18 0z"/>
  <polygon id="3" class="fil3" points="5322,4580 5322,4436 5339,4436 5339,4518 5381,4476 5404,4476 5364,4515 5408,4580 5386,4580 5352,4527 5339,4539 5339,4580 "/>
  <path id="4" class="fil3" d="M5422 4580l0 -144 18 0 0 52c8,-9 19,-14 31,-14 8,0 14,1 20,4 6,3 10,8 12,13 3,5 4,13 4,23l0 66 -18 0 0 -66c0,-8 -2,-15 -5,-19 -4,-4 -10,-6 -17,-6 -5,0 -10,1 -14,4 -5,3 -8,7 -10,11 -2,5 -3,11 -3,19l0 57 -18 0z"/>
  <path id="5" class="fil3" d="M5602 4567c-6,6 -13,10 -19,12 -6,3 -12,4 -19,4 -12,0 -20,-3 -27,-9 -6,-5 -9,-12 -9,-21 0,-5 1,-10 4,-14 2,-4 5,-8 9,-10 4,-3 8,-5 13,-6 3,-1 8,-2 15,-3 15,-1 25,-3 32,-6 0,-2 0,-4 0,-4 0,-7 -2,-13 -5,-15 -5,-4 -11,-6 -20,-6 -9,0 -15,1 -19,4 -4,3 -7,8 -9,15l-17 -2c2,-7 4,-13 8,-18 4,-4 9,-8 16,-10 6,-3 14,-4 23,-4 9,0 17,1 22,3 6,2 10,5 12,8 3,3 5,7 6,12 1,3 1,8 1,16l0 24c0,16 0,26 1,31 1,4 2,8 4,12l-18 0c-2,-3 -3,-8 -4,-13zm-1 -39c-6,3 -16,5 -29,7 -7,1 -12,2 -15,3 -4,2 -6,4 -7,6 -2,3 -3,5 -3,8 0,5 2,9 5,12 4,3 9,5 16,5 7,0 13,-2 18,-5 6,-3 10,-7 12,-12 2,-4 3,-10 3,-17l0 -7z"/>
  <path id="6" class="fil3" d="M5646 4580l0 -104 16 0 0 15c3,-5 8,-9 13,-12 5,-4 12,-5 19,-5 7,0 14,1 19,5 4,3 8,7 10,13 8,-12 19,-18 32,-18 11,0 19,3 24,8 6,6 9,15 9,27l0 71 -18 0 0 -65c0,-7 -1,-12 -2,-15 -1,-4 -3,-6 -6,-8 -3,-2 -7,-3 -11,-3 -7,0 -13,3 -18,7 -5,5 -7,13 -7,24l0 60 -18 0 0 -67c0,-8 -1,-14 -4,-18 -3,-4 -8,-6 -14,-6 -5,0 -10,1 -14,4 -4,3 -7,7 -9,12 -2,5 -3,12 -3,21l0 54 -18 0z"/>
  <path class="fil3" d="M6619 4960l55 -144 21 0 59 144 -22 0 -17 -43 -60 0 -16 43 -20 0zm41 -59l49 0 -15 -40c-4,-12 -8,-22 -10,-30 -2,10 -5,19 -8,28l-16 42z"/>
  <path id="1" class="fil3" d="M6767 4837l0 -21 17 0 0 21 -17 0zm-23 164l3 -15c4,1 7,1 9,1 3,0 6,-1 8,-4 2,-2 3,-8 3,-17l0 -110 17 0 0 110c0,13 -1,22 -5,27 -4,6 -11,10 -21,10 -5,0 -9,-1 -14,-2z"/>
  <path id="2" class="fil3" d="M6880 4947c-7,6 -13,10 -19,12 -7,2 -13,4 -20,4 -11,0 -20,-3 -26,-9 -7,-5 -10,-13 -10,-21 0,-5 1,-10 4,-14 2,-4 5,-8 9,-10 4,-3 8,-5 13,-6 3,-1 8,-2 15,-3 15,-1 25,-4 32,-6 0,-2 0,-4 0,-4 0,-8 -2,-13 -5,-16 -4,-4 -11,-6 -20,-6 -8,0 -15,2 -19,5 -4,3 -6,8 -8,15l-18 -2c2,-8 4,-14 8,-18 4,-5 9,-8 16,-11 7,-2 15,-3 24,-3 8,0 16,1 21,3 6,2 10,5 13,8 2,3 4,7 5,12 1,3 1,8 1,16l0 24c0,16 0,26 1,31 1,4 2,8 4,12l-18 0c-2,-3 -3,-8 -3,-13zm-2 -39c-6,3 -16,5 -29,7 -7,1 -12,2 -15,3 -3,1 -6,3 -7,6 -2,2 -3,5 -3,8 0,5 2,9 6,12 3,3 8,5 15,5 7,0 13,-2 18,-5 6,-3 10,-7 12,-12 2,-4 3,-10 3,-18l0 -6z"/>
  <path id="3" class="fil3" d="M6911 4960l38 -54 -35 -50 22 0 16 25c3,4 6,8 7,11 3,-4 6,-8 8,-11l18 -25 21 0 -35 50 38 54 -22 0 -21 -32 -5 -8 -28 40 -22 0z"/>
  <path class="fil3" d="M3466 4142l-56 -144 21 0 37 105c3,8 5,16 7,24 3,-8 5,-16 8,-24l39 -105 19 0 -56 144 -19 0z"/>
  <path id="1" class="fil3" d="M3610 4129c-7,6 -13,10 -19,12 -6,3 -13,4 -20,4 -11,0 -20,-3 -26,-9 -6,-5 -10,-12 -10,-21 0,-5 2,-10 4,-14 2,-4 5,-8 9,-10 4,-3 8,-5 13,-6 3,-1 9,-2 16,-3 14,-1 24,-3 31,-6 0,-2 0,-4 0,-4 0,-8 -1,-13 -5,-16 -4,-4 -11,-6 -20,-6 -8,0 -14,2 -18,5 -4,3 -7,8 -9,15l-17 -2c1,-7 4,-13 7,-18 4,-5 9,-8 16,-11 7,-2 15,-3 24,-3 9,0 16,1 22,3 5,2 9,5 12,8 2,3 4,7 5,12 1,3 1,8 1,16l0 24c0,16 1,26 1,31 1,4 3,8 5,12l-19 0c-2,-3 -3,-8 -3,-13zm-2 -39c-6,3 -16,5 -29,7 -7,1 -12,2 -15,3 -3,2 -5,4 -7,6 -2,2 -3,5 -3,8 0,5 2,9 6,12 3,3 9,5 15,5 7,0 13,-2 19,-5 5,-3 9,-7 11,-12 2,-4 3,-10 3,-17l0 -7z"/>
  <path id="2" class="fil3" d="M3722 4142l0 -15c-8,12 -19,18 -33,18 -7,0 -12,-2 -18,-4 -5,-2 -9,-5 -11,-9 -3,-3 -5,-8 -6,-13 -1,-3 -1,-9 -1,-16l0 -65 18 0 0 58c0,9 0,15 1,18 1,5 3,9 7,11 3,3 8,4 13,4 5,0 10,-1 15,-4 5,-2 8,-6 10,-11 2,-4 3,-11 3,-20l0 -56 18 0 0 104 -16 0z"/>
  <path id="3" class="fil3" d="M3762 4151l17 3c1,5 3,9 6,11 5,3 11,5 18,5 8,0 15,-2 19,-5 5,-3 8,-8 9,-14 1,-3 2,-11 2,-22 -8,9 -18,13 -29,13 -15,0 -26,-5 -34,-15 -8,-10 -12,-23 -12,-37 0,-10 2,-19 6,-28 3,-8 9,-15 16,-19 6,-5 14,-7 24,-7 12,0 22,5 30,15l0 -13 16 0 0 90c0,16 -1,28 -5,35 -3,6 -8,12 -15,16 -7,4 -16,6 -27,6 -12,0 -22,-3 -30,-9 -7,-5 -11,-14 -11,-25zm15 -63c0,14 2,24 8,30 5,7 12,10 20,10 8,0 15,-3 21,-10 5,-6 8,-16 8,-29 0,-13 -3,-22 -9,-29 -5,-6 -12,-10 -20,-10 -8,0 -15,4 -20,10 -6,6 -8,16 -8,28z"/>
  <path id="4" class="fil3" d="M3877 4142l0 -144 18 0 0 52c8,-9 19,-14 31,-14 8,0 14,1 20,4 6,3 10,8 12,13 3,5 4,13 4,23l0 66 -18 0 0 -66c0,-8 -2,-15 -5,-19 -4,-4 -10,-6 -17,-6 -5,0 -10,1 -14,4 -5,3 -8,7 -10,11 -2,5 -3,11 -3,19l0 57 -18 0z"/>
  <path id="5" class="fil3" d="M4057 4129c-6,6 -13,10 -19,12 -6,3 -12,4 -19,4 -12,0 -20,-3 -27,-9 -6,-5 -9,-12 -9,-21 0,-5 1,-10 4,-14 2,-4 5,-8 9,-10 4,-3 8,-5 12,-6 4,-1 9,-2 16,-3 15,-1 25,-3 32,-6 0,-2 0,-4 0,-4 0,-8 -2,-13 -5,-16 -5,-4 -11,-6 -20,-6 -9,0 -15,2 -19,5 -4,3 -7,8 -9,15l-17 -2c2,-7 4,-13 8,-18 4,-5 9,-8 16,-11 6,-2 14,-3 23,-3 9,0 17,1 22,3 6,2 10,5 12,8 3,3 5,7 6,12 1,3 1,8 1,16l0 24c0,16 0,26 1,31 1,4 2,8 4,12l-18 0c-2,-3 -3,-8 -4,-13zm-1 -39c-7,3 -16,5 -29,7 -7,1 -13,2 -16,3 -3,2 -5,4 -7,6 -1,2 -2,5 -2,8 0,5 2,9 5,12 4,3 9,5 16,5 7,0 13,-2 18,-5 6,-3 10,-7 12,-12 2,-4 3,-10 3,-17l0 -7z"/>
  <path id="6" class="fil3" d="M4101 4142l0 -104 16 0 0 15c8,-12 19,-17 33,-17 6,0 12,1 17,3 6,2 10,5 12,9 3,4 5,8 6,13 0,3 1,9 1,17l0 64 -18 0 0 -63c0,-7 -1,-13 -2,-16 -1,-4 -4,-7 -7,-9 -4,-2 -8,-3 -13,-3 -7,0 -14,2 -19,7 -6,5 -8,14 -8,27l0 57 -18 0z"/>
  <polygon class="fil3" points="3364,3486 3364,3342 3383,3342 3383,3413 3455,3342 3481,3342 3420,3400 3483,3486 3458,3486 3407,3413 3383,3436 3383,3486 "/>
  <path id="1" class="fil3" d="M3497 3362l0 -20 18 0 0 20 -18 0zm0 124l0 -104 18 0 0 104 -18 0z"/>
  <path id="2" class="fil3" d="M3542 3486l0 -104 16 0 0 14c7,-11 18,-17 33,-17 6,0 12,2 17,4 6,2 9,5 12,9 3,3 5,8 6,13 0,3 1,9 1,17l0 64 -18 0 0 -63c0,-8 -1,-13 -2,-17 -2,-3 -4,-6 -7,-8 -4,-2 -8,-3 -13,-3 -7,0 -14,2 -19,7 -6,5 -8,14 -8,27l0 57 -18 0z"/>
  <path id="3" class="fil3" d="M3651 3495l17 2c0,5 2,9 6,12 4,3 10,5 18,5 8,0 14,-2 19,-5 4,-3 7,-8 9,-14 1,-4 1,-11 1,-23 -8,10 -17,14 -29,14 -14,0 -25,-5 -33,-15 -8,-11 -12,-23 -12,-38 0,-10 2,-19 5,-27 4,-9 9,-15 16,-20 7,-4 15,-7 24,-7 12,0 23,5 31,16l0 -13 16 0 0 90c0,16 -2,28 -5,34 -3,7 -9,13 -16,16 -7,4 -16,6 -26,6 -13,0 -23,-2 -30,-8 -8,-6 -12,-14 -11,-25zm14 -63c0,14 3,24 8,30 6,6 12,9 21,9 8,0 15,-3 20,-9 6,-6 8,-16 8,-29 0,-13 -3,-23 -8,-29 -6,-7 -13,-10 -21,-10 -8,0 -14,3 -20,10 -5,6 -8,16 -8,28z"/>
  <path class="fil3" d="M1957 3730l19 5c-4,15 -11,27 -22,36 -10,8 -23,12 -38,12 -15,0 -28,-3 -38,-10 -9,-6 -17,-15 -22,-27 -5,-12 -7,-25 -7,-39 0,-15 3,-28 8,-39 6,-11 14,-19 25,-25 10,-6 22,-9 35,-9 14,0 26,4 36,11 10,7 17,18 20,31l-18 4c-4,-10 -8,-18 -15,-22 -6,-5 -14,-8 -24,-8 -11,0 -20,3 -27,8 -8,6 -13,13 -16,22 -3,9 -5,18 -5,27 0,13 2,23 6,32 3,10 9,16 16,21 8,4 16,7 25,7 10,0 19,-3 27,-10 7,-6 12,-15 15,-27z"/>
  <path id="1" class="fil3" d="M2065 3767c-6,6 -12,10 -19,12 -6,3 -12,4 -19,4 -12,0 -20,-3 -27,-9 -6,-5 -9,-12 -9,-21 0,-5 1,-10 4,-14 2,-4 5,-8 9,-10 4,-3 8,-5 13,-6 3,-1 8,-2 15,-3 15,-1 25,-3 32,-6 0,-2 0,-4 0,-4 0,-7 -2,-13 -5,-15 -5,-4 -11,-6 -20,-6 -9,0 -15,1 -19,4 -4,3 -7,8 -8,15l-18 -2c2,-7 4,-13 8,-18 4,-4 9,-8 16,-10 6,-3 14,-4 23,-4 9,0 17,1 22,3 6,2 10,5 13,8 2,3 4,7 5,12 1,3 1,8 1,16l0 24c0,16 0,27 1,31 1,4 2,8 4,13l-18 0c-2,-4 -3,-9 -4,-14zm-1 -39c-6,3 -16,5 -29,7 -7,1 -12,2 -15,3 -3,2 -6,4 -7,6 -2,3 -3,5 -3,8 0,5 2,9 5,12 4,3 9,5 16,5 7,0 13,-2 18,-5 6,-3 10,-7 12,-12 2,-4 3,-10 3,-17l0 -7z"/>
  <polygon id="2" class="fil3" points="2109,3781 2109,3636 2126,3636 2126,3781 "/>
  <path id="3" class="fil3" d="M2225 3747l18 2c-2,11 -8,19 -16,25 -7,6 -17,9 -29,9 -16,0 -28,-5 -37,-14 -9,-10 -13,-23 -13,-40 0,-17 4,-31 14,-41 9,-9 20,-14 35,-14 14,0 25,5 34,14 9,10 13,23 13,40 0,1 0,3 0,5l-78 0c1,11 4,20 10,26 6,6 13,9 22,9 6,0 12,-1 16,-5 5,-3 8,-9 11,-16zm-58 -29l58 0c-1,-8 -3,-15 -6,-19 -6,-7 -13,-11 -22,-11 -8,0 -15,3 -21,9 -5,5 -8,12 -9,21z"/>
  <path id="4" class="fil3" d="M2333 3781l0 -14c-6,11 -16,16 -29,16 -8,0 -16,-3 -23,-7 -7,-5 -12,-11 -16,-19 -4,-9 -6,-18 -6,-29 0,-10 2,-19 5,-28 4,-8 9,-15 16,-19 7,-5 15,-7 23,-7 6,0 12,1 17,4 5,3 9,6 12,10l0 -52 18 0 0 145 -17 0zm-56 -53c0,14 3,24 9,30 5,7 12,10 20,10 7,0 14,-3 19,-9 6,-7 9,-16 9,-29 0,-14 -3,-25 -9,-31 -5,-7 -12,-10 -20,-10 -8,0 -15,3 -20,9 -5,7 -8,17 -8,30z"/>
  <path id="5" class="fil3" d="M2371 3728c0,-19 5,-33 16,-43 9,-7 20,-11 33,-11 14,0 26,5 35,14 9,9 14,22 14,39 0,13 -2,24 -6,31 -4,8 -10,14 -18,18 -8,5 -16,7 -25,7 -15,0 -26,-5 -35,-14 -10,-10 -14,-23 -14,-41zm18 0c0,14 3,24 9,30 6,7 13,10 22,10 9,0 16,-3 22,-10 6,-6 9,-17 9,-30 0,-13 -3,-23 -9,-29 -6,-7 -13,-10 -22,-10 -9,0 -16,3 -22,9 -6,7 -9,17 -9,30z"/>
  <path id="6" class="fil3" d="M2490 3781l0 -105 15 0 0 15c8,-11 19,-17 34,-17 6,0 12,1 17,3 5,3 9,5 12,9 2,4 4,8 5,13 1,3 1,9 1,17l0 65 -17 0 0 -64c0,-7 -1,-13 -3,-16 -1,-4 -3,-6 -7,-9 -3,-2 -7,-3 -12,-3 -8,0 -14,3 -20,7 -5,5 -8,14 -8,28l0 57 -17 0z"/>
  <path class="fil3" d="M2091 4975l0 -144 54 0c11,0 19,1 26,4 7,3 12,7 16,13 3,6 5,13 5,19 0,7 -1,12 -5,18 -3,5 -8,10 -15,13 9,3 16,7 20,13 5,6 7,13 7,22 0,7 -1,13 -4,19 -3,5 -6,10 -10,13 -5,3 -10,6 -16,7 -7,2 -14,3 -24,3l-54 0zm19 -84l31 0c8,0 14,0 18,-2 5,-1 8,-3 11,-7 2,-3 4,-7 4,-12 0,-5 -2,-9 -4,-13 -2,-4 -5,-6 -10,-8 -4,-1 -11,-2 -22,-2l-28 0 0 44zm0 67l36 0c6,0 10,-1 13,-1 4,-1 8,-2 11,-4 2,-2 5,-4 7,-8 2,-3 3,-8 3,-12 0,-6 -2,-10 -4,-14 -3,-4 -7,-7 -12,-9 -5,-1 -12,-2 -21,-2l-33 0 0 50z"/>
  <path id="1" class="fil3" d="M2223 4975l0 -105 16 0 0 16c4,-7 8,-12 11,-14 4,-3 8,-4 12,-4 6,0 12,2 18,6l-6 16c-5,-3 -9,-4 -13,-4 -4,0 -8,1 -11,4 -3,2 -5,5 -6,9 -2,7 -3,14 -3,21l0 55 -18 0z"/>
  <path id="2" class="fil3" d="M2359 4962c-7,5 -13,9 -19,11 -7,3 -13,4 -20,4 -11,0 -20,-3 -26,-9 -7,-5 -10,-12 -10,-21 0,-5 1,-10 4,-14 2,-4 5,-8 9,-10 4,-3 8,-5 13,-6 3,-1 8,-2 15,-3 15,-1 25,-3 32,-6 0,-2 0,-4 0,-4 0,-7 -2,-12 -5,-15 -4,-4 -11,-6 -20,-6 -8,0 -15,1 -19,4 -4,3 -6,8 -8,16l-18 -3c2,-7 4,-13 8,-18 4,-4 9,-8 16,-10 7,-3 15,-4 24,-4 8,0 16,1 21,3 6,2 10,5 13,8 2,3 4,7 5,12 1,3 1,9 1,16l0 24c0,16 0,27 1,31 1,4 2,9 4,13l-18 0c-2,-4 -3,-8 -3,-13zm-2 -40c-6,3 -16,5 -29,7 -7,1 -12,2 -15,3 -3,2 -6,4 -7,6 -2,3 -3,5 -3,9 0,4 2,8 6,11 3,3 8,5 15,5 7,0 13,-2 18,-5 6,-2 10,-7 12,-12 2,-4 3,-10 3,-17l0 -7z"/>
  <path id="3" class="fil3" d="M2402 4975l0 -105 16 0 0 15c3,-5 8,-9 13,-12 6,-3 12,-5 19,-5 7,0 14,2 19,5 5,3 8,7 10,13 8,-12 19,-18 32,-18 11,0 19,3 24,9 6,5 9,14 9,26l0 72 -18 0 0 -66c0,-7 0,-12 -2,-15 -1,-3 -3,-6 -6,-8 -3,-2 -6,-3 -10,-3 -8,0 -14,3 -19,8 -5,4 -7,12 -7,23l0 61 -18 0 0 -68c0,-8 -1,-14 -4,-18 -3,-4 -8,-6 -14,-6 -5,0 -10,2 -14,4 -4,3 -7,7 -9,12 -2,5 -3,12 -3,21l0 55 -18 0z"/>
  <path id="4" class="fil3" d="M2570 5015l0 -145 16 0 0 14c4,-5 8,-9 13,-12 5,-3 10,-4 17,-4 9,0 17,2 24,7 7,4 12,11 15,19 4,9 5,18 5,28 0,10 -2,20 -5,28 -4,9 -10,15 -17,20 -7,5 -15,7 -23,7 -6,0 -11,-1 -16,-4 -5,-2 -8,-5 -11,-9l0 51 -18 0zm16 -92c0,13 3,23 8,30 5,6 12,9 20,9 8,0 14,-3 20,-10 5,-6 8,-17 8,-30 0,-14 -2,-24 -8,-30 -5,-7 -12,-10 -19,-10 -8,0 -15,3 -20,10 -6,7 -9,18 -9,31z"/>
  <path id="5" class="fil3" d="M2720 4959l3 15c-5,1 -10,2 -14,2 -6,0 -11,-1 -15,-3 -3,-2 -6,-5 -7,-8 -2,-3 -2,-10 -2,-21l0 -60 -13 0 0 -14 13 0 0 -26 17 -10 0 36 18 0 0 14 -18 0 0 61c0,5 1,8 1,10 1,1 2,2 3,3 2,1 4,2 6,2 2,0 5,-1 8,-1z"/>
  <path id="6" class="fil3" d="M2731 4922c0,-19 5,-33 16,-42 9,-8 20,-12 33,-12 14,0 26,5 35,14 9,9 14,22 14,39 0,13 -2,24 -6,32 -4,7 -10,13 -18,17 -8,5 -16,7 -25,7 -15,0 -26,-5 -35,-14 -10,-10 -14,-23 -14,-41zm18 0c0,14 3,24 9,30 6,7 13,10 22,10 9,0 16,-3 22,-10 6,-6 9,-16 9,-30 0,-13 -3,-23 -9,-29 -6,-7 -13,-10 -22,-10 -9,0 -16,3 -22,10 -6,6 -9,16 -9,29z"/>
  <path id="7" class="fil3" d="M2850 4975l0 -105 15 0 0 15c8,-11 19,-17 34,-17 6,0 12,1 17,3 5,3 9,6 12,9 2,4 4,8 5,13 1,4 1,9 1,17l0 65 -17 0 0 -64c0,-7 -1,-12 -3,-16 -1,-4 -3,-6 -7,-9 -3,-2 -7,-3 -12,-3 -8,0 -14,3 -20,7 -5,5 -8,14 -8,28l0 57 -17 0z"/>
  <path class="fil3" d="M2154 5903l0 -144 29 0 34 102c3,9 5,16 7,21 1,-5 4,-13 8,-23l34 -100 26 0 0 144 -19 0 0 -121 -42 121 -17 0 -41 -123 0 123 -19 0z"/>
  <path id="1" class="fil3" d="M2320 5779l0 -20 18 0 0 20 -18 0zm0 124l0 -105 18 0 0 105 -18 0z"/>
  <path id="2" class="fil3" d="M2358 5872l17 -3c1,7 4,12 8,16 5,4 11,6 19,6 8,0 15,-2 18,-5 4,-4 6,-8 6,-12 0,-4 -1,-7 -5,-9 -2,-2 -8,-4 -18,-6 -13,-4 -22,-6 -27,-9 -5,-2 -9,-6 -11,-10 -3,-4 -4,-9 -4,-14 0,-4 1,-9 3,-13 2,-4 5,-7 9,-9 2,-3 6,-4 11,-6 5,-1 10,-2 15,-2 8,0 16,1 22,4 6,2 10,5 13,9 3,4 5,10 6,17l-17 2c-1,-5 -3,-10 -7,-13 -3,-3 -9,-4 -16,-4 -8,0 -13,1 -17,4 -3,2 -5,6 -5,9 0,2 1,5 2,6 1,2 4,4 7,5 2,1 7,2 15,5 13,3 22,6 27,8 5,2 8,5 11,9 3,4 4,9 4,15 0,6 -1,12 -5,17 -3,5 -8,9 -15,12 -6,3 -13,4 -22,4 -13,0 -24,-3 -31,-8 -7,-6 -11,-14 -13,-25z"/>
  <path id="3" class="fil3" d="M2458 5872l18 -3c1,7 4,12 8,16 5,4 11,6 19,6 8,0 14,-2 18,-5 4,-4 6,-8 6,-12 0,-4 -2,-7 -5,-9 -3,-2 -9,-4 -18,-6 -13,-4 -22,-6 -27,-9 -5,-2 -9,-6 -12,-10 -2,-4 -4,-9 -4,-14 0,-4 1,-9 4,-13 2,-4 5,-7 8,-9 3,-3 7,-4 11,-6 5,-1 10,-2 16,-2 8,0 15,1 21,4 6,2 11,5 14,9 3,4 5,10 6,17l-17 2c-1,-5 -3,-10 -7,-13 -4,-3 -9,-4 -16,-4 -8,0 -14,1 -17,4 -4,2 -6,6 -6,9 0,2 1,5 3,6 1,2 3,4 6,5 2,1 7,2 16,5 12,3 21,6 26,8 5,2 9,5 12,9 3,4 4,9 4,15 0,6 -2,12 -5,17 -4,5 -8,9 -15,12 -6,3 -14,4 -22,4 -14,0 -24,-3 -31,-8 -7,-6 -12,-14 -14,-25z"/>
  <path id="4" class="fil3" d="M2566 5779l0 -20 18 0 0 20 -18 0zm0 124l0 -105 18 0 0 105 -18 0z"/>
  <path id="5" class="fil3" d="M2604 5872l17 -3c1,7 4,12 8,16 5,4 11,6 19,6 8,0 14,-2 18,-5 4,-4 6,-8 6,-12 0,-4 -1,-7 -5,-9 -2,-2 -9,-4 -18,-6 -13,-4 -22,-6 -27,-9 -5,-2 -9,-6 -11,-10 -3,-4 -4,-9 -4,-14 0,-4 1,-9 3,-13 2,-4 5,-7 9,-9 2,-3 6,-4 11,-6 5,-1 10,-2 15,-2 8,0 15,1 22,4 6,2 10,5 13,9 3,4 5,10 6,17l-17 2c-1,-5 -3,-10 -7,-13 -3,-3 -9,-4 -16,-4 -8,0 -14,1 -17,4 -3,2 -5,6 -5,9 0,2 1,5 2,6 1,2 4,4 7,5 1,1 7,2 15,5 13,3 22,6 26,8 5,2 9,5 12,9 3,4 4,9 4,15 0,6 -1,12 -5,17 -3,5 -8,9 -15,12 -6,3 -14,4 -22,4 -13,0 -24,-3 -31,-8 -7,-6 -11,-14 -13,-25z"/>
  <path id="6" class="fil3" d="M2704 5872l18 -3c1,7 4,12 8,16 4,4 11,6 19,6 8,0 14,-2 18,-5 4,-4 6,-8 6,-12 0,-4 -2,-7 -5,-9 -3,-2 -9,-4 -19,-6 -12,-4 -21,-6 -26,-9 -5,-2 -9,-6 -12,-10 -2,-4 -4,-9 -4,-14 0,-4 1,-9 3,-13 3,-4 6,-7 9,-9 3,-3 7,-4 11,-6 5,-1 10,-2 16,-2 8,0 15,1 21,4 6,2 11,5 14,9 3,4 5,10 6,17l-17 2c-1,-5 -3,-10 -7,-13 -4,-3 -9,-4 -16,-4 -8,0 -14,1 -17,4 -4,2 -6,6 -6,9 0,2 1,5 3,6 1,2 3,4 6,5 2,1 7,2 16,5 12,3 21,6 26,8 5,2 9,5 12,9 3,4 4,9 4,15 0,6 -2,12 -5,17 -4,5 -9,9 -15,12 -7,3 -14,4 -22,4 -14,0 -24,-3 -31,-8 -7,-6 -12,-14 -14,-25z"/>
  <path id="7" class="fil3" d="M2880 5890c-6,5 -13,9 -19,12 -6,2 -12,3 -19,3 -12,0 -21,-3 -27,-8 -6,-6 -9,-13 -9,-22 0,-5 1,-9 3,-14 3,-4 6,-7 10,-10 3,-2 8,-4 12,-6 4,0 9,-1 16,-2 14,-2 25,-4 32,-6 0,-3 0,-4 0,-5 0,-7 -2,-12 -5,-15 -5,-4 -12,-6 -20,-6 -9,0 -15,1 -19,4 -4,3 -7,8 -9,16l-17 -3c1,-7 4,-13 8,-18 3,-4 9,-8 15,-10 7,-3 15,-4 24,-4 9,0 16,1 22,3 5,3 10,5 12,8 3,4 5,8 6,12 0,3 1,9 1,17l0 23c0,17 0,27 1,31 0,5 2,9 4,13l-18 0c-2,-4 -3,-8 -4,-13zm-1 -39c-7,2 -16,4 -29,6 -8,1 -13,2 -16,4 -3,1 -5,3 -7,5 -1,3 -2,6 -2,9 0,4 2,8 5,12 4,3 9,4 16,4 7,0 13,-1 18,-4 5,-3 9,-7 12,-12 2,-4 3,-10 3,-18l0 -6z"/>
  <path id="8" class="fil3" d="M2992 5903l0 -16c-8,12 -19,18 -33,18 -6,0 -12,-1 -17,-3 -6,-3 -9,-6 -12,-9 -3,-4 -4,-8 -6,-13 0,-4 -1,-9 -1,-17l0 -65 18 0 0 58c0,9 1,16 1,19 1,5 4,8 7,11 4,2 8,4 14,4 5,0 10,-2 14,-4 5,-3 8,-7 10,-11 2,-5 3,-12 3,-21l0 -56 18 0 0 105 -16 0z"/>
  <path id="9" class="fil3" d="M3032 5912l18 2c0,5 2,9 6,12 4,3 10,4 18,4 8,0 14,-1 19,-4 4,-4 7,-8 9,-14 1,-4 1,-11 1,-23 -8,9 -17,14 -29,14 -14,0 -25,-5 -33,-16 -8,-10 -12,-22 -12,-37 0,-10 2,-19 5,-27 4,-9 9,-15 16,-20 7,-4 15,-7 24,-7 12,0 23,5 31,15l0 -13 16 0 0 91c0,16 -2,27 -5,34 -3,7 -9,12 -16,16 -7,4 -16,6 -26,6 -13,0 -23,-3 -30,-8 -8,-6 -12,-14 -12,-25zm15 -63c0,14 3,24 8,30 6,6 12,9 21,9 8,0 15,-3 20,-9 6,-6 8,-16 8,-30 0,-12 -3,-22 -8,-28 -6,-7 -13,-10 -21,-10 -8,0 -14,3 -20,10 -5,6 -8,15 -8,28z"/>
  <path id="10" class="fil3" d="M3216 5890c-7,5 -13,9 -19,12 -6,2 -13,3 -20,3 -11,0 -20,-3 -26,-8 -6,-6 -9,-13 -9,-22 0,-5 1,-9 3,-14 2,-4 5,-7 9,-10 4,-2 8,-4 13,-6 3,0 9,-1 16,-2 14,-2 25,-4 31,-6 0,-3 0,-4 0,-5 0,-7 -1,-12 -5,-15 -4,-4 -11,-6 -20,-6 -8,0 -14,1 -18,4 -4,3 -7,8 -9,16l-17 -3c1,-7 4,-13 7,-18 4,-4 9,-8 16,-10 7,-3 15,-4 24,-4 9,0 16,1 22,3 5,3 9,5 12,8 3,4 4,8 5,12 1,3 1,9 1,17l0 23c0,17 1,27 1,31 1,5 3,9 5,13l-19 0c-2,-4 -3,-8 -3,-13zm-2 -39c-6,2 -16,4 -29,6 -7,1 -12,2 -15,4 -3,1 -5,3 -7,5 -2,3 -2,6 -2,9 0,4 1,8 5,12 3,3 9,4 16,4 6,0 12,-1 18,-4 5,-3 9,-7 11,-12 2,-4 3,-10 3,-18l0 -6z"/>
  <path class="fil3" d="M1762 6720c0,-24 7,-42 20,-56 13,-13 29,-20 49,-20 14,0 26,3 36,9 11,7 19,16 25,27 5,11 8,24 8,38 0,15 -3,28 -9,40 -5,11 -14,20 -25,26 -10,6 -22,9 -35,9 -13,0 -25,-4 -36,-10 -11,-7 -19,-16 -24,-27 -6,-11 -9,-23 -9,-36zm20 1c0,17 5,30 14,40 9,10 21,15 35,15 15,0 26,-5 36,-15 9,-10 14,-24 14,-43 0,-11 -2,-21 -6,-30 -4,-9 -10,-16 -18,-20 -7,-5 -16,-8 -25,-8 -14,0 -26,5 -35,14 -10,9 -15,25 -15,47z"/>
  <path id="1" class="fil3" d="M1991 6777c-7,6 -13,10 -19,12 -6,2 -13,4 -20,4 -11,0 -20,-3 -26,-9 -6,-5 -9,-13 -9,-21 0,-5 1,-10 3,-14 2,-4 5,-8 9,-10 4,-3 8,-5 13,-6 3,-1 9,-2 16,-3 14,-2 25,-4 31,-6 0,-2 0,-4 0,-4 0,-8 -1,-13 -5,-16 -4,-4 -11,-6 -20,-6 -8,0 -14,2 -18,5 -4,3 -7,8 -9,15l-17 -2c1,-8 4,-14 7,-18 4,-5 9,-8 16,-11 7,-2 15,-3 24,-3 9,0 16,1 22,3 5,2 9,5 12,8 2,3 4,7 5,12 1,3 1,8 1,16l0 24c0,16 1,26 1,31 1,4 3,8 5,12l-19 0c-2,-3 -3,-8 -3,-13zm-2 -39c-6,3 -16,5 -29,7 -7,1 -12,2 -15,3 -3,1 -5,3 -7,6 -2,2 -3,5 -3,8 0,5 2,9 6,12 3,3 9,5 16,5 6,0 12,-2 18,-5 5,-3 9,-7 11,-12 2,-4 3,-10 3,-18l0 -6z"/>
  <polygon id="2" class="fil3" points="2035,6790 2035,6646 2052,6646 2052,6728 2094,6686 2117,6686 2077,6725 2121,6790 2099,6790 2065,6737 2052,6749 2052,6790 "/>
  <path id="3" class="fil3" d="M2164 6790l-40 -104 19 0 22 62c3,7 5,14 7,21 2,-5 4,-12 7,-19l23 -64 18 0 -39 104 -17 0z"/>
  <path id="4" class="fil3" d="M2236 6666l0 -20 17 0 0 20 -17 0zm0 124l0 -104 17 0 0 104 -17 0z"/>
  <polygon id="5" class="fil3" points="2280,6790 2280,6646 2298,6646 2298,6790 "/>
  <polygon id="6" class="fil3" points="2325,6790 2325,6646 2342,6646 2342,6790 "/>
  <path id="7" class="fil3" d="M2441 6756l18 3c-3,11 -8,19 -16,25 -7,6 -17,9 -29,9 -16,0 -28,-5 -37,-15 -9,-9 -13,-22 -13,-39 0,-18 4,-31 13,-41 9,-10 21,-14 36,-14 13,0 25,4 34,14 8,9 13,23 13,40 0,1 0,3 0,5l-78 0c1,11 4,20 10,26 6,6 13,9 22,9 6,0 12,-2 16,-5 5,-4 8,-9 11,-17zm-58 -28l58 0c-1,-9 -3,-15 -6,-20 -6,-6 -13,-10 -22,-10 -8,0 -15,3 -21,8 -5,6 -8,13 -9,22z"/>
  <path class="fil3" d="M829 6246l0 -144 29 0 34 102c3,10 5,17 7,22 2,-6 4,-13 8,-23l34 -101 26 0 0 144 -19 0 0 -120 -42 120 -17 0 -41 -122 0 122 -19 0z"/>
  <path id="1" class="fil3" d="M995 6122l0 -20 18 0 0 20 -18 0zm0 124l0 -104 18 0 0 104 -18 0z"/>
  <polygon id="2" class="fil3" points="1039,6246 1039,6102 1057,6102 1057,6246 "/>
  <path id="3" class="fil3" d="M1123 6231l2 15c-5,1 -9,2 -13,2 -6,0 -11,-1 -15,-3 -3,-2 -6,-5 -7,-8 -2,-4 -2,-11 -2,-21l0 -60 -13 0 0 -14 13 0 0 -26 17 -10 0 36 18 0 0 14 -18 0 0 61c0,5 1,8 1,10 1,1 2,2 3,3 2,1 4,1 6,1 2,0 5,0 8,0z"/>
  <path id="4" class="fil3" d="M1134 6194c0,-19 5,-33 16,-43 9,-7 20,-11 33,-11 14,0 26,4 35,14 9,9 14,22 14,39 0,13 -2,24 -6,31 -4,8 -10,14 -18,18 -8,4 -16,7 -25,7 -15,0 -27,-5 -36,-14 -9,-10 -13,-23 -13,-41zm18 0c0,14 3,24 9,30 6,7 13,10 22,10 9,0 16,-3 22,-10 6,-7 9,-17 9,-30 0,-13 -3,-23 -9,-30 -6,-6 -13,-10 -22,-10 -9,0 -16,4 -22,10 -6,7 -9,17 -9,30z"/>
  <path id="5" class="fil3" d="M1252 6246l0 -104 16 0 0 15c8,-12 19,-17 33,-17 7,0 13,1 18,3 5,2 9,5 12,9 2,4 4,8 5,13 1,3 1,9 1,17l0 64 -18 0 0 -63c0,-7 0,-13 -2,-16 -1,-4 -3,-7 -7,-9 -3,-2 -8,-3 -12,-3 -8,0 -14,2 -20,7 -5,5 -8,14 -8,27l0 57 -18 0z"/>
  <polygon class="fil3" points="1037,5058 1037,4914 1056,4914 1056,4974 1131,4974 1131,4914 1150,4914 1150,5058 1131,5058 1131,4991 1056,4991 1056,5058 "/>
  <path id="1" class="fil3" d="M1248 5045c-7,6 -13,10 -19,12 -6,2 -13,4 -20,4 -11,0 -20,-3 -26,-9 -7,-5 -10,-12 -10,-21 0,-5 2,-10 4,-14 2,-4 5,-8 9,-10 4,-3 8,-5 13,-6 3,-1 8,-2 15,-3 15,-1 25,-3 32,-6 0,-2 0,-4 0,-4 0,-8 -1,-13 -5,-16 -4,-4 -11,-6 -20,-6 -8,0 -15,2 -19,5 -4,3 -6,8 -8,15l-18 -2c2,-7 5,-13 8,-18 4,-5 9,-8 16,-11 7,-2 15,-3 24,-3 9,0 16,1 21,3 6,2 10,5 13,8 2,3 4,7 5,12 1,3 1,8 1,16l0 24c0,16 0,26 1,31 1,4 2,8 5,12l-19 0c-2,-3 -3,-8 -3,-13zm-2 -39c-6,3 -16,5 -29,7 -7,1 -12,2 -15,3 -3,2 -6,3 -7,6 -2,2 -3,5 -3,8 0,5 2,9 6,12 3,3 8,5 15,5 7,0 13,-2 19,-5 5,-3 9,-7 11,-12 2,-4 3,-10 3,-17l0 -7z"/>
  <polygon id="2" class="fil3" points="1291,5058 1291,4914 1309,4914 1309,5058 "/>
  <path id="3" class="fil3" d="M1374 5043l3 15c-5,1 -10,2 -13,2 -7,0 -12,-1 -15,-3 -4,-2 -6,-5 -8,-8 -1,-4 -2,-11 -2,-21l0 -60 -13 0 0 -14 13 0 0 -26 18 -10 0 36 17 0 0 14 -17 0 0 61c0,5 0,8 1,10 0,1 1,2 3,3 1,1 3,1 6,1 2,0 4,0 7,0z"/>
  <path id="4" class="fil3" d="M1385 5006c0,-19 6,-33 16,-43 9,-7 20,-11 33,-11 15,0 26,4 35,14 9,9 14,22 14,39 0,13 -2,24 -6,31 -4,8 -10,14 -18,18 -7,5 -16,7 -25,7 -14,0 -26,-5 -35,-14 -9,-10 -14,-23 -14,-41zm18 0c0,14 3,24 9,30 6,7 13,10 22,10 9,0 16,-3 22,-10 6,-7 9,-17 9,-30 0,-13 -3,-23 -9,-30 -6,-6 -13,-10 -22,-10 -9,0 -16,4 -22,10 -6,7 -9,17 -9,30z"/>
  <path id="5" class="fil3" d="M1504 5058l0 -104 16 0 0 15c7,-12 18,-17 33,-17 6,0 12,1 17,3 5,2 9,5 12,9 3,4 4,8 6,13 0,3 0,9 0,17l0 64 -17 0 0 -63c0,-7 -1,-13 -2,-16 -2,-4 -4,-7 -8,-9 -3,-2 -7,-3 -12,-3 -7,0 -14,2 -19,7 -6,5 -9,14 -9,27l0 57 -17 0z"/>
  <polygon id="6" class="fil3" points="1037,5283 1037,5139 1056,5139 1056,5198 1131,5198 1131,5139 1150,5139 1150,5283 1131,5283 1131,5215 1056,5215 1056,5283 "/>
  <path id="7" class="fil3" d="M1179 5159l0 -20 18 0 0 20 -18 0zm0 124l0 -104 18 0 0 104 -18 0z"/>
  <polygon id="8" class="fil3" points="1224,5283 1224,5139 1241,5139 1241,5283 "/>
  <polygon id="9" class="fil3" points="1268,5283 1268,5139 1286,5139 1286,5283 "/>
  <path id="10" class="fil3" d="M1306 5252l18 -3c1,7 4,13 8,16 5,4 11,6 19,6 8,0 14,-2 18,-5 4,-3 6,-7 6,-12 0,-4 -2,-7 -5,-9 -3,-2 -9,-4 -18,-6 -13,-3 -22,-6 -27,-9 -5,-2 -9,-5 -12,-9 -2,-5 -4,-9 -4,-14 0,-5 2,-9 4,-13 2,-4 5,-8 8,-10 3,-2 7,-4 12,-5 4,-2 9,-2 15,-2 8,0 15,1 21,3 7,2 11,6 14,10 3,4 5,9 6,16l-17 2c-1,-5 -3,-9 -7,-12 -4,-3 -9,-5 -16,-5 -8,0 -14,1 -17,4 -4,3 -5,6 -5,9 0,3 0,5 2,7 1,2 3,3 6,4 2,1 7,3 16,5 13,3 21,6 26,8 5,2 9,5 12,9 3,4 4,9 4,15 0,6 -2,12 -5,17 -3,5 -8,9 -15,12 -6,3 -14,4 -22,4 -13,0 -24,-2 -31,-8 -7,-6 -12,-14 -14,-25z"/>
  <path class="fil3" d="M1058 6646l124 -74 27 47c6,9 9,17 10,25 1,7 0,14 -3,20 -4,6 -8,11 -14,15 -5,3 -11,4 -17,4 -7,0 -13,-2 -19,-6 2,9 2,17 -1,24 -3,7 -8,13 -15,17 -6,4 -12,6 -19,6 -6,1 -12,0 -16,-2 -5,-2 -10,-5 -15,-10 -4,-5 -9,-11 -14,-19l-28 -47zm82 -26l16 26c4,8 8,13 10,15 4,4 8,6 12,6 4,0 8,-1 13,-3 4,-3 7,-6 9,-10 2,-4 2,-8 1,-12 -1,-4 -4,-11 -9,-20l-15 -25 -37 23zm-57 34l18 31c3,5 6,9 7,10 3,4 6,6 9,8 3,1 7,2 11,2 4,0 8,-1 12,-4 4,-3 8,-6 10,-11 2,-4 2,-9 1,-14 -1,-5 -4,-11 -9,-19l-17 -28 -42 25z"/>
  <path id="1" class="fil3" d="M1161 6819l13 -8c-15,0 -25,-7 -32,-19 -4,-5 -6,-11 -6,-16 -1,-6 0,-11 1,-15 2,-4 5,-8 9,-12 2,-2 7,-5 13,-9l56 -33 9 15 -50 30c-8,4 -13,8 -15,10 -4,4 -6,7 -6,12 0,4 1,9 3,13 3,5 7,8 12,11 4,3 9,4 14,3 5,-1 12,-4 19,-8l48 -29 9 15 -89 54 -8 -14z"/>
  <path id="2" class="fil3" d="M1182 6857l90 -54 8 14 -14 8c9,0 15,1 19,2 3,2 6,5 8,8 3,5 5,12 5,19l-17 3c0,-5 -1,-9 -4,-13 -2,-3 -4,-6 -8,-7 -4,-2 -8,-2 -12,-1 -6,2 -13,4 -19,8l-47 28 -9 -15z"/>
  <polygon id="3" class="fil3" points="1216,6915 1340,6841 1349,6856 1225,6930 "/>
  <path id="4" class="fil3" d="M1345 6890l17 -10 10 15 -18 10 -9 -15zm-106 63l89 -53 10 15 -90 54 -9 -16z"/>
  <path id="5" class="fil3" d="M1262 6992l89 -54 8 14 -12 8c13,0 24,7 31,19 3,6 5,11 6,17 1,6 1,11 -1,15 -2,4 -5,8 -9,11 -2,2 -7,6 -14,10l-55 33 -9 -16 54 -32c7,-4 11,-7 13,-10 3,-3 4,-7 4,-11 0,-4 -1,-8 -4,-12 -4,-6 -9,-11 -16,-13 -7,-2 -16,0 -28,7l-48 29 -9 -15z"/>
  <path id="6" class="fil3" d="M1309 7090l7 16c-4,3 -7,7 -7,11 -1,6 1,12 5,18 4,7 9,12 14,14 5,2 10,2 16,1 4,-2 11,-5 20,-11 -11,-2 -20,-8 -26,-18 -7,-12 -9,-24 -4,-36 5,-12 14,-22 26,-30 9,-5 17,-8 26,-9 10,-1 18,0 25,3 8,4 14,10 19,18 6,10 7,21 2,33l11 -6 8 14 -77 46c-14,8 -25,13 -32,14 -8,0 -15,-1 -22,-6 -7,-4 -13,-10 -19,-19 -6,-11 -9,-21 -8,-31 1,-9 6,-16 16,-22zm62 -20c-12,7 -19,15 -22,23 -3,8 -2,15 2,22 5,7 11,11 19,13 8,1 18,-1 29,-8 11,-7 18,-14 21,-22 2,-8 2,-16 -2,-23 -4,-7 -11,-11 -19,-12 -8,-2 -18,1 -28,7z"/>
  <path id="7" class="fil3" d="M1408 7210l-12 10c-3,-4 -6,-7 -8,-11 -3,-5 -5,-10 -5,-14 0,-4 1,-8 3,-11 2,-2 8,-7 17,-12l51 -31 -6 -11 12 -7 6 11 22 -13 18 9 -31 19 9 15 -11 7 -10 -15 -52 31c-4,3 -7,5 -8,6 -1,2 -1,3 -1,5 0,1 1,3 2,6 1,1 2,3 4,6z"/>
  <path id="8" class="fil3" d="M1445 7201c16,-10 31,-13 45,-9 11,4 20,12 27,23 7,12 9,24 6,37 -4,13 -13,23 -27,32 -11,7 -21,10 -30,11 -9,0 -17,-2 -25,-6 -7,-5 -13,-11 -18,-18 -7,-13 -9,-26 -6,-38 3,-13 13,-23 28,-32zm9 15c-11,7 -18,15 -21,23 -3,8 -2,16 3,24 4,8 11,12 19,14 9,1 19,-1 31,-8 11,-7 18,-15 21,-23 2,-8 2,-16 -3,-24 -4,-7 -11,-12 -20,-14 -8,-1 -18,1 -30,8z"/>
  <path id="9" class="fil3" d="M1460 7329l90 -53 8 14 -13 7c14,1 24,7 32,20 3,5 5,11 6,16 1,6 0,11 -2,15 -2,4 -4,8 -8,12 -3,2 -7,5 -14,9l-55 33 -9 -15 54 -33c6,-3 10,-7 13,-10 2,-3 3,-6 3,-10 0,-4 -1,-8 -3,-12 -4,-7 -9,-11 -16,-14 -7,-2 -16,1 -28,7l-49 30 -9 -16z"/>
  <path class="fil3" d="M7200 4191l144 -38 0 20 -94 22c-10,2 -20,4 -30,6 16,3 25,5 27,6l97 28 0 23 -73 20c-18,5 -35,9 -51,11 9,2 20,5 31,8l93 22 0 19 -144 -39 0 -19 110 -30c9,-2 15,-4 17,-4 -7,-2 -13,-3 -17,-5l-110 -30 0 -20z"/>
  <path id="1" class="fil3" d="M7200 4354l144 0 0 18 -51 0c9,8 14,18 14,31 0,8 -2,14 -5,20 -3,6 -7,10 -12,12 -6,3 -14,4 -24,4l-66 0 0 -18 66 0c9,0 15,-2 19,-6 5,-3 7,-9 7,-16 0,-5 -2,-10 -4,-15 -3,-4 -7,-8 -11,-10 -5,-1 -12,-2 -20,-3l-57 0 0 -17z"/>
  <path id="2" class="fil3" d="M7324 4466l20 0 0 18 -20 0 0 -18zm-124 0l105 0 -1 18 -104 -1 0 -17z"/>
  <path id="3" class="fil3" d="M7216 4549l-16 2c-1,-5 -1,-9 -1,-13 0,-6 1,-11 3,-15 2,-3 5,-6 8,-7 3,-2 10,-2 21,-2l60 0 0 -13 14 0 0 13 25 0 11 17 -37 0 0 18 -13 0 0 -18 -61 0c-5,0 -9,0 -10,1 -1,1 -3,2 -3,3 -1,2 -2,4 -2,6 0,2 0,5 1,8z"/>
  <path id="4" class="fil3" d="M7200 4583l0 -17 144 0 0 18 -51 0c9,7 14,17 14,29 0,6 -2,12 -4,18 -3,6 -6,10 -11,14 -5,4 -10,7 -17,9 -7,2 -14,3 -21,3 -18,0 -32,-5 -42,-14 -9,-9 -14,-19 -14,-32 0,-12 5,-21 15,-28l-13 0zm53 -1c-12,0 -21,2 -27,5 -9,6 -14,14 -14,23 0,8 4,14 10,20 7,6 17,9 30,9 14,0 24,-3 30,-8 7,-6 10,-12 10,-20 0,-8 -3,-14 -10,-20 -7,-6 -16,-9 -29,-9z"/>
  <path id="5" class="fil3" d="M7160 4677l17 -2c-2,4 -2,8 -2,10 0,4 1,7 2,10 1,2 3,4 5,6 2,1 7,3 14,5 1,0 2,1 4,2l104 -40 0 19 -60 22c-8,3 -16,5 -24,7 8,2 16,5 24,8l60 22 0 18 -106 -40c-11,-4 -19,-8 -23,-10 -6,-3 -10,-7 -13,-11 -3,-4 -4,-9 -4,-14 0,-4 0,-8 2,-12z"/>
  <path class="fil3" d="M5607 2911l144 -38 0 20 -94 22c-10,2 -20,4 -29,6 15,3 24,5 26,6l97 28 0 23 -73 20c-18,5 -35,9 -51,11 9,2 20,5 32,8l92 22 0 19 -144 -39 0 -19 110 -30c9,-2 15,-4 17,-4 -7,-2 -12,-3 -17,-5l-110 -30 0 -20z"/>
  <path id="1" class="fil3" d="M5607 3074l144 0 0 18 -51 0c9,8 14,18 14,31 0,8 -2,14 -5,20 -3,6 -7,10 -12,12 -6,3 -13,4 -24,4l-66 0 0 -18 66 0c9,0 16,-2 20,-6 4,-3 6,-9 6,-16 0,-5 -2,-10 -4,-15 -3,-4 -7,-8 -11,-9 -5,-2 -11,-3 -20,-3l-57 -1 0 -17z"/>
  <path id="2" class="fil3" d="M5731 3186l20 0 0 18 -20 0 0 -18zm-124 0l105 0 0 18 -105 -1 0 -17z"/>
  <path id="3" class="fil3" d="M5623 3269l-16 2c-1,-4 -1,-9 -1,-13 0,-6 1,-11 3,-15 2,-3 5,-6 8,-7 3,-2 10,-2 21,-2l60 0 0 -13 14 0 0 13 26 0 10 17 -36 0 0 18 -14 0 0 -18 -61 0c-5,0 -8,0 -10,1 -1,1 -2,2 -3,3 -1,2 -2,4 -2,6 0,2 1,5 1,8z"/>
  <path id="4" class="fil3" d="M5645 3354l-2 18c-12,-2 -21,-7 -28,-15 -7,-8 -10,-17 -10,-29 0,-14 5,-26 14,-34 9,-9 23,-13 40,-13 11,0 21,2 30,6 8,3 14,9 19,17 4,7 6,16 6,25 0,11 -3,20 -9,27 -5,8 -14,12 -24,14l-3 -17c7,-2 13,-5 16,-9 4,-4 5,-9 5,-15 0,-9 -3,-16 -9,-21 -7,-6 -17,-9 -30,-9 -14,0 -25,3 -31,8 -6,5 -10,12 -10,21 0,7 3,13 7,17 4,5 11,8 19,9z"/>
  <path id="5" class="fil3" d="M5607 3387l144 0 0 18 -51 0c9,8 14,18 14,31 0,8 -2,14 -5,20 -3,6 -7,10 -12,12 -6,3 -14,4 -24,4l-66 0 0 -18 66 0c9,0 16,-2 20,-5 4,-4 6,-10 6,-17 0,-5 -2,-10 -4,-14 -3,-5 -7,-8 -11,-10 -5,-2 -11,-3 -20,-3l-57 0 0 -18z"/>
  <path id="6" class="fil3" d="M5607 3567l15 0c-11,-8 -17,-19 -17,-33 0,-6 1,-12 3,-17 3,-6 6,-10 9,-12 4,-3 8,-5 13,-6 4,0 9,-1 17,-1l65 1 0 17 -58 0c-10,0 -16,0 -19,1 -5,1 -8,4 -11,7 -3,4 -4,8 -4,14 0,5 1,10 4,14 3,5 7,8 11,10 5,2 12,3 21,3l55 0 0 18 -104 0 0 -16z"/>
  <path id="7" class="fil3" d="M5607 3610l105 1 0 16 -16 0c7,4 12,7 14,11 3,3 4,7 4,11 0,6 -2,12 -6,18l-16 -6c2,-4 4,-8 4,-13 0,-4 -2,-7 -4,-10 -2,-3 -5,-5 -10,-7 -6,-2 -13,-3 -20,-3l-55 0 0 -18z"/>
  <path id="8" class="fil3" d="M5645 3746l-2 17c-12,-2 -21,-7 -28,-14 -7,-8 -10,-18 -10,-29 0,-15 4,-26 14,-35 9,-8 23,-13 40,-13 11,0 21,2 30,6 8,4 14,9 19,17 4,8 6,16 6,25 0,11 -3,21 -9,28 -6,7 -14,12 -24,14l-3 -18c7,-1 12,-4 16,-8 3,-4 5,-9 5,-15 0,-9 -3,-17 -9,-22 -7,-6 -17,-8 -31,-9 -14,0 -24,3 -30,8 -6,6 -10,13 -10,21 0,7 2,13 7,18 4,5 10,8 19,9z"/>
  <path id="9" class="fil3" d="M5607 3778l144 1 0 17 -52 0c10,8 15,19 15,31 0,8 -2,15 -5,20 -3,6 -7,10 -12,13 -6,2 -14,3 -24,3l-66 0 0 -17 66 0c9,0 15,-2 19,-6 5,-4 7,-9 7,-16 0,-6 -2,-10 -4,-15 -3,-5 -7,-8 -12,-10 -4,-2 -11,-3 -19,-3l-57 0 0 -18z"/>
  <path id="10" class="fil3" d="M5429 2880l1 18c-7,0 -13,2 -17,6 -5,3 -9,7 -12,14 -2,7 -4,14 -4,22 0,7 1,14 3,19 3,6 6,10 9,13 4,3 8,4 13,4 4,0 8,-1 11,-4 4,-3 7,-7 9,-13 1,-4 4,-12 7,-26 3,-13 6,-22 9,-27 4,-7 8,-12 14,-16 5,-3 11,-5 17,-5 8,0 15,2 21,6 6,5 11,11 14,19 3,8 5,16 5,26 0,11 -2,20 -5,28 -4,8 -9,15 -15,19 -7,4 -15,7 -23,7l-1 -18c9,-1 16,-5 20,-10 5,-6 7,-14 7,-25 0,-12 -2,-20 -6,-25 -4,-6 -9,-8 -15,-8 -5,0 -10,1 -13,5 -3,4 -7,13 -10,29 -4,15 -7,26 -10,32 -4,8 -8,14 -14,18 -6,4 -13,6 -21,6 -8,0 -15,-2 -22,-6 -6,-5 -12,-11 -15,-19 -4,-9 -6,-18 -6,-28 0,-13 2,-24 6,-33 4,-9 9,-16 17,-21 8,-5 16,-7 26,-7z"/>
  <path id="11" class="fil3" d="M5398 3057l-15 2c-1,-5 -2,-9 -2,-13 0,-7 1,-12 3,-15 2,-4 5,-6 8,-8 4,-1 11,-2 21,-2l60 0 0 -13 14 0 0 13 26 0 10 18 -36 0 0 18 -14 0 0 -18 -61 0c-5,0 -8,0 -10,1 -1,0 -2,1 -3,3 -1,1 -1,3 -1,6 0,2 0,4 0,8z"/>
  <path id="12" class="fil3" d="M5435 3067c19,0 33,6 43,17 7,9 11,20 11,32 0,15 -5,26 -14,36 -9,9 -22,13 -39,13 -13,0 -24,-2 -32,-6 -7,-4 -13,-10 -17,-18 -5,-7 -7,-16 -7,-25 0,-14 5,-26 14,-35 10,-9 23,-14 41,-14zm0 19c-14,0 -24,2 -30,8 -7,6 -10,13 -10,22 0,9 3,16 10,22 6,6 17,9 30,9 13,0 23,-3 30,-9 6,-6 10,-13 10,-22 0,-8 -4,-16 -10,-22 -7,-5 -17,-8 -30,-8z"/>
  <path id="13" class="fil3" d="M5382 3254l16 0c-12,-8 -18,-19 -18,-33 0,-6 1,-12 4,-17 2,-6 5,-10 9,-12 3,-3 8,-4 13,-6 3,0 9,-1 16,-1l65 1 0 17 -58 0c-9,0 -15,0 -19,1 -4,1 -8,4 -11,7 -2,4 -4,8 -4,14 0,5 2,10 4,15 3,4 7,7 11,9 5,2 12,3 21,3l56 0 0 18 -105 0 0 -16z"/>
  <path id="14" class="fil3" d="M5383 3302l90 0 0 -16 14 0 0 16 11 0c7,0 12,1 16,2 4,2 8,5 11,9 3,4 4,10 4,18 0,5 -1,11 -2,17l-15 -3c0,-4 1,-7 1,-11 0,-5 -1,-9 -4,-11 -2,-2 -6,-3 -13,-3l-9 0 0 20 -14 0 0 -20 -90 -1 0 -17z"/>
  <path id="15" class="fil3" d="M5383 3354l90 0 0 -15 14 0 0 15 11 0c7,0 12,1 16,2 4,2 8,5 11,9 3,5 4,11 4,18 0,5 -1,11 -2,17l-15 -3c0,-4 1,-7 1,-10 0,-6 -1,-9 -4,-12 -2,-2 -6,-3 -13,-3l-9 0 0 20 -14 0 0 -20 -91 0 1 -18z"/>
  <path id="16" class="fil3" d="M5382 3435l105 -40 0 19 -63 22c-6,3 -13,5 -21,7 6,1 12,4 20,7l64 23 0 18 -105 -40 0 -16z"/>
  <path id="17" class="fil3" d="M5506 3507l21 0 -1 17 -20 0 0 -17zm-124 0l105 0 0 17 -105 0 0 -17z"/>
  <polygon id="18" class="fil3" points="5382,3551 5526,3551 5526,3569 5382,3568 "/>
  <polygon id="19" class="fil3" points="5382,3595 5526,3596 5526,3613 5382,3613 "/>
  <path id="20" class="fil3" d="M5416 3712l-2 18c-11,-3 -19,-8 -25,-16 -6,-8 -9,-18 -9,-30 0,-15 5,-27 14,-36 10,-9 23,-13 40,-13 17,0 31,4 41,13 9,9 14,21 14,36 0,14 -5,25 -14,34 -10,9 -23,13 -40,13 -1,0 -3,0 -5,0l0 -78c-11,1 -20,4 -26,10 -6,5 -9,13 -9,21 0,7 1,12 5,17 3,5 8,8 16,11zm29 -58l-1 58c9,0 16,-3 20,-6 7,-6 11,-13 11,-22 0,-8 -3,-15 -9,-21 -5,-5 -12,-8 -21,-9z"/>
  <path class="fil3" d="M7773 4291c24,0 43,7 57,20 13,12 20,29 20,49 0,14 -4,26 -10,36 -6,11 -15,19 -27,25 -11,5 -24,8 -38,8 -15,0 -28,-3 -39,-9 -12,-6 -21,-14 -27,-25 -5,-11 -8,-23 -8,-35 0,-14 3,-26 10,-36 6,-11 15,-19 26,-25 12,-5 24,-8 36,-8zm0 20c-17,0 -31,4 -41,14 -10,9 -15,21 -15,35 0,14 5,26 15,35 10,10 24,14 43,14 12,0 22,-2 31,-6 8,-3 15,-9 20,-17 5,-7 7,-16 7,-26 0,-13 -4,-25 -14,-34 -9,-10 -24,-15 -46,-15z"/>
  <path id="1" class="fil3" d="M7734 4444l3 18c-7,1 -12,3 -16,8 -4,4 -6,11 -6,19 0,8 2,14 5,18 4,4 7,6 12,6 4,0 7,-2 9,-6 2,-2 4,-8 6,-18 4,-13 7,-22 9,-27 2,-5 6,-8 10,-11 4,-3 9,-4 14,-4 4,0 9,1 13,3 4,3 7,5 10,9 2,3 3,7 5,11 1,5 2,10 2,16 0,8 -1,15 -4,21 -2,6 -5,11 -9,14 -4,3 -10,5 -17,6l-2 -17c6,-1 10,-3 13,-7 3,-4 4,-9 4,-16 0,-8 -1,-14 -4,-18 -2,-3 -6,-5 -9,-5 -2,0 -4,1 -6,2 -2,2 -4,4 -5,7 -1,2 -2,7 -5,16 -3,12 -6,21 -8,26 -2,5 -5,9 -9,12 -4,2 -9,4 -15,4 -6,0 -12,-2 -17,-5 -5,-4 -9,-9 -12,-15 -3,-7 -4,-14 -4,-22 0,-14 3,-24 8,-31 6,-7 14,-12 25,-14z"/>
  <path id="2" class="fil3" d="M7703 4552l144 0 0 18 -52 0c10,8 15,18 15,31 0,8 -2,14 -5,20 -3,6 -7,10 -12,12 -6,3 -14,4 -24,4l-66 0 0 -18 66 0c9,0 15,-2 19,-6 5,-3 7,-9 7,-16 0,-5 -2,-10 -4,-15 -3,-4 -7,-7 -12,-9 -4,-2 -11,-3 -19,-3l-57 -1 0 -17z"/>
  <path id="3" class="fil3" d="M7716 4732c-6,-7 -10,-13 -12,-19 -2,-6 -3,-13 -3,-20 0,-11 3,-20 8,-26 6,-6 13,-9 22,-9 5,0 9,1 14,3 4,3 7,6 10,9 2,4 4,8 6,13 0,4 1,9 2,16 2,14 4,25 6,31 3,0 4,0 5,1 7,0 12,-2 15,-5 4,-5 6,-12 6,-21 0,-8 -1,-14 -4,-18 -3,-4 -8,-7 -16,-9l3 -17c7,1 13,4 18,8 4,3 8,8 10,15 3,7 4,15 4,24 0,9 -1,16 -3,22 -3,5 -5,9 -8,12 -4,3 -8,4 -12,5 -3,1 -9,1 -17,1l-23 0c-17,0 -27,1 -32,1 -4,1 -8,3 -12,5l0 -19c4,-2 8,-3 13,-3zm39 -2c-2,-6 -4,-16 -6,-29 -1,-7 -2,-12 -4,-15 -1,-3 -3,-5 -5,-7 -3,-2 -6,-2 -9,-2 -5,0 -9,1 -12,5 -3,3 -4,9 -4,16 0,6 1,12 4,18 3,5 7,9 12,11 4,2 10,3 18,3l6 0z"/>
  <path id="4" class="fil3" d="M7703 4795l104 -32 0 18 -60 17 -22 6c1,0 8,2 21,5l61 17 0 18 -60 16 -20 5 20 6 60 18 0 17 -104 -33 0 -18 62 -16 18 -4 -80 -22 0 -18z"/>
  <path id="5" class="fil3" d="M7716 4989c-6,-7 -10,-13 -12,-19 -2,-6 -3,-13 -3,-19 0,-12 3,-21 8,-27 6,-6 13,-9 22,-9 5,0 9,1 14,3 4,3 7,6 10,10 2,3 4,8 6,12 0,4 1,9 2,16 2,14 4,25 6,32 3,0 4,0 5,0 7,0 12,-2 15,-5 4,-5 6,-12 6,-20 0,-9 -1,-15 -4,-19 -3,-4 -8,-7 -16,-9l3 -17c7,2 13,4 18,8 4,3 8,9 10,15 2,7 4,15 4,24 0,9 -1,16 -3,22 -3,5 -5,10 -8,12 -4,3 -8,5 -12,6 -4,0 -9,0 -17,0l-23 0c-17,0 -27,1 -32,1 -4,1 -8,3 -12,5l0 -19c4,-1 8,-3 13,-3zm39 -1c-2,-7 -4,-16 -6,-29 -1,-8 -3,-13 -4,-16 -1,-3 -3,-5 -6,-7 -2,-1 -5,-2 -8,-2 -5,0 -9,2 -12,5 -3,4 -4,9 -5,16 0,7 2,13 5,18 3,5 7,9 12,12 4,2 10,3 18,3l6 0z"/>
  <path class="fil3" d="M5449 6312l-18 0 0 -113c-4,4 -9,8 -16,12 -7,4 -14,7 -19,9l0 -17c10,-4 19,-10 26,-17 7,-6 13,-13 16,-19l11 0 0 145z"/>
  <polygon id="1" class="fil3" points="5504,6312 5504,6292 5525,6292 5525,6312 "/>
  <polygon id="2" class="fil3" points="5613,6312 5613,6168 5633,6168 5708,6281 5708,6168 5727,6168 5727,6312 5707,6312 5632,6199 5632,6312 "/>
  <path id="3" class="fil3" d="M5828 6278l18 2c-3,11 -8,19 -16,25 -8,6 -18,9 -30,9 -15,0 -27,-5 -36,-14 -9,-9 -13,-23 -13,-40 0,-17 4,-31 13,-40 9,-10 21,-15 35,-15 14,0 26,5 34,14 9,10 14,23 14,40 0,1 0,3 0,5l-78 0c0,12 4,20 10,26 5,6 13,10 21,10 7,0 12,-2 17,-6 4,-3 8,-8 11,-16zm-58 -28l58 0c-1,-9 -3,-16 -7,-20 -5,-7 -13,-10 -22,-10 -8,0 -14,2 -20,8 -6,5 -9,13 -9,22z"/>
  <path id="4" class="fil3" d="M5887 6312l-31 -105 18 0 17 61 6 22c0,-1 2,-8 5,-21l17 -62 18 0 16 61 5 20 6 -20 18 -61 17 0 -33 105 -18 0 -17 -63 -4 -18 -21 81 -19 0z"/>
  <path id="5" class="fil3" d="M6071 6312l0 -144 29 0 34 102c3,9 6,16 7,21 2,-5 4,-13 8,-23l34 -100 26 0 0 144 -18 0 0 -121 -42 121 -18 0 -41 -123 0 123 -19 0z"/>
  <path id="6" class="fil3" d="M6305 6299c-6,5 -12,9 -19,12 -6,2 -12,3 -19,3 -12,0 -20,-3 -27,-8 -6,-6 -9,-13 -9,-22 0,-5 1,-10 4,-14 2,-4 5,-7 9,-10 4,-2 8,-4 13,-6 3,-1 8,-1 15,-2 15,-2 25,-4 32,-6 0,-3 0,-4 0,-5 0,-7 -2,-12 -5,-15 -5,-4 -11,-6 -20,-6 -9,0 -15,1 -19,4 -4,3 -7,8 -8,16l-18 -3c2,-7 4,-13 8,-18 4,-4 9,-8 16,-10 7,-3 14,-4 23,-4 9,0 17,1 22,3 6,2 10,5 13,8 2,3 4,7 5,12 1,3 1,9 1,17l0 23c0,16 0,27 1,31 1,5 2,9 4,13l-18 0c-2,-4 -3,-8 -4,-13zm-1 -40c-6,3 -16,5 -29,7 -7,1 -12,2 -15,4 -3,1 -6,3 -7,5 -2,3 -3,6 -3,9 0,4 2,8 5,11 4,4 9,5 16,5 7,0 13,-1 18,-4 6,-3 10,-7 12,-12 2,-4 3,-10 3,-18l0 -7z"/>
  <path id="7" class="fil3" d="M6349 6312l0 -105 16 0 0 16c4,-7 8,-12 11,-14 4,-3 7,-4 11,-4 6,0 13,2 19,6l-7 16c-4,-2 -8,-4 -12,-4 -4,0 -8,2 -11,4 -3,2 -5,5 -6,10 -2,6 -3,13 -3,20l0 55 -18 0z"/>
  <polygon id="8" class="fil3" points="6416,6312 6416,6168 6434,6168 6434,6250 6476,6207 6499,6207 6459,6246 6503,6312 6481,6312 6446,6258 6434,6270 6434,6312 "/>
  <path id="9" class="fil3" d="M6588 6278l18 2c-3,11 -8,19 -16,25 -7,6 -17,9 -29,9 -16,0 -28,-5 -37,-14 -9,-9 -13,-23 -13,-40 0,-17 4,-31 13,-40 9,-10 21,-15 36,-15 13,0 25,5 34,14 8,10 13,23 13,40 0,1 0,3 0,5l-78 0c1,12 4,20 10,26 6,6 13,10 22,10 6,0 12,-2 16,-6 5,-3 8,-8 11,-16zm-58 -28l58 0c-1,-9 -3,-16 -6,-20 -6,-7 -13,-10 -22,-10 -8,0 -15,2 -21,8 -5,5 -8,13 -9,22z"/>
  <path id="10" class="fil3" d="M6667 6296l2 16c-4,1 -9,1 -13,1 -6,0 -11,-1 -15,-3 -3,-2 -6,-5 -7,-8 -2,-3 -2,-10 -2,-21l0 -60 -13 0 0 -14 13 0 0 -25 17 -11 0 36 18 0 0 14 -18 0 0 61c0,5 1,9 1,10 1,1 2,3 3,3 2,1 4,2 6,2 2,0 5,-1 8,-1z"/>
  <path id="11" class="fil3" d="M5475 6520l0 17 -95 0c0,-5 1,-9 2,-13 3,-6 7,-13 12,-19 5,-6 13,-13 23,-22 16,-12 26,-23 32,-30 5,-8 8,-15 8,-21 0,-7 -2,-13 -7,-18 -5,-5 -12,-7 -20,-7 -9,0 -15,2 -21,7 -5,5 -7,12 -7,21l-18 -1c1,-14 5,-24 14,-31 8,-8 19,-11 32,-11 14,0 25,4 33,11 8,8 12,18 12,29 0,6 -1,11 -3,17 -3,6 -7,11 -12,18 -6,6 -15,14 -27,25 -11,9 -18,15 -21,18 -3,3 -5,6 -7,10l70 0z"/>
  <polygon id="12" class="fil3" points="5504,6537 5504,6516 5525,6516 5525,6537 "/>
  <path id="13" class="fil3" d="M5587 6537l55 -144 21 0 58 144 -21 0 -17 -44 -61 0 -15 44 -20 0zm41 -60l49 0 -15 -40c-4,-12 -8,-22 -10,-30 -2,10 -5,19 -8,28l-16 42z"/>
  <path id="14" class="fil3" d="M5803 6537l0 -16c-9,12 -20,18 -33,18 -7,0 -12,-1 -18,-4 -5,-2 -9,-5 -12,-9 -2,-3 -4,-8 -5,-13 -1,-3 -1,-9 -1,-16l0 -65 18 0 0 58c0,9 0,15 1,19 1,4 3,8 7,11 3,2 8,3 13,3 5,0 10,-1 15,-4 5,-2 8,-6 10,-11 2,-4 3,-11 3,-20l0 -56 17 0 0 105 -15 0z"/>
  <path id="15" class="fil3" d="M5846 6537l0 -105 16 0 0 16c4,-7 8,-12 11,-15 4,-2 7,-3 12,-3 6,0 12,2 18,6l-7 16c-4,-3 -8,-4 -12,-4 -4,0 -8,1 -11,4 -3,2 -5,5 -6,9 -2,7 -3,14 -3,21l0 55 -18 0z"/>
  <path id="16" class="fil3" d="M5907 6484c0,-19 5,-33 16,-42 9,-8 20,-12 33,-12 14,0 26,5 35,14 9,9 13,22 13,39 0,13 -2,24 -6,32 -4,7 -10,13 -17,17 -8,5 -16,7 -25,7 -15,0 -27,-5 -36,-14 -9,-10 -13,-23 -13,-41zm18 0c0,14 3,24 8,30 6,7 14,10 23,10 8,0 16,-3 22,-10 5,-6 8,-17 8,-30 0,-13 -3,-23 -9,-29 -5,-7 -13,-10 -21,-10 -9,0 -17,3 -23,10 -5,6 -8,16 -8,29z"/>
  <path id="17" class="fil3" d="M6025 6537l0 -105 16 0 0 16c4,-7 8,-12 11,-15 4,-2 7,-3 11,-3 6,0 13,2 19,6l-7 16c-4,-3 -8,-4 -12,-4 -4,0 -8,1 -11,4 -3,2 -5,5 -6,9 -2,7 -3,14 -3,21l0 55 -18 0z"/>
  <path id="18" class="fil3" d="M6160 6523c-6,6 -13,10 -19,12 -6,3 -12,4 -19,4 -12,0 -20,-3 -27,-9 -6,-5 -9,-12 -9,-21 0,-5 1,-10 4,-14 2,-4 5,-8 9,-10 4,-3 8,-5 13,-6 3,-1 8,-2 15,-3 15,-1 25,-3 32,-6 0,-2 0,-4 0,-4 0,-7 -2,-12 -5,-15 -5,-4 -11,-6 -20,-6 -9,0 -15,1 -19,4 -4,3 -7,8 -9,16l-17 -3c2,-7 4,-13 8,-18 4,-4 9,-8 16,-10 6,-3 14,-4 23,-4 9,0 17,1 22,3 6,2 10,5 12,8 3,3 5,7 6,12 1,3 1,9 1,16l0 24c0,16 0,27 1,31 1,4 2,9 4,13l-18 0c-2,-4 -3,-9 -4,-14zm-1 -39c-6,3 -16,5 -29,7 -7,1 -12,2 -16,3 -3,2 -5,4 -6,6 -2,3 -3,5 -3,9 0,4 2,8 5,11 4,3 9,5 16,5 7,0 13,-2 18,-5 6,-3 10,-7 12,-12 2,-4 3,-10 3,-17l0 -7z"/>
  <path id="19" class="fil3" d="M5383 6723l17 -2c2,10 6,17 11,21 5,5 11,7 18,7 8,0 15,-3 21,-9 6,-5 8,-12 8,-21 0,-8 -2,-15 -8,-20 -5,-5 -12,-8 -20,-8 -3,0 -7,1 -12,2l2 -16c1,1 2,1 2,1 8,0 15,-2 21,-6 6,-4 9,-10 9,-18 0,-7 -2,-12 -7,-16 -4,-5 -10,-7 -17,-7 -7,0 -12,2 -17,7 -5,4 -7,11 -9,19l-17 -3c2,-12 7,-21 14,-28 8,-6 17,-9 29,-9 8,0 15,1 22,5 6,3 11,8 15,13 3,6 5,13 5,19 0,6 -2,12 -5,17 -3,5 -8,9 -15,12 9,2 15,6 20,12 5,7 7,14 7,24 0,12 -5,23 -14,32 -9,8 -20,13 -34,13 -13,0 -24,-4 -32,-12 -8,-7 -13,-17 -14,-29z"/>
  <polygon id="20" class="fil3" points="5504,6761 5504,6741 5525,6741 5525,6761 "/>
  <path id="21" class="fil3" d="M5614 6761l0 -144 64 0c13,0 22,2 29,4 7,3 12,7 16,14 4,6 6,14 6,22 0,10 -3,18 -10,25 -7,7 -17,12 -31,14 5,2 9,5 12,7 5,5 11,11 16,19l25 39 -24 0 -19 -30c-6,-8 -10,-15 -14,-20 -4,-4 -7,-7 -10,-9 -2,-2 -5,-3 -8,-4 -3,0 -6,-1 -11,-1l-22 0 0 64 -19 0zm19 -80l41 0c9,0 15,-1 20,-3 5,-2 9,-5 11,-8 3,-4 4,-9 4,-13 0,-7 -2,-13 -7,-17 -5,-5 -13,-7 -23,-7l-46 0 0 48z"/>
  <path id="22" class="fil3" d="M5757 6637l0 -20 17 0 0 20 -17 0zm0 124l0 -104 17 0 0 104 -17 0z"/>
  <path id="23" class="fil3" d="M5869 6723l18 3c-2,11 -7,21 -15,27 -8,7 -17,11 -29,11 -14,0 -25,-5 -34,-14 -9,-10 -13,-23 -13,-40 0,-12 2,-22 6,-30 3,-8 9,-15 17,-19 7,-4 16,-6 25,-6 11,0 20,3 27,8 8,6 12,14 14,25l-17 2c-2,-7 -4,-12 -9,-16 -4,-3 -9,-5 -15,-5 -9,0 -16,3 -22,10 -5,6 -8,16 -8,30 0,14 3,24 8,31 6,6 13,9 21,9 7,0 13,-2 18,-6 4,-5 7,-11 8,-20z"/>
  <path id="24" class="fil3" d="M5902 6761l0 -144 18 0 0 52c8,-9 18,-14 31,-14 7,0 14,1 20,4 5,3 9,8 12,13 2,5 4,13 4,23l0 66 -18 0 0 -66c0,-8 -2,-15 -6,-19 -4,-4 -9,-6 -16,-6 -5,0 -10,1 -15,4 -4,3 -8,6 -10,11 -1,5 -2,11 -2,19l0 57 -18 0z"/>
  <path id="25" class="fil3" d="M6014 6761l0 -104 16 0 0 15c3,-5 7,-10 13,-13 5,-3 11,-4 18,-4 8,0 14,1 19,5 5,3 9,7 11,13 8,-12 19,-18 32,-18 10,0 18,3 24,8 6,6 8,15 8,27l0 71 -17 0 0 -65c0,-7 -1,-13 -2,-16 -1,-3 -3,-5 -6,-7 -3,-2 -7,-3 -11,-3 -7,0 -13,2 -18,7 -5,5 -8,13 -8,24l0 60 -17 0 0 -67c0,-8 -2,-14 -5,-18 -2,-4 -7,-6 -14,-6 -5,0 -9,1 -14,4 -4,3 -7,6 -9,11 -2,5 -3,13 -3,22l0 54 -17 0z"/>
  <path id="26" class="fil3" d="M6175 6709c0,-19 5,-33 16,-43 9,-7 20,-11 33,-11 14,0 26,4 35,14 9,9 13,22 13,39 0,13 -2,24 -6,31 -4,8 -9,14 -17,18 -8,4 -16,7 -25,7 -15,0 -27,-5 -36,-14 -9,-10 -13,-23 -13,-41zm18 0c0,14 3,24 9,30 5,7 13,10 22,10 8,0 16,-3 22,-10 5,-7 8,-17 8,-30 0,-13 -3,-23 -8,-30 -6,-6 -14,-10 -22,-10 -9,0 -17,4 -22,10 -6,7 -9,17 -9,30z"/>
  <path id="27" class="fil3" d="M6293 6761l0 -104 16 0 0 15c8,-12 19,-17 33,-17 7,0 12,1 18,3 5,2 9,5 11,9 3,4 5,8 6,13 1,3 1,9 1,17l0 64 -18 0 0 -63c0,-7 0,-13 -2,-16 -1,-4 -4,-7 -7,-9 -4,-2 -8,-3 -12,-3 -8,0 -14,2 -20,7 -5,5 -8,14 -8,27l0 57 -18 0z"/>
  <path id="28" class="fil3" d="M6473 6761l0 -13c-7,10 -17,16 -30,16 -8,0 -16,-3 -23,-7 -6,-5 -12,-11 -16,-19 -4,-9 -5,-18 -5,-29 0,-10 1,-20 5,-28 3,-9 8,-15 15,-20 7,-4 15,-6 24,-6 6,0 11,1 16,4 5,2 9,6 12,10l0 -52 18 0 0 144 -16 0zm-56 -52c0,14 2,24 8,30 6,7 12,10 20,10 8,0 14,-3 20,-9 5,-7 8,-16 8,-29 0,-14 -3,-25 -8,-32 -6,-6 -13,-10 -21,-10 -8,0 -14,4 -19,10 -6,6 -8,16 -8,30z"/>
  <polygon id="29" class="fil3" points="6576,6761 6576,6617 6595,6617 6595,6677 6670,6677 6670,6617 6689,6617 6689,6761 6670,6761 6670,6694 6595,6694 6595,6761 "/>
  <path id="30" class="fil3" d="M6718 6637l0 -20 18 0 0 20 -18 0zm0 124l0 -104 18 0 0 104 -18 0z"/>
  <polygon id="31" class="fil3" points="6763,6761 6763,6617 6780,6617 6780,6761 "/>
  <polygon id="32" class="fil3" points="6807,6761 6807,6617 6825,6617 6825,6761 "/>
 </g>
</svg>
