<?xml version="1.0" encoding="UTF-8"?>
<!DOCTYPE svg PUBLIC "-//W3C//DTD SVG 1.1//EN" "http://www.w3.org/Graphics/SVG/1.1/DTD/svg11.dtd">
<!-- Creator: CorelDRAW X7 -->
<svg xmlns="http://www.w3.org/2000/svg" xml:space="preserve" width="3.52777in" height="1.38889in" version="1.1" style="shape-rendering:geometricPrecision; text-rendering:geometricPrecision; image-rendering:optimizeQuality; fill-rule:evenodd; clip-rule:evenodd"
viewBox="0 0 3528 1389"
 xmlns:xlink="http://www.w3.org/1999/xlink">
 <defs>
  <style type="text/css">
   <![CDATA[
    .fil7 {fill:none}
    .fil6 {fill:#373435}
    .fil5 {fill:#373435;fill-rule:nonzero}
    .fil1 {fill:url(#id4)}
    .fil2 {fill:url(#id5)}
    .fil4 {fill:url(#id6)}
    .fil0 {fill:url(#id7)}
    .fil3 {fill:url(#id8)}
   ]]>
  </style>
   <mask id="id0">
  <linearGradient id="id1" gradientUnits="userSpaceOnUse" x1="285.221" y1="869.793" x2="540.308" y2="562.78">
   <stop offset="0" style="stop-opacity:1; stop-color:white"/>
   <stop offset="1" style="stop-opacity:0; stop-color:white"/>
  </linearGradient>
    <rect style="fill:url(#id1)" x="334" y="392" width="399" height="631"/>
   </mask>
   <mask id="id2">
  <linearGradient id="id3" gradientUnits="userSpaceOnUse" x1="-49.5113" y1="935.857" x2="824.932" y2="537.061">
   <stop offset="0" style="stop-opacity:1; stop-color:white"/>
   <stop offset="1" style="stop-opacity:0; stop-color:white"/>
  </linearGradient>
    <rect style="fill:url(#id3)" x="356" y="424" width="292" height="599"/>
   </mask>
  <linearGradient id="id4" gradientUnits="userSpaceOnUse" x1="-58.588" y1="567.276" x2="653.359" y2="567.276">
   <stop offset="0" style="stop-opacity:1; stop-color:#CA373C"/>
   <stop offset="0.411765" style="stop-opacity:1; stop-color:#ED3237"/>
   <stop offset="0.709804" style="stop-opacity:1; stop-color:#F1624B"/>
   <stop offset="1" style="stop-opacity:1; stop-color:#FCD3C2"/>
  </linearGradient>
  <linearGradient id="id5" gradientUnits="userSpaceOnUse" xlink:href="#id4" x1="-129.339" y1="423.697" x2="491.299" y2="423.697">
  </linearGradient>
  <linearGradient id="id6" gradientUnits="userSpaceOnUse" x1="648.611" y1="752.796" x2="341.055" y2="752.796">
   <stop offset="0" style="stop-opacity:1; stop-color:#5BB8E8"/>
   <stop offset="0.658824" style="stop-opacity:1; stop-color:#4DC8F4"/>
   <stop offset="1" style="stop-opacity:1; stop-color:#FEFEFE"/>
  </linearGradient>
  <radialGradient id="id7" gradientUnits="userSpaceOnUse" gradientTransform="matrix(0.83509 -0 -0 0.835095 87 141)" cx="529.016" cy="854.256" r="329.189" fx="529.016" fy="854.256">
   <stop offset="0" style="stop-opacity:1; stop-color:#C7EAFB"/>
   <stop offset="0.278431" style="stop-opacity:1; stop-color:#76C6EF"/>
   <stop offset="0.458824" style="stop-opacity:1; stop-color:#5BB8E8"/>
   <stop offset="0.670588" style="stop-opacity:1; stop-color:#0081B8"/>
   <stop offset="1" style="stop-opacity:1; stop-color:#2E5790"/>
  </radialGradient>
  <radialGradient id="id8" gradientUnits="userSpaceOnUse" gradientTransform="matrix(1.40419 -0 -0 1.40419 -214 -322)" xlink:href="#id7" cx="529.882" cy="795.717" r="315.492" fx="529.882" fy="795.717">
  </radialGradient>
 </defs>
 <g id="Layer_x0020_1">
  <metadata id="CorelCorpID_0Corel-Layer"/>
  <path class="fil0" d="M537 374c-24,148 -200,311 -211,424 -9,101 68,234 209,234 143,0 224,-129 213,-233 -11,-115 -183,-278 -211,-425z"/>
  <path class="fil1" d="M353 137c163,159 -185,413 -200,587 -14,174 117,236 206,273 -50,-42 -91,-117 -83,-204 13,-163 336,-400 173,-556l-96 -100z"/>
  <path class="fil2" d="M225 64c190,165 -354,441 -103,720 -103,-193 369,-487 189,-643l-86 -77z"/>
  <path class="fil3" style="mask:url(#id0)" d="M540 392c-32,142 -195,296 -205,406 -8,98 74,225 199,225 133,0 208,-117 198,-218 -10,-112 -166,-270 -192,-413z"/>
  <path class="fil4" style="mask:url(#id2)" d="M358 798c-19,175 157,283 291,192 -117,50 -253,-26 -251,-173 1,-126 114,-262 145,-393 -103,259 -175,278 -185,374z"/>
  <polygon class="fil5" points="140,1345 140,1148 173,1148 173,1226 237,1226 237,1148 269,1148 269,1345 237,1345 237,1259 173,1259 173,1345 "/>
  <polygon id="1" class="fil5" points="303,1345 303,1148 422,1148 422,1181 335,1181 335,1225 416,1225 416,1258 335,1258 335,1311 425,1311 425,1345 "/>
  <path id="2" class="fil5" d="M598 1345l-36 0 -13 -45 -65 0 -13 45 -35 0 63 -197 34 0 65 197zm-60 -78l-22 -73 -22 73 44 0z"/>
  <polygon id="3" class="fil5" points="635,1345 635,1181 587,1181 587,1148 715,1148 715,1181 667,1181 667,1345 "/>
  <polygon id="4" class="fil5" points="735,1345 735,1148 767,1148 767,1345 "/>
  <polygon id="5" class="fil5" points="799,1345 799,1148 830,1148 896,1279 896,1148 927,1148 927,1345 894,1345 829,1217 829,1345 "/>
  <path id="6" class="fil5" d="M1035 1272l0 -33 71 0 0 78c-7,9 -17,16 -30,22 -13,6 -26,9 -39,9 -16,0 -30,-4 -42,-12 -13,-8 -22,-19 -29,-35 -7,-16 -11,-34 -11,-55 0,-21 4,-40 11,-55 7,-16 16,-27 28,-35 11,-7 25,-11 41,-11 19,0 35,5 46,15 12,9 19,24 22,43l-32 7c-2,-10 -6,-18 -13,-23 -6,-5 -14,-8 -23,-8 -14,0 -25,5 -34,16 -8,11 -12,27 -12,49 0,24 4,42 13,54 8,10 19,16 33,16 6,0 13,-2 19,-5 7,-3 13,-7 19,-12l0 -25 -38 0z"/>
  <path id="7" class="fil5" d="M1340 1321l-18 29c-9,-6 -18,-13 -27,-23 -6,7 -14,13 -21,16 -7,3 -16,5 -25,5 -20,0 -34,-6 -44,-18 -9,-12 -14,-25 -14,-39 0,-26 13,-46 37,-61 -11,-15 -17,-30 -17,-43 0,-12 5,-22 13,-30 8,-8 19,-12 33,-12 13,0 23,4 32,12 8,9 12,19 12,32 0,9 -2,17 -6,24 -4,7 -12,15 -23,23l22 36c3,-5 5,-13 7,-22l28 8c-4,19 -9,32 -14,40 3,4 8,8 13,13 6,5 10,8 12,10zm-84 -107l9 -8c6,-6 9,-11 9,-17 0,-5 -2,-9 -5,-13 -3,-3 -7,-5 -12,-5 -4,0 -8,2 -11,5 -3,3 -4,6 -4,10 0,5 2,11 7,17l7 11zm-12 41c-7,4 -12,9 -16,15 -3,6 -5,13 -5,19 0,9 2,15 7,20 4,5 10,8 17,8 9,0 19,-5 29,-15l-32 -47z"/>
  <path id="8" class="fil5" d="M1560 1345l-35 0 -14 -45 -65 0 -13 45 -35 0 63 -197 34 0 65 197zm-60 -78l-22 -73 -22 73 44 0z"/>
  <polygon id="9" class="fil5" points="1576,1345 1576,1148 1608,1148 1608,1345 "/>
  <path id="10" class="fil5" d="M1639 1345l0 -197 69 0c17,0 30,2 37,5 8,4 14,10 19,19 5,9 7,19 7,31 0,15 -4,28 -11,37 -7,10 -18,15 -31,18 7,5 12,10 17,16 4,6 11,17 19,32l19 39 -39 0 -23 -43c-9,-16 -14,-25 -18,-29 -3,-4 -6,-7 -9,-8 -4,-2 -9,-2 -16,-2l-7 0 0 82 -33 0zm33 -114l24 0c15,0 24,0 28,-2 4,-1 7,-4 10,-8 2,-3 4,-9 4,-15 0,-6 -2,-12 -4,-15 -3,-4 -6,-7 -10,-8 -3,-1 -12,-2 -27,-2l-25 0 0 50z"/>
  <path id="11" class="fil5" d="M1967 1272l32 12c-5,22 -13,38 -25,49 -11,10 -25,15 -42,15 -21,0 -38,-8 -51,-24 -15,-19 -23,-44 -23,-76 0,-33 8,-60 23,-78 13,-17 31,-25 53,-25 18,0 33,6 45,18 9,9 15,22 19,39l-32 10c-2,-11 -6,-19 -12,-25 -6,-5 -13,-8 -22,-8 -12,0 -21,5 -29,15 -7,11 -11,28 -11,52 0,24 4,42 11,52 7,11 17,16 28,16 9,0 16,-4 23,-10 6,-7 10,-17 13,-32z"/>
  <path id="12" class="fil5" d="M2020 1248c0,-24 3,-43 10,-58 7,-15 16,-27 27,-34 12,-7 25,-11 41,-11 23,0 42,9 56,26 15,18 22,43 22,75 0,33 -8,59 -23,77 -14,17 -32,25 -55,25 -23,0 -42,-8 -55,-24 -15,-19 -23,-44 -23,-76zm33 -2c0,23 5,40 13,51 9,11 19,17 32,17 13,0 24,-6 32,-17 8,-11 12,-28 12,-51 0,-23 -4,-40 -12,-51 -8,-11 -19,-16 -32,-16 -13,0 -24,5 -32,16 -8,11 -13,28 -13,51z"/>
  <polygon id="13" class="fil5" points="2202,1345 2202,1148 2234,1148 2300,1279 2300,1148 2330,1148 2330,1345 2297,1345 2232,1217 2232,1345 "/>
  <path id="14" class="fil5" d="M2363 1148l60 0c15,0 26,2 34,5 7,4 14,9 21,17 6,8 11,18 15,31 4,13 5,29 5,47 0,17 -2,32 -5,45 -4,12 -9,22 -15,29 -6,8 -13,13 -21,17 -9,4 -19,6 -33,6l-61 0 0 -197zm33 33l0 130 24 0c11,0 18,-1 23,-3 5,-2 9,-5 12,-9 3,-3 5,-10 7,-18 2,-9 3,-20 3,-34 0,-15 -1,-26 -3,-35 -2,-8 -5,-15 -9,-19 -5,-5 -10,-8 -16,-10 -5,-1 -13,-2 -26,-2l-15 0z"/>
  <polygon id="15" class="fil5" points="2525,1345 2525,1148 2557,1148 2557,1345 "/>
  <polygon id="16" class="fil5" points="2625,1345 2625,1181 2577,1181 2577,1148 2705,1148 2705,1181 2657,1181 2657,1345 "/>
  <polygon id="17" class="fil5" points="2725,1345 2725,1148 2757,1148 2757,1345 "/>
  <path id="18" class="fil5" d="M2782 1248c0,-24 3,-43 10,-58 7,-15 16,-27 27,-34 11,-7 25,-11 41,-11 23,0 42,9 56,26 15,18 22,43 22,75 0,33 -8,59 -23,77 -14,17 -32,25 -55,25 -23,0 -42,-8 -55,-24 -15,-19 -23,-44 -23,-76zm33 -2c0,23 5,40 13,51 9,11 19,17 32,17 13,0 23,-6 32,-17 8,-11 12,-28 12,-51 0,-23 -4,-40 -12,-51 -8,-11 -19,-16 -32,-16 -13,0 -24,5 -32,16 -9,11 -13,28 -13,51z"/>
  <polygon id="19" class="fil5" points="2964,1345 2964,1148 2995,1148 3062,1279 3062,1148 3092,1148 3092,1345 3059,1345 2994,1217 2994,1345 "/>
  <polygon id="20" class="fil5" points="3125,1345 3125,1148 3157,1148 3157,1345 "/>
  <polygon id="21" class="fil5" points="3189,1345 3189,1148 3220,1148 3286,1279 3286,1148 3317,1148 3317,1345 3284,1345 3219,1217 3219,1345 "/>
  <path id="22" class="fil5" d="M3425 1272l0 -33 71 0 0 78c-8,9 -18,16 -30,22 -13,6 -26,9 -39,9 -16,0 -30,-4 -42,-12 -13,-8 -22,-19 -29,-35 -7,-16 -11,-34 -11,-55 0,-21 4,-40 11,-55 7,-16 16,-27 28,-35 11,-7 25,-11 41,-11 19,0 34,5 46,15 12,9 19,24 22,43l-32 7c-2,-10 -7,-18 -13,-23 -6,-5 -14,-8 -23,-8 -14,0 -25,5 -34,16 -8,11 -13,27 -13,49 0,24 5,42 14,54 8,10 19,16 33,16 6,0 13,-2 19,-5 7,-3 13,-7 19,-12l0 -25 -38 0z"/>
  <path class="fil6" d="M891 618l0 415 -163 0 0 -43c1,-1 2,-2 3,-3 40,-49 62,-111 62,-170 0,-6 -1,-14 -2,-23l0 0c-4,-49 -30,-100 -63,-154l0 -268 66 0 0 0 79 0 354 394 0 -394 163 0 0 661 -129 0 -370 -415zm821 173l195 0 -92 -251 -103 251zm-276 242l288 -661 190 0 258 661 -176 0 -47 -129 -284 0 -53 129 -176 0zm771 -53l0 -147c49,31 91,53 125,65 35,12 68,18 100,18 32,0 57,-5 74,-14 16,-10 25,-25 25,-45 0,-15 -6,-28 -16,-38 -10,-9 -35,-21 -73,-34 -94,-33 -159,-67 -194,-101 -35,-35 -53,-79 -53,-132 0,-56 23,-102 69,-137 46,-36 106,-53 180,-53 38,0 75,4 113,13 38,10 75,23 112,41l0 135c-45,-22 -84,-39 -120,-49 -35,-11 -67,-16 -96,-16 -31,0 -55,4 -72,13 -16,9 -25,22 -25,39 0,14 8,27 23,39 14,12 37,24 67,35 6,2 15,6 28,11 63,23 108,43 136,60 29,17 50,40 65,68 14,28 22,60 22,97 0,61 -23,109 -69,144 -47,35 -111,52 -192,52 -41,0 -81,-5 -119,-16 -38,-10 -75,-26 -110,-48zm780 -189l195 0 -93 -251 -102 251zm-277 242l288 -661 191 0 257 661 -175 0 -47 -129 -285 0 -52 129 -177 0z"/>
  <rect class="fil7" x="-28" y="38" width="3585" height="1368"/>
 </g>
</svg>
