<?xml version="1.0" encoding="UTF-8"?>
<!DOCTYPE svg PUBLIC "-//W3C//DTD SVG 1.1//EN" "http://www.w3.org/Graphics/SVG/1.1/DTD/svg11.dtd">
<!-- Creator: CorelDRAW X7 -->
<svg xmlns="http://www.w3.org/2000/svg" xml:space="preserve" width="5.55555in" height="1.38889in" version="1.1" style="shape-rendering:geometricPrecision; text-rendering:geometricPrecision; image-rendering:optimizeQuality; fill-rule:evenodd; clip-rule:evenodd"
viewBox="0 0 5556 1389"
 xmlns:xlink="http://www.w3.org/1999/xlink">
 <defs>
  <style type="text/css">
   <![CDATA[
    .fil2 {fill:#1A1A1A}
    .fil5 {fill:white}
    .fil0 {fill:black;fill-rule:nonzero}
    .fil1 {fill:#1A1A1A;fill-rule:nonzero}
    .fil4 {fill:url(#id6)}
    .fil6 {fill:url(#id7)}
    .fil3 {fill:url(#id8)}
   ]]>
  </style>
    <mask id="id0">
  <linearGradient id="id1" gradientUnits="userSpaceOnUse" x1="1743.62" y1="393.537" x2="1625.19" y2="628.424">
   <stop offset="0" style="stop-opacity:1; stop-color:white"/>
   <stop offset="0.458824" style="stop-opacity:-7.03137; stop-color:white"/>
   <stop offset="1" style="stop-opacity:0; stop-color:white"/>
  </linearGradient>
     <rect style="fill:url(#id1)" x="1457" y="419" width="372" height="266"/>
    </mask>
    <mask id="id2">
  <linearGradient id="id3" gradientUnits="userSpaceOnUse" x1="1279.98" y1="606.891" x2="1363.25" y2="634.146">
   <stop offset="0" style="stop-opacity:1; stop-color:white"/>
   <stop offset="0.639216" style="stop-opacity:-7.03137; stop-color:white"/>
   <stop offset="1" style="stop-opacity:0; stop-color:white"/>
  </linearGradient>
     <rect style="fill:url(#id3)" x="1306" y="458" width="165" height="362"/>
    </mask>
    <mask id="id4">
  <linearGradient id="id5" gradientUnits="userSpaceOnUse" x1="1822.54" y1="907.515" x2="1783.78" y2="866.146">
   <stop offset="0" style="stop-opacity:1; stop-color:white"/>
   <stop offset="1" style="stop-opacity:0; stop-color:white"/>
  </linearGradient>
     <rect style="fill:url(#id5)" x="1666" y="731" width="191" height="241"/>
    </mask>
  <linearGradient id="id6" gradientUnits="userSpaceOnUse" x1="1823" y1="613.583" x2="1462.68" y2="489.921">
   <stop offset="0" style="stop-opacity:1; stop-color:#FEFEFE"/>
   <stop offset="1" style="stop-opacity:1; stop-color:#FEFEFE"/>
  </linearGradient>
  <linearGradient id="id7" gradientUnits="userSpaceOnUse" xlink:href="#id6" x1="1805.67" y1="887.859" x2="1752.49" y2="850.102">
  </linearGradient>
  <radialGradient id="id8" gradientUnits="userSpaceOnUse" gradientTransform="matrix(1.38539 -0 -0 1.38539 -569 -239)" cx="1476.96" cy="619.933" r="693.11" fx="1476.96" fy="619.933">
   <stop offset="0" style="stop-opacity:1; stop-color:#FEFEFE"/>
   <stop offset="0.411765" style="stop-opacity:1; stop-color:#79C9D9"/>
   <stop offset="0.701961" style="stop-opacity:1; stop-color:#009E8B"/>
   <stop offset="1" style="stop-opacity:1; stop-color:#076E66"/>
  </radialGradient>
 </defs>
 <g id="Layer_x0020_1">
  <metadata id="CorelCorpID_0Corel-Layer"/>
  <path class="fil0" d="M2023 327l13 -1c1,6 3,11 7,14 3,3 8,5 13,5 6,0 11,-2 15,-7 4,-4 6,-10 6,-18 0,-7 -2,-13 -6,-17 -4,-4 -9,-6 -15,-6 -4,0 -8,1 -11,3 -3,2 -6,4 -8,7l-12 -2 10 -52 51 0 0 12 -41 0 -5 27c6,-4 12,-6 19,-6 9,0 16,3 22,9 6,6 10,14 10,24 0,9 -3,17 -8,24 -7,8 -16,12 -27,12 -9,0 -17,-2 -23,-8 -6,-5 -9,-12 -10,-20z"/>
  <path id="1" class="fil0" d="M2122 298c-6,-2 -10,-4 -12,-8 -3,-3 -4,-8 -4,-13 0,-7 3,-13 8,-18 6,-5 13,-8 21,-8 9,0 16,3 22,8 5,5 8,11 8,19 0,5 -1,9 -4,12 -2,4 -6,6 -11,8 6,2 11,6 14,10 4,5 5,10 5,16 0,9 -3,16 -9,22 -6,6 -14,9 -24,9 -10,0 -19,-3 -25,-9 -6,-6 -9,-13 -9,-22 0,-7 2,-12 5,-17 4,-4 8,-7 15,-9zm-3 -21c0,5 2,9 5,12 3,3 7,4 12,4 5,0 9,-1 12,-4 3,-3 4,-7 4,-11 0,-5 -1,-9 -5,-12 -3,-3 -7,-5 -11,-5 -5,0 -9,2 -12,5 -3,3 -5,7 -5,11zm-4 47c0,4 1,7 2,10 2,4 5,6 8,8 3,2 7,3 11,3 6,0 11,-2 15,-6 3,-4 5,-9 5,-14 0,-6 -2,-11 -6,-15 -4,-4 -9,-6 -15,-6 -6,0 -10,2 -14,6 -4,3 -6,8 -6,14z"/>
  <path id="2" class="fil0" d="M2182 265l0 -12 66 0 0 10c-6,6 -13,16 -19,27 -7,12 -12,23 -15,35 -3,9 -4,18 -5,29l-13 0c0,-9 2,-18 5,-30 3,-11 7,-22 13,-32 6,-11 12,-20 18,-27l-50 0z"/>
  <path id="3" class="fil0" d="M2308 354l-13 0 0 -80c-3,3 -7,6 -12,8 -5,3 -9,5 -13,7l0 -12c7,-4 13,-8 18,-12 6,-5 9,-9 11,-14l9 0 0 103z"/>
  <polygon id="4" class="fil0" points="2385,354 2385,252 2454,252 2454,264 2398,264 2398,295 2446,295 2446,307 2398,307 2398,354 "/>
  <path id="5" class="fil0" d="M2470 266l0 -14 12 0 0 14 -12 0zm0 88l0 -74 12 0 0 74 -12 0z"/>
  <path id="6" class="fil0" d="M2552 330l13 1c-2,8 -6,14 -12,18 -5,4 -12,6 -21,6 -11,0 -19,-3 -25,-10 -7,-7 -10,-16 -10,-28 0,-12 3,-22 10,-29 6,-7 14,-10 25,-10 9,0 17,3 24,10 6,7 9,16 9,28 0,1 0,2 0,4l-55 0c0,8 3,14 7,18 4,5 9,7 15,7 5,0 9,-1 12,-4 3,-2 6,-6 8,-11zm-41 -20l41 0c-1,-7 -2,-11 -5,-14 -4,-5 -9,-8 -15,-8 -6,0 -11,2 -15,6 -4,4 -6,9 -6,16z"/>
  <polygon id="7" class="fil0" points="2580,354 2580,252 2593,252 2593,354 "/>
  <path id="8" class="fil0" d="M2660 354l0 -10c-5,7 -12,11 -21,11 -6,0 -11,-2 -16,-5 -5,-3 -9,-8 -12,-13 -2,-6 -4,-13 -4,-20 0,-8 2,-14 4,-20 3,-6 6,-11 11,-14 5,-3 10,-5 17,-5 4,0 8,1 11,3 4,2 7,4 9,7l0 -36 12 0 0 102 -11 0zm-40 -37c0,9 2,16 6,21 4,4 9,7 14,7 6,0 10,-2 14,-7 4,-4 6,-11 6,-20 0,-10 -2,-18 -6,-22 -4,-5 -9,-8 -14,-8 -6,0 -10,3 -14,7 -4,5 -6,12 -6,22z"/>
  <path id="9" class="fil0" d="M2726 317c0,-14 4,-24 11,-31 7,-5 15,-8 24,-8 10,0 18,3 25,10 6,7 9,16 9,28 0,9 -1,16 -4,22 -3,5 -7,10 -12,13 -6,3 -12,4 -18,4 -11,0 -19,-3 -25,-10 -7,-6 -10,-16 -10,-28zm13 0c0,9 2,16 6,21 4,4 9,7 16,7 6,0 11,-3 15,-7 4,-5 6,-12 6,-22 0,-9 -2,-16 -6,-21 -4,-4 -9,-7 -15,-7 -7,0 -12,3 -16,7 -4,5 -6,12 -6,22z"/>
  <path id="10" class="fil0" d="M2810 354l0 -74 11 0 0 10c6,-8 13,-12 24,-12 4,0 8,1 12,2 4,2 6,4 8,7 2,2 3,5 4,9 1,2 1,6 1,12l0 46 -13 0 0 -45c0,-5 0,-9 -1,-12 -1,-2 -3,-4 -5,-6 -3,-1 -6,-2 -9,-2 -5,0 -10,2 -14,5 -4,3 -6,10 -6,19l0 41 -12 0z"/>
  <path id="11" class="fil0" d="M2930 354l0 -102 46 0c9,0 16,1 20,2 5,2 9,5 12,10 3,5 4,10 4,15 0,8 -2,14 -7,19 -5,5 -12,8 -22,9 4,2 7,4 8,5 4,4 8,8 12,14l17 28 -17 0 -13 -22c-4,-6 -7,-11 -10,-14 -2,-3 -5,-5 -7,-7 -2,-1 -4,-2 -6,-2 -1,-1 -4,-1 -7,-1l-16 0 0 46 -14 0zm14 -57l29 0c6,0 11,-1 14,-2 4,-2 6,-4 8,-6 2,-3 3,-6 3,-10 0,-4 -2,-8 -5,-12 -4,-3 -9,-4 -17,-4l-32 0 0 34z"/>
  <path id="12" class="fil0" d="M3079 354l0 -10c-5,7 -11,11 -21,11 -5,0 -11,-2 -16,-5 -5,-3 -8,-8 -11,-13 -3,-6 -4,-13 -4,-20 0,-8 1,-14 3,-20 3,-6 7,-11 11,-14 5,-3 11,-5 17,-5 4,0 8,1 12,3 3,2 6,4 8,7l0 -36 13 0 0 102 -12 0zm-39 -37c0,9 2,16 6,21 4,4 8,7 14,7 5,0 10,-2 14,-7 3,-4 5,-11 5,-20 0,-10 -2,-18 -5,-22 -4,-5 -9,-8 -15,-8 -5,0 -10,3 -14,7 -4,5 -5,12 -5,22z"/>
  <path id="13" class="fil0" d="M3114 354l0 -15 14 0 0 15c0,5 -1,9 -3,12 -2,3 -5,6 -9,8l-3 -6c3,-1 5,-3 6,-5 1,-2 2,-5 2,-9l-7 0z"/>
  <path id="14" class="fil0" d="M3191 354l0 -102 20 0 24 72c3,6 4,11 5,15 1,-4 3,-9 6,-17l24 -70 18 0 0 102 -13 0 0 -86 -30 86 -12 0 -29 -87 0 87 -13 0z"/>
  <path id="15" class="fil0" d="M3308 266l0 -14 13 0 0 14 -13 0zm0 88l0 -74 13 0 0 74 -13 0z"/>
  <path id="16" class="fil0" d="M3335 331l12 -2c1,5 3,9 6,12 3,2 8,4 13,4 6,0 10,-1 13,-4 3,-2 4,-5 4,-8 0,-3 -1,-5 -3,-7 -2,-1 -6,-2 -13,-4 -9,-2 -16,-4 -19,-6 -4,-2 -6,-4 -8,-7 -2,-3 -3,-6 -3,-10 0,-3 1,-6 2,-9 2,-3 4,-5 6,-7 2,-1 5,-2 8,-3 4,-1 7,-2 11,-2 6,0 11,1 15,3 5,1 8,4 10,6 2,3 4,7 4,12l-12 2c0,-4 -2,-7 -5,-9 -2,-3 -6,-4 -11,-4 -6,0 -10,1 -12,3 -3,2 -4,4 -4,7 0,1 1,3 2,4 1,2 2,3 4,4 2,0 5,1 11,3 9,2 15,4 19,6 3,1 6,3 8,6 2,3 3,7 3,11 0,4 -1,8 -3,12 -3,3 -6,6 -11,8 -5,2 -10,3 -16,3 -9,0 -16,-2 -21,-6 -5,-4 -9,-10 -10,-18z"/>
  <path id="17" class="fil0" d="M3406 331l12 -2c1,5 3,9 6,12 3,2 8,4 14,4 5,0 10,-1 12,-4 3,-2 5,-5 5,-8 0,-3 -2,-5 -4,-7 -2,-1 -6,-2 -13,-4 -9,-2 -15,-4 -19,-6 -4,-2 -6,-4 -8,-7 -2,-3 -3,-6 -3,-10 0,-3 1,-6 2,-9 2,-3 4,-5 7,-7 2,-1 4,-2 8,-3 3,-1 7,-2 10,-2 6,0 11,1 16,3 4,1 7,4 9,6 2,3 4,7 5,12l-13 2c0,-4 -2,-7 -4,-9 -3,-3 -7,-4 -12,-4 -5,0 -10,1 -12,3 -2,2 -4,4 -4,7 0,1 1,3 2,4 1,2 2,3 5,4 1,0 5,1 11,3 8,2 15,4 18,6 4,1 6,3 8,6 2,3 3,7 3,11 0,4 -1,8 -3,12 -3,3 -6,6 -11,8 -4,2 -10,3 -15,3 -10,0 -17,-2 -22,-6 -5,-4 -9,-10 -10,-18z"/>
  <path id="18" class="fil0" d="M3482 266l0 -14 13 0 0 14 -13 0zm0 88l0 -74 13 0 0 74 -13 0z"/>
  <path id="19" class="fil0" d="M3509 331l12 -2c1,5 3,9 6,12 3,2 8,4 13,4 6,0 10,-1 13,-4 3,-2 4,-5 4,-8 0,-3 -1,-5 -3,-7 -2,-1 -6,-2 -13,-4 -9,-2 -16,-4 -19,-6 -4,-2 -6,-4 -8,-7 -2,-3 -3,-6 -3,-10 0,-3 1,-6 2,-9 2,-3 4,-5 6,-7 2,-1 5,-2 8,-3 4,-1 7,-2 11,-2 6,0 11,1 15,3 5,1 8,4 10,6 2,3 4,7 4,12l-12 2c0,-4 -2,-7 -5,-9 -2,-3 -6,-4 -11,-4 -6,0 -10,1 -12,3 -3,2 -4,4 -4,7 0,1 1,3 2,4 1,2 2,3 4,4 2,0 5,1 11,3 9,2 15,4 19,6 3,1 6,3 8,6 2,3 3,7 3,11 0,4 -1,8 -3,12 -3,3 -6,6 -11,8 -5,2 -10,3 -16,3 -9,0 -16,-2 -22,-6 -5,-4 -8,-10 -9,-18z"/>
  <path id="20" class="fil0" d="M3580 331l12 -2c1,5 3,9 6,12 3,2 8,4 14,4 5,0 10,-1 12,-4 3,-2 5,-5 5,-8 0,-3 -2,-5 -4,-7 -2,-1 -6,-2 -13,-4 -9,-2 -15,-4 -19,-6 -4,-2 -6,-4 -8,-7 -2,-3 -3,-6 -3,-10 0,-3 1,-6 2,-9 2,-3 4,-5 7,-7 2,-1 4,-2 8,-3 3,-1 6,-2 10,-2 6,0 11,1 16,3 4,1 7,4 9,6 2,3 4,7 5,12l-13 2c0,-4 -2,-7 -5,-9 -2,-3 -6,-4 -11,-4 -6,0 -10,1 -12,3 -2,2 -4,4 -4,7 0,1 1,3 2,4 1,2 2,3 5,4 1,0 4,1 11,3 8,2 15,4 18,6 4,1 6,3 8,6 2,3 3,7 3,11 0,4 -1,8 -3,12 -3,3 -6,6 -11,8 -4,2 -10,3 -15,3 -10,0 -17,-2 -22,-6 -5,-4 -9,-10 -10,-18z"/>
  <path id="21" class="fil0" d="M3704 344c-4,4 -9,7 -13,9 -4,1 -9,2 -14,2 -8,0 -14,-2 -19,-6 -4,-4 -6,-9 -6,-15 0,-4 1,-7 2,-10 2,-3 4,-5 7,-7 3,-2 6,-3 9,-4 2,-1 6,-1 11,-2 10,-1 18,-3 22,-4 0,-2 0,-3 0,-4 0,-5 -1,-8 -3,-10 -3,-3 -8,-5 -14,-5 -6,0 -11,1 -13,4 -3,2 -5,5 -7,11l-12 -2c1,-5 3,-10 6,-13 2,-3 6,-6 11,-7 4,-2 10,-3 16,-3 7,0 12,1 16,2 4,2 7,4 9,6 1,2 3,5 3,8 1,3 1,6 1,12l0 17c0,11 0,18 1,22 0,3 1,6 3,9l-13 0c-1,-3 -2,-6 -3,-10zm-1 -28c-4,2 -11,4 -20,5 -5,1 -9,2 -11,3 -2,1 -4,2 -5,4 -1,1 -2,3 -2,6 0,3 2,6 4,8 3,2 6,3 11,3 5,0 9,-1 13,-3 4,-2 7,-5 8,-8 2,-3 2,-7 2,-13l0 -5z"/>
  <path id="22" class="fil0" d="M3784 354l0 -11c-6,8 -14,12 -24,12 -4,0 -8,-1 -12,-2 -4,-2 -7,-4 -8,-7 -2,-2 -3,-5 -4,-9 -1,-2 -1,-6 -1,-12l0 -45 13 0 0 41c0,6 0,10 0,13 1,3 3,6 5,7 3,2 6,3 10,3 4,0 7,-1 10,-3 4,-2 6,-4 7,-7 2,-4 2,-9 2,-15l0 -39 13 0 0 74 -11 0z"/>
  <path id="23" class="fil0" d="M3812 360l12 1c1,4 2,7 5,9 3,2 7,3 12,3 6,0 11,-1 14,-3 3,-3 5,-6 6,-10 1,-3 1,-8 1,-16 -5,6 -12,10 -20,10 -11,0 -18,-4 -24,-11 -6,-8 -8,-17 -8,-27 0,-7 1,-13 3,-19 3,-6 7,-11 12,-14 4,-3 10,-5 17,-5 8,0 16,4 21,11l0 -9 12 0 0 63c0,12 -1,20 -4,25 -2,5 -6,8 -11,11 -5,3 -11,4 -19,4 -8,0 -16,-2 -21,-6 -5,-3 -8,-9 -8,-17zm10 -45c0,10 2,17 6,21 4,5 9,7 15,7 5,0 10,-2 14,-7 4,-4 6,-11 6,-20 0,-9 -2,-16 -6,-21 -4,-4 -9,-7 -14,-7 -6,0 -11,3 -15,7 -4,5 -6,11 -6,20z"/>
  <path id="24" class="fil0" d="M3942 344c-5,4 -9,7 -13,9 -5,1 -9,2 -14,2 -8,0 -15,-2 -19,-6 -4,-4 -7,-9 -7,-15 0,-4 1,-7 3,-10 2,-3 4,-5 6,-7 3,-2 6,-3 9,-4 3,-1 7,-1 12,-2 10,-1 17,-3 22,-4 0,-2 0,-3 0,-4 0,-5 -1,-8 -4,-10 -3,-3 -8,-5 -14,-5 -6,0 -10,1 -13,4 -3,2 -5,5 -6,11l-12 -2c1,-5 2,-10 5,-13 3,-3 6,-6 11,-7 5,-2 11,-3 17,-3 6,0 11,1 15,2 4,2 7,4 9,6 2,2 3,5 4,8 0,3 1,6 1,12l0 17c0,11 0,18 0,22 1,3 2,6 3,9l-13 0c-1,-3 -2,-6 -2,-10zm-1 -28c-5,2 -11,4 -21,5 -5,1 -8,2 -11,3 -2,1 -3,2 -4,4 -2,1 -2,3 -2,6 0,3 1,6 4,8 2,2 6,3 11,3 5,0 9,-1 13,-3 3,-2 6,-5 8,-8 1,-3 2,-7 2,-13l0 -5z"/>
  <path id="25" class="fil0" d="M3976 354l0 -15 14 0 0 15c0,5 -1,9 -2,12 -2,3 -5,6 -9,8l-4 -6c3,-1 5,-3 6,-5 1,-2 2,-5 2,-9l-7 0z"/>
  <path id="26" class="fil0" d="M4049 304c0,-17 5,-30 14,-40 9,-9 21,-14 35,-14 10,0 18,2 26,7 7,4 13,10 17,18 4,8 6,18 6,28 0,10 -2,19 -6,27 -5,9 -10,15 -18,19 -8,4 -16,6 -25,6 -9,0 -18,-2 -26,-7 -7,-4 -13,-11 -17,-19 -4,-8 -6,-16 -6,-25zm14 0c0,12 4,22 10,29 7,7 15,11 25,11 10,0 19,-4 25,-11 7,-7 10,-17 10,-30 0,-9 -1,-16 -4,-22 -3,-6 -7,-11 -13,-14 -5,-4 -11,-5 -18,-5 -9,0 -17,3 -24,9 -7,7 -11,18 -11,33z"/>
  <polygon id="27" class="fil0" points="4164,354 4164,252 4178,252 4231,332 4231,252 4244,252 4244,354 4231,354 4177,274 4177,354 "/>
  <polygon id="28" class="fil0" points="4306,354 4306,252 4320,252 4320,342 4370,342 4370,354 "/>
  <path id="29" class="fil0" d="M4381 327l13 -1c1,6 3,11 7,14 3,3 7,5 12,5 7,0 12,-2 16,-7 4,-4 6,-10 6,-18 0,-7 -2,-13 -6,-17 -4,-4 -9,-6 -16,-6 -4,0 -7,1 -11,3 -3,2 -5,4 -7,7l-12 -2 10 -52 50 0 0 12 -40 0 -6 27c6,-4 13,-6 20,-6 8,0 16,3 22,9 6,6 9,14 9,24 0,9 -2,17 -8,24 -6,8 -15,12 -27,12 -9,0 -16,-2 -22,-8 -6,-5 -9,-12 -10,-20z"/>
  <path id="30" class="fil0" d="M4465 354l0 -102 20 0 24 72c2,6 4,11 5,15 1,-4 3,-9 5,-17l25 -70 18 0 0 102 -13 0 0 -86 -30 86 -12 0 -29 -87 0 87 -13 0z"/>
  <path id="31" class="fil0" d="M4618 327l13 -1c1,6 3,11 7,14 3,3 8,5 13,5 6,0 11,-2 15,-7 4,-4 6,-10 6,-18 0,-7 -2,-13 -6,-17 -4,-4 -9,-6 -15,-6 -4,0 -8,1 -11,3 -4,2 -6,4 -8,7l-12 -2 10 -52 51 0 0 12 -41 0 -5 27c6,-4 12,-6 19,-6 9,0 16,3 22,9 6,6 9,14 9,24 0,9 -2,17 -8,24 -6,8 -15,12 -26,12 -10,0 -17,-2 -23,-8 -6,-5 -9,-12 -10,-20z"/>
  <polygon id="32" class="fil0" points="4702,354 4702,252 4715,252 4715,302 4766,252 4784,252 4741,293 4786,354 4768,354 4732,302 4715,318 4715,354 "/>
  <path id="33" class="fil0" d="M4792 327l13 -1c1,6 3,11 7,14 3,3 8,5 13,5 6,0 11,-2 15,-7 4,-4 6,-10 6,-18 0,-7 -2,-13 -6,-17 -4,-4 -9,-6 -15,-6 -4,0 -8,1 -11,3 -3,2 -6,4 -8,7l-12 -2 10 -52 51 0 0 12 -41 0 -5 27c6,-4 12,-6 19,-6 9,0 16,3 22,9 7,6 10,14 10,24 0,9 -3,17 -8,24 -7,8 -16,12 -27,12 -9,0 -17,-2 -23,-8 -6,-5 -9,-12 -10,-20z"/>
  <path id="34" class="fil0" d="M4878 354l0 -15 14 0 0 15c0,5 -1,9 -3,12 -1,3 -4,6 -8,8l-4 -6c3,-1 5,-3 6,-5 1,-2 2,-5 2,-9l-7 0z"/>
  <path id="35" class="fil0" d="M5028 318l13 3c-2,11 -7,20 -15,25 -7,6 -16,9 -27,9 -11,0 -20,-2 -26,-7 -7,-4 -13,-10 -16,-19 -4,-8 -5,-17 -5,-27 0,-11 2,-20 6,-28 4,-8 9,-14 17,-18 7,-4 16,-6 25,-6 10,0 18,2 25,8 7,5 12,12 15,22l-13 3c-3,-8 -6,-13 -11,-17 -4,-3 -10,-5 -17,-5 -7,0 -14,2 -19,6 -6,4 -9,9 -11,15 -2,6 -4,13 -4,20 0,8 2,16 4,22 3,7 7,12 12,15 5,3 11,5 17,5 8,0 14,-3 19,-7 6,-4 9,-11 11,-19z"/>
  <path id="36" class="fil0" d="M5105 344c-5,4 -9,7 -14,9 -4,1 -8,2 -13,2 -9,0 -15,-2 -19,-6 -4,-4 -7,-9 -7,-15 0,-4 1,-7 3,-10 1,-3 4,-5 6,-7 3,-2 6,-3 9,-4 3,-1 6,-1 11,-2 11,-1 18,-3 23,-4 0,-2 0,-3 0,-4 0,-5 -1,-8 -4,-10 -3,-3 -8,-5 -14,-5 -6,0 -10,1 -13,4 -3,2 -5,5 -6,11l-13 -2c2,-5 3,-10 6,-13 3,-3 6,-6 11,-7 5,-2 11,-3 17,-3 6,0 11,1 15,2 4,2 7,4 9,6 2,2 3,5 4,8 0,3 1,6 1,12l0 17c0,11 0,18 0,22 1,3 2,6 3,9l-13 0c-1,-3 -2,-6 -2,-10zm-1 -28c-5,2 -12,4 -21,5 -5,1 -8,2 -11,3 -2,1 -3,2 -5,4 -1,1 -1,3 -1,6 0,3 1,6 4,8 2,2 6,3 11,3 4,0 9,-1 12,-3 4,-2 7,-5 9,-8 1,-3 2,-7 2,-13l0 -5z"/>
  <path id="37" class="fil0" d="M5136 354l0 -74 11 0 0 10c5,-8 13,-12 23,-12 5,0 9,1 13,2 3,2 6,4 8,7 2,2 3,5 4,9 0,2 1,6 1,12l0 46 -13 0 0 -45c0,-5 0,-9 -1,-12 -1,-2 -3,-4 -5,-6 -3,-1 -6,-2 -9,-2 -5,0 -10,2 -14,5 -4,3 -6,10 -6,19l0 41 -12 0z"/>
  <path id="38" class="fil0" d="M5263 344c-4,4 -9,7 -13,9 -5,1 -9,2 -14,2 -8,0 -14,-2 -19,-6 -4,-4 -6,-9 -6,-15 0,-4 0,-7 2,-10 2,-3 4,-5 7,-7 2,-2 5,-3 9,-4 2,-1 6,-1 11,-2 10,-1 17,-3 22,-4 0,-2 0,-3 0,-4 0,-5 -1,-8 -3,-10 -4,-3 -8,-5 -15,-5 -6,0 -10,1 -13,4 -3,2 -5,5 -6,11l-12 -2c1,-5 3,-10 5,-13 3,-3 7,-6 11,-7 5,-2 11,-3 17,-3 7,0 12,1 16,2 4,2 6,4 8,6 2,2 3,5 4,8 1,3 1,6 1,12l0 17c0,11 0,18 1,22 0,3 1,6 3,9l-13 0c-2,-3 -2,-6 -3,-10zm-1 -28c-4,2 -11,4 -20,5 -5,1 -9,2 -11,3 -2,1 -4,2 -5,4 -1,1 -2,3 -2,6 0,3 1,6 4,8 2,2 6,3 11,3 5,0 9,-1 13,-3 4,-2 6,-5 8,-8 1,-3 2,-7 2,-13l0 -5z"/>
  <path id="39" class="fil0" d="M5342 354l0 -10c-5,7 -12,11 -21,11 -6,0 -11,-2 -16,-5 -5,-3 -9,-8 -12,-13 -2,-6 -4,-13 -4,-20 0,-8 2,-14 4,-20 3,-6 6,-11 11,-14 5,-3 11,-5 17,-5 4,0 8,1 11,3 4,2 7,4 9,7l0 -36 12 0 0 102 -11 0zm-40 -37c0,9 2,16 6,21 4,4 9,7 14,7 6,0 10,-2 14,-7 4,-4 6,-11 6,-20 0,-10 -2,-18 -6,-22 -4,-5 -9,-8 -14,-8 -6,0 -10,3 -14,7 -4,5 -6,12 -6,22z"/>
  <path id="40" class="fil0" d="M5422 344c-5,4 -10,7 -14,9 -4,1 -9,2 -14,2 -8,0 -14,-2 -18,-6 -5,-4 -7,-9 -7,-15 0,-4 1,-7 2,-10 2,-3 4,-5 7,-7 3,-2 6,-3 9,-4 2,-1 6,-1 11,-2 10,-1 18,-3 22,-4 0,-2 1,-3 1,-4 0,-5 -2,-8 -4,-10 -3,-3 -8,-5 -14,-5 -6,0 -11,1 -13,4 -3,2 -5,5 -7,11l-12 -2c1,-5 3,-10 6,-13 2,-3 6,-6 11,-7 5,-2 10,-3 17,-3 6,0 11,1 15,2 4,2 7,4 9,6 2,2 3,5 4,8 0,3 0,6 0,12l0 17c0,11 0,18 1,22 0,3 2,6 3,9l-13 0c-1,-3 -2,-6 -2,-10zm-1 -28c-5,2 -12,4 -21,5 -5,1 -9,2 -11,3 -2,1 -4,2 -5,4 -1,1 -2,3 -2,6 0,3 2,6 4,8 3,2 6,3 11,3 5,0 9,-1 13,-3 4,-2 7,-5 8,-8 2,-3 2,-7 2,-13l1 -5z"/>
  <path class="fil1" d="M2022 1175l33 -158 27 0 14 102c2,14 3,26 4,39 4,-11 12,-25 22,-43l55 -98 26 0 -33 158 -21 0 17 -77c4,-18 9,-38 16,-60 -4,10 -10,21 -17,33l-58 104 -20 0 -15 -102c-1,-9 -2,-20 -3,-32 -2,14 -3,25 -5,33l-21 101 -21 0z"/>
  <path id="1" class="fil1" d="M2205 1131c0,-22 7,-41 20,-55 11,-12 25,-18 43,-18 13,0 25,4 33,13 8,8 13,20 13,35 0,13 -3,25 -8,36 -6,11 -13,20 -23,26 -10,6 -20,9 -31,9 -9,0 -17,-2 -24,-6 -7,-3 -13,-9 -17,-16 -4,-7 -6,-15 -6,-24zm20 -2c0,11 2,19 8,25 5,5 11,8 19,8 5,0 9,-1 13,-3 4,-1 8,-4 11,-7 4,-4 7,-8 9,-12 3,-4 5,-9 6,-14 3,-7 4,-14 4,-21 0,-10 -3,-18 -8,-24 -5,-5 -12,-8 -20,-8 -6,0 -12,1 -17,4 -5,3 -9,7 -13,13 -4,6 -7,12 -9,19 -2,8 -3,14 -3,20z"/>
  <path id="2" class="fil1" d="M2324 1175l24 -115 18 0 -4 20c8,-8 15,-13 22,-17 6,-3 13,-5 20,-5 10,0 17,2 22,7 6,5 8,12 8,21 0,4 -1,10 -3,20l-15 69 -19 0 16 -73c1,-7 2,-12 2,-15 0,-4 -1,-7 -4,-9 -3,-3 -6,-4 -12,-4 -10,0 -19,4 -27,11 -8,7 -13,19 -17,36l-11 54 -20 0z"/>
  <path id="3" class="fil1" d="M2524 1158c-11,13 -23,19 -35,19 -11,0 -20,-4 -27,-12 -7,-8 -11,-20 -11,-35 0,-14 3,-26 9,-38 6,-11 13,-20 21,-26 9,-5 17,-8 26,-8 14,0 25,7 32,20l13 -61 19 0 -33 158 -18 0 4 -17zm-53 -31c0,8 0,14 2,18 2,5 4,9 8,12 4,3 8,4 14,4 9,0 17,-4 24,-13 9,-12 14,-27 14,-45 0,-9 -2,-16 -7,-21 -5,-6 -11,-8 -18,-8 -4,0 -9,1 -13,3 -3,2 -7,6 -11,11 -4,5 -7,11 -9,18 -3,8 -4,15 -4,21z"/>
  <path id="4" class="fil1" d="M2646 1160c-6,6 -13,10 -19,13 -6,3 -13,4 -20,4 -11,0 -19,-3 -26,-9 -6,-6 -9,-14 -9,-24 0,-6 1,-12 4,-17 3,-5 7,-9 12,-12 4,-3 10,-5 17,-6 5,-1 13,-2 25,-2 13,-1 21,-2 27,-4 1,-5 2,-10 2,-13 0,-5 -2,-8 -5,-11 -5,-3 -11,-5 -20,-5 -8,0 -15,2 -20,5 -5,4 -9,9 -11,16l-20 -2c4,-11 10,-20 19,-26 9,-6 20,-9 33,-9 14,0 25,3 33,10 7,5 10,12 10,20 0,6 -1,13 -3,21l-6 28c-2,9 -3,16 -3,22 0,4 1,9 2,16l-19 0c-1,-4 -2,-9 -3,-15zm8 -43c-3,1 -6,2 -9,2 -3,1 -9,1 -16,2 -11,1 -19,2 -24,4 -4,1 -8,4 -10,7 -3,4 -4,7 -4,11 0,6 2,10 6,14 4,3 9,5 16,5 6,0 13,-2 18,-5 6,-3 11,-8 15,-14 3,-6 6,-15 8,-26z"/>
  <path id="5" class="fil1" d="M2685 1219l1 -19c4,1 8,2 11,2 4,0 8,-1 10,-3 3,-2 7,-7 10,-13l7 -11 -19 -115 19 0 8 58c2,11 4,22 5,34l51 -92 20 0 -73 130c-7,12 -13,21 -18,25 -6,4 -12,6 -19,6 -5,0 -9,-1 -13,-2z"/>
  <polygon id="6" class="fil1" points="2805,1127 2809,1108 2868,1108 2864,1127 "/>
  <path id="7" class="fil1" d="M2883 1124l21 -2 0 5c0,6 1,12 4,17 3,5 7,9 14,12 6,2 14,4 23,4 12,0 22,-3 29,-8 6,-6 10,-12 10,-19 0,-5 -2,-10 -6,-14 -3,-4 -13,-9 -29,-16 -12,-6 -21,-10 -25,-13 -7,-4 -13,-9 -16,-15 -3,-5 -5,-12 -5,-19 0,-8 2,-15 7,-22 4,-6 11,-11 19,-15 9,-3 18,-5 29,-5 13,0 24,2 33,7 8,4 15,10 19,17 4,7 6,14 6,20 0,1 0,2 0,4l-21 1c0,-4 0,-8 -1,-10 -1,-5 -4,-8 -7,-11 -3,-3 -7,-6 -12,-8 -5,-1 -11,-2 -18,-2 -11,0 -20,2 -26,7 -5,4 -8,10 -8,16 0,4 1,8 3,11 2,3 6,6 11,9 4,2 13,6 27,12 11,5 19,9 23,12 6,4 10,8 13,14 3,5 5,11 5,18 0,9 -3,16 -8,24 -5,7 -12,12 -21,16 -10,4 -20,6 -32,6 -18,0 -32,-4 -44,-11 -11,-8 -17,-22 -17,-42z"/>
  <path id="8" class="fil1" d="M3100 1154c-14,15 -28,23 -42,23 -9,0 -16,-3 -21,-8 -6,-5 -8,-11 -8,-18 0,-5 1,-13 4,-25l15 -66 19 0 -16 74c-2,6 -3,11 -3,15 0,4 2,7 4,9 3,2 7,3 12,3 6,0 11,-1 16,-4 6,-2 10,-6 14,-11 4,-4 7,-9 9,-15 2,-4 4,-11 6,-21l11 -50 19 0 -25 115 -18 0 4 -21z"/>
  <path id="9" class="fil1" d="M3145 1175l23 -115 18 0 -4 20c8,-8 15,-13 22,-17 7,-3 13,-5 21,-5 9,0 16,2 22,7 5,5 8,12 8,21 0,4 -1,10 -3,20l-16 69 -19 0 16 -73c1,-7 2,-12 2,-15 0,-4 -1,-7 -4,-9 -2,-3 -6,-4 -11,-4 -11,0 -20,4 -28,11 -7,7 -13,19 -17,36l-11 54 -19 0z"/>
  <path id="10" class="fil1" d="M3344 1158c-11,13 -23,19 -35,19 -11,0 -20,-4 -27,-12 -7,-8 -11,-20 -11,-35 0,-14 3,-26 9,-38 6,-11 13,-20 21,-26 9,-5 17,-8 26,-8 14,0 25,7 32,20l13 -61 19 0 -32 158 -18 0 3 -17zm-53 -31c0,8 1,14 2,18 2,5 4,9 8,12 4,3 9,4 14,4 9,0 17,-4 24,-13 10,-12 14,-27 14,-45 0,-9 -2,-16 -7,-21 -4,-6 -10,-8 -18,-8 -4,0 -9,1 -12,3 -4,2 -8,6 -12,11 -4,5 -7,11 -9,18 -3,8 -4,15 -4,21z"/>
  <path id="11" class="fil1" d="M3467 1160c-7,6 -14,10 -20,13 -6,3 -13,4 -20,4 -10,0 -19,-3 -25,-9 -7,-6 -10,-14 -10,-24 0,-6 1,-12 4,-17 3,-5 7,-9 12,-12 5,-3 10,-5 17,-6 5,-1 13,-2 25,-2 13,-1 22,-2 27,-4 1,-5 2,-10 2,-13 0,-5 -2,-8 -5,-11 -4,-3 -11,-5 -20,-5 -8,0 -15,2 -20,5 -5,4 -9,9 -11,16l-20 -2c4,-11 10,-20 19,-26 9,-6 20,-9 33,-9 14,0 25,3 34,10 6,5 9,12 9,20 0,6 -1,13 -3,21l-6 28c-2,9 -3,16 -3,22 0,4 1,9 3,16l-20 0c-1,-4 -2,-9 -2,-15zm7 -43c-3,1 -6,2 -9,2 -3,1 -8,1 -16,2 -11,1 -19,2 -24,4 -4,1 -8,4 -10,7 -3,4 -4,7 -4,11 0,6 2,10 6,14 4,3 9,5 16,5 6,0 13,-2 19,-5 6,-3 10,-8 14,-14 3,-6 6,-15 8,-26z"/>
  <path id="12" class="fil1" d="M3505 1219l1 -19c4,1 8,2 12,2 3,0 7,-1 9,-3 3,-2 7,-7 10,-13l7 -11 -19 -115 19 0 8 58c2,11 4,22 5,34l51 -92 20 0 -73 130c-7,12 -13,21 -18,25 -6,4 -12,6 -19,6 -5,0 -9,-1 -13,-2z"/>
  <path id="13" class="fil1" d="M3769 1175c2,-11 6,-24 11,-39 7,-18 16,-36 26,-53 11,-18 23,-33 36,-46l-78 0 4 -18 100 0 -3 18c-18,15 -32,34 -45,58 -15,27 -25,54 -30,80l-21 0z"/>
  <path id="14" class="fil1" d="M3891 1082l5 -22 22 0 -5 22 -22 0zm-19 93l5 -22 22 0 -5 22 -22 0z"/>
  <path id="15" class="fil1" d="M3936 1123c0,-13 2,-27 6,-41 4,-13 9,-24 14,-33 4,-8 10,-14 15,-19 5,-5 10,-8 15,-10 5,-2 11,-4 17,-4 12,0 22,5 30,14 8,9 12,22 12,39 0,17 -3,34 -8,51 -7,20 -16,36 -28,46 -9,7 -19,11 -30,11 -12,0 -22,-4 -30,-14 -9,-9 -13,-22 -13,-40zm19 5c0,10 2,17 5,23 4,7 11,11 19,11 8,0 15,-4 21,-10 9,-10 16,-24 20,-43 4,-18 7,-33 7,-45 0,-11 -2,-19 -7,-24 -4,-5 -10,-8 -17,-8 -5,0 -10,1 -14,4 -5,3 -9,7 -13,14 -6,9 -11,22 -15,40 -4,16 -6,28 -6,38z"/>
  <path id="16" class="fil1" d="M4059 1123c0,-13 2,-27 6,-41 4,-13 8,-24 13,-33 5,-8 10,-14 15,-19 5,-5 11,-8 16,-10 5,-2 10,-4 16,-4 12,0 23,5 31,14 8,9 12,22 12,39 0,17 -3,34 -9,51 -6,20 -15,36 -27,46 -9,7 -20,11 -31,11 -12,0 -22,-4 -30,-14 -8,-9 -12,-22 -12,-40zm19 5c0,10 1,17 4,23 5,7 11,11 20,11 7,0 14,-4 20,-10 9,-10 16,-24 20,-43 5,-18 7,-33 7,-45 0,-11 -2,-19 -6,-24 -5,-5 -10,-8 -17,-8 -6,0 -10,1 -15,4 -4,3 -9,7 -13,14 -6,9 -11,22 -15,40 -4,16 -5,28 -5,38z"/>
  <path id="17" class="fil1" d="M4311 1160c-7,6 -13,10 -19,13 -6,3 -13,4 -20,4 -11,0 -19,-3 -26,-9 -6,-6 -9,-14 -9,-24 0,-6 1,-12 4,-17 3,-5 7,-9 11,-12 5,-3 11,-5 18,-6 5,-1 13,-2 25,-2 12,-1 21,-2 26,-4 2,-5 3,-10 3,-13 0,-5 -2,-8 -5,-11 -5,-3 -11,-5 -20,-5 -8,0 -15,2 -20,5 -5,4 -9,9 -12,16l-19 -2c4,-11 10,-20 19,-26 9,-6 20,-9 33,-9 14,0 25,3 33,10 7,5 10,12 10,20 0,6 -1,13 -3,21l-6 28c-2,9 -3,16 -3,22 0,4 1,9 2,16l-20 0c-1,-4 -1,-9 -2,-15zm8 -43c-3,1 -6,2 -9,2 -3,1 -9,1 -16,2 -11,1 -19,2 -24,4 -5,1 -8,4 -10,7 -3,4 -4,7 -4,11 0,6 2,10 6,14 3,3 9,5 16,5 6,0 12,-2 18,-5 6,-3 11,-8 14,-14 4,-6 7,-15 9,-26z"/>
  <path id="18" class="fil1" d="M4357 1175l24 -115 19 0 -4 19c7,-8 14,-13 19,-17 6,-3 12,-4 19,-4 7,0 13,2 18,6 5,3 8,9 9,15 6,-7 12,-12 19,-16 6,-3 13,-5 20,-5 9,0 17,2 21,7 5,4 7,10 7,19 0,3 0,9 -2,17l-16 74 -19 0 16 -76c1,-6 2,-10 2,-13 0,-4 -1,-7 -4,-9 -2,-2 -5,-3 -10,-3 -6,0 -12,2 -18,5 -6,4 -10,8 -14,14 -3,6 -6,14 -9,26l-11 56 -19 0 16 -77c1,-6 1,-9 1,-12 0,-3 -1,-6 -3,-9 -2,-2 -5,-3 -9,-3 -6,0 -11,2 -18,5 -6,4 -11,9 -14,15 -4,6 -7,15 -10,27l-11 54 -19 0z"/>
  <polygon id="19" class="fil1" points="4543,1127 4547,1108 4606,1108 4602,1127 "/>
  <path id="20" class="fil1" d="M4621 1138l18 -1c1,8 4,15 8,18 3,4 8,6 13,6 8,0 15,-3 21,-10 9,-9 16,-23 21,-40 -7,4 -13,8 -18,10 -5,2 -10,3 -15,3 -10,0 -18,-3 -26,-10 -10,-8 -15,-20 -15,-36 0,-17 6,-33 17,-45 10,-11 23,-17 37,-17 13,0 24,5 33,15 8,10 12,23 12,41 0,17 -2,34 -8,50 -7,20 -16,35 -28,44 -9,7 -20,11 -32,11 -11,0 -20,-3 -26,-10 -7,-7 -11,-16 -12,-29zm26 -62c0,10 2,18 8,24 5,6 11,9 18,9 6,0 11,-2 16,-6 6,-4 10,-9 14,-16 4,-8 6,-15 6,-23 0,-6 -1,-11 -4,-16 -2,-6 -6,-9 -10,-12 -5,-3 -9,-4 -13,-4 -5,0 -9,1 -13,4 -4,2 -8,5 -12,10 -3,4 -6,9 -8,15 -1,6 -2,11 -2,15z"/>
  <path id="21" class="fil1" d="M4760 1082l5 -22 22 0 -5 22 -22 0zm-19 93l5 -22 22 0 -5 22 -22 0z"/>
  <path id="22" class="fil1" d="M4805 1123c0,-13 2,-27 6,-41 4,-13 9,-24 14,-33 4,-8 10,-14 15,-19 5,-5 10,-8 15,-10 5,-2 11,-4 17,-4 12,0 22,5 30,14 8,9 12,22 12,39 0,17 -3,34 -8,51 -7,20 -16,36 -28,46 -9,7 -19,11 -31,11 -11,0 -21,-4 -29,-14 -9,-9 -13,-22 -13,-40zm19 5c0,10 2,17 5,23 4,7 11,11 19,11 8,0 15,-4 21,-10 9,-10 15,-24 20,-43 4,-18 7,-33 7,-45 0,-11 -3,-19 -7,-24 -4,-5 -10,-8 -17,-8 -5,0 -10,1 -14,4 -5,3 -9,7 -13,14 -6,9 -11,22 -15,40 -4,16 -6,28 -6,38z"/>
  <path id="23" class="fil1" d="M4928 1123c0,-13 2,-27 6,-41 4,-13 8,-24 13,-33 5,-8 10,-14 15,-19 5,-5 11,-8 16,-10 5,-2 10,-4 16,-4 12,0 22,5 31,14 8,9 12,22 12,39 0,17 -3,34 -9,51 -6,20 -15,36 -27,46 -9,7 -20,11 -31,11 -12,0 -22,-4 -30,-14 -8,-9 -12,-22 -12,-40zm19 5c0,10 1,17 4,23 5,7 11,11 20,11 7,0 14,-4 20,-10 9,-10 16,-24 20,-43 5,-18 7,-33 7,-45 0,-11 -2,-19 -6,-24 -5,-5 -10,-8 -18,-8 -5,0 -9,1 -14,4 -4,3 -9,7 -13,14 -6,9 -11,22 -15,40 -4,16 -5,28 -5,38z"/>
  <path id="24" class="fil1" d="M5094 1218l33 -158 18 0 -3 16c6,-7 12,-11 18,-14 5,-3 11,-4 16,-4 11,0 20,4 28,12 7,8 10,19 10,34 0,12 -2,22 -6,32 -4,10 -8,18 -14,24 -6,6 -12,10 -18,13 -6,3 -12,4 -18,4 -13,0 -24,-7 -32,-21l-13 62 -19 0zm38 -90c0,8 1,14 2,18 2,4 5,8 9,11 4,3 9,4 14,4 12,0 21,-6 28,-19 6,-12 10,-25 10,-38 0,-10 -2,-17 -7,-23 -5,-5 -10,-7 -17,-7 -5,0 -10,1 -14,3 -4,3 -8,7 -12,12 -4,5 -7,12 -9,19 -2,8 -4,14 -4,20z"/>
  <path id="25" class="fil1" d="M5226 1175l24 -115 19 0 -4 19c7,-8 14,-13 19,-17 6,-3 12,-4 19,-4 7,0 13,2 18,6 4,3 8,9 9,15 6,-7 12,-12 18,-16 7,-3 14,-5 21,-5 9,0 16,2 21,7 5,4 7,10 7,19 0,3 0,9 -2,17l-16 74 -19 0 16 -76c1,-6 2,-10 2,-13 0,-4 -1,-7 -4,-9 -2,-2 -6,-3 -10,-3 -6,0 -12,2 -18,5 -6,4 -10,8 -14,14 -3,6 -6,14 -9,26l-11 56 -19 0 16 -77c1,-6 1,-9 1,-12 0,-3 -1,-6 -3,-9 -2,-2 -5,-3 -9,-3 -6,0 -12,2 -18,5 -6,4 -11,9 -14,15 -4,6 -7,15 -10,27l-11 54 -19 0z"/>
  <path class="fil1" d="M2149 811l-155 0 14 -64 212 -249 66 0 -52 248 49 0 -14 65 -48 0 -17 80 -72 0 17 -80zm13 -65l26 -123 -104 123 78 0z"/>
  <path id="1" class="fil1" d="M2350 666l14 -68c66,-29 117,-63 154,-101l47 0 -83 394 -78 0 57 -272c-16,11 -34,20 -55,29 -21,8 -40,14 -56,18z"/>
  <path id="2" class="fil1" d="M2904 594l-72 6c-1,-15 -5,-26 -11,-33 -6,-6 -14,-9 -24,-9 -13,0 -25,5 -35,15 -14,15 -26,39 -35,72 17,-11 35,-16 53,-16 30,0 55,10 75,31 20,21 29,49 29,85 0,28 -7,55 -20,80 -14,25 -31,44 -52,55 -20,12 -42,18 -64,18 -22,0 -42,-6 -60,-17 -17,-11 -31,-27 -40,-48 -10,-21 -15,-49 -15,-84 0,-70 16,-130 47,-179 31,-49 72,-73 123,-73 29,0 52,8 69,24 18,16 28,40 32,73zm-197 181c0,21 4,37 13,47 8,9 18,14 30,14 15,0 27,-7 38,-21 14,-19 21,-44 21,-76 0,-20 -4,-35 -12,-45 -8,-10 -17,-15 -29,-15 -10,0 -19,4 -29,11 -10,8 -18,20 -23,36 -6,16 -9,33 -9,49z"/>
  <polygon id="3" class="fil1" points="2930,713 3079,713 3065,787 2916,787 "/>
  <path id="4" class="fil1" d="M3194 675c-14,-9 -24,-20 -31,-32 -7,-12 -10,-25 -10,-39 0,-17 5,-34 14,-51 10,-18 24,-31 43,-41 20,-10 41,-15 66,-15 35,0 62,9 81,27 20,18 30,41 30,69 0,20 -6,37 -17,51 -11,15 -27,27 -49,37 16,9 27,21 35,35 8,14 12,30 12,48 0,30 -9,57 -28,81 -28,35 -65,53 -113,53 -34,0 -62,-10 -83,-31 -21,-20 -32,-46 -32,-78 0,-26 8,-50 22,-70 15,-21 35,-36 60,-44zm29 -66c0,12 4,22 11,30 8,7 18,11 30,11 13,0 25,-5 36,-16 10,-10 16,-22 16,-36 0,-13 -4,-23 -12,-31 -8,-8 -17,-12 -30,-12 -14,0 -26,6 -36,16 -10,10 -15,23 -15,38zm-34 181c0,15 4,26 12,35 8,8 18,12 31,12 20,0 35,-8 46,-26 11,-17 16,-36 16,-57 0,-13 -4,-24 -12,-32 -9,-9 -19,-13 -32,-13 -16,0 -30,7 -42,22 -13,15 -19,35 -19,59z"/>
  <path id="5" class="fil1" d="M3437 575l15 -71 259 0 -12 55c-16,13 -34,33 -54,59 -20,27 -38,56 -55,89 -17,33 -31,64 -41,93 -15,41 -24,71 -28,91l-73 0c3,-20 11,-47 23,-81 15,-42 33,-83 55,-122 22,-40 48,-77 79,-113l-168 0z"/>
  <path id="6" class="fil1" d="M3720 801l72 -6c1,15 5,26 11,32 6,6 14,9 24,9 13,0 25,-5 35,-15 15,-15 26,-38 35,-71 -17,10 -34,16 -53,16 -30,0 -55,-11 -75,-31 -19,-21 -29,-49 -29,-85 0,-40 12,-75 38,-107 25,-31 58,-46 100,-46 36,0 65,13 84,40 19,27 29,63 29,109 0,70 -15,130 -46,179 -32,48 -73,73 -123,73 -30,0 -54,-9 -72,-26 -18,-17 -28,-41 -30,-71zm197 -182c0,-21 -4,-36 -12,-46 -8,-10 -18,-15 -30,-15 -15,0 -28,7 -39,21 -14,19 -21,44 -21,76 0,21 4,36 12,46 8,9 18,14 29,14 10,0 20,-3 30,-11 10,-8 17,-19 23,-36 5,-16 8,-33 8,-49z"/>
  <polygon id="7" class="fil1" points="4027,713 4176,713 4161,787 4012,787 "/>
  <path id="8" class="fil1" d="M4229 575l14 -71 260 0 -12 55c-16,13 -35,33 -54,59 -20,27 -38,56 -55,89 -17,33 -31,64 -41,93 -15,41 -24,71 -28,91l-73 0c3,-20 11,-47 23,-81 14,-42 33,-83 55,-122 21,-40 48,-77 79,-113l-168 0z"/>
  <path id="9" class="fil1" d="M4543 666l14 -68c66,-29 118,-63 154,-101l47 0 -83 394 -78 0 57 -272c-16,11 -34,20 -55,29 -21,8 -40,14 -56,18z"/>
  <path id="10" class="fil1" d="M4817 801l71 -6c2,15 5,26 12,32 6,6 14,9 24,9 13,0 24,-5 34,-15 15,-15 27,-38 35,-71 -16,10 -34,16 -52,16 -31,0 -56,-11 -75,-31 -20,-21 -30,-49 -30,-85 0,-40 13,-75 38,-107 25,-31 59,-46 100,-46 37,0 65,13 85,40 19,27 29,63 29,109 0,70 -16,130 -47,179 -31,48 -72,73 -123,73 -30,0 -54,-9 -71,-26 -18,-17 -28,-41 -30,-71zm197 -182c0,-21 -4,-36 -12,-46 -9,-10 -19,-15 -31,-15 -15,0 -27,7 -38,21 -14,19 -22,44 -22,76 0,21 4,36 12,46 8,9 18,14 30,14 9,0 19,-3 29,-11 10,-8 18,-19 23,-36 6,-16 9,-33 9,-49z"/>
  <path id="11" class="fil1" d="M5205 675c-14,-9 -24,-20 -31,-32 -7,-12 -10,-25 -10,-39 0,-17 4,-34 14,-51 10,-18 24,-31 43,-41 19,-10 41,-15 65,-15 35,0 62,9 82,27 20,18 29,41 29,69 0,20 -5,37 -16,51 -11,15 -28,27 -50,37 16,9 28,21 36,35 8,14 12,30 12,48 0,30 -10,57 -28,81 -28,35 -66,53 -113,53 -35,0 -62,-10 -84,-31 -21,-20 -31,-46 -31,-78 0,-26 7,-50 22,-70 14,-21 34,-36 60,-44zm29 -66c0,12 3,22 11,30 7,7 17,11 29,11 14,0 26,-5 37,-16 10,-10 15,-22 15,-36 0,-13 -4,-23 -11,-31 -8,-8 -18,-12 -30,-12 -14,0 -26,6 -36,16 -10,10 -15,23 -15,38zm-34 181c0,15 4,26 12,35 8,8 18,12 31,12 20,0 35,-8 46,-26 10,-17 16,-36 16,-57 0,-13 -4,-24 -13,-32 -8,-9 -18,-13 -31,-13 -16,0 -30,7 -43,22 -12,15 -18,35 -18,59z"/>
  <path class="fil1" d="M653 549c20,-1 28,0 24,21 -2,10 -8,21 -19,21l-14 0 9 -42zm-15 73l13 0c9,0 11,7 10,18 -1,10 -5,24 -8,40 0,3 0,6 0,9l44 0 1 -2c-2,-2 -3,-4 -3,-6 0,-11 6,-40 8,-54 2,-12 -5,-20 -15,-22l0 -1c18,-7 26,-20 29,-39 8,-34 -6,-47 -39,-47l-59 0 -36 171 40 0 15 -67z"/>
  <path id="1" class="fil1" d="M743 689l12 -33 31 0 -1 33 41 0 -1 -171 -49 0 -74 171 41 0zm46 -63l-23 0 28 -77 0 0 -5 77z"/>
  <path id="2" class="fil1" d="M910 549l4 0c6,0 12,0 15,1 7,3 5,13 4,20 -1,6 -4,13 -9,17 -7,5 -16,5 -24,5l10 -43zm-30 140l14 -66c15,-1 31,1 46,-6 20,-8 29,-29 33,-48 3,-14 4,-26 -3,-37 -9,-13 -31,-14 -46,-14l-48 0 -36 171 40 0z"/>
  <polygon id="3" class="fil1" points="1006,689 1043,518 1003,518 966,689 "/>
  <path id="4" class="fil1" d="M1083 689c12,0 25,-1 37,-8 13,-7 21,-20 25,-37l16 -76c4,-16 5,-33 -9,-42 -11,-8 -29,-8 -43,-8l-44 0 -36 171 54 0zm16 -140c19,0 26,1 22,22l-12 56c-5,22 -7,33 -34,32l24 -110z"/>
  <path id="5" class="fil1" d="M218 749c20,-1 28,0 24,21 -2,10 -7,21 -19,21l-14 0 9 -42zm-15 73l13 0c9,0 11,7 10,18 -1,10 -5,24 -8,39 0,4 0,7 1,10l43 0 1 -2c-2,-2 -2,-4 -3,-6 0,-11 6,-40 8,-54 2,-12 -4,-20 -15,-22l0 -1c19,-7 26,-21 30,-39 7,-34 -7,-47 -40,-47l-58 0 -37 171 40 0 15 -67z"/>
  <polygon id="6" class="fil1" points="371,889 378,855 324,855 332,818 382,818 389,784 339,784 346,752 397,752 405,718 313,718 276,889 "/>
  <path id="7" class="fil1" d="M396 832l-4 18c-5,23 6,43 43,43 33,0 56,-18 63,-51 4,-21 1,-32 -7,-41 -7,-8 -19,-14 -32,-24 -7,-5 -11,-11 -8,-21 3,-7 9,-12 17,-11 13,1 10,14 8,24l37 0c8,-32 -4,-55 -39,-55 -31,0 -54,16 -61,48 -3,16 -1,26 4,35 6,8 15,15 26,22 9,7 20,12 17,26 -2,9 -8,18 -17,18 -13,0 -15,-9 -13,-19l3 -12 -37 0z"/>
  <path id="8" class="fil1" d="M576 749l5 0c6,0 12,0 15,1 6,3 5,13 4,20 -2,6 -4,13 -9,17 -8,5 -16,4 -24,5l9 -43zm-29 140l14 -66c15,-1 31,1 46,-6 20,-8 29,-29 33,-48 3,-14 4,-26 -3,-37 -9,-13 -31,-14 -47,-14l-47 0 -37 171 41 0z"/>
  <path id="9" class="fil1" d="M710 838c-2,10 -6,25 -19,25 -13,0 -12,-15 -10,-25l15 -70c3,-11 7,-23 20,-23 13,0 11,12 9,23l-15 70zm56 -73c7,-33 -8,-51 -44,-51 -35,0 -58,18 -65,51l-15 70c-8,38 2,58 42,58 41,0 59,-20 67,-58l15 -70z"/>
  <polygon id="10" class="fil1" points="824,889 865,889 902,718 864,718 847,814 847,814 836,718 795,718 758,889 796,889 813,794 813,793 "/>
  <path id="11" class="fil1" d="M891 832l-4 18c-5,23 7,43 43,43 34,0 56,-18 63,-51 4,-21 1,-32 -6,-41 -8,-8 -19,-14 -33,-24 -6,-5 -11,-11 -7,-21 2,-7 8,-12 16,-11 13,1 10,14 8,24l37 0c9,-32 -4,-55 -39,-55 -31,0 -54,16 -61,48 -3,16 -1,26 5,35 5,8 14,15 25,22 9,7 20,12 17,26 -2,9 -8,18 -17,18 -13,0 -14,-9 -12,-19l2 -12 -37 0z"/>
  <polygon id="12" class="fil1" points="1095,889 1102,855 1048,855 1055,818 1106,818 1113,784 1063,784 1069,752 1121,752 1129,718 1037,718 1000,889 "/>
  <path class="fil2" d="M580 520l-354 0 -6 26 354 0 6 -26zm-370 74l353 0 6 -25 -354 0 -5 25zm-10 48l353 0 5 -25 -353 0 -5 25zm-11 48l353 0 5 -25 -352 0 -6 25z"/>
  <g id="_282882680">
   <circle class="fil3" cx="1588" cy="708" r="293"/>
   <path class="fil4" style="mask:url(#id0)" d="M1683 436c-100,-34 -198,-10 -220,54 -22,64 41,143 140,178 100,34 198,10 220,-54 22,-64 -41,-144 -140,-178z"/>
   <path class="fil5" style="mask:url(#id2)" d="M1334 805c-25,-55 -35,-118 -18,-181 21,-72 72,-128 134,-157 29,-14 21,-5 3,4 -57,29 -103,89 -122,156 -16,57 -14,117 7,167 13,31 6,32 -4,11z"/>
   <path class="fil6" style="mask:url(#id4)" d="M1855 746c-4,47 -17,97 -48,139 -34,49 -82,78 -127,85 -20,3 -13,-2 0,-5 42,-7 87,-40 120,-86 27,-38 45,-84 49,-126 3,-27 7,-25 6,-7z"/>
   <path class="fil2" d="M1528 917l28 -120c-9,-2 -15,-12 -16,-29 -1,-37 18,-100 33,-132 8,-18 16,-21 24,-19l26 -115c-14,-2 -28,2 -41,9 -85,49 -148,278 -85,377 8,13 19,21 31,29zm45 -116l29 7c7,1 11,8 10,14l-22 95c-1,6 -8,10 -15,9l-29 -7 27 -118zm68 -297l29 6c7,2 11,8 10,14l-22 96c-2,6 -8,10 -15,8l-29 -6 27 -118z"/>
  </g>
 </g>
</svg>
