<?xml version="1.0" encoding="UTF-8"?>
<!DOCTYPE svg PUBLIC "-//W3C//DTD SVG 1.1//EN" "http://www.w3.org/Graphics/SVG/1.1/DTD/svg11.dtd">
<!-- Creator: CorelDRAW X7 -->
<svg xmlns="http://www.w3.org/2000/svg" xml:space="preserve" width="1.875in" height="1.18055in" version="1.1" style="shape-rendering:geometricPrecision; text-rendering:geometricPrecision; image-rendering:optimizeQuality; fill-rule:evenodd; clip-rule:evenodd"
viewBox="0 0 1875 1181"
 xmlns:xlink="http://www.w3.org/1999/xlink">
 <defs>
  <style type="text/css">
   <![CDATA[
    .fil0 {fill:red;fill-rule:nonzero}
   ]]>
  </style>
 </defs>
 <g id="Layer_x0020_1">
  <metadata id="CorelCorpID_0Corel-Layer"/>
  <path class="fil0" d="M1770 441l-17 0c-16,0 -30,6 -40,17 -11,10 -17,24 -17,40l0 288c0,32 -13,60 -34,81 -20,21 -49,34 -81,34 -31,0 -60,-13 -80,-34 -21,-21 -34,-49 -34,-81l0 0 1 -375 0 0c0,-19 -8,-36 -21,-49 -12,-12 -29,-20 -48,-20 -19,0 -37,8 -49,20 -13,13 -21,30 -21,49l0 0 0 372c0,33 -13,62 -33,83 -21,22 -50,35 -82,35 -31,0 -60,-13 -81,-34 -20,-21 -33,-49 -33,-81l0 0 0 -373c-1,-21 -8,-40 -21,-53 -12,-13 -30,-21 -49,-21 -19,0 -36,8 -49,20 -12,13 -20,30 -20,49l0 289c0,28 -12,53 -30,72l0 0c-19,18 -44,30 -72,30l-28 0 0 130c0,10 4,19 10,26l0 0c7,6 16,10 26,10l866 0c11,0 20,-4 26,-10l0 0c7,-7 11,-16 11,-26l0 -488zm-1482 -8l275 0c16,0 31,7 41,17 11,11 17,25 17,41 0,16 -6,31 -17,41l0 0c-10,10 -25,17 -41,17l-72 0 0 62 42 0c14,0 27,6 37,15 9,10 15,23 15,37l0 8 200 0 0 -397c0,-22 9,-43 24,-58l0 0c15,-15 36,-24 58,-24l152 0c13,0 23,10 23,23 0,12 -10,22 -23,22l-152 0c-10,0 -19,4 -26,11l0 0c-6,7 -10,16 -10,26l0 479 28 0c16,0 30,-6 40,-16l0 0c10,-10 16,-25 16,-40l0 -289c0,-31 13,-60 34,-81 21,-20 50,-33 81,-33 32,0 61,13 82,35 20,21 33,51 33,84l0 373 0 0c0,19 8,36 20,49 13,13 30,20 49,20 19,0 37,-8 49,-20 13,-14 21,-32 21,-53l0 -371 0 0c0,-32 13,-60 34,-81 20,-21 49,-34 81,-34 31,0 60,13 80,34 21,21 34,49 34,81l0 0 -1 375 0 0c0,19 8,36 21,49 12,13 29,20 48,20 19,0 37,-7 49,-20 13,-13 21,-30 21,-49l0 -288c0,-29 11,-54 29,-73 19,-18 44,-29 73,-29l17 0 0 -122c0,-10 -4,-19 -11,-26l0 0c-6,-7 -15,-11 -26,-11l-149 0c-13,0 -23,-10 -23,-22 0,-13 10,-23 23,-23l149 0c23,0 43,9 58,24l0 0c15,15 25,36 25,58l0 655c0,22 -10,43 -25,58l0 0c-15,15 -35,24 -58,24l-866 0c-22,0 -43,-9 -58,-24l0 0c-15,-15 -24,-36 -24,-58l0 -52 -200 0 0 7c0,14 -6,27 -15,36 -10,10 -23,16 -37,16l-217 0c-14,0 -27,-6 -37,-16 -9,-9 -15,-22 -15,-36l0 -7 -145 0c-12,0 -22,-4 -29,-12 -7,-7 -12,-17 -12,-28l0 -127 0 -1c0,-11 5,-20 12,-28 7,-7 17,-11 28,-11l1 0 0 0 145 1 0 -8c0,-14 6,-27 15,-37 10,-9 23,-15 37,-15l42 0 0 -62 -70 0c-16,0 -31,-7 -41,-17l0 0c-11,-11 -17,-25 -17,-41 0,-16 6,-30 17,-41l0 0c10,-10 25,-17 41,-17zm275 46l-275 0c-4,0 -7,1 -9,3l0 0c-2,3 -4,6 -4,9 0,3 2,7 4,9l0 0c2,2 5,4 9,4l275 0c4,0 7,-2 9,-4l0 0c2,-2 4,-6 4,-9 0,-3 -2,-6 -4,-9 -2,-2 -5,-3 -9,-3zm-117 72l-43 0 0 60 43 0 0 -60zm139 166l0 115 200 0 0 -115 -200 0zm-321 115l0 -116 -140 -1 0 117 140 0zm269 -176l-42 0 -133 0 -42 0c-2,0 -3,1 -4,2 -2,1 -2,3 -2,5l0 221c0,1 0,3 2,4 1,1 2,2 4,2l217 0c2,0 3,-1 5,-2 1,-1 1,-3 1,-4l0 -221c0,-2 0,-4 -1,-5 -2,-1 -3,-2 -5,-2zm969 -464c12,0 22,10 22,23 0,12 -10,22 -22,22l-80 0c-13,0 -23,-10 -23,-22 0,-13 10,-23 23,-23l80 0zm-162 0c12,0 23,10 23,23 0,12 -11,22 -23,22l-76 0c-13,0 -23,-10 -23,-22 0,-13 10,-23 23,-23l76 0zm-162 0c13,0 23,10 23,23 0,12 -10,22 -23,22l-72 0c-13,0 -23,-10 -23,-22 0,-13 10,-23 23,-23l72 0z"/>
 </g>
</svg>
