<?xml version="1.0" encoding="UTF-8"?>
<!DOCTYPE svg PUBLIC "-//W3C//DTD SVG 1.1//EN" "http://www.w3.org/Graphics/SVG/1.1/DTD/svg11.dtd">
<!-- Creator: CorelDRAW X7 -->
<svg xmlns="http://www.w3.org/2000/svg" xml:space="preserve" width="1.76389in" height="1.73611in" version="1.1" style="shape-rendering:geometricPrecision; text-rendering:geometricPrecision; image-rendering:optimizeQuality; fill-rule:evenodd; clip-rule:evenodd"
viewBox="0 0 1764 1736"
 xmlns:xlink="http://www.w3.org/1999/xlink">
 <defs>
  <style type="text/css">
   <![CDATA[
    .str0 {stroke:#666666;stroke-width:27.7756}
    .fil4 {fill:none}
    .fil3 {fill:#373435}
    .fil1 {fill:#A8CF45}
    .fil2 {fill:#4D4D4D}
    .fil0 {fill:#FEFEFE;fill-rule:nonzero}
    .fil5 {fill:#373435;fill-rule:nonzero}
   ]]>
  </style>
   <clipPath id="id0">
    <path d="M866 205c364,0 659,295 659,659 0,363 -295,659 -659,659 -364,0 -659,-296 -659,-659 0,-364 295,-659 659,-659z"/>
   </clipPath>
 </defs>
 <g id="Layer_x0020_1">
  <metadata id="CorelCorpID_0Corel-Layer"/>
  <path class="fil0" d="M617 828c13,-16 14,-59 14,-72 0,-41 -6,-90 -60,-90 -52,0 -58,49 -58,90 0,50 6,98 59,98 13,0 28,-5 36,-13l20 17 10 -13 -21 -17zm-24 1c-7,6 -14,7 -22,7 -30,1 -38,-32 -38,-72 0,-52 6,-80 39,-80 33,0 38,28 39,80 0,19 -4,45 -9,52l-16 -14 -11 13 18 14z"/>
  <path id="1" class="fil0" d="M664 806c0,33 22,48 54,48 33,0 54,-15 54,-48l0 -136 -20 0 0 129c1,14 -2,37 -34,37 -32,0 -34,-23 -34,-37l0 -129 -20 0 0 136z"/>
  <path id="2" class="fil0" d="M794 850l22 0 13 -52 57 0 14 52 22 0 -50 -180 -27 0 -51 180zm87 -70l-47 0 24 -96 0 0 23 96z"/>
  <polygon id="3" class="fil0" points="1038,850 1038,832 964,832 964,670 944,670 944,850 "/>
  <polygon id="4" class="fil0" points="1088,850 1088,670 1068,670 1068,850 "/>
  <polygon id="5" class="fil0" points="1115,688 1161,688 1161,850 1181,850 1181,688 1228,688 1228,670 1115,670 "/>
  <polygon id="6" class="fil0" points="1256,670 1233,670 1287,780 1287,850 1307,850 1307,780 1362,670 1340,670 1297,760 "/>
  <path id="7" class="fil0" d="M455 1088l22 0 13 -52 57 0 14 52 22 0 -51 -180 -26 0 -51 180zm87 -70l-47 0 23 -96 1 0 23 96z"/>
  <path id="8" class="fil0" d="M701 955c2,-34 -18,-51 -51,-51 -29,0 -50,20 -50,49 0,18 4,32 21,41 10,5 25,10 35,14 19,7 30,7 30,34 0,22 -15,32 -35,32 -30,0 -35,-17 -34,-44l-20 0c1,10 0,24 4,33 10,24 32,29 49,29 35,0 56,-20 56,-54 0,-24 -6,-36 -40,-49 -10,-3 -19,-7 -29,-10 -11,-5 -17,-12 -17,-25 0,-14 3,-32 32,-32 20,0 30,14 29,33l20 0z"/>
  <path id="9" class="fil0" d="M834 955c2,-34 -18,-51 -51,-51 -29,0 -50,20 -50,49 0,18 4,32 21,41 10,5 26,10 36,14 18,7 29,7 29,34 0,22 -14,32 -34,32 -30,0 -35,-17 -35,-44l-19 0c0,10 0,24 3,33 11,24 32,29 50,29 34,0 55,-20 55,-54 0,-24 -6,-36 -40,-49 -9,-3 -19,-7 -28,-10 -12,-5 -17,-12 -17,-25 0,-14 3,-32 32,-32 20,0 30,14 28,33l20 0z"/>
  <path id="10" class="fil0" d="M871 1044c0,32 21,48 54,48 33,0 54,-16 54,-48l0 -136 -20 0 0 129c0,14 -2,37 -34,37 -32,0 -34,-23 -34,-37l0 -129 -20 0 0 136z"/>
  <path id="11" class="fil0" d="M1039 926l28 0c13,0 37,0 38,31 0,32 -26,33 -35,33l-31 0 0 -64zm0 82l34 0c24,0 31,16 31,34 0,12 2,34 6,46l23 0 0 -5c-4,0 -6,-7 -7,-11 -1,-13 -3,-26 -3,-40 -3,-24 -9,-31 -32,-33l0 -1c21,-3 34,-18 34,-39 1,-41 -22,-51 -60,-51l-46 0 0 180 20 0 0 -80z"/>
  <polygon id="12" class="fil0" points="1253,1088 1253,1070 1182,1070 1182,1003 1248,1003 1248,985 1182,985 1182,926 1252,926 1252,908 1162,908 1162,1088 "/>
  <path id="13" class="fil0" d="M1337 1088c49,0 57,-47 59,-90 1,-45 -7,-90 -63,-90l-49 0 0 180 53 0zm-33 -162l32 0c32,0 38,27 39,68 2,54 -10,76 -39,76l-32 0 0 -144z"/>
  <path class="fil1" d="M866 205c364,0 659,295 659,659 0,363 -295,659 -659,659 -364,0 -659,-296 -659,-659 0,-364 295,-659 659,-659z"/>
  <g style="clip-path:url(#id0)">
   <g id="_476186056">
    <polygon id="1" class="fil2" points="0,523 867,643 1732,523 1732,1204 859,1084 0,1204 "/>
    <polygon class="fil3" points="1732,863 1732,1204 859,1084 0,1204 0,863 "/>
   </g>
  </g>
  <path class="fil4 str0" d="M866 205c364,0 659,295 659,659 0,363 -295,659 -659,659 -364,0 -659,-296 -659,-659 0,-364 295,-659 659,-659z"/>
  <path class="fil1" d="M866 88c56,0 94,-77 149,-67 54,9 64,95 116,114 53,19 115,-40 163,-13 48,28 28,111 71,147 42,36 121,2 157,44 35,43 -12,114 16,163 28,48 113,43 132,95 19,52 -50,103 -40,158 10,55 92,79 92,135 0,55 -82,79 -92,134 -10,55 59,106 40,158 -19,52 -104,47 -132,95 -28,49 19,120 -16,163 -36,42 -115,8 -157,44 -43,36 -23,119 -71,147 -48,27 -110,-32 -163,-13 -52,19 -62,105 -116,114 -55,10 -93,-67 -149,-67 -56,0 -94,77 -149,67 -54,-9 -64,-95 -116,-114 -53,-19 -115,40 -163,13 -48,-28 -28,-111 -70,-147 -43,-36 -122,-2 -157,-44 -36,-43 11,-114 -17,-163 -28,-48 -113,-43 -132,-95 -19,-52 50,-103 40,-158 -9,-55 -92,-79 -92,-134 0,-56 83,-80 92,-135 10,-55 -59,-106 -40,-158 19,-52 104,-47 132,-95 28,-49 -19,-120 17,-163 35,-42 114,-8 157,-44 42,-36 22,-119 70,-147 48,-27 110,32 163,13 52,-19 62,-105 116,-114 55,-10 93,67 149,67zm0 103c371,0 673,302 673,673 0,370 -302,672 -673,672 -370,0 -673,-302 -673,-672 0,-371 303,-673 673,-673z"/>
  <polygon class="fil5" points="733,561 748,561 748,500 782,500 782,487 748,487 748,441 784,441 784,427 733,427 "/>
  <path id="1" class="fil5" d="M801 561l16 0 0 -58 6 0c13,0 18,7 21,25 3,16 6,29 8,33l15 0c-2,-4 -5,-16 -7,-34 -3,-17 -9,-27 -19,-30l0 0c14,-7 22,-18 22,-35 0,-10 -3,-19 -9,-26 -7,-7 -17,-9 -31,-9 -7,0 -15,1 -22,2l0 132zm16 -121c2,-1 5,-1 8,-1 16,0 22,10 22,25 0,16 -9,27 -24,27l-6 0 0 -51z"/>
  <polygon id="2" class="fil5" points="931,485 898,485 898,441 933,441 933,427 882,427 882,561 936,561 936,548 898,548 898,497 931,497 "/>
  <polygon id="3" class="fil5" points="1001,485 968,485 968,441 1003,441 1003,427 953,427 953,561 1006,561 1006,548 968,548 968,497 1001,497 "/>
  <path class="fil0" d="M570 897c-2,14 -11,29 -20,29 -7,0 -10,-6 -10,-16 0,-30 16,-53 30,-53 3,0 5,0 7,2l-7 38zm24 74c-12,7 -25,11 -39,11 -36,0 -62,-25 -62,-76 0,-61 37,-102 76,-102 40,0 58,29 58,67 0,40 -13,59 -25,59 -9,0 -12,-9 -8,-30l10 -55c-7,-3 -18,-6 -28,-6 -38,0 -61,35 -61,72 0,22 10,36 25,36 14,0 26,-9 33,-25l1 0c0,16 7,25 22,25 29,0 47,-29 47,-80 0,-40 -23,-77 -70,-77 -58,0 -97,57 -97,116 0,59 37,89 75,89 17,0 32,-3 47,-12l-4 -12z"/>
  <polygon id="1" class="fil0" points="669,766 669,966 708,966 708,882 748,882 748,966 787,966 787,766 748,766 748,846 708,846 708,766 "/>
  <path id="2" class="fil0" d="M878 764c-44,0 -66,47 -66,101 0,55 18,104 63,104 38,0 65,-31 65,-107 0,-45 -14,-98 -62,-98zm-2 33c18,0 23,32 23,67 0,41 -6,71 -22,71 -16,0 -25,-24 -25,-69 0,-43 9,-69 24,-69z"/>
  <path id="3" class="fil0" d="M1091 966l34 0 -12 -200 -41 0 -16 72c-5,26 -9,48 -12,71l-1 0c-3,-23 -9,-45 -14,-71l-16 -72 -41 0 -15 200 34 0 3 -69c1,-20 2,-46 3,-67l1 0c3,21 8,46 12,62l17 71 27 0 18 -72c3,-15 9,-40 12,-61l1 0c0,21 1,47 2,66l4 70z"/>
  <polygon id="4" class="fil0" points="1239,846 1193,846 1193,800 1241,800 1241,766 1154,766 1154,966 1245,966 1245,932 1193,932 1193,878 1239,878 "/>
  <polygon class="fil5" points="596,1241 562,1241 562,1197 598,1197 598,1184 547,1184 547,1318 600,1318 600,1304 562,1304 562,1254 596,1254 "/>
  <path id="1" class="fil5" d="M611 1313c4,3 13,6 22,6 22,0 38,-15 38,-38 0,-15 -7,-27 -23,-38 -13,-9 -20,-14 -20,-28 0,-9 6,-19 19,-19 7,0 13,2 16,5l4 -13c-3,-3 -11,-5 -19,-5 -21,0 -35,15 -35,35 0,17 14,30 25,37 10,8 18,15 18,28 0,13 -9,22 -23,22 -6,0 -14,-2 -19,-5l-3 13z"/>
  <polygon id="2" class="fil5" points="704,1318 720,1318 720,1198 744,1198 744,1184 680,1184 680,1198 704,1198 "/>
  <polygon id="3" class="fil5" points="759,1184 759,1318 774,1318 774,1184 "/>
  <path id="4" class="fil5" d="M882 1318l14 0 -8 -134 -17 0 -15 61c-4,18 -7,31 -10,46l0 0c-3,-15 -6,-28 -11,-46l-16 -61 -16 0 -8 134 14 0 2 -57c1,-19 2,-38 2,-53l0 0c3,15 7,32 11,49l16 60 10 0 16 -63c4,-16 8,-31 11,-46l1 0c-1,15 0,34 1,52l3 58z"/>
  <path id="5" class="fil5" d="M961 1278l9 40 15 0 -30 -134 -17 0 -30 134 15 0 8 -40 30 0zm-27 -13l7 -34c1,-9 3,-20 5,-30l1 0c1,10 3,21 5,30l7 34 -25 0z"/>
  <polygon id="6" class="fil5" points="1005,1318 1021,1318 1021,1198 1045,1198 1045,1184 981,1184 981,1198 1005,1198 "/>
  <polygon id="7" class="fil5" points="1109,1241 1075,1241 1075,1197 1111,1197 1111,1184 1060,1184 1060,1318 1113,1318 1113,1304 1075,1304 1075,1254 1109,1254 "/>
  <path id="8" class="fil5" d="M1124 1313c3,3 13,6 22,6 21,0 38,-15 38,-38 0,-15 -8,-27 -24,-38 -12,-9 -19,-14 -19,-28 0,-9 6,-19 19,-19 7,0 12,2 16,5l4 -13c-4,-3 -11,-5 -19,-5 -21,0 -35,15 -35,35 0,17 14,30 25,37 10,8 17,15 17,28 0,13 -8,22 -22,22 -7,0 -15,-2 -19,-5l-3 13z"/>
 </g>
</svg>
