<?xml version="1.0" encoding="UTF-8"?>
<!DOCTYPE svg PUBLIC "-//W3C//DTD SVG 1.1//EN" "http://www.w3.org/Graphics/SVG/1.1/DTD/svg11.dtd">
<!-- Creator: CorelDRAW X7 -->
<svg xmlns="http://www.w3.org/2000/svg" xml:space="preserve" width="2.01389in" height="1.77778in" version="1.1" style="shape-rendering:geometricPrecision; text-rendering:geometricPrecision; image-rendering:optimizeQuality; fill-rule:evenodd; clip-rule:evenodd"
viewBox="0 0 2014 1778"
 xmlns:xlink="http://www.w3.org/1999/xlink">
 <defs>
  <style type="text/css">
   <![CDATA[
    .str0 {stroke:white;stroke-width:13.8858}
    .fil3 {fill:none}
    .fil4 {fill:black}
    .fil0 {fill:#006633}
    .fil2 {fill:#009933}
    .fil1 {fill:#33CC33}
    .fil5 {fill:#FEFEFE}
    .fil6 {fill:black;fill-rule:nonzero}
    .fil7 {fill:#FEFEFE;fill-rule:nonzero}
   ]]>
  </style>
   <clipPath id="id0">
    <path d="M279 76c137,6 272,13 404,19 131,6 259,13 386,19 124,6 247,11 368,17 119,6 236,12 352,17 57,3 104,58 103,121 -1,102 -1,203 -2,303 -1,98 -2,196 -3,292 0,95 -1,190 -2,283 -1,92 -1,184 -2,274 -1,55 -45,101 -98,103 -106,5 -215,9 -325,14 -111,4 -224,9 -338,14 -116,4 -234,9 -354,14 -121,5 -244,10 -369,15 -64,3 -119,-44 -125,-104 -8,-100 -17,-200 -26,-302 -9,-104 -18,-208 -27,-314 -9,-107 -19,-215 -28,-325 -10,-111 -19,-224 -29,-338 -6,-70 46,-126 115,-122z"/>
   </clipPath>
 </defs>
 <g id="Layer_x0020_1">
  <metadata id="CorelCorpID_0Corel-Layer"/>
  <path class="fil0" d="M227 81c136,-20 216,109 348,115 131,6 259,12 386,18 124,6 247,12 368,18 119,6 236,11 351,17 58,3 105,57 104,120 -1,103 -2,204 -2,303 -1,99 -2,196 -3,293 -1,95 -1,190 -2,283 -1,92 113,134 104,224 -4,39 -50,83 -106,112 -23,13 -71,16 -87,17 -463,19 -881,62 -1335,81 -74,3 -169,-55 -177,-165 -31,-427 -72,-824 -121,-1255 -8,-71 10,-158 172,-181z"/>
  <path class="fil1" d="M279 76c137,6 272,13 404,19 131,6 259,13 386,19 124,6 247,11 368,17 119,6 236,12 352,17 57,3 104,58 103,121 -1,102 -1,203 -2,303 -1,98 -2,196 -3,292 0,95 -1,190 -2,283 -1,92 -1,184 -2,274 -1,55 -45,101 -98,103 -106,5 -215,9 -325,14 -111,4 -224,9 -338,14 -116,4 -234,9 -354,14 -121,5 -244,10 -369,15 -64,3 -119,-44 -125,-104 -8,-100 -17,-200 -26,-302 -9,-104 -18,-208 -27,-314 -9,-107 -19,-215 -28,-325 -10,-111 -19,-224 -29,-338 -6,-70 46,-126 115,-122z"/>
  <g style="clip-path:url(#id0)">
   <g id="_799594176">
    <polygon id="1" class="fil2" points="83,39 1911,131 1911,900 169,952 "/>
   </g>
  </g>
  <path class="fil3 str0" d="M279 76c137,6 272,13 404,19 131,6 259,13 386,19 124,6 247,11 368,17 119,6 236,12 352,17 57,3 104,58 103,121 -1,102 -1,203 -2,303 -1,98 -2,196 -3,292 0,95 -1,190 -2,283 -1,92 -1,184 -2,274 -1,55 -45,101 -98,103 -106,5 -215,9 -325,14 -111,4 -224,9 -338,14 -116,4 -234,9 -354,14 -121,5 -244,10 -369,15 -64,3 -119,-44 -125,-104 -8,-100 -17,-200 -26,-302 -9,-104 -18,-208 -27,-314 -9,-107 -19,-215 -28,-325 -10,-111 -19,-224 -29,-338 -6,-70 46,-126 115,-122z"/>
  <path class="fil4" d="M1257 1223c-7,-3 -41,-21 -47,-23 -7,-3 -12,-4 -16,3 -5,7 -18,22 -22,27 -4,4 -8,5 -16,1 -6,-3 -29,-11 -56,-36 -21,-19 -35,-43 -39,-50 -4,-7 -1,-11 3,-14 3,-3 7,-8 10,-13 4,-4 5,-7 8,-11 2,-5 1,-9 -1,-13 -2,-3 -16,-39 -22,-54 -6,-15 -12,-13 -16,-13 -5,0 -9,-1 -14,-1 -5,0 -13,2 -19,9 -7,7 -26,24 -25,60 0,35 26,70 29,75 4,4 50,79 121,109 71,28 71,19 84,18 13,-1 41,-16 47,-32 6,-16 6,-30 4,-33 -2,-3 -6,-5 -13,-9zm-122 168c-46,2 -90,-11 -127,-33 -29,10 -59,20 -88,30 9,-28 17,-57 25,-86 -30,-37 -49,-84 -51,-135 -7,-131 95,-239 224,-239 128,0 232,104 235,231 3,125 -94,228 -218,232zm-18 -511c-157,0 -279,130 -271,288 3,53 20,102 48,143 -14,50 -28,100 -43,150 51,-18 101,-36 152,-54 40,20 86,31 134,29 148,-5 264,-128 261,-277 -3,-153 -128,-279 -281,-279z"/>
  <path class="fil5" d="M1273 1210c-6,-4 -40,-21 -47,-24 -6,-2 -11,-3 -15,4 -5,6 -18,22 -23,27 -4,4 -8,5 -15,1 -7,-3 -29,-11 -56,-36 -21,-19 -35,-43 -40,-50 -4,-7 0,-11 4,-14 3,-4 7,-9 10,-13 4,-4 5,-7 7,-11 3,-5 1,-9 0,-13 -2,-4 -16,-40 -22,-54 -6,-15 -12,-13 -17,-13 -4,0 -9,-1 -13,-1 -5,0 -13,2 -20,9 -6,7 -25,24 -25,59 0,36 26,71 30,76 4,4 50,79 121,108 71,29 71,20 83,19 13,-1 41,-16 47,-32 6,-17 6,-31 5,-34 -2,-2 -7,-4 -14,-8zm-121 168c-46,1 -90,-11 -127,-34 -30,11 -59,21 -88,31 8,-28 17,-57 25,-86 -30,-37 -49,-84 -52,-136 -6,-130 95,-238 225,-238 127,0 232,104 235,231 2,125 -95,228 -218,232zm-19 -511c-156,0 -279,129 -270,287 2,53 20,103 48,144 -14,50 -29,100 -43,149 51,-17 101,-35 152,-53 40,20 86,31 133,29 149,-5 264,-128 261,-278 -3,-152 -127,-278 -281,-278z"/>
  <path class="fil6" d="M428 401c-4,-54 -8,-109 -12,-164 -1,-7 1,-12 4,-16 4,-4 9,-6 16,-6 2,0 5,1 9,3 4,2 7,5 9,8 33,42 65,84 98,125 0,0 0,0 1,0 -3,-36 -5,-72 -8,-109 0,-6 2,-12 5,-16 4,-3 9,-5 15,-5 7,0 12,2 16,7 4,4 6,9 7,16 3,55 7,109 10,162 1,7 -1,13 -5,16 -3,4 -8,6 -15,6 -3,0 -6,-1 -9,-3 -4,-2 -7,-5 -9,-7 -32,-40 -65,-81 -97,-122 0,0 0,0 -1,0 3,35 5,71 8,107 1,6 -1,12 -5,15 -4,4 -8,6 -15,6 -6,0 -11,-2 -15,-7 -4,-4 -7,-9 -7,-16zm317 -31c-28,-1 -56,-2 -84,-3 2,10 7,17 14,22 7,6 15,8 25,9 8,0 18,-3 29,-10 7,-3 12,-5 15,-5 4,0 8,1 11,5 4,4 6,8 6,13 0,8 -6,15 -20,22 -13,7 -27,10 -42,10 -22,-1 -41,-9 -55,-24 -15,-15 -23,-34 -24,-57 -2,-21 4,-40 17,-55 12,-15 29,-23 49,-22 20,1 37,10 52,26 15,16 22,33 23,51 1,12 -4,18 -16,18zm-86 -30c20,0 42,1 62,2 -1,-10 -5,-18 -11,-23 -6,-6 -13,-9 -22,-9 -8,-1 -15,2 -20,8 -6,5 -9,12 -9,22zm243 35c-28,-1 -55,-2 -83,-3 2,9 6,17 13,22 7,5 15,8 25,8 8,1 17,-2 29,-9 6,-4 11,-6 14,-6 4,1 8,2 11,6 4,4 6,8 6,12 0,8 -6,16 -19,23 -14,7 -27,10 -43,9 -21,0 -39,-8 -53,-23 -15,-15 -22,-34 -24,-56 -1,-22 5,-40 18,-55 12,-15 29,-23 48,-22 20,1 37,9 51,25 14,16 22,33 23,51 0,12 -5,18 -16,18zm-85 -30c20,1 41,1 62,2 -2,-10 -6,-18 -12,-23 -5,-6 -12,-9 -21,-9 -8,0 -15,2 -20,8 -6,5 -8,13 -9,22zm252 -96c2,57 4,114 6,171 0,6 -1,12 -5,15 -3,4 -8,6 -13,6 -10,0 -17,-6 -20,-17 -3,6 -7,10 -14,13 -6,3 -13,4 -20,4 -18,0 -33,-8 -46,-23 -12,-16 -19,-33 -20,-54 -1,-22 4,-40 15,-56 10,-15 25,-22 43,-21 15,0 27,5 38,15 -1,-18 -2,-36 -3,-55 0,-6 2,-12 5,-16 3,-4 8,-6 13,-5 6,0 11,2 15,6 3,5 5,10 6,17zm-62 156c9,0 16,-3 21,-11 5,-8 7,-18 7,-30 0,-11 -3,-20 -9,-28 -6,-8 -13,-12 -23,-12 -8,0 -15,3 -21,11 -5,8 -7,18 -7,29 1,11 4,20 10,28 6,8 13,13 22,13zm171 18c-2,-51 -4,-104 -5,-156 -1,-7 1,-12 5,-16 3,-4 7,-5 13,-5 6,0 11,2 15,6 3,4 5,10 6,16 0,20 1,40 1,59 27,1 54,2 82,3 -1,-20 -1,-39 -2,-58 0,-7 1,-12 5,-16 3,-4 8,-5 14,-5 5,0 10,2 14,6 3,4 5,10 5,16 2,52 3,104 4,155 0,6 -2,11 -5,15 -3,4 -8,6 -14,5 -5,0 -10,-2 -14,-6 -3,-4 -5,-9 -5,-15 -1,-20 -1,-39 -2,-59 -27,-1 -54,-2 -81,-3 1,20 2,40 2,59 0,7 -1,12 -5,16 -3,3 -8,5 -13,5 -6,0 -11,-2 -15,-6 -3,-4 -5,-9 -5,-16zm294 -30c-25,-1 -51,-2 -76,-3 1,9 5,16 11,22 6,5 14,7 23,8 8,0 16,-3 27,-9 7,-4 11,-6 14,-6 3,0 7,2 10,6 3,3 5,7 5,11 0,8 -6,16 -19,22 -12,6 -26,9 -40,9 -20,0 -36,-8 -49,-22 -13,-14 -19,-33 -20,-55 0,-20 5,-38 18,-53 12,-14 27,-21 46,-20 18,0 34,9 46,24 13,15 20,31 20,49 0,12 -5,17 -16,17zm-78 -29c19,1 38,2 58,2 -2,-9 -5,-16 -10,-22 -5,-5 -12,-8 -20,-8 -7,-1 -13,2 -19,7 -5,5 -8,12 -9,21zm117 69c-1,-55 -1,-111 -2,-167 0,-6 1,-11 5,-15 3,-4 7,-6 13,-5 5,0 10,2 13,6 3,4 5,9 5,16 1,56 1,111 2,166 0,6 -2,11 -5,15 -3,4 -8,6 -13,5 -5,0 -9,-2 -13,-6 -3,-4 -5,-9 -5,-15zm66 58c-1,-53 -1,-106 -2,-159 0,-7 2,-12 5,-16 4,-4 8,-5 13,-5 10,0 16,6 18,17 3,-6 8,-10 14,-13 6,-3 13,-4 20,-4 17,1 31,9 41,24 11,15 16,33 16,54 0,20 -5,36 -16,50 -11,14 -25,21 -42,20 -12,0 -22,-5 -32,-14 0,16 0,31 0,47 0,6 -1,11 -4,15 -4,3 -8,6 -13,5 -5,0 -10,-2 -13,-6 -3,-4 -5,-9 -5,-15zm62 -145c-9,0 -15,3 -20,11 -5,7 -8,15 -7,26 0,11 2,21 7,29 5,8 12,12 20,12 8,0 15,-3 20,-11 5,-7 8,-16 8,-27 0,-10 -3,-19 -8,-27 -5,-8 -12,-13 -20,-13zm-987 379c-4,-69 -8,-138 -12,-208 -1,-9 1,-16 6,-21 4,-5 11,-8 19,-8 3,1 8,2 12,4 5,3 9,6 12,9 41,53 82,105 122,157 0,0 1,0 1,0 -3,-45 -5,-91 -7,-138 -1,-8 1,-15 6,-20 4,-5 11,-8 19,-7 8,0 14,2 20,8 5,5 8,12 8,21 3,69 7,138 10,205 1,9 -1,16 -6,21 -5,4 -11,7 -19,7 -3,0 -7,-1 -12,-4 -5,-2 -8,-5 -11,-8 -40,-50 -80,-101 -121,-153 -1,0 -1,0 -1,0 3,45 5,91 8,136 1,8 -2,15 -6,20 -5,5 -11,8 -19,8 -8,-1 -15,-3 -20,-8 -5,-5 -8,-12 -9,-21zm248 -67c-1,-27 6,-50 23,-70 16,-20 37,-29 63,-28 25,0 47,10 65,30 18,20 27,44 28,71 1,28 -6,51 -22,70 -16,18 -37,27 -63,27 -26,0 -48,-10 -65,-29 -18,-19 -28,-42 -29,-71zm130 2c-1,-14 -5,-27 -13,-37 -7,-10 -17,-16 -29,-16 -13,0 -22,5 -28,15 -7,10 -10,23 -10,37 1,15 5,27 13,37 7,10 17,15 29,15 12,1 22,-4 28,-14 7,-10 10,-22 10,-37zm122 72c-16,-41 -31,-82 -46,-123 -4,-10 -6,-18 -6,-24 -1,-6 2,-11 6,-15 5,-4 10,-6 18,-6 11,1 20,8 25,24 10,32 20,64 30,95 0,0 1,0 1,0 6,-22 12,-44 18,-67 5,-21 9,-34 11,-38 1,-3 4,-6 7,-8 4,-3 8,-4 13,-3 12,0 20,7 25,20 10,33 21,65 31,98 1,0 1,0 1,0 9,-32 17,-64 26,-96 1,-8 4,-13 8,-16 4,-3 9,-4 14,-4 7,0 13,2 17,7 5,5 7,11 7,18 0,4 -1,10 -4,19 -13,40 -25,81 -38,121 -5,17 -15,25 -28,25 -7,0 -13,-2 -18,-6 -4,-4 -8,-10 -11,-19 -9,-27 -18,-54 -27,-80 0,0 0,0 -1,0 -7,26 -14,52 -21,79 -3,9 -7,16 -11,19 -5,4 -10,6 -17,6 -14,0 -24,-9 -30,-26zm272 -68c0,-12 0,-24 -1,-35 0,-4 2,-7 5,-10 4,-2 11,-5 22,-8 11,-3 17,-7 21,-12 3,-4 5,-10 5,-17 -1,-8 -3,-14 -9,-20 -5,-5 -12,-8 -19,-8 -4,0 -9,1 -13,3 -5,2 -11,8 -17,16 -6,7 -10,11 -13,13 -3,1 -7,2 -10,2 -6,0 -11,-2 -15,-7 -3,-5 -5,-11 -5,-19 -1,-11 3,-20 10,-29 7,-9 16,-15 28,-20 12,-5 23,-8 34,-7 23,0 41,8 57,22 15,14 23,33 23,55 0,36 -18,59 -56,69 0,4 0,8 1,12 0,7 -2,13 -7,17 -4,5 -10,7 -16,7 -8,0 -14,-3 -18,-7 -4,-4 -7,-10 -7,-17zm50 72c0,7 -2,13 -6,19 -5,5 -11,7 -18,7 -7,0 -13,-2 -19,-8 -5,-5 -7,-11 -7,-19 0,-7 2,-14 7,-19 5,-5 11,-8 18,-8 7,0 13,3 18,9 5,5 7,11 7,19z"/>
  <path class="fil7" d="M451 399c-4,-55 -8,-109 -12,-164 0,-7 1,-13 5,-17 4,-4 9,-6 15,-5 3,0 6,1 10,3 4,2 7,4 9,7 32,42 65,84 98,125 0,0 0,0 0,0 -2,-36 -5,-72 -7,-108 0,-7 1,-13 5,-16 4,-4 8,-6 15,-6 6,0 11,2 16,7 4,4 6,9 6,16 4,55 7,109 11,163 0,6 -2,12 -5,16 -4,4 -8,5 -15,5 -3,0 -6,-1 -10,-3 -3,-2 -6,-4 -8,-7 -33,-40 -65,-81 -97,-122 0,0 0,0 -1,0 3,36 5,71 8,107 0,7 -1,12 -5,16 -4,4 -9,6 -15,5 -6,0 -11,-2 -16,-6 -4,-4 -6,-10 -7,-16zm318 -32c-28,-1 -56,-2 -84,-3 2,10 6,17 13,22 7,6 16,9 26,9 8,0 17,-3 29,-9 7,-4 11,-6 14,-6 5,0 8,2 12,5 3,4 5,8 5,13 1,8 -5,16 -19,23 -13,6 -28,10 -43,9 -22,-1 -40,-8 -55,-23 -14,-15 -22,-34 -24,-57 -1,-22 5,-40 17,-56 13,-15 30,-22 50,-22 20,1 37,10 52,26 14,16 22,33 23,51 1,12 -5,18 -16,18zm-87 -30c21,1 42,1 63,2 -2,-10 -6,-17 -12,-23 -6,-6 -13,-9 -21,-9 -8,0 -15,2 -21,8 -5,5 -8,13 -9,22zm243 35c-27,-1 -55,-2 -83,-3 2,10 7,17 14,22 7,5 15,8 25,9 8,0 17,-3 28,-10 7,-4 12,-5 15,-5 4,0 8,2 11,5 3,4 5,8 6,12 0,9 -6,16 -20,23 -13,7 -27,10 -42,9 -21,0 -39,-8 -54,-23 -14,-15 -22,-34 -23,-56 -1,-22 5,-40 17,-55 13,-15 29,-22 49,-22 20,1 37,10 51,25 14,16 22,33 22,52 1,11 -4,17 -16,17zm-85 -30c21,1 41,2 62,2 -1,-9 -5,-17 -11,-23 -6,-5 -13,-8 -21,-9 -8,0 -15,3 -21,8 -5,6 -8,13 -9,22zm252 -96c2,57 4,114 7,171 0,7 -2,12 -5,16 -4,4 -8,6 -14,5 -10,0 -16,-5 -19,-17 -3,6 -8,10 -14,13 -7,3 -13,5 -20,4 -18,0 -33,-8 -46,-23 -13,-15 -19,-33 -20,-53 -1,-22 3,-41 14,-56 11,-15 26,-23 44,-22 14,1 27,6 37,15 0,-18 -1,-36 -2,-54 0,-7 1,-12 5,-16 3,-4 8,-6 13,-6 6,0 10,2 14,7 4,4 6,9 6,16zm-62 156c9,1 17,-3 22,-11 5,-8 7,-18 7,-29 -1,-11 -4,-21 -9,-29 -6,-8 -14,-11 -23,-12 -9,0 -16,4 -21,12 -5,8 -7,17 -7,28 0,11 4,20 9,29 6,8 14,12 22,12zm171 19c-1,-52 -3,-104 -5,-157 0,-7 2,-12 5,-16 4,-3 8,-5 14,-5 6,0 11,3 14,7 4,4 6,9 6,16 1,19 1,39 2,58 27,1 54,2 81,3 0,-19 -1,-39 -1,-58 0,-7 1,-12 4,-16 4,-4 8,-5 14,-5 6,0 11,2 14,6 4,4 6,10 6,16 1,52 2,104 4,155 0,7 -2,12 -5,15 -4,4 -8,6 -14,6 -5,0 -10,-3 -14,-7 -4,-3 -5,-9 -5,-15 -1,-19 -1,-39 -2,-59 -27,-1 -54,-2 -81,-3 1,20 1,40 2,60 0,6 -2,11 -5,15 -4,4 -8,6 -14,5 -6,0 -10,-2 -14,-6 -3,-4 -5,-9 -6,-15zm295 -31c-25,-1 -51,-2 -77,-2 2,9 6,16 12,21 6,5 14,8 23,8 7,0 16,-3 27,-9 6,-4 11,-6 13,-6 4,1 7,2 11,6 3,4 4,7 4,12 0,7 -6,15 -18,21 -13,7 -26,10 -40,9 -20,0 -36,-8 -49,-22 -13,-14 -20,-32 -20,-54 -1,-21 5,-39 17,-53 13,-15 28,-22 47,-21 18,1 33,9 46,24 13,15 19,32 20,49 0,12 -5,17 -16,17zm-78 -28c19,0 38,1 57,1 -1,-9 -4,-16 -9,-22 -6,-5 -12,-8 -20,-8 -7,0 -14,2 -19,7 -5,5 -8,13 -9,22zm117 68c-1,-55 -2,-111 -2,-166 0,-7 1,-12 4,-16 4,-4 8,-5 13,-5 6,0 10,2 14,6 3,4 5,10 5,16 0,56 1,111 2,166 0,6 -2,11 -5,15 -4,4 -8,6 -13,6 -5,0 -10,-3 -13,-7 -3,-4 -5,-9 -5,-15zm66 58c-1,-53 -1,-106 -2,-159 0,-7 2,-12 5,-15 3,-4 8,-6 13,-6 9,0 15,6 18,17 3,-6 8,-10 14,-13 6,-3 12,-4 19,-4 17,1 31,9 42,24 10,15 15,34 15,54 1,20 -5,36 -16,50 -11,14 -24,21 -41,21 -12,-1 -23,-5 -32,-15 0,16 0,31 0,47 0,6 -1,11 -5,15 -3,4 -7,6 -12,6 -6,-1 -10,-3 -13,-7 -3,-4 -5,-9 -5,-15zm62 -144c-9,-1 -16,2 -21,10 -5,7 -7,16 -7,27 0,11 3,20 8,28 5,8 12,12 20,12 8,1 15,-3 20,-11 5,-7 7,-16 7,-26 0,-11 -2,-20 -7,-28 -5,-8 -12,-12 -20,-12zm-987 378c-4,-68 -8,-138 -13,-208 0,-9 2,-16 6,-21 5,-5 12,-8 19,-7 4,0 8,1 13,3 5,3 9,6 11,9 42,53 82,106 123,157 0,0 0,0 1,0 -3,-45 -5,-91 -8,-137 0,-9 2,-16 6,-21 5,-5 12,-7 19,-7 9,0 15,3 20,8 5,5 8,12 9,21 3,69 6,138 10,206 0,8 -2,15 -6,20 -5,5 -11,7 -19,7 -4,0 -8,-1 -12,-3 -5,-3 -9,-6 -11,-9 -40,-50 -81,-101 -121,-153 -1,0 -1,0 -1,0 3,46 5,91 8,136 0,9 -2,15 -7,20 -4,5 -11,8 -19,8 -8,0 -14,-3 -19,-8 -6,-5 -8,-12 -9,-21zm248 -66c-2,-27 6,-51 22,-71 17,-19 38,-29 63,-28 26,0 48,11 66,31 17,20 27,43 28,70 1,28 -7,51 -23,70 -16,19 -36,28 -62,28 -26,-1 -48,-10 -66,-29 -17,-20 -27,-43 -28,-71zm129 1c0,-14 -4,-26 -12,-37 -8,-10 -17,-16 -30,-16 -12,0 -21,5 -28,15 -6,10 -10,23 -9,37 1,15 5,27 12,37 8,10 18,16 30,16 12,0 21,-5 28,-15 7,-10 10,-22 9,-37zm122 72c-15,-40 -30,-81 -46,-123 -4,-10 -5,-18 -6,-24 0,-6 2,-11 7,-15 4,-4 10,-6 17,-5 12,0 20,8 25,23 10,32 21,64 31,96 0,0 0,0 0,0 6,-23 12,-45 18,-67 6,-22 10,-35 12,-39 1,-3 4,-6 7,-8 4,-2 8,-3 13,-3 12,0 20,7 24,20 11,33 22,65 32,98 0,0 0,0 1,0 8,-32 17,-64 25,-96 2,-7 5,-12 9,-16 4,-3 8,-4 14,-4 7,0 12,3 17,7 5,5 7,11 7,18 0,4 -1,10 -4,19 -13,40 -26,81 -38,121 -6,17 -15,25 -29,25 -6,0 -12,-2 -17,-6 -5,-4 -8,-10 -11,-19 -9,-27 -18,-53 -27,-80 -1,0 -1,0 -1,0 -7,26 -15,52 -22,79 -2,9 -6,16 -10,20 -5,3 -11,5 -17,5 -14,0 -24,-9 -31,-26zm273 -68c0,-11 -1,-23 -1,-35 0,-3 2,-7 5,-9 3,-3 11,-6 22,-9 10,-3 17,-7 21,-11 3,-5 5,-11 4,-18 0,-7 -3,-14 -8,-19 -5,-6 -12,-8 -19,-8 -5,-1 -9,0 -14,2 -4,3 -10,8 -16,16 -6,7 -10,11 -14,13 -3,2 -6,3 -9,2 -6,0 -11,-2 -15,-7 -4,-5 -6,-11 -6,-19 0,-10 3,-20 10,-29 7,-9 17,-15 28,-20 12,-5 24,-8 35,-7 22,0 41,8 56,22 16,15 23,33 24,55 0,36 -18,59 -56,69 0,4 0,8 0,13 0,6 -2,12 -6,16 -4,5 -10,7 -17,7 -7,0 -13,-2 -17,-7 -5,-4 -7,-10 -7,-17zm50 72c0,7 -2,14 -7,19 -5,5 -11,7 -18,7 -7,0 -13,-2 -18,-8 -5,-5 -7,-11 -8,-19 0,-7 3,-13 7,-19 5,-5 12,-8 19,-8 6,1 12,3 18,9 5,5 7,12 7,19z"/>
 </g>
</svg>
