<?xml version="1.0" encoding="UTF-8"?>
<!DOCTYPE svg PUBLIC "-//W3C//DTD SVG 1.1//EN" "http://www.w3.org/Graphics/SVG/1.1/DTD/svg11.dtd">
<!-- Creator: CorelDRAW X7 -->
<svg xmlns="http://www.w3.org/2000/svg" xml:space="preserve" width="5.41666in" height="0.833331in" version="1.1" style="shape-rendering:geometricPrecision; text-rendering:geometricPrecision; image-rendering:optimizeQuality; fill-rule:evenodd; clip-rule:evenodd"
viewBox="0 0 5417 833"
 xmlns:xlink="http://www.w3.org/1999/xlink">
 <defs>
  <style type="text/css">
   <![CDATA[
    .fil2 {fill:black}
    .fil7 {fill:#1A1A1A}
    .fil5 {fill:white}
    .fil1 {fill:black;fill-rule:nonzero}
    .fil0 {fill:#1A1A1A;fill-rule:nonzero}
    .fil4 {fill:url(#id6)}
    .fil6 {fill:url(#id7)}
    .fil3 {fill:url(#id8)}
   ]]>
  </style>
     <mask id="id0">
  <linearGradient id="id1" gradientUnits="userSpaceOnUse" x1="1639.18" y1="107.926" x2="1520.74" y2="342.814">
   <stop offset="0" style="stop-opacity:1; stop-color:white"/>
   <stop offset="0.458824" style="stop-opacity:-127.502; stop-color:white"/>
   <stop offset="1" style="stop-opacity:0; stop-color:white"/>
  </linearGradient>
      <rect style="fill:url(#id1)" x="1352" y="133" width="372" height="266"/>
     </mask>
     <mask id="id2">
  <linearGradient id="id3" gradientUnits="userSpaceOnUse" x1="1175.54" y1="321.281" x2="1258.81" y2="348.536">
   <stop offset="0" style="stop-opacity:1; stop-color:white"/>
   <stop offset="0.639216" style="stop-opacity:-127.502; stop-color:white"/>
   <stop offset="1" style="stop-opacity:0; stop-color:white"/>
  </linearGradient>
      <rect style="fill:url(#id3)" x="1202" y="173" width="165" height="362"/>
     </mask>
     <mask id="id4">
  <linearGradient id="id5" gradientUnits="userSpaceOnUse" x1="1718.1" y1="621.905" x2="1679.34" y2="580.536">
   <stop offset="0" style="stop-opacity:1; stop-color:white"/>
   <stop offset="1" style="stop-opacity:0; stop-color:white"/>
  </linearGradient>
      <rect style="fill:url(#id5)" x="1562" y="445" width="191" height="241"/>
     </mask>
  <linearGradient id="id6" gradientUnits="userSpaceOnUse" x1="1718.56" y1="327.973" x2="1358.24" y2="204.311">
   <stop offset="0" style="stop-opacity:1; stop-color:#FEFEFE"/>
   <stop offset="1" style="stop-opacity:1; stop-color:#FEFEFE"/>
  </linearGradient>
  <linearGradient id="id7" gradientUnits="userSpaceOnUse" xlink:href="#id6" x1="1701.23" y1="602.249" x2="1648.05" y2="564.492">
  </linearGradient>
  <radialGradient id="id8" gradientUnits="userSpaceOnUse" gradientTransform="matrix(1.38539 -0 -0 1.38539 -529 -129)" cx="1372.52" cy="334.323" r="693.11" fx="1372.52" fy="334.323">
   <stop offset="0" style="stop-opacity:1; stop-color:#FEFEFE"/>
   <stop offset="0.411765" style="stop-opacity:1; stop-color:#79C9D9"/>
   <stop offset="0.701961" style="stop-opacity:1; stop-color:#009E8B"/>
   <stop offset="1" style="stop-opacity:1; stop-color:#076E66"/>
  </radialGradient>
 </defs>
 <g id="Layer_x0020_1">
  <metadata id="CorelCorpID_0Corel-Layer"/>
  <g id="_506593392">
   <path class="fil0" d="M1935 762l33 -157 26 0 15 102c2,13 3,26 3,38 5,-10 12,-24 22,-43l55 -97 27 0 -33 157 -21 0 17 -76c3,-18 9,-38 16,-60 -5,10 -11,21 -17,33l-59 103 -20 0 -14 -101c-2,-9 -3,-20 -3,-32 -2,14 -4,25 -6,33l-21 100 -20 0z"/>
   <path id="1" class="fil0" d="M2118 719c0,-22 6,-41 20,-55 10,-12 25,-18 42,-18 14,0 25,4 33,13 9,8 13,20 13,34 0,13 -3,26 -8,37 -5,11 -13,20 -23,26 -9,6 -20,9 -30,9 -9,0 -17,-2 -25,-6 -7,-4 -13,-9 -16,-16 -4,-7 -6,-15 -6,-24zm19 -2c0,11 3,19 8,25 5,5 12,8 20,8 4,0 8,-1 12,-3 4,-1 8,-4 12,-7 3,-4 6,-8 9,-12 2,-5 4,-9 6,-14 2,-7 3,-14 3,-21 0,-10 -3,-18 -8,-24 -5,-5 -12,-8 -19,-8 -7,0 -12,1 -17,4 -5,3 -10,7 -14,13 -4,5 -7,12 -9,19 -2,8 -3,14 -3,20z"/>
   <path id="2" class="fil0" d="M2237 762l24 -114 18 0 -5 20c8,-8 15,-13 22,-17 7,-4 14,-5 21,-5 9,0 17,2 22,7 5,5 8,12 8,20 0,5 -1,11 -3,20l-16 69 -19 0 16 -72c2,-7 3,-12 3,-15 0,-4 -2,-7 -4,-10 -3,-2 -7,-3 -12,-3 -10,0 -19,3 -27,10 -8,8 -14,20 -18,37l-11 53 -19 0z"/>
   <path id="3" class="fil0" d="M2436 746c-11,13 -22,19 -34,19 -11,0 -20,-4 -27,-12 -8,-8 -11,-20 -11,-35 0,-14 3,-26 8,-38 6,-11 13,-20 22,-26 8,-5 17,-8 25,-8 15,0 25,7 32,20l13 -61 20 0 -33 157 -18 0 3 -16zm-53 -32c0,8 1,15 2,19 2,5 5,9 9,12 3,3 8,4 13,4 9,0 17,-4 24,-14 10,-12 15,-27 15,-45 0,-8 -3,-16 -7,-21 -5,-5 -11,-7 -18,-7 -5,0 -9,1 -13,3 -4,2 -8,5 -11,10 -4,5 -7,12 -10,19 -3,8 -4,15 -4,20z"/>
   <path id="4" class="fil0" d="M2559 748c-7,6 -13,10 -20,13 -6,2 -13,4 -20,4 -10,0 -19,-3 -25,-9 -7,-7 -10,-15 -10,-24 0,-7 2,-12 5,-17 2,-5 6,-9 11,-12 5,-3 11,-5 18,-6 4,-1 12,-2 25,-2 12,-1 21,-2 26,-4 2,-6 2,-10 2,-13 0,-5 -1,-8 -5,-11 -4,-4 -11,-5 -19,-5 -9,0 -15,1 -21,5 -5,4 -9,9 -11,15l-20 -1c4,-12 11,-20 19,-26 9,-6 20,-9 33,-9 14,0 26,3 34,10 6,5 9,11 9,19 0,6 -1,13 -2,22l-7 28c-2,9 -3,16 -3,22 0,4 1,9 3,15l-20 0c-1,-3 -2,-8 -2,-14zm7 -44c-3,2 -6,2 -9,3 -3,1 -8,1 -15,2 -12,1 -20,2 -24,4 -5,1 -9,4 -11,7 -2,3 -3,7 -3,11 0,6 1,10 5,14 4,3 9,5 16,5 7,0 13,-2 19,-5 6,-4 11,-8 14,-15 3,-6 6,-14 8,-26z"/>
   <path id="5" class="fil0" d="M2597 806l1 -18c4,1 8,2 12,2 4,0 7,-1 9,-3 4,-2 7,-7 11,-13l6 -11 -19 -115 19 0 9 58c1,11 3,22 4,34l51 -92 20 0 -72 129c-7,13 -14,21 -19,25 -5,5 -12,7 -19,7 -4,0 -9,-1 -13,-3z"/>
   <polygon id="6" class="fil0" points="2717,715 2721,696 2781,696 2777,715 "/>
   <path id="7" class="fil0" d="M2796 712l21 -2 -1 5c0,6 2,12 4,17 3,5 8,9 14,11 7,3 14,5 23,5 13,0 22,-3 29,-9 7,-5 10,-12 10,-19 0,-5 -2,-9 -5,-13 -4,-4 -14,-10 -30,-17 -12,-5 -20,-9 -25,-12 -7,-5 -12,-10 -16,-15 -3,-6 -5,-12 -5,-19 0,-8 3,-15 7,-22 5,-6 11,-11 20,-15 8,-3 18,-5 29,-5 12,0 23,2 32,7 9,4 15,10 19,17 4,7 6,14 6,20 0,1 0,2 0,3l-20 2c0,-4 -1,-8 -1,-10 -2,-5 -4,-8 -7,-11 -3,-4 -7,-6 -12,-8 -6,-2 -12,-3 -18,-3 -12,0 -20,3 -27,8 -5,4 -7,9 -7,16 0,4 1,7 3,10 2,3 6,6 11,9 3,2 12,7 26,13 12,5 19,9 24,12 5,3 10,8 13,13 3,6 4,12 4,19 0,8 -2,16 -7,23 -6,8 -13,13 -22,17 -9,4 -20,6 -31,6 -18,0 -33,-4 -44,-12 -11,-7 -17,-21 -17,-41z"/>
   <path id="8" class="fil0" d="M3013 742c-14,15 -28,23 -42,23 -9,0 -16,-3 -22,-8 -5,-5 -8,-11 -8,-18 0,-5 1,-13 4,-25l15 -66 20 0 -17 74c-1,6 -2,11 -2,14 0,4 1,7 4,10 3,2 6,3 12,3 5,0 11,-1 16,-4 5,-3 10,-6 13,-11 4,-4 7,-9 10,-16 1,-4 3,-10 5,-20l11 -50 20 0 -26 114 -18 0 5 -20z"/>
   <path id="9" class="fil0" d="M3057 762l24 -114 18 0 -4 20c7,-8 15,-13 21,-17 7,-4 14,-5 21,-5 9,0 17,2 22,7 5,5 8,12 8,20 0,5 -1,11 -3,20l-15 69 -20 0 16 -72c2,-7 3,-12 3,-15 0,-4 -2,-7 -4,-10 -3,-2 -7,-3 -12,-3 -10,0 -19,3 -27,10 -8,8 -14,20 -18,37l-11 53 -19 0z"/>
   <path id="10" class="fil0" d="M3256 746c-11,13 -22,19 -34,19 -11,0 -20,-4 -27,-12 -8,-8 -11,-20 -11,-35 0,-14 3,-26 8,-38 6,-11 13,-20 22,-26 8,-5 17,-8 26,-8 14,0 24,7 32,20l13 -61 19 0 -33 157 -18 0 3 -16zm-53 -32c0,8 1,15 3,19 1,5 4,9 8,12 3,3 8,4 13,4 9,0 17,-4 24,-14 10,-12 15,-27 15,-45 0,-8 -3,-16 -7,-21 -5,-5 -11,-7 -18,-7 -5,0 -9,1 -13,3 -4,2 -8,5 -11,10 -4,5 -7,12 -10,19 -2,8 -4,15 -4,20z"/>
   <path id="11" class="fil0" d="M3379 748c-7,6 -13,10 -19,13 -7,2 -13,4 -20,4 -11,0 -19,-3 -26,-9 -6,-7 -10,-15 -10,-24 0,-7 2,-12 5,-17 3,-5 6,-9 11,-12 5,-3 11,-5 18,-6 4,-1 13,-2 25,-2 12,-1 21,-2 26,-4 2,-6 3,-10 3,-13 0,-5 -2,-8 -5,-11 -5,-4 -12,-5 -20,-5 -8,0 -15,1 -20,5 -6,4 -9,9 -12,15l-19 -1c4,-12 10,-20 19,-26 8,-6 19,-9 33,-9 14,0 25,3 33,10 6,5 9,11 9,19 0,6 0,13 -2,22l-6 28c-2,9 -3,16 -3,22 0,4 0,9 2,15l-20 0c-1,-3 -2,-8 -2,-14zm7 -44c-2,2 -5,2 -8,3 -4,1 -9,1 -16,2 -12,1 -20,2 -24,4 -5,1 -8,4 -11,7 -2,3 -3,7 -3,11 0,6 2,10 5,14 4,3 9,5 16,5 7,0 13,-2 19,-5 6,-4 11,-8 14,-15 4,-6 6,-14 8,-26z"/>
   <path id="12" class="fil0" d="M3417 806l1 -18c4,1 8,2 12,2 4,0 7,-1 10,-3 3,-2 6,-7 10,-13l6 -11 -19 -115 19 0 9 58c2,11 3,22 4,34l51 -92 21 0 -73 129c-7,13 -13,21 -19,25 -5,5 -12,7 -19,7 -4,0 -9,-1 -13,-3z"/>
   <path id="13" class="fil0" d="M3682 762c1,-10 5,-23 11,-38 6,-18 15,-36 26,-53 11,-18 23,-33 36,-46l-79 0 4 -18 101 0 -4 18c-17,15 -32,34 -45,58 -14,27 -25,54 -30,79l-20 0z"/>
   <path id="14" class="fil0" d="M3804 670l4 -22 22 0 -4 22 -22 0zm-19 92l4 -22 22 0 -4 22 -22 0z"/>
   <path id="15" class="fil0" d="M3849 711c0,-14 2,-27 6,-41 4,-14 8,-25 13,-33 5,-8 10,-15 15,-19 5,-5 11,-8 16,-10 5,-3 10,-4 16,-4 12,0 22,5 31,14 8,9 12,22 12,38 0,18 -3,35 -9,52 -6,20 -15,35 -27,46 -9,7 -20,11 -31,11 -12,0 -22,-5 -30,-14 -8,-9 -12,-23 -12,-40zm19 5c0,9 1,17 4,22 5,8 11,12 20,12 7,0 14,-4 20,-11 9,-9 16,-23 20,-42 5,-18 7,-33 7,-45 0,-11 -2,-20 -6,-25 -5,-5 -10,-7 -17,-7 -6,0 -10,1 -15,4 -4,3 -9,7 -13,14 -6,9 -11,22 -15,40 -4,16 -5,28 -5,38z"/>
   <path id="16" class="fil0" d="M3971 711c0,-14 2,-27 6,-41 4,-14 9,-25 14,-33 4,-8 9,-15 15,-19 5,-5 10,-8 15,-10 5,-3 11,-4 17,-4 12,0 22,5 30,14 8,9 12,22 12,38 0,18 -3,35 -8,52 -7,20 -16,35 -28,46 -9,7 -19,11 -31,11 -11,0 -21,-5 -29,-14 -9,-9 -13,-23 -13,-40zm19 5c0,9 2,17 5,22 4,8 11,12 19,12 8,0 15,-4 21,-11 9,-9 15,-23 20,-42 4,-18 7,-33 7,-45 0,-11 -3,-20 -7,-25 -4,-5 -10,-7 -17,-7 -5,0 -10,1 -14,4 -5,3 -9,7 -13,14 -6,9 -11,22 -15,40 -4,16 -6,28 -6,38z"/>
   <path id="17" class="fil0" d="M4224 748c-7,6 -14,10 -20,13 -6,2 -13,4 -20,4 -10,0 -19,-3 -25,-9 -7,-7 -10,-15 -10,-24 0,-7 1,-12 4,-17 3,-5 7,-9 12,-12 5,-3 11,-5 18,-6 4,-1 12,-2 25,-2 12,-1 21,-2 26,-4 1,-6 2,-10 2,-13 0,-5 -1,-8 -5,-11 -4,-4 -11,-5 -20,-5 -8,0 -15,1 -20,5 -5,4 -9,9 -11,15l-20 -1c4,-12 11,-20 19,-26 9,-6 20,-9 33,-9 14,0 25,3 34,10 6,5 9,11 9,19 0,6 -1,13 -2,22l-7 28c-2,9 -3,16 -3,22 0,4 1,9 3,15l-20 0c-1,-3 -2,-8 -2,-14zm7 -44c-3,2 -6,2 -9,3 -3,1 -8,1 -16,2 -11,1 -19,2 -24,4 -4,1 -8,4 -10,7 -2,3 -4,7 -4,11 0,6 2,10 6,14 4,3 9,5 16,5 7,0 13,-2 19,-5 6,-4 10,-8 14,-15 3,-6 6,-14 8,-26z"/>
   <path id="18" class="fil0" d="M4269 762l24 -114 19 0 -4 19c8,-8 14,-14 20,-17 6,-3 12,-4 18,-4 7,0 13,2 18,5 5,4 8,9 10,16 5,-7 12,-12 18,-16 6,-4 13,-5 20,-5 10,0 17,2 22,6 5,5 7,11 7,19 0,4 -1,10 -3,18l-15 73 -20 0 16 -75c2,-6 2,-11 2,-13 0,-4 -1,-7 -3,-9 -3,-2 -6,-3 -10,-3 -6,0 -12,2 -18,5 -6,3 -11,8 -14,14 -4,5 -7,14 -9,26l-12 55 -19 0 16 -77c1,-5 2,-9 2,-11 0,-4 -1,-7 -4,-9 -2,-2 -5,-3 -9,-3 -5,0 -11,2 -17,5 -6,4 -11,8 -15,15 -4,6 -7,15 -9,26l-12 54 -19 0z"/>
   <polygon id="19" class="fil0" points="4455,715 4460,696 4519,696 4515,715 "/>
   <path id="20" class="fil0" d="M4533 726l19 -1c1,8 3,14 7,18 4,4 8,6 14,6 7,0 14,-3 20,-10 10,-9 17,-23 21,-41 -6,5 -12,9 -17,11 -5,2 -10,3 -16,3 -9,0 -18,-3 -26,-10 -10,-8 -15,-20 -15,-36 0,-18 6,-33 18,-45 10,-11 22,-17 36,-17 14,0 24,5 33,15 9,9 13,23 13,41 0,17 -3,34 -9,50 -7,20 -16,34 -27,44 -10,7 -20,11 -32,11 -11,0 -20,-3 -27,-10 -7,-7 -11,-16 -12,-29zm26 -62c0,10 3,18 8,24 5,5 12,8 19,8 5,0 11,-2 16,-5 5,-4 10,-9 14,-16 3,-8 5,-15 5,-23 0,-6 -1,-11 -3,-17 -3,-5 -6,-9 -11,-11 -4,-3 -8,-4 -13,-4 -4,0 -9,1 -13,3 -4,3 -8,6 -11,10 -4,5 -7,10 -8,16 -2,5 -3,11 -3,15z"/>
   <path id="21" class="fil0" d="M4673 670l4 -22 22 0 -4 22 -22 0zm-19 92l4 -22 22 0 -5 22 -21 0z"/>
   <path id="22" class="fil0" d="M4718 711c0,-14 2,-27 6,-41 4,-14 8,-25 13,-33 5,-8 10,-15 15,-19 5,-5 11,-8 16,-10 5,-3 10,-4 16,-4 12,0 22,5 31,14 8,9 12,22 12,38 0,18 -3,35 -9,52 -6,20 -16,35 -27,46 -9,7 -20,11 -31,11 -12,0 -22,-5 -30,-14 -8,-9 -12,-23 -12,-40zm19 5c0,9 1,17 4,22 5,8 11,12 20,12 7,0 14,-4 20,-11 9,-9 16,-23 20,-42 5,-18 7,-33 7,-45 0,-11 -2,-20 -6,-25 -5,-5 -10,-7 -18,-7 -5,0 -10,1 -14,4 -4,3 -9,7 -13,14 -6,9 -11,22 -15,40 -4,16 -5,28 -5,38z"/>
   <path id="23" class="fil0" d="M4840 711c0,-14 2,-27 6,-41 4,-14 9,-25 14,-33 4,-8 9,-15 15,-19 5,-5 10,-8 15,-10 5,-3 11,-4 17,-4 12,0 22,5 30,14 8,9 12,22 12,38 0,18 -3,35 -8,52 -7,20 -16,35 -28,46 -9,7 -19,11 -31,11 -11,0 -21,-5 -30,-14 -8,-9 -12,-23 -12,-40zm19 5c0,9 2,17 5,22 4,8 11,12 19,12 8,0 15,-4 21,-11 9,-9 15,-23 20,-42 4,-18 7,-33 7,-45 0,-11 -3,-20 -7,-25 -4,-5 -10,-7 -17,-7 -5,0 -10,1 -15,4 -4,3 -8,7 -12,14 -6,9 -11,22 -16,40 -3,16 -5,28 -5,38z"/>
   <path id="24" class="fil0" d="M5007 806l33 -158 18 0 -4 16c7,-7 13,-12 18,-14 5,-3 11,-4 17,-4 11,0 20,4 27,12 7,7 11,19 11,34 0,11 -2,22 -6,32 -4,10 -9,18 -15,24 -5,5 -11,10 -17,13 -6,2 -12,4 -18,4 -14,0 -25,-7 -32,-21l-13 62 -19 0zm38 -90c0,8 1,14 2,17 2,5 5,9 9,12 4,3 8,4 14,4 11,0 20,-6 27,-19 7,-12 10,-25 10,-38 0,-10 -2,-18 -7,-23 -4,-5 -10,-8 -17,-8 -5,0 -9,2 -14,4 -4,3 -8,7 -12,12 -3,5 -6,12 -9,19 -2,8 -3,14 -3,20z"/>
   <path id="25" class="fil0" d="M5138 762l24 -114 19 0 -4 19c8,-8 14,-14 20,-17 5,-3 12,-4 18,-4 7,0 13,2 18,5 5,4 8,9 10,16 5,-7 12,-12 18,-16 6,-4 13,-5 20,-5 10,0 17,2 22,6 4,5 7,11 7,19 0,4 -1,10 -3,18l-15 73 -20 0 16 -75c2,-6 2,-11 2,-13 0,-4 -1,-7 -3,-9 -3,-2 -6,-3 -10,-3 -6,0 -12,2 -18,5 -6,3 -11,8 -14,14 -4,5 -7,14 -9,26l-12 55 -19 0 16 -77c1,-5 2,-9 2,-11 0,-4 -1,-7 -4,-9 -2,-2 -5,-3 -9,-3 -5,0 -11,2 -17,5 -6,4 -11,8 -15,15 -4,6 -7,15 -9,26l-12 54 -19 0z"/>
   <path class="fil0" d="M2061 398l-154 0 13 -63 213 -249 66 0 -52 248 48 0 -14 64 -48 0 -16 80 -73 0 17 -80zm14 -64l25 -123 -103 123 78 0z"/>
   <path id="1" class="fil0" d="M2262 254l14 -69c67,-29 118,-62 154,-100l47 0 -82 393 -78 0 57 -271c-16,11 -35,20 -56,29 -21,8 -40,14 -56,18z"/>
   <path id="2" class="fil0" d="M2816 182l-71 6c-2,-16 -5,-26 -11,-33 -6,-6 -14,-9 -25,-9 -13,0 -24,5 -34,15 -15,15 -26,39 -35,72 17,-11 34,-16 53,-16 30,0 55,10 74,31 20,20 30,49 30,84 0,29 -7,56 -21,81 -14,25 -31,44 -51,55 -21,12 -42,18 -65,18 -22,0 -42,-6 -59,-17 -18,-11 -31,-27 -41,-48 -9,-21 -14,-49 -14,-85 0,-70 15,-129 46,-178 31,-49 72,-73 123,-73 29,0 52,8 70,24 17,16 28,40 31,73zm-196 181c0,21 4,36 12,46 8,10 18,15 30,15 15,0 28,-7 38,-21 15,-19 22,-44 22,-76 0,-20 -4,-36 -12,-45 -8,-10 -18,-15 -29,-15 -10,0 -20,4 -30,11 -10,8 -17,19 -23,36 -5,16 -8,32 -8,49z"/>
   <polygon id="3" class="fil0" points="2843,300 2992,300 2977,374 2828,374 "/>
   <path id="4" class="fil0" d="M3106 262c-13,-9 -24,-19 -30,-31 -7,-12 -11,-25 -11,-39 0,-17 5,-34 15,-52 9,-17 24,-31 43,-40 19,-10 41,-15 65,-15 35,0 62,9 82,27 19,18 29,41 29,69 0,19 -5,37 -16,51 -11,15 -28,27 -50,36 16,10 28,22 36,36 8,14 12,30 12,48 0,30 -10,57 -29,81 -27,35 -65,53 -112,53 -35,0 -63,-11 -84,-31 -21,-21 -31,-47 -31,-78 0,-26 7,-50 22,-71 14,-20 34,-35 59,-44zm29 -65c0,12 4,22 12,30 7,7 17,11 29,11 14,0 26,-5 36,-16 11,-10 16,-22 16,-36 0,-13 -4,-23 -11,-31 -8,-8 -18,-12 -30,-12 -14,0 -26,5 -36,16 -11,10 -16,23 -16,38zm-34 181c0,15 4,26 13,35 7,8 18,12 31,12 19,0 35,-8 45,-26 11,-18 17,-37 17,-57 0,-13 -4,-24 -13,-33 -8,-8 -19,-12 -31,-12 -16,0 -31,7 -43,22 -12,15 -19,34 -19,59z"/>
   <path id="5" class="fil0" d="M3350 162l14 -70 259 0 -11 54c-17,14 -35,33 -55,60 -19,26 -38,56 -55,89 -16,32 -30,63 -41,93 -15,40 -24,71 -27,90l-73 0c3,-19 10,-46 22,-80 15,-42 33,-83 55,-122 22,-40 49,-77 79,-114l-167 0z"/>
   <path id="6" class="fil0" d="M3633 388l71 -5c2,15 5,26 11,32 6,6 15,9 25,9 13,0 24,-5 34,-15 15,-15 27,-39 35,-72 -16,11 -34,17 -52,17 -31,0 -56,-11 -75,-31 -20,-21 -30,-49 -30,-85 0,-40 13,-76 38,-107 25,-31 59,-46 100,-46 37,0 65,13 85,40 19,26 29,63 29,108 0,71 -16,131 -47,179 -31,49 -72,74 -123,74 -30,0 -54,-9 -72,-26 -17,-17 -27,-41 -29,-72zm197 -181c0,-21 -4,-37 -12,-46 -9,-10 -19,-15 -31,-15 -15,0 -27,7 -38,21 -14,19 -22,44 -22,76 0,20 4,36 12,45 8,10 18,15 30,15 9,0 19,-4 29,-11 10,-8 18,-20 23,-36 6,-16 9,-33 9,-49z"/>
   <polygon id="7" class="fil0" points="3939,300 4088,300 4074,374 3925,374 "/>
   <path id="8" class="fil0" d="M4142 162l14 -70 259 0 -12 54c-16,14 -34,33 -54,60 -20,26 -38,56 -55,89 -17,32 -30,63 -41,93 -15,40 -24,71 -28,90l-72 0c3,-19 10,-46 22,-80 15,-42 33,-83 55,-122 22,-40 48,-77 79,-114l-167 0z"/>
   <path id="9" class="fil0" d="M4455 254l14 -69c67,-29 118,-62 154,-100l47 0 -82 393 -78 0 57 -271c-16,11 -35,20 -56,29 -21,8 -39,14 -56,18z"/>
   <path id="10" class="fil0" d="M4729 388l72 -5c1,15 5,26 11,32 6,6 14,9 24,9 13,0 25,-5 35,-15 15,-15 26,-39 35,-72 -17,11 -34,17 -53,17 -30,0 -55,-11 -75,-31 -19,-21 -29,-49 -29,-85 0,-40 12,-76 38,-107 25,-31 58,-46 100,-46 36,0 65,13 84,40 19,26 29,63 29,108 0,71 -15,131 -46,179 -32,49 -73,74 -123,74 -30,0 -54,-9 -72,-26 -18,-17 -28,-41 -30,-72zm197 -181c0,-21 -4,-37 -12,-46 -8,-10 -18,-15 -30,-15 -15,0 -28,7 -39,21 -14,19 -21,44 -21,76 0,20 4,36 12,45 8,10 18,15 29,15 10,0 20,-4 30,-11 10,-8 17,-20 23,-36 5,-16 8,-33 8,-49z"/>
   <path id="11" class="fil0" d="M5117 262c-14,-9 -24,-19 -31,-31 -7,-12 -10,-25 -10,-39 0,-17 5,-34 14,-52 10,-17 24,-31 44,-40 19,-10 40,-15 65,-15 35,0 62,9 81,27 20,18 30,41 30,69 0,19 -6,37 -17,51 -11,15 -27,27 -49,36 16,10 28,22 35,36 8,14 12,30 12,48 0,30 -9,57 -28,81 -28,35 -65,53 -113,53 -34,0 -62,-11 -83,-31 -21,-21 -32,-47 -32,-78 0,-26 8,-50 22,-71 15,-20 35,-35 60,-44zm29 -65c0,12 4,22 11,30 8,7 18,11 30,11 13,0 25,-5 36,-16 10,-10 16,-22 16,-36 0,-13 -4,-23 -12,-31 -8,-8 -17,-12 -29,-12 -14,0 -27,5 -37,16 -10,10 -15,23 -15,38zm-34 181c0,15 4,26 12,35 8,8 19,12 31,12 20,0 35,-8 46,-26 11,-18 16,-37 16,-57 0,-13 -4,-24 -12,-33 -8,-8 -19,-12 -32,-12 -16,0 -30,7 -42,22 -13,15 -19,34 -19,59z"/>
   <path class="fil1" d="M549 263c19,0 28,1 23,21 -2,11 -7,21 -19,21l-13 0 9 -42zm-16 73l13 0c10,1 11,8 10,18 -1,11 -5,25 -7,40 -1,3 -1,7 0,10l44 0 0 -3c-1,-1 -2,-3 -2,-5 0,-11 6,-41 7,-55 2,-12 -4,-19 -15,-22l0 0c19,-8 26,-21 30,-39 7,-34 -6,-48 -39,-48l-59 0 -36 172 40 0 14 -68z"/>
   <path id="1" class="fil1" d="M638 404l12 -34 32 0 -1 34 40 0 -1 -172 -48 0 -74 172 40 0zm46 -64l-23 0 28 -77 1 0 -6 77z"/>
   <path id="2" class="fil1" d="M805 263l5 0c6,0 11,0 15,2 6,3 5,13 3,19 -1,6 -3,13 -8,18 -8,5 -16,4 -24,4l9 -43zm-30 141l15 -67c15,-1 31,1 46,-5 20,-9 29,-30 33,-48 3,-14 4,-27 -4,-37 -8,-13 -30,-15 -46,-15l-47 0 -37 172 40 0z"/>
   <polygon id="3" class="fil1" points="902,404 938,232 898,232 862,404 "/>
   <path id="4" class="fil1" d="M978 404c13,0 26,-1 38,-8 13,-8 21,-20 25,-37l16 -76c3,-17 4,-33 -9,-43 -12,-7 -29,-8 -44,-8l-43 0 -37 172 54 0zm16 -141c20,1 26,2 22,22l-12 56c-4,23 -7,34 -33,32l23 -110z"/>
   <path id="5" class="fil1" d="M114 463c20,0 28,1 24,21 -3,10 -8,21 -19,21l-14 0 9 -42zm-16 73l14 0c9,1 11,8 10,18 -2,11 -5,25 -8,40 -1,3 0,6 0,10l44 0 1 -3c-2,-1 -3,-3 -3,-6 0,-11 6,-40 8,-54 2,-12 -5,-19 -15,-22l0 0c18,-8 25,-21 29,-39 7,-34 -6,-48 -39,-48l-59 0 -36 172 40 0 14 -68z"/>
   <polygon id="6" class="fil1" points="267,604 274,569 219,569 227,532 277,532 285,498 234,498 241,467 293,467 300,432 208,432 172,604 "/>
   <path id="7" class="fil1" d="M291 546l-4 19c-4,22 7,43 44,43 33,0 55,-18 62,-51 5,-21 1,-33 -6,-41 -8,-9 -19,-15 -32,-25 -7,-5 -11,-10 -8,-21 2,-7 8,-12 16,-11 13,1 10,15 8,25l37 0c9,-32 -4,-56 -39,-56 -31,0 -54,17 -61,49 -3,15 -1,25 5,34 5,9 15,15 25,23 10,6 20,11 17,26 -2,8 -8,17 -17,17 -13,0 -14,-9 -12,-19l3 -12 -38 0z"/>
   <path id="8" class="fil1" d="M472 463l4 0c7,0 12,0 16,2 6,3 4,13 3,19 -1,6 -4,13 -9,18 -7,5 -16,4 -23,4l9 -43zm-30 141l14 -67c15,-1 31,1 47,-6 20,-8 28,-29 32,-47 3,-14 4,-27 -3,-38 -8,-12 -30,-14 -46,-14l-48 0 -36 172 40 0z"/>
   <path id="9" class="fil1" d="M606 553c-2,9 -7,24 -20,24 -13,0 -11,-15 -9,-24l15 -71c2,-10 6,-23 19,-23 14,0 12,13 10,23l-15 71zm55 -74c7,-33 -8,-51 -43,-51 -35,0 -59,18 -66,51l-14 70c-9,39 1,59 42,59 41,0 58,-20 66,-59l15 -70z"/>
   <polygon id="10" class="fil1" points="720,604 761,604 797,432 759,432 743,528 742,528 731,432 690,432 654,604 692,604 708,508 709,508 "/>
   <path id="11" class="fil1" d="M787 546l-4 19c-5,22 6,43 43,43 33,0 56,-18 62,-51 5,-21 2,-33 -6,-41 -7,-9 -19,-15 -32,-25 -7,-5 -11,-10 -8,-21 3,-7 9,-12 17,-11 13,1 9,15 8,25l37 0c8,-32 -4,-56 -39,-56 -31,0 -54,17 -61,49 -3,15 -1,25 4,34 6,9 15,15 26,23 9,6 20,11 17,26 -2,8 -8,17 -18,17 -12,0 -14,-9 -12,-19l3 -12 -37 0z"/>
   <polygon id="12" class="fil1" points="990,604 998,569 943,569 951,532 1001,532 1009,498 958,498 965,467 1017,467 1024,432 932,432 896,604 "/>
   <path class="fil2" d="M476 234l-355 0 -5 26 354 0 6 -26zm-371 74l354 0 6 -25 -354 0 -6 25zm-10 48l353 0 6 -25 -353 0 -6 25zm-10 48l352 0 6 -24 -353 0 -5 24z"/>
   <g>
    <circle class="fil3" cx="1484" cy="422" r="293"/>
    <path class="fil4" style="mask:url(#id0)" d="M1578 150c-99,-34 -198,-10 -220,54 -22,64 41,144 141,178 99,34 198,10 220,-54 22,-64 -41,-144 -141,-178z"/>
    <path class="fil5" style="mask:url(#id2)" d="M1230 519c-25,-55 -36,-118 -18,-180 20,-73 72,-128 134,-158 29,-14 20,-4 3,5 -57,29 -103,88 -122,156 -16,56 -14,117 7,166 13,31 5,32 -4,11z"/>
    <path class="fil6" style="mask:url(#id4)" d="M1751 460c-4,48 -18,97 -48,140 -35,49 -82,77 -127,84 -21,3 -13,-2 0,-4 42,-8 87,-41 119,-86 28,-39 46,-84 50,-127 2,-26 7,-25 6,-7z"/>
    <path class="fil7" d="M1424 631l27 -120c-9,-2 -14,-11 -15,-28 -2,-38 17,-100 32,-133 9,-17 16,-20 24,-18l26 -116c-14,-1 -27,2 -40,10 -86,49 -148,277 -86,376 8,13 19,21 32,29zm45 -115l29 6c6,2 11,8 9,14l-21 95c-2,7 -8,11 -15,9l-29 -7 27 -117zm67 -298l30 7c6,1 10,8 9,14l-22 95c-1,6 -8,10 -14,9l-30 -7 27 -118z"/>
   </g>
  </g>
 </g>
</svg>
